<?xml version="1.0" encoding="utf-8" standalone="no"?>
<!DOCTYPE svg PUBLIC "-//W3C//DTD SVG 1.1//EN"
  "http://www.w3.org/Graphics/SVG/1.1/DTD/svg11.dtd">
<svg xmlns:xlink="http://www.w3.org/1999/xlink" width="819.090625pt" height="682.474375pt" viewBox="0 0 819.090625 682.474375" xmlns="http://www.w3.org/2000/svg" version="1.1">
 <metadata>
  <rdf:RDF xmlns:dc="http://purl.org/dc/elements/1.1/" xmlns:cc="http://creativecommons.org/ns#" xmlns:rdf="http://www.w3.org/1999/02/22-rdf-syntax-ns#">
   <cc:Work>
    <dc:type rdf:resource="http://purl.org/dc/dcmitype/StillImage"/>
    <dc:date>2022-04-24T19:34:29.902755</dc:date>
    <dc:format>image/svg+xml</dc:format>
    <dc:creator>
     <cc:Agent>
      <dc:title>Matplotlib v3.5.1, https://matplotlib.org/</dc:title>
     </cc:Agent>
    </dc:creator>
   </cc:Work>
  </rdf:RDF>
 </metadata>
 <defs>
  <style type="text/css">*{stroke-linejoin: round; stroke-linecap: butt}</style>
 </defs>
 <g id="figure_1">
  <g id="patch_1">
   <path d="M 0 682.474375 
L 819.090625 682.474375 
L 819.090625 0 
L 0 0 
z
" style="fill: #ffffff"/>
  </g>
  <g id="axes_1">
   <g id="patch_2">
    <path d="M 43.78125 305.218125 
L 690.34375 305.218125 
L 690.34375 22.318125 
L 43.78125 22.318125 
z
" style="fill: #ffffff"/>
   </g>
   <g id="matplotlib.axis_1">
    <g id="xtick_1">
     <g id="line2d_1">
      <path d="M 66.078132 305.218125 
L 66.078132 22.318125 
" clip-path="url(#p00d2af5210)" style="fill: none; stroke: #b0b0b0; stroke-width: 0.8; stroke-linecap: square"/>
     </g>
     <g id="line2d_2">
      <defs>
       <path id="m0b1e9e9dd7" d="M 0 0 
L 0 3.5 
" style="stroke: #000000; stroke-width: 0.8"/>
      </defs>
      <g>
       <use xlink:href="#m0b1e9e9dd7" x="66.078132" y="305.218125" style="stroke: #000000; stroke-width: 0.8"/>
      </g>
     </g>
     <g id="text_1">
      <!-- 1.0 -->
      <g transform="translate(58.12657 319.816562)scale(0.1 -0.1)">
       <defs>
        <path id="DejaVuSans-31" d="M 794 531 
L 1825 531 
L 1825 4091 
L 703 3866 
L 703 4441 
L 1819 4666 
L 2450 4666 
L 2450 531 
L 3481 531 
L 3481 0 
L 794 0 
L 794 531 
z
" transform="scale(0.015625)"/>
        <path id="DejaVuSans-2e" d="M 684 794 
L 1344 794 
L 1344 0 
L 684 0 
L 684 794 
z
" transform="scale(0.015625)"/>
        <path id="DejaVuSans-30" d="M 2034 4250 
Q 1547 4250 1301 3770 
Q 1056 3291 1056 2328 
Q 1056 1369 1301 889 
Q 1547 409 2034 409 
Q 2525 409 2770 889 
Q 3016 1369 3016 2328 
Q 3016 3291 2770 3770 
Q 2525 4250 2034 4250 
z
M 2034 4750 
Q 2819 4750 3233 4129 
Q 3647 3509 3647 2328 
Q 3647 1150 3233 529 
Q 2819 -91 2034 -91 
Q 1250 -91 836 529 
Q 422 1150 422 2328 
Q 422 3509 836 4129 
Q 1250 4750 2034 4750 
z
" transform="scale(0.015625)"/>
       </defs>
       <use xlink:href="#DejaVuSans-31"/>
       <use xlink:href="#DejaVuSans-2e" x="63.623047"/>
       <use xlink:href="#DejaVuSans-30" x="95.410156"/>
      </g>
     </g>
    </g>
    <g id="xtick_2">
     <g id="line2d_3">
      <path d="M 185.319041 305.218125 
L 185.319041 22.318125 
" clip-path="url(#p00d2af5210)" style="fill: none; stroke: #b0b0b0; stroke-width: 0.8; stroke-linecap: square"/>
     </g>
     <g id="line2d_4">
      <g>
       <use xlink:href="#m0b1e9e9dd7" x="185.319041" y="305.218125" style="stroke: #000000; stroke-width: 0.8"/>
      </g>
     </g>
     <g id="text_2">
      <!-- 1.2 -->
      <g transform="translate(177.367478 319.816562)scale(0.1 -0.1)">
       <defs>
        <path id="DejaVuSans-32" d="M 1228 531 
L 3431 531 
L 3431 0 
L 469 0 
L 469 531 
Q 828 903 1448 1529 
Q 2069 2156 2228 2338 
Q 2531 2678 2651 2914 
Q 2772 3150 2772 3378 
Q 2772 3750 2511 3984 
Q 2250 4219 1831 4219 
Q 1534 4219 1204 4116 
Q 875 4013 500 3803 
L 500 4441 
Q 881 4594 1212 4672 
Q 1544 4750 1819 4750 
Q 2544 4750 2975 4387 
Q 3406 4025 3406 3419 
Q 3406 3131 3298 2873 
Q 3191 2616 2906 2266 
Q 2828 2175 2409 1742 
Q 1991 1309 1228 531 
z
" transform="scale(0.015625)"/>
       </defs>
       <use xlink:href="#DejaVuSans-31"/>
       <use xlink:href="#DejaVuSans-2e" x="63.623047"/>
       <use xlink:href="#DejaVuSans-32" x="95.410156"/>
      </g>
     </g>
    </g>
    <g id="xtick_3">
     <g id="line2d_5">
      <path d="M 304.559949 305.218125 
L 304.559949 22.318125 
" clip-path="url(#p00d2af5210)" style="fill: none; stroke: #b0b0b0; stroke-width: 0.8; stroke-linecap: square"/>
     </g>
     <g id="line2d_6">
      <g>
       <use xlink:href="#m0b1e9e9dd7" x="304.559949" y="305.218125" style="stroke: #000000; stroke-width: 0.8"/>
      </g>
     </g>
     <g id="text_3">
      <!-- 1.4 -->
      <g transform="translate(296.608386 319.816562)scale(0.1 -0.1)">
       <defs>
        <path id="DejaVuSans-34" d="M 2419 4116 
L 825 1625 
L 2419 1625 
L 2419 4116 
z
M 2253 4666 
L 3047 4666 
L 3047 1625 
L 3713 1625 
L 3713 1100 
L 3047 1100 
L 3047 0 
L 2419 0 
L 2419 1100 
L 313 1100 
L 313 1709 
L 2253 4666 
z
" transform="scale(0.015625)"/>
       </defs>
       <use xlink:href="#DejaVuSans-31"/>
       <use xlink:href="#DejaVuSans-2e" x="63.623047"/>
       <use xlink:href="#DejaVuSans-34" x="95.410156"/>
      </g>
     </g>
    </g>
    <g id="xtick_4">
     <g id="line2d_7">
      <path d="M 423.800857 305.218125 
L 423.800857 22.318125 
" clip-path="url(#p00d2af5210)" style="fill: none; stroke: #b0b0b0; stroke-width: 0.8; stroke-linecap: square"/>
     </g>
     <g id="line2d_8">
      <g>
       <use xlink:href="#m0b1e9e9dd7" x="423.800857" y="305.218125" style="stroke: #000000; stroke-width: 0.8"/>
      </g>
     </g>
     <g id="text_4">
      <!-- 1.6 -->
      <g transform="translate(415.849294 319.816562)scale(0.1 -0.1)">
       <defs>
        <path id="DejaVuSans-36" d="M 2113 2584 
Q 1688 2584 1439 2293 
Q 1191 2003 1191 1497 
Q 1191 994 1439 701 
Q 1688 409 2113 409 
Q 2538 409 2786 701 
Q 3034 994 3034 1497 
Q 3034 2003 2786 2293 
Q 2538 2584 2113 2584 
z
M 3366 4563 
L 3366 3988 
Q 3128 4100 2886 4159 
Q 2644 4219 2406 4219 
Q 1781 4219 1451 3797 
Q 1122 3375 1075 2522 
Q 1259 2794 1537 2939 
Q 1816 3084 2150 3084 
Q 2853 3084 3261 2657 
Q 3669 2231 3669 1497 
Q 3669 778 3244 343 
Q 2819 -91 2113 -91 
Q 1303 -91 875 529 
Q 447 1150 447 2328 
Q 447 3434 972 4092 
Q 1497 4750 2381 4750 
Q 2619 4750 2861 4703 
Q 3103 4656 3366 4563 
z
" transform="scale(0.015625)"/>
       </defs>
       <use xlink:href="#DejaVuSans-31"/>
       <use xlink:href="#DejaVuSans-2e" x="63.623047"/>
       <use xlink:href="#DejaVuSans-36" x="95.410156"/>
      </g>
     </g>
    </g>
    <g id="xtick_5">
     <g id="line2d_9">
      <path d="M 543.041765 305.218125 
L 543.041765 22.318125 
" clip-path="url(#p00d2af5210)" style="fill: none; stroke: #b0b0b0; stroke-width: 0.8; stroke-linecap: square"/>
     </g>
     <g id="line2d_10">
      <g>
       <use xlink:href="#m0b1e9e9dd7" x="543.041765" y="305.218125" style="stroke: #000000; stroke-width: 0.8"/>
      </g>
     </g>
     <g id="text_5">
      <!-- 1.8 -->
      <g transform="translate(535.090203 319.816562)scale(0.1 -0.1)">
       <defs>
        <path id="DejaVuSans-38" d="M 2034 2216 
Q 1584 2216 1326 1975 
Q 1069 1734 1069 1313 
Q 1069 891 1326 650 
Q 1584 409 2034 409 
Q 2484 409 2743 651 
Q 3003 894 3003 1313 
Q 3003 1734 2745 1975 
Q 2488 2216 2034 2216 
z
M 1403 2484 
Q 997 2584 770 2862 
Q 544 3141 544 3541 
Q 544 4100 942 4425 
Q 1341 4750 2034 4750 
Q 2731 4750 3128 4425 
Q 3525 4100 3525 3541 
Q 3525 3141 3298 2862 
Q 3072 2584 2669 2484 
Q 3125 2378 3379 2068 
Q 3634 1759 3634 1313 
Q 3634 634 3220 271 
Q 2806 -91 2034 -91 
Q 1263 -91 848 271 
Q 434 634 434 1313 
Q 434 1759 690 2068 
Q 947 2378 1403 2484 
z
M 1172 3481 
Q 1172 3119 1398 2916 
Q 1625 2713 2034 2713 
Q 2441 2713 2670 2916 
Q 2900 3119 2900 3481 
Q 2900 3844 2670 4047 
Q 2441 4250 2034 4250 
Q 1625 4250 1398 4047 
Q 1172 3844 1172 3481 
z
" transform="scale(0.015625)"/>
       </defs>
       <use xlink:href="#DejaVuSans-31"/>
       <use xlink:href="#DejaVuSans-2e" x="63.623047"/>
       <use xlink:href="#DejaVuSans-38" x="95.410156"/>
      </g>
     </g>
    </g>
    <g id="xtick_6">
     <g id="line2d_11">
      <path d="M 662.282673 305.218125 
L 662.282673 22.318125 
" clip-path="url(#p00d2af5210)" style="fill: none; stroke: #b0b0b0; stroke-width: 0.8; stroke-linecap: square"/>
     </g>
     <g id="line2d_12">
      <g>
       <use xlink:href="#m0b1e9e9dd7" x="662.282673" y="305.218125" style="stroke: #000000; stroke-width: 0.8"/>
      </g>
     </g>
     <g id="text_6">
      <!-- 2.0 -->
      <g transform="translate(654.331111 319.816562)scale(0.1 -0.1)">
       <use xlink:href="#DejaVuSans-32"/>
       <use xlink:href="#DejaVuSans-2e" x="63.623047"/>
       <use xlink:href="#DejaVuSans-30" x="95.410156"/>
      </g>
     </g>
    </g>
    <g id="text_7">
     <!-- 1e11 -->
     <g transform="translate(665.103125 332.494687)scale(0.1 -0.1)">
      <defs>
       <path id="DejaVuSans-65" d="M 3597 1894 
L 3597 1613 
L 953 1613 
Q 991 1019 1311 708 
Q 1631 397 2203 397 
Q 2534 397 2845 478 
Q 3156 559 3463 722 
L 3463 178 
Q 3153 47 2828 -22 
Q 2503 -91 2169 -91 
Q 1331 -91 842 396 
Q 353 884 353 1716 
Q 353 2575 817 3079 
Q 1281 3584 2069 3584 
Q 2775 3584 3186 3129 
Q 3597 2675 3597 1894 
z
M 3022 2063 
Q 3016 2534 2758 2815 
Q 2500 3097 2075 3097 
Q 1594 3097 1305 2825 
Q 1016 2553 972 2059 
L 3022 2063 
z
" transform="scale(0.015625)"/>
      </defs>
      <use xlink:href="#DejaVuSans-31"/>
      <use xlink:href="#DejaVuSans-65" x="63.623047"/>
      <use xlink:href="#DejaVuSans-31" x="125.146484"/>
      <use xlink:href="#DejaVuSans-31" x="188.769531"/>
     </g>
    </g>
   </g>
   <g id="matplotlib.axis_2">
    <g id="ytick_1">
     <g id="line2d_13">
      <path d="M 43.78125 292.359034 
L 690.34375 292.359034 
" clip-path="url(#p00d2af5210)" style="fill: none; stroke: #b0b0b0; stroke-width: 0.8; stroke-linecap: square"/>
     </g>
     <g id="line2d_14">
      <defs>
       <path id="m1947464ec6" d="M 0 0 
L -3.5 0 
" style="stroke: #000000; stroke-width: 0.8"/>
      </defs>
      <g>
       <use xlink:href="#m1947464ec6" x="43.78125" y="292.359034" style="stroke: #000000; stroke-width: 0.8"/>
      </g>
     </g>
     <g id="text_8">
      <!-- 0.0 -->
      <g transform="translate(20.878125 296.158253)scale(0.1 -0.1)">
       <use xlink:href="#DejaVuSans-30"/>
       <use xlink:href="#DejaVuSans-2e" x="63.623047"/>
       <use xlink:href="#DejaVuSans-30" x="95.410156"/>
      </g>
     </g>
    </g>
    <g id="ytick_2">
     <g id="line2d_15">
      <path d="M 43.78125 240.92267 
L 690.34375 240.92267 
" clip-path="url(#p00d2af5210)" style="fill: none; stroke: #b0b0b0; stroke-width: 0.8; stroke-linecap: square"/>
     </g>
     <g id="line2d_16">
      <g>
       <use xlink:href="#m1947464ec6" x="43.78125" y="240.92267" style="stroke: #000000; stroke-width: 0.8"/>
      </g>
     </g>
     <g id="text_9">
      <!-- 0.2 -->
      <g transform="translate(20.878125 244.721889)scale(0.1 -0.1)">
       <use xlink:href="#DejaVuSans-30"/>
       <use xlink:href="#DejaVuSans-2e" x="63.623047"/>
       <use xlink:href="#DejaVuSans-32" x="95.410156"/>
      </g>
     </g>
    </g>
    <g id="ytick_3">
     <g id="line2d_17">
      <path d="M 43.78125 189.486307 
L 690.34375 189.486307 
" clip-path="url(#p00d2af5210)" style="fill: none; stroke: #b0b0b0; stroke-width: 0.8; stroke-linecap: square"/>
     </g>
     <g id="line2d_18">
      <g>
       <use xlink:href="#m1947464ec6" x="43.78125" y="189.486307" style="stroke: #000000; stroke-width: 0.8"/>
      </g>
     </g>
     <g id="text_10">
      <!-- 0.4 -->
      <g transform="translate(20.878125 193.285526)scale(0.1 -0.1)">
       <use xlink:href="#DejaVuSans-30"/>
       <use xlink:href="#DejaVuSans-2e" x="63.623047"/>
       <use xlink:href="#DejaVuSans-34" x="95.410156"/>
      </g>
     </g>
    </g>
    <g id="ytick_4">
     <g id="line2d_19">
      <path d="M 43.78125 138.049943 
L 690.34375 138.049943 
" clip-path="url(#p00d2af5210)" style="fill: none; stroke: #b0b0b0; stroke-width: 0.8; stroke-linecap: square"/>
     </g>
     <g id="line2d_20">
      <g>
       <use xlink:href="#m1947464ec6" x="43.78125" y="138.049943" style="stroke: #000000; stroke-width: 0.8"/>
      </g>
     </g>
     <g id="text_11">
      <!-- 0.6 -->
      <g transform="translate(20.878125 141.849162)scale(0.1 -0.1)">
       <use xlink:href="#DejaVuSans-30"/>
       <use xlink:href="#DejaVuSans-2e" x="63.623047"/>
       <use xlink:href="#DejaVuSans-36" x="95.410156"/>
      </g>
     </g>
    </g>
    <g id="ytick_5">
     <g id="line2d_21">
      <path d="M 43.78125 86.61358 
L 690.34375 86.61358 
" clip-path="url(#p00d2af5210)" style="fill: none; stroke: #b0b0b0; stroke-width: 0.8; stroke-linecap: square"/>
     </g>
     <g id="line2d_22">
      <g>
       <use xlink:href="#m1947464ec6" x="43.78125" y="86.61358" style="stroke: #000000; stroke-width: 0.8"/>
      </g>
     </g>
     <g id="text_12">
      <!-- 0.8 -->
      <g transform="translate(20.878125 90.412798)scale(0.1 -0.1)">
       <use xlink:href="#DejaVuSans-30"/>
       <use xlink:href="#DejaVuSans-2e" x="63.623047"/>
       <use xlink:href="#DejaVuSans-38" x="95.410156"/>
      </g>
     </g>
    </g>
    <g id="ytick_6">
     <g id="line2d_23">
      <path d="M 43.78125 35.177216 
L 690.34375 35.177216 
" clip-path="url(#p00d2af5210)" style="fill: none; stroke: #b0b0b0; stroke-width: 0.8; stroke-linecap: square"/>
     </g>
     <g id="line2d_24">
      <g>
       <use xlink:href="#m1947464ec6" x="43.78125" y="35.177216" style="stroke: #000000; stroke-width: 0.8"/>
      </g>
     </g>
     <g id="text_13">
      <!-- 1.0 -->
      <g transform="translate(20.878125 38.976435)scale(0.1 -0.1)">
       <use xlink:href="#DejaVuSans-31"/>
       <use xlink:href="#DejaVuSans-2e" x="63.623047"/>
       <use xlink:href="#DejaVuSans-30" x="95.410156"/>
      </g>
     </g>
    </g>
    <g id="text_14">
     <!-- Profile (arb. unit) -->
     <g transform="translate(14.798438 205.961875)rotate(-90)scale(0.1 -0.1)">
      <defs>
       <path id="DejaVuSans-50" d="M 1259 4147 
L 1259 2394 
L 2053 2394 
Q 2494 2394 2734 2622 
Q 2975 2850 2975 3272 
Q 2975 3691 2734 3919 
Q 2494 4147 2053 4147 
L 1259 4147 
z
M 628 4666 
L 2053 4666 
Q 2838 4666 3239 4311 
Q 3641 3956 3641 3272 
Q 3641 2581 3239 2228 
Q 2838 1875 2053 1875 
L 1259 1875 
L 1259 0 
L 628 0 
L 628 4666 
z
" transform="scale(0.015625)"/>
       <path id="DejaVuSans-72" d="M 2631 2963 
Q 2534 3019 2420 3045 
Q 2306 3072 2169 3072 
Q 1681 3072 1420 2755 
Q 1159 2438 1159 1844 
L 1159 0 
L 581 0 
L 581 3500 
L 1159 3500 
L 1159 2956 
Q 1341 3275 1631 3429 
Q 1922 3584 2338 3584 
Q 2397 3584 2469 3576 
Q 2541 3569 2628 3553 
L 2631 2963 
z
" transform="scale(0.015625)"/>
       <path id="DejaVuSans-6f" d="M 1959 3097 
Q 1497 3097 1228 2736 
Q 959 2375 959 1747 
Q 959 1119 1226 758 
Q 1494 397 1959 397 
Q 2419 397 2687 759 
Q 2956 1122 2956 1747 
Q 2956 2369 2687 2733 
Q 2419 3097 1959 3097 
z
M 1959 3584 
Q 2709 3584 3137 3096 
Q 3566 2609 3566 1747 
Q 3566 888 3137 398 
Q 2709 -91 1959 -91 
Q 1206 -91 779 398 
Q 353 888 353 1747 
Q 353 2609 779 3096 
Q 1206 3584 1959 3584 
z
" transform="scale(0.015625)"/>
       <path id="DejaVuSans-66" d="M 2375 4863 
L 2375 4384 
L 1825 4384 
Q 1516 4384 1395 4259 
Q 1275 4134 1275 3809 
L 1275 3500 
L 2222 3500 
L 2222 3053 
L 1275 3053 
L 1275 0 
L 697 0 
L 697 3053 
L 147 3053 
L 147 3500 
L 697 3500 
L 697 3744 
Q 697 4328 969 4595 
Q 1241 4863 1831 4863 
L 2375 4863 
z
" transform="scale(0.015625)"/>
       <path id="DejaVuSans-69" d="M 603 3500 
L 1178 3500 
L 1178 0 
L 603 0 
L 603 3500 
z
M 603 4863 
L 1178 4863 
L 1178 4134 
L 603 4134 
L 603 4863 
z
" transform="scale(0.015625)"/>
       <path id="DejaVuSans-6c" d="M 603 4863 
L 1178 4863 
L 1178 0 
L 603 0 
L 603 4863 
z
" transform="scale(0.015625)"/>
       <path id="DejaVuSans-20" transform="scale(0.015625)"/>
       <path id="DejaVuSans-28" d="M 1984 4856 
Q 1566 4138 1362 3434 
Q 1159 2731 1159 2009 
Q 1159 1288 1364 580 
Q 1569 -128 1984 -844 
L 1484 -844 
Q 1016 -109 783 600 
Q 550 1309 550 2009 
Q 550 2706 781 3412 
Q 1013 4119 1484 4856 
L 1984 4856 
z
" transform="scale(0.015625)"/>
       <path id="DejaVuSans-61" d="M 2194 1759 
Q 1497 1759 1228 1600 
Q 959 1441 959 1056 
Q 959 750 1161 570 
Q 1363 391 1709 391 
Q 2188 391 2477 730 
Q 2766 1069 2766 1631 
L 2766 1759 
L 2194 1759 
z
M 3341 1997 
L 3341 0 
L 2766 0 
L 2766 531 
Q 2569 213 2275 61 
Q 1981 -91 1556 -91 
Q 1019 -91 701 211 
Q 384 513 384 1019 
Q 384 1609 779 1909 
Q 1175 2209 1959 2209 
L 2766 2209 
L 2766 2266 
Q 2766 2663 2505 2880 
Q 2244 3097 1772 3097 
Q 1472 3097 1187 3025 
Q 903 2953 641 2809 
L 641 3341 
Q 956 3463 1253 3523 
Q 1550 3584 1831 3584 
Q 2591 3584 2966 3190 
Q 3341 2797 3341 1997 
z
" transform="scale(0.015625)"/>
       <path id="DejaVuSans-62" d="M 3116 1747 
Q 3116 2381 2855 2742 
Q 2594 3103 2138 3103 
Q 1681 3103 1420 2742 
Q 1159 2381 1159 1747 
Q 1159 1113 1420 752 
Q 1681 391 2138 391 
Q 2594 391 2855 752 
Q 3116 1113 3116 1747 
z
M 1159 2969 
Q 1341 3281 1617 3432 
Q 1894 3584 2278 3584 
Q 2916 3584 3314 3078 
Q 3713 2572 3713 1747 
Q 3713 922 3314 415 
Q 2916 -91 2278 -91 
Q 1894 -91 1617 61 
Q 1341 213 1159 525 
L 1159 0 
L 581 0 
L 581 4863 
L 1159 4863 
L 1159 2969 
z
" transform="scale(0.015625)"/>
       <path id="DejaVuSans-75" d="M 544 1381 
L 544 3500 
L 1119 3500 
L 1119 1403 
Q 1119 906 1312 657 
Q 1506 409 1894 409 
Q 2359 409 2629 706 
Q 2900 1003 2900 1516 
L 2900 3500 
L 3475 3500 
L 3475 0 
L 2900 0 
L 2900 538 
Q 2691 219 2414 64 
Q 2138 -91 1772 -91 
Q 1169 -91 856 284 
Q 544 659 544 1381 
z
M 1991 3584 
L 1991 3584 
z
" transform="scale(0.015625)"/>
       <path id="DejaVuSans-6e" d="M 3513 2113 
L 3513 0 
L 2938 0 
L 2938 2094 
Q 2938 2591 2744 2837 
Q 2550 3084 2163 3084 
Q 1697 3084 1428 2787 
Q 1159 2491 1159 1978 
L 1159 0 
L 581 0 
L 581 3500 
L 1159 3500 
L 1159 2956 
Q 1366 3272 1645 3428 
Q 1925 3584 2291 3584 
Q 2894 3584 3203 3211 
Q 3513 2838 3513 2113 
z
" transform="scale(0.015625)"/>
       <path id="DejaVuSans-74" d="M 1172 4494 
L 1172 3500 
L 2356 3500 
L 2356 3053 
L 1172 3053 
L 1172 1153 
Q 1172 725 1289 603 
Q 1406 481 1766 481 
L 2356 481 
L 2356 0 
L 1766 0 
Q 1100 0 847 248 
Q 594 497 594 1153 
L 594 3053 
L 172 3053 
L 172 3500 
L 594 3500 
L 594 4494 
L 1172 4494 
z
" transform="scale(0.015625)"/>
       <path id="DejaVuSans-29" d="M 513 4856 
L 1013 4856 
Q 1481 4119 1714 3412 
Q 1947 2706 1947 2009 
Q 1947 1309 1714 600 
Q 1481 -109 1013 -844 
L 513 -844 
Q 928 -128 1133 580 
Q 1338 1288 1338 2009 
Q 1338 2731 1133 3434 
Q 928 4138 513 4856 
z
" transform="scale(0.015625)"/>
      </defs>
      <use xlink:href="#DejaVuSans-50"/>
      <use xlink:href="#DejaVuSans-72" x="58.552734"/>
      <use xlink:href="#DejaVuSans-6f" x="97.416016"/>
      <use xlink:href="#DejaVuSans-66" x="158.597656"/>
      <use xlink:href="#DejaVuSans-69" x="193.802734"/>
      <use xlink:href="#DejaVuSans-6c" x="221.585938"/>
      <use xlink:href="#DejaVuSans-65" x="249.369141"/>
      <use xlink:href="#DejaVuSans-20" x="310.892578"/>
      <use xlink:href="#DejaVuSans-28" x="342.679688"/>
      <use xlink:href="#DejaVuSans-61" x="381.693359"/>
      <use xlink:href="#DejaVuSans-72" x="442.972656"/>
      <use xlink:href="#DejaVuSans-62" x="484.085938"/>
      <use xlink:href="#DejaVuSans-2e" x="547.5625"/>
      <use xlink:href="#DejaVuSans-20" x="579.349609"/>
      <use xlink:href="#DejaVuSans-75" x="611.136719"/>
      <use xlink:href="#DejaVuSans-6e" x="674.515625"/>
      <use xlink:href="#DejaVuSans-69" x="737.894531"/>
      <use xlink:href="#DejaVuSans-74" x="765.677734"/>
      <use xlink:href="#DejaVuSans-29" x="804.886719"/>
     </g>
    </g>
   </g>
   <g id="line2d_25">
    <path d="M 73.170455 49.078314 
L 74.374318 50.78017 
L 76.489312 49.639363 
L 78.471564 44.232931 
L 78.984811 52.147688 
L 79.479836 66.716128 
L 80.334242 61.118429 
L 81.789711 47.756819 
L 83.133829 42.799443 
L 85.356908 35.177216 
L 85.407659 53.816492 
L 127.884003 80.019356 
L 133.074443 69.249233 
L 135.468947 84.358319 
L 135.546314 76.733683 
L 136.509755 73.250436 
L 136.65327 68.658718 
L 136.672004 69.726321 
L 137.004272 84.032681 
L 137.132554 81.100249 
L 140.412232 85.675291 
L 142.828211 76.339398 
L 178.656551 105.699428 
L 178.659746 102.111331 
L 179.104109 103.583462 
L 180.042808 118.871804 
L 181.685174 114.691822 
L 182.092863 102.403536 
L 184.007732 120.498122 
L 184.028919 99.419874 
L 184.10978 122.161864 
L 184.251623 125.362 
L 185.367197 113.282164 
L 185.820796 122.883127 
L 189.200458 129.871648 
L 190.795669 134.16264 
L 190.974545 112.267962 
L 192.516986 113.134369 
L 228.6985 156.712541 
L 233.778161 161.825344 
L 234.865852 166.822587 
L 242.834631 169.072258 
L 263.090569 189.955919 
L 267.824132 196.817498 
L 268.326849 194.406591 
L 268.805434 198.518419 
L 269.3271 194.759108 
L 270.572001 198.145866 
L 270.577365 191.406853 
L 270.735414 196.915978 
L 273.070806 195.01877 
L 275.709037 198.408234 
L 278.140781 203.650752 
L 280.820427 202.015035 
L 281.485255 205.458206 
L 281.923812 201.844985 
L 282.238791 205.172086 
L 282.320244 200.182826 
L 284.321321 205.386657 
L 284.67208 204.402482 
L 285.992891 204.159515 
L 286.976631 209.26887 
L 309.072785 216.916337 
L 311.423952 220.919617 
L 312.008012 223.260396 
L 312.476115 222.402976 
L 312.920162 225.375589 
L 315.202443 223.765709 
L 316.6145 224.334984 
L 317.009713 224.632463 
L 317.699375 221.765144 
L 318.213408 225.046703 
L 319.493287 218.337741 
L 319.577601 221.928229 
L 324.27727 232.020901 
L 324.433899 226.157721 
L 325.619371 230.417586 
L 326.87116 226.625465 
L 329.376973 228.027118 
L 332.630052 228.843445 
L 348.666725 196.057681 
L 348.742232 212.957844 
L 349.797873 192.432032 
L 354.388398 235.472552 
L 360.260798 231.255092 
L 360.364925 208.906389 
L 360.598407 204.474138 
L 368.503834 213.015107 
L 384.260741 228.380528 
L 387.363942 229.069401 
L 387.429451 229.784039 
L 389.47903 229.557258 
L 389.582149 228.371111 
L 389.756401 231.601415 
L 393.229547 240.351549 
L 393.953922 234.421174 
L 394.187965 242.251229 
L 394.43003 230.994976 
L 395.000334 230.129515 
L 396.523952 234.405812 
L 396.965216 234.536052 
L 397.077253 237.351764 
L 397.943515 238.823789 
L 398.086876 233.528402 
L 398.43967 245.841766 
L 400.069047 241.452612 
L 403.457109 242.810951 
L 403.723223 250.112084 
L 403.875571 240.72453 
L 407.002239 235.938057 
L 409.949398 246.19133 
L 418.887409 263.033058 
L 420.233263 255.483901 
L 424.671778 260.092597 
L 424.756514 266.378612 
L 425.369317 267.817111 
L 425.712623 267.368984 
L 427.60567 263.10403 
L 427.728909 254.782006 
L 428.705918 262.648268 
L 429.942907 254.358624 
L 431.7447 270.970207 
L 432.457607 257.362835 
L 432.943969 263.483998 
L 434.519314 271.834823 
L 435.279427 271.016981 
L 435.606939 257.857431 
L 436.436647 272.874574 
L 436.748825 258.707241 
L 438.310462 267.49058 
L 438.719125 265.129855 
L 438.836445 268.40346 
L 440.707061 264.285641 
L 443.06947 265.301011 
L 454.318626 277.701338 
L 458.996675 279.090704 
L 462.652801 279.441856 
L 466.133151 274.972481 
L 467.13593 274.929896 
L 467.447207 273.615966 
L 467.595266 274.235899 
L 470.540767 280.729531 
L 471.806632 276.792353 
L 473.158119 276.186579 
L 474.418008 281.922116 
L 481.155617 283.763708 
L 482.845859 279.0682 
L 483.589559 281.72807 
L 483.951763 278.861172 
L 484.18415 284.113119 
L 485.84889 284.906287 
L 486.827062 279.818997 
L 491.667328 279.036207 
L 493.024689 283.137783 
L 495.177881 283.033411 
L 496.852589 288.231752 
L 497.436724 289.098815 
L 498.869648 282.002129 
L 508.715103 285.144365 
L 509.188444 286.454612 
L 509.589106 289.667216 
L 512.980243 285.848998 
L 513.276341 286.18304 
L 513.60804 283.426805 
L 514.158852 285.175289 
L 514.848897 286.428102 
L 515.060895 290.355059 
L 516.421053 284.529035 
L 517.977204 290.184779 
L 518.300611 286.463894 
L 518.797781 290.21364 
L 519.968916 284.004102 
L 521.324636 286.410568 
L 521.612809 287.997483 
L 523.075369 290.547473 
L 523.548761 285.275174 
L 523.593068 288.85808 
L 525.453437 288.318715 
L 525.627273 290.350078 
L 526.689641 285.474481 
L 526.826767 288.230978 
L 527.157695 286.732852 
L 527.48395 285.802166 
L 528.024778 290.634495 
L 528.315651 286.791376 
L 529.096093 287.642425 
L 529.270412 288.506298 
L 530.268056 285.517903 
L 531.690132 288.826851 
L 532.871764 285.855944 
L 533.708644 290.714553 
L 534.487258 286.105355 
L 535.987351 289.287329 
L 537.384692 287.899222 
L 539.701471 289.924136 
L 540.033827 287.704975 
L 546.753878 289.754383 
L 547.957361 290.309899 
L 549.037664 288.561991 
L 549.298846 288.543869 
L 552.965318 291.394162 
L 553.888542 291.162514 
L 554.873936 291.280413 
L 555.529137 289.124778 
L 559.15491 290.7086 
L 561.027401 289.310236 
L 562.383086 290.879231 
L 563.246894 290.925886 
L 564.472353 289.49068 
L 566.183549 288.526756 
L 566.387586 291.410045 
L 570.540866 291.638528 
L 570.808825 289.6704 
L 571.422687 288.734119 
L 572.936429 289.919358 
L 573.684702 290.986929 
L 574.794819 291.550538 
L 576.664567 290.995678 
L 577.506248 291.080339 
L 578.632739 290.481364 
L 579.713202 291.637905 
L 580.607432 290.339913 
L 582.226676 290.448286 
L 582.265097 290.076293 
L 582.528567 289.513335 
L 582.553727 290.247884 
L 584.235146 291.813906 
L 584.29024 290.430987 
L 585.202084 291.721212 
L 585.590317 291.346974 
L 587.719462 290.411538 
L 587.970707 291.248269 
L 590.375098 291.446856 
L 590.711594 291.277171 
L 591.646219 291.84314 
L 592.160571 291.726515 
L 596.106353 289.513116 
L 599.681131 291.880204 
L 600.186572 291.796348 
L 600.948932 291.918195 
L 605.158214 291.537506 
L 606.850749 290.130869 
L 608.940774 291.571849 
L 614.560342 291.830401 
L 614.955255 291.53832 
L 616.755954 292.002288 
L 616.916169 291.573482 
L 623.146486 291.446904 
L 623.790458 291.987355 
L 624.18402 291.935704 
L 625.412925 291.96015 
L 625.677056 291.18602 
L 626.231683 292.039497 
L 626.824796 291.949972 
L 630.766386 291.745267 
L 631.333538 290.571432 
L 631.704013 291.611488 
L 633.396572 291.785405 
L 635.525143 291.711669 
L 639.406862 291.124606 
L 640.438613 291.842735 
L 640.720096 291.475952 
L 640.997889 292.003023 
L 641.158347 292.051814 
L 641.731423 292.071871 
L 641.923538 291.82654 
L 642.075437 292.064544 
L 642.184945 291.744584 
L 642.821543 291.385289 
L 643.063236 292.087894 
L 644.358271 292.0946 
L 647.813291 291.548764 
L 648.981698 291.70833 
L 651.523461 291.881717 
L 655.285498 291.881803 
L 657.324032 292.190791 
L 658.742578 291.562839 
L 659.455174 291.859101 
L 660.25521 291.618167 
L 660.624464 291.869702 
L 660.749021 291.547955 
L 660.954545 292.196782 
L 660.954545 292.196782 
" clip-path="url(#p00d2af5210)" style="fill: none; stroke: #1f77b4; stroke-width: 1.5; stroke-linecap: square"/>
   </g>
   <g id="line2d_26">
    <path d="M 73.170455 162.298615 
L 85.407659 159.684536 
L 142.828211 147.251551 
L 282.320244 117.10659 
L 285.992891 116.270159 
L 286.976631 116.091258 
L 309.072785 111.369718 
L 312.008012 110.642453 
L 312.920162 110.5745 
L 315.202443 109.929252 
L 317.699375 109.534612 
L 318.213408 109.345874 
L 319.577601 108.950068 
L 329.376973 107.02727 
L 332.630052 106.278261 
L 354.388398 101.652628 
L 360.260798 100.216964 
L 360.364925 100.337727 
L 360.598407 100.235295 
L 384.260741 94.961148 
L 389.756401 93.890728 
L 395.000334 92.735055 
L 396.523952 92.349322 
L 397.077253 92.350132 
L 403.457109 90.913741 
L 403.723223 90.883162 
L 403.875571 90.743687 
L 407.002239 90.211417 
L 420.233263 87.315923 
L 425.712623 86.01135 
L 427.728909 85.638045 
L 435.606939 84.044285 
L 436.436647 83.621636 
L 436.748825 83.708513 
L 438.310462 83.48645 
L 438.836445 83.227138 
L 443.06947 82.291276 
L 462.652801 78.232417 
L 466.133151 77.161424 
L 467.595266 77.078839 
L 470.540767 76.597799 
L 471.806632 75.982901 
L 474.418008 75.491532 
L 483.951763 73.512688 
L 484.18415 73.511326 
L 485.84889 73.012593 
L 486.827062 72.958083 
L 496.852589 70.57886 
L 497.436724 70.880526 
L 498.869648 70.377284 
L 509.188444 68.174512 
L 509.589106 68.398089 
L 515.060895 66.587482 
L 516.421053 66.501693 
L 523.593068 64.856622 
L 525.453437 64.566398 
L 525.627273 64.34843 
L 527.48395 63.939064 
L 528.024778 64.218024 
L 528.315651 63.821804 
L 529.270412 63.754829 
L 530.268056 63.405485 
L 531.690132 63.111622 
L 532.871764 63.071808 
L 533.708644 62.882499 
L 534.487258 62.560091 
L 537.384692 61.908455 
L 539.701471 61.340425 
L 540.033827 61.407326 
L 546.753878 60.039354 
L 547.957361 59.966342 
L 549.298846 59.360067 
L 553.888542 58.370966 
L 554.873936 58.629017 
L 555.529137 58.060958 
L 561.027401 56.831162 
L 562.383086 56.36532 
L 564.472353 56.147926 
L 566.183549 55.550855 
L 566.387586 55.931929 
L 570.540866 55.065324 
L 570.808825 54.817265 
L 571.422687 54.494351 
L 572.936429 54.088077 
L 573.684702 54.219315 
L 574.794819 53.678931 
L 576.664567 53.548022 
L 577.506248 53.362489 
L 578.632739 52.674347 
L 579.713202 52.731935 
L 582.226676 52.203214 
L 582.265097 52.439118 
L 582.528567 52.068176 
L 582.553727 52.22502 
L 584.235146 51.521955 
L 584.29024 51.682999 
L 585.202084 52.717622 
L 585.590317 51.485207 
L 587.719462 50.950794 
L 587.970707 51.352453 
L 590.375098 51.140062 
L 590.711594 50.548371 
L 591.646219 49.976998 
L 592.160571 50.664591 
L 596.106353 49.067503 
L 599.681131 49.048092 
L 600.186572 48.248755 
L 600.948932 48.231197 
L 605.158214 47.614142 
L 606.850749 46.635797 
L 608.940774 46.823085 
L 614.560342 44.80071 
L 614.955255 45.298613 
L 616.755954 44.89949 
L 616.916169 44.707901 
L 623.790458 43.369095 
L 624.18402 42.997691 
L 625.412925 43.362124 
L 625.677056 42.757974 
L 626.231683 44.524171 
L 626.824796 42.696905 
L 630.766386 41.236529 
L 631.333538 41.428451 
L 631.704013 41.781061 
L 633.396572 40.814058 
L 635.525143 40.779744 
L 639.406862 39.841873 
L 640.720096 39.797148 
L 641.158347 40.214281 
L 641.731423 41.11112 
L 642.075437 39.142134 
L 642.184945 40.156943 
L 642.821543 39.517906 
L 643.063236 39.091306 
L 644.358271 40.422456 
L 647.813291 37.941579 
L 648.981698 37.699794 
L 651.523461 37.019034 
L 655.285498 37.783641 
L 656.987448 36.180559 
L 657.324032 37.485243 
L 658.742578 35.738574 
L 659.455174 35.177216 
L 660.25521 35.902369 
L 660.624464 35.413134 
L 660.954545 36.292057 
L 660.954545 36.292057 
" clip-path="url(#p00d2af5210)" style="fill: none; stroke: #ff7f0e; stroke-width: 1.5; stroke-linecap: square"/>
   </g>
   <g id="line2d_27">
    <path d="M 73.170455 77.445937 
L 74.374318 81.945534 
L 76.489312 81.802245 
L 78.471564 69.875798 
L 78.984811 86.304609 
L 79.479836 83.867517 
L 79.805479 86.010081 
L 80.334242 85.495853 
L 81.789711 71.596315 
L 83.133829 72.279715 
L 85.356908 74.20335 
L 85.407659 98.536599 
L 127.884003 150.480599 
L 133.074443 115.240076 
L 135.468947 157.683236 
L 135.546314 123.282285 
L 136.509755 172.686524 
L 136.65327 113.865309 
L 136.672004 114.711743 
L 137.132554 183.518623 
L 140.115505 183.944938 
L 140.412232 176.402087 
L 142.828211 189.274093 
L 178.656551 233.96061 
L 178.659746 224.693297 
L 179.104109 228.066521 
L 180.042808 251.555479 
L 181.685174 249.536792 
L 182.092863 232.283476 
L 184.007732 250.833698 
L 184.028919 235.66858 
L 184.10978 254.671415 
L 184.251623 254.061314 
L 185.367197 244.505236 
L 185.820796 257.293502 
L 189.200458 257.114112 
L 190.795669 259.464903 
L 190.974545 244.542038 
L 192.516986 248.800496 
L 228.6985 266.111199 
L 233.778161 265.628515 
L 234.865852 267.166313 
L 242.834631 269.204304 
L 263.090569 276.472315 
L 267.824132 276.566117 
L 268.326849 277.873245 
L 268.805434 277.372435 
L 269.3271 277.671768 
L 270.572001 278.227782 
L 270.577365 276.531671 
L 270.735414 277.929808 
L 273.070806 277.02874 
L 275.709037 276.963861 
L 278.140781 282.607776 
L 280.820427 279.265715 
L 281.485255 280.638046 
L 281.923812 281.174201 
L 282.238791 281.836184 
L 282.320244 281.794624 
L 284.321321 281.04875 
L 284.67208 283.360431 
L 285.992891 282.454434 
L 286.976631 282.919713 
L 309.072785 290.006041 
L 311.423952 289.717377 
L 312.008012 289.315402 
L 312.476115 290.816576 
L 312.920162 288.628647 
L 315.202443 290.944466 
L 316.6145 289.734449 
L 317.009713 289.769658 
L 317.699375 289.524555 
L 318.213408 289.034776 
L 319.493287 291.546566 
L 319.577601 291.085807 
L 324.27727 291.666572 
L 324.321335 291.016931 
L 324.328056 292.032349 
L 324.433899 291.335128 
L 325.619371 291.709879 
L 326.87116 291.591437 
L 329.376973 291.092755 
L 332.630052 291.96963 
L 349.797873 292.358927 
L 398.43967 292.359034 
L 660.954545 292.359034 
L 660.954545 292.359034 
" clip-path="url(#p00d2af5210)" style="fill: none; stroke: #2ca02c; stroke-width: 1.5; stroke-linecap: square"/>
   </g>
   <g id="line2d_28">
    <path d="M 73.170455 284.80684 
L 74.374318 283.521105 
L 76.489312 283.443135 
L 78.471564 286.952081 
L 78.984811 281.960646 
L 79.479836 282.844097 
L 79.805479 282.173262 
L 80.334242 282.391605 
L 81.789711 286.528843 
L 85.356908 285.723393 
L 85.407659 277.821686 
L 127.884003 256.572375 
L 133.074443 271.422779 
L 135.468947 253.202881 
L 135.546314 268.37552 
L 136.509755 245.940789 
L 136.65327 272.109297 
L 136.672004 271.696509 
L 137.132554 240.426059 
L 140.115505 240.133626 
L 140.412232 244.075206 
L 142.828211 237.327151 
L 178.656551 209.424319 
L 178.659746 215.824955 
L 179.104109 213.48927 
L 180.042808 196.293668 
L 181.685174 197.959272 
L 182.092863 210.5873 
L 184.007732 196.848821 
L 184.028919 208.158678 
L 184.10978 193.508272 
L 184.251623 194.118347 
L 185.367197 201.494088 
L 185.820796 191.07487 
L 189.200458 191.319719 
L 190.795669 189.078827 
L 190.974545 201.502703 
L 192.516986 198.121327 
L 228.6985 182.182531 
L 233.778161 182.717575 
L 234.865852 180.857251 
L 242.834631 178.451751 
L 263.090569 172.538412 
L 267.824132 175.609394 
L 268.326849 175.453657 
L 268.805434 174.659032 
L 269.3271 175.625743 
L 270.572001 174.044296 
L 270.577365 175.148141 
L 270.735414 174.047176 
L 275.709037 177.93133 
L 278.140781 175.56263 
L 280.820427 176.843278 
L 281.485255 176.907972 
L 281.923812 176.35049 
L 282.238791 176.319361 
L 282.320244 177.122881 
L 284.321321 178.567925 
L 284.67208 177.657436 
L 285.992891 178.725646 
L 286.976631 177.805212 
L 309.072785 182.749409 
L 311.423952 180.77048 
L 312.008012 181.343686 
L 312.476115 180.715709 
L 312.920162 180.453847 
L 315.202443 180.510615 
L 316.6145 184.05998 
L 317.009713 182.373747 
L 317.699375 183.341035 
L 318.213408 181.460141 
L 319.493287 179.719546 
L 319.577601 179.197886 
L 324.27727 178.343312 
L 324.328056 176.131992 
L 324.433899 181.534915 
L 325.619371 180.115001 
L 326.87116 179.030364 
L 329.376973 181.812351 
L 332.630052 178.768563 
L 348.666725 199.797357 
L 348.742232 175.103088 
L 349.797873 199.392482 
L 354.388398 167.439431 
L 360.260798 172.191991 
L 360.364925 217.110315 
L 360.598407 188.190748 
L 368.503834 216.86977 
L 384.260741 185.118861 
L 387.363942 192.567916 
L 387.429451 182.099203 
L 389.47903 205.211988 
L 389.582149 210.790342 
L 389.756401 183.579255 
L 393.229547 229.993374 
L 393.953922 175.972245 
L 394.187965 232.054 
L 394.43003 200.417625 
L 395.000334 212.984689 
L 396.523952 217.52504 
L 397.012867 208.537674 
L 397.077253 224.174115 
L 397.943515 228.97778 
L 398.086876 187.160244 
L 398.43967 232.873398 
L 400.069047 227.311249 
L 403.457109 225.500718 
L 403.723223 232.609754 
L 403.875571 223.916062 
L 407.002239 213.675992 
L 409.949398 229.310638 
L 418.887409 235.414054 
L 420.233263 231.326747 
L 424.671778 232.846655 
L 424.756514 236.585393 
L 425.369317 237.565993 
L 425.712623 236.069675 
L 427.60567 234.231104 
L 427.728909 230.011283 
L 428.705918 233.232232 
L 429.942907 228.024303 
L 431.7447 238.473888 
L 432.457607 230.191406 
L 432.943969 234.648695 
L 434.519314 238.870327 
L 435.279427 238.931923 
L 435.606939 230.807859 
L 436.436647 241.281041 
L 436.748825 230.614931 
L 438.310462 234.877921 
L 438.719125 231.032756 
L 438.836445 234.203141 
L 440.707061 232.241835 
L 443.06947 233.214216 
L 454.318626 246.805258 
L 458.996675 246.640037 
L 462.652801 257.504626 
L 466.133151 235.096147 
L 467.13593 235.256239 
L 467.447207 234.48508 
L 467.595266 233.478847 
L 470.540767 260.076507 
L 471.806632 235.439124 
L 473.158119 236.131952 
L 474.418008 263.134541 
L 481.155617 270.321618 
L 482.845859 238.457727 
L 483.589559 244.689466 
L 483.951763 238.114262 
L 484.18415 267.270376 
L 485.84889 268.471843 
L 486.827062 239.69035 
L 491.667328 237.378978 
L 493.024689 249.441783 
L 495.177881 249.412482 
L 496.852589 277.373853 
L 497.436724 289.123823 
L 498.869648 240.295113 
L 508.715103 256.934197 
L 509.589106 289.644334 
L 512.980243 264.523006 
L 513.276341 266.887448 
L 513.60804 238.932547 
L 514.158852 265.355122 
L 514.848897 262.568409 
L 515.060895 288.171873 
L 516.421053 248.38114 
L 517.977204 288.68529 
L 518.300611 264.173341 
L 518.797781 289.762671 
L 519.968916 244.496834 
L 521.324636 256.753027 
L 521.612809 280.003597 
L 523.075369 289.4887 
L 523.548761 248.725729 
L 523.593068 282.396246 
L 525.453437 275.883284 
L 525.627273 286.727015 
L 526.689641 245.547014 
L 526.826767 275.577885 
L 527.48395 249.222579 
L 528.024778 289.485891 
L 528.315651 267.177414 
L 529.096093 271.489273 
L 529.270412 278.187859 
L 530.268056 249.294889 
L 531.690132 283.299889 
L 532.871764 255.187386 
L 533.708644 286.727701 
L 534.487258 251.534272 
L 535.987351 278.262964 
L 537.384692 272.09974 
L 539.701471 286.449569 
L 540.033827 257.285959 
L 546.753878 281.92401 
L 547.957361 284.47385 
L 549.037664 280.979237 
L 549.298846 273.231166 
L 552.965318 289.697287 
L 553.888542 287.328799 
L 554.873936 289.164016 
L 555.529137 275.65921 
L 559.15491 286.929534 
L 561.027401 279.374392 
L 562.383086 278.798939 
L 563.246894 287.134499 
L 564.472353 278.352752 
L 566.183549 261.18957 
L 566.387586 289.599602 
L 570.540866 290.277226 
L 570.808825 279.502314 
L 571.422687 261.818557 
L 573.684702 286.104009 
L 574.794819 290.635924 
L 576.664567 285.303126 
L 577.506248 286.989897 
L 578.632739 278.434305 
L 579.713202 288.819993 
L 580.607432 277.849791 
L 582.226676 279.763123 
L 582.265097 283.340166 
L 582.528567 272.731151 
L 582.553727 280.075092 
L 584.235146 290.77356 
L 584.29024 279.471971 
L 585.202084 289.946183 
L 585.590317 287.056689 
L 587.719462 279.215024 
L 587.970707 285.020812 
L 590.375098 284.380463 
L 590.711594 284.140324 
L 591.646219 290.46477 
L 592.160571 289.957234 
L 596.106353 272.048406 
L 599.681131 290.554137 
L 600.186572 288.663957 
L 600.948932 290.772293 
L 605.158214 287.279812 
L 606.850749 275.477454 
L 608.940774 286.97469 
L 614.560342 290.198061 
L 614.955255 285.894629 
L 616.755954 291.176878 
L 616.916169 285.306519 
L 623.146486 280.095697 
L 623.790458 290.864161 
L 624.18402 285.43874 
L 625.412925 290.2836 
L 625.677056 279.7678 
L 626.231683 289.682431 
L 626.824796 290.279421 
L 630.766386 286.898647 
L 631.333538 268.32202 
L 631.704013 285.468599 
L 633.396572 288.483602 
L 635.525143 285.000613 
L 639.406862 279.808287 
L 640.438613 288.721384 
L 640.720096 285.388356 
L 640.997889 290.293418 
L 641.158347 291.131013 
L 641.731423 290.195055 
L 641.923538 288.597606 
L 642.075437 290.29007 
L 642.184945 287.170353 
L 642.821543 281.189836 
L 643.063236 291.536708 
L 644.358271 291.376686 
L 647.813291 281.588039 
L 648.981698 288.219746 
L 651.523461 287.276972 
L 655.285498 288.049723 
L 656.987448 291.333582 
L 657.324032 291.600221 
L 658.742578 282.11903 
L 659.455174 287.441814 
L 660.25521 284.430976 
L 660.624464 288.359767 
L 660.749021 280.416431 
L 660.954545 290.711826 
L 660.954545 290.711826 
" clip-path="url(#p00d2af5210)" style="fill: none; stroke: #d62728; stroke-width: 1.5; stroke-linecap: square"/>
   </g>
   <g id="patch_3">
    <path d="M 43.78125 305.218125 
L 43.78125 22.318125 
" style="fill: none; stroke: #000000; stroke-width: 0.8; stroke-linejoin: miter; stroke-linecap: square"/>
   </g>
   <g id="patch_4">
    <path d="M 690.34375 305.218125 
L 690.34375 22.318125 
" style="fill: none; stroke: #000000; stroke-width: 0.8; stroke-linejoin: miter; stroke-linecap: square"/>
   </g>
   <g id="patch_5">
    <path d="M 43.78125 305.218125 
L 690.34375 305.218125 
" style="fill: none; stroke: #000000; stroke-width: 0.8; stroke-linejoin: miter; stroke-linecap: square"/>
   </g>
   <g id="patch_6">
    <path d="M 43.78125 22.318125 
L 690.34375 22.318125 
" style="fill: none; stroke: #000000; stroke-width: 0.8; stroke-linejoin: miter; stroke-linecap: square"/>
   </g>
   <g id="text_15">
    <!-- Profiles along the positive axis -->
    <g transform="translate(275.627188 16.318125)scale(0.12 -0.12)">
     <defs>
      <path id="DejaVuSans-73" d="M 2834 3397 
L 2834 2853 
Q 2591 2978 2328 3040 
Q 2066 3103 1784 3103 
Q 1356 3103 1142 2972 
Q 928 2841 928 2578 
Q 928 2378 1081 2264 
Q 1234 2150 1697 2047 
L 1894 2003 
Q 2506 1872 2764 1633 
Q 3022 1394 3022 966 
Q 3022 478 2636 193 
Q 2250 -91 1575 -91 
Q 1294 -91 989 -36 
Q 684 19 347 128 
L 347 722 
Q 666 556 975 473 
Q 1284 391 1588 391 
Q 1994 391 2212 530 
Q 2431 669 2431 922 
Q 2431 1156 2273 1281 
Q 2116 1406 1581 1522 
L 1381 1569 
Q 847 1681 609 1914 
Q 372 2147 372 2553 
Q 372 3047 722 3315 
Q 1072 3584 1716 3584 
Q 2034 3584 2315 3537 
Q 2597 3491 2834 3397 
z
" transform="scale(0.015625)"/>
      <path id="DejaVuSans-67" d="M 2906 1791 
Q 2906 2416 2648 2759 
Q 2391 3103 1925 3103 
Q 1463 3103 1205 2759 
Q 947 2416 947 1791 
Q 947 1169 1205 825 
Q 1463 481 1925 481 
Q 2391 481 2648 825 
Q 2906 1169 2906 1791 
z
M 3481 434 
Q 3481 -459 3084 -895 
Q 2688 -1331 1869 -1331 
Q 1566 -1331 1297 -1286 
Q 1028 -1241 775 -1147 
L 775 -588 
Q 1028 -725 1275 -790 
Q 1522 -856 1778 -856 
Q 2344 -856 2625 -561 
Q 2906 -266 2906 331 
L 2906 616 
Q 2728 306 2450 153 
Q 2172 0 1784 0 
Q 1141 0 747 490 
Q 353 981 353 1791 
Q 353 2603 747 3093 
Q 1141 3584 1784 3584 
Q 2172 3584 2450 3431 
Q 2728 3278 2906 2969 
L 2906 3500 
L 3481 3500 
L 3481 434 
z
" transform="scale(0.015625)"/>
      <path id="DejaVuSans-68" d="M 3513 2113 
L 3513 0 
L 2938 0 
L 2938 2094 
Q 2938 2591 2744 2837 
Q 2550 3084 2163 3084 
Q 1697 3084 1428 2787 
Q 1159 2491 1159 1978 
L 1159 0 
L 581 0 
L 581 4863 
L 1159 4863 
L 1159 2956 
Q 1366 3272 1645 3428 
Q 1925 3584 2291 3584 
Q 2894 3584 3203 3211 
Q 3513 2838 3513 2113 
z
" transform="scale(0.015625)"/>
      <path id="DejaVuSans-70" d="M 1159 525 
L 1159 -1331 
L 581 -1331 
L 581 3500 
L 1159 3500 
L 1159 2969 
Q 1341 3281 1617 3432 
Q 1894 3584 2278 3584 
Q 2916 3584 3314 3078 
Q 3713 2572 3713 1747 
Q 3713 922 3314 415 
Q 2916 -91 2278 -91 
Q 1894 -91 1617 61 
Q 1341 213 1159 525 
z
M 3116 1747 
Q 3116 2381 2855 2742 
Q 2594 3103 2138 3103 
Q 1681 3103 1420 2742 
Q 1159 2381 1159 1747 
Q 1159 1113 1420 752 
Q 1681 391 2138 391 
Q 2594 391 2855 752 
Q 3116 1113 3116 1747 
z
" transform="scale(0.015625)"/>
      <path id="DejaVuSans-76" d="M 191 3500 
L 800 3500 
L 1894 563 
L 2988 3500 
L 3597 3500 
L 2284 0 
L 1503 0 
L 191 3500 
z
" transform="scale(0.015625)"/>
      <path id="DejaVuSans-78" d="M 3513 3500 
L 2247 1797 
L 3578 0 
L 2900 0 
L 1881 1375 
L 863 0 
L 184 0 
L 1544 1831 
L 300 3500 
L 978 3500 
L 1906 2253 
L 2834 3500 
L 3513 3500 
z
" transform="scale(0.015625)"/>
     </defs>
     <use xlink:href="#DejaVuSans-50"/>
     <use xlink:href="#DejaVuSans-72" x="58.552734"/>
     <use xlink:href="#DejaVuSans-6f" x="97.416016"/>
     <use xlink:href="#DejaVuSans-66" x="158.597656"/>
     <use xlink:href="#DejaVuSans-69" x="193.802734"/>
     <use xlink:href="#DejaVuSans-6c" x="221.585938"/>
     <use xlink:href="#DejaVuSans-65" x="249.369141"/>
     <use xlink:href="#DejaVuSans-73" x="310.892578"/>
     <use xlink:href="#DejaVuSans-20" x="362.992188"/>
     <use xlink:href="#DejaVuSans-61" x="394.779297"/>
     <use xlink:href="#DejaVuSans-6c" x="456.058594"/>
     <use xlink:href="#DejaVuSans-6f" x="483.841797"/>
     <use xlink:href="#DejaVuSans-6e" x="545.023438"/>
     <use xlink:href="#DejaVuSans-67" x="608.402344"/>
     <use xlink:href="#DejaVuSans-20" x="671.878906"/>
     <use xlink:href="#DejaVuSans-74" x="703.666016"/>
     <use xlink:href="#DejaVuSans-68" x="742.875"/>
     <use xlink:href="#DejaVuSans-65" x="806.253906"/>
     <use xlink:href="#DejaVuSans-20" x="867.777344"/>
     <use xlink:href="#DejaVuSans-70" x="899.564453"/>
     <use xlink:href="#DejaVuSans-6f" x="963.041016"/>
     <use xlink:href="#DejaVuSans-73" x="1024.222656"/>
     <use xlink:href="#DejaVuSans-69" x="1076.322266"/>
     <use xlink:href="#DejaVuSans-74" x="1104.105469"/>
     <use xlink:href="#DejaVuSans-69" x="1143.314453"/>
     <use xlink:href="#DejaVuSans-76" x="1171.097656"/>
     <use xlink:href="#DejaVuSans-65" x="1230.277344"/>
     <use xlink:href="#DejaVuSans-20" x="1291.800781"/>
     <use xlink:href="#DejaVuSans-61" x="1323.587891"/>
     <use xlink:href="#DejaVuSans-78" x="1384.867188"/>
     <use xlink:href="#DejaVuSans-69" x="1444.046875"/>
     <use xlink:href="#DejaVuSans-73" x="1471.830078"/>
    </g>
   </g>
   <g id="legend_1">
    <g id="patch_7">
     <path d="M 729.671875 89.56375 
L 809.890625 89.56375 
Q 811.890625 89.56375 811.890625 87.56375 
L 811.890625 15.173125 
Q 811.890625 13.173125 809.890625 13.173125 
L 729.671875 13.173125 
Q 727.671875 13.173125 727.671875 15.173125 
L 727.671875 87.56375 
Q 727.671875 89.56375 729.671875 89.56375 
z
" style="fill: #ffffff; opacity: 0.8; stroke: #cccccc; stroke-linejoin: miter"/>
    </g>
    <g id="text_16">
     <!-- Time = 99.90 s -->
     <g transform="translate(731.671875 24.771562)scale(0.1 -0.1)">
      <defs>
       <path id="DejaVuSans-54" d="M -19 4666 
L 3928 4666 
L 3928 4134 
L 2272 4134 
L 2272 0 
L 1638 0 
L 1638 4134 
L -19 4134 
L -19 4666 
z
" transform="scale(0.015625)"/>
       <path id="DejaVuSans-6d" d="M 3328 2828 
Q 3544 3216 3844 3400 
Q 4144 3584 4550 3584 
Q 5097 3584 5394 3201 
Q 5691 2819 5691 2113 
L 5691 0 
L 5113 0 
L 5113 2094 
Q 5113 2597 4934 2840 
Q 4756 3084 4391 3084 
Q 3944 3084 3684 2787 
Q 3425 2491 3425 1978 
L 3425 0 
L 2847 0 
L 2847 2094 
Q 2847 2600 2669 2842 
Q 2491 3084 2119 3084 
Q 1678 3084 1418 2786 
Q 1159 2488 1159 1978 
L 1159 0 
L 581 0 
L 581 3500 
L 1159 3500 
L 1159 2956 
Q 1356 3278 1631 3431 
Q 1906 3584 2284 3584 
Q 2666 3584 2933 3390 
Q 3200 3197 3328 2828 
z
" transform="scale(0.015625)"/>
       <path id="DejaVuSans-3d" d="M 678 2906 
L 4684 2906 
L 4684 2381 
L 678 2381 
L 678 2906 
z
M 678 1631 
L 4684 1631 
L 4684 1100 
L 678 1100 
L 678 1631 
z
" transform="scale(0.015625)"/>
       <path id="DejaVuSans-39" d="M 703 97 
L 703 672 
Q 941 559 1184 500 
Q 1428 441 1663 441 
Q 2288 441 2617 861 
Q 2947 1281 2994 2138 
Q 2813 1869 2534 1725 
Q 2256 1581 1919 1581 
Q 1219 1581 811 2004 
Q 403 2428 403 3163 
Q 403 3881 828 4315 
Q 1253 4750 1959 4750 
Q 2769 4750 3195 4129 
Q 3622 3509 3622 2328 
Q 3622 1225 3098 567 
Q 2575 -91 1691 -91 
Q 1453 -91 1209 -44 
Q 966 3 703 97 
z
M 1959 2075 
Q 2384 2075 2632 2365 
Q 2881 2656 2881 3163 
Q 2881 3666 2632 3958 
Q 2384 4250 1959 4250 
Q 1534 4250 1286 3958 
Q 1038 3666 1038 3163 
Q 1038 2656 1286 2365 
Q 1534 2075 1959 2075 
z
" transform="scale(0.015625)"/>
      </defs>
      <use xlink:href="#DejaVuSans-54"/>
      <use xlink:href="#DejaVuSans-69" x="57.958984"/>
      <use xlink:href="#DejaVuSans-6d" x="85.742188"/>
      <use xlink:href="#DejaVuSans-65" x="183.154297"/>
      <use xlink:href="#DejaVuSans-20" x="244.677734"/>
      <use xlink:href="#DejaVuSans-3d" x="276.464844"/>
      <use xlink:href="#DejaVuSans-20" x="360.253906"/>
      <use xlink:href="#DejaVuSans-39" x="392.041016"/>
      <use xlink:href="#DejaVuSans-39" x="455.664062"/>
      <use xlink:href="#DejaVuSans-2e" x="519.287109"/>
      <use xlink:href="#DejaVuSans-39" x="551.074219"/>
      <use xlink:href="#DejaVuSans-30" x="614.697266"/>
      <use xlink:href="#DejaVuSans-20" x="678.320312"/>
      <use xlink:href="#DejaVuSans-73" x="710.107422"/>
     </g>
    </g>
    <g id="line2d_29">
     <path d="M 736.165625 35.949687 
L 746.165625 35.949687 
L 756.165625 35.949687 
" style="fill: none; stroke: #1f77b4; stroke-width: 1.5; stroke-linecap: square"/>
    </g>
    <g id="text_17">
     <!-- Density -->
     <g transform="translate(764.165625 39.449687)scale(0.1 -0.1)">
      <defs>
       <path id="DejaVuSans-44" d="M 1259 4147 
L 1259 519 
L 2022 519 
Q 2988 519 3436 956 
Q 3884 1394 3884 2338 
Q 3884 3275 3436 3711 
Q 2988 4147 2022 4147 
L 1259 4147 
z
M 628 4666 
L 1925 4666 
Q 3281 4666 3915 4102 
Q 4550 3538 4550 2338 
Q 4550 1131 3912 565 
Q 3275 0 1925 0 
L 628 0 
L 628 4666 
z
" transform="scale(0.015625)"/>
       <path id="DejaVuSans-79" d="M 2059 -325 
Q 1816 -950 1584 -1140 
Q 1353 -1331 966 -1331 
L 506 -1331 
L 506 -850 
L 844 -850 
Q 1081 -850 1212 -737 
Q 1344 -625 1503 -206 
L 1606 56 
L 191 3500 
L 800 3500 
L 1894 763 
L 2988 3500 
L 3597 3500 
L 2059 -325 
z
" transform="scale(0.015625)"/>
      </defs>
      <use xlink:href="#DejaVuSans-44"/>
      <use xlink:href="#DejaVuSans-65" x="77.001953"/>
      <use xlink:href="#DejaVuSans-6e" x="138.525391"/>
      <use xlink:href="#DejaVuSans-73" x="201.904297"/>
      <use xlink:href="#DejaVuSans-69" x="254.003906"/>
      <use xlink:href="#DejaVuSans-74" x="281.787109"/>
      <use xlink:href="#DejaVuSans-79" x="320.996094"/>
     </g>
    </g>
    <g id="line2d_30">
     <path d="M 736.165625 50.627813 
L 746.165625 50.627813 
L 756.165625 50.627813 
" style="fill: none; stroke: #ff7f0e; stroke-width: 1.5; stroke-linecap: square"/>
    </g>
    <g id="text_18">
     <!-- Velocity -->
     <g transform="translate(764.165625 54.127813)scale(0.1 -0.1)">
      <defs>
       <path id="DejaVuSans-56" d="M 1831 0 
L 50 4666 
L 709 4666 
L 2188 738 
L 3669 4666 
L 4325 4666 
L 2547 0 
L 1831 0 
z
" transform="scale(0.015625)"/>
       <path id="DejaVuSans-63" d="M 3122 3366 
L 3122 2828 
Q 2878 2963 2633 3030 
Q 2388 3097 2138 3097 
Q 1578 3097 1268 2742 
Q 959 2388 959 1747 
Q 959 1106 1268 751 
Q 1578 397 2138 397 
Q 2388 397 2633 464 
Q 2878 531 3122 666 
L 3122 134 
Q 2881 22 2623 -34 
Q 2366 -91 2075 -91 
Q 1284 -91 818 406 
Q 353 903 353 1747 
Q 353 2603 823 3093 
Q 1294 3584 2113 3584 
Q 2378 3584 2631 3529 
Q 2884 3475 3122 3366 
z
" transform="scale(0.015625)"/>
      </defs>
      <use xlink:href="#DejaVuSans-56"/>
      <use xlink:href="#DejaVuSans-65" x="60.658203"/>
      <use xlink:href="#DejaVuSans-6c" x="122.181641"/>
      <use xlink:href="#DejaVuSans-6f" x="149.964844"/>
      <use xlink:href="#DejaVuSans-63" x="211.146484"/>
      <use xlink:href="#DejaVuSans-69" x="266.126953"/>
      <use xlink:href="#DejaVuSans-74" x="293.910156"/>
      <use xlink:href="#DejaVuSans-79" x="333.119141"/>
     </g>
    </g>
    <g id="line2d_31">
     <path d="M 736.165625 65.305938 
L 746.165625 65.305938 
L 756.165625 65.305938 
" style="fill: none; stroke: #2ca02c; stroke-width: 1.5; stroke-linecap: square"/>
    </g>
    <g id="text_19">
     <!-- Ni56 -->
     <g transform="translate(764.165625 68.805938)scale(0.1 -0.1)">
      <defs>
       <path id="DejaVuSans-4e" d="M 628 4666 
L 1478 4666 
L 3547 763 
L 3547 4666 
L 4159 4666 
L 4159 0 
L 3309 0 
L 1241 3903 
L 1241 0 
L 628 0 
L 628 4666 
z
" transform="scale(0.015625)"/>
       <path id="DejaVuSans-35" d="M 691 4666 
L 3169 4666 
L 3169 4134 
L 1269 4134 
L 1269 2991 
Q 1406 3038 1543 3061 
Q 1681 3084 1819 3084 
Q 2600 3084 3056 2656 
Q 3513 2228 3513 1497 
Q 3513 744 3044 326 
Q 2575 -91 1722 -91 
Q 1428 -91 1123 -41 
Q 819 9 494 109 
L 494 744 
Q 775 591 1075 516 
Q 1375 441 1709 441 
Q 2250 441 2565 725 
Q 2881 1009 2881 1497 
Q 2881 1984 2565 2268 
Q 2250 2553 1709 2553 
Q 1456 2553 1204 2497 
Q 953 2441 691 2322 
L 691 4666 
z
" transform="scale(0.015625)"/>
      </defs>
      <use xlink:href="#DejaVuSans-4e"/>
      <use xlink:href="#DejaVuSans-69" x="74.804688"/>
      <use xlink:href="#DejaVuSans-35" x="102.587891"/>
      <use xlink:href="#DejaVuSans-36" x="166.210938"/>
     </g>
    </g>
    <g id="line2d_32">
     <path d="M 736.165625 79.984062 
L 746.165625 79.984062 
L 756.165625 79.984062 
" style="fill: none; stroke: #d62728; stroke-width: 1.5; stroke-linecap: square"/>
    </g>
    <g id="text_20">
     <!-- Si28 -->
     <g transform="translate(764.165625 83.484062)scale(0.1 -0.1)">
      <defs>
       <path id="DejaVuSans-53" d="M 3425 4513 
L 3425 3897 
Q 3066 4069 2747 4153 
Q 2428 4238 2131 4238 
Q 1616 4238 1336 4038 
Q 1056 3838 1056 3469 
Q 1056 3159 1242 3001 
Q 1428 2844 1947 2747 
L 2328 2669 
Q 3034 2534 3370 2195 
Q 3706 1856 3706 1288 
Q 3706 609 3251 259 
Q 2797 -91 1919 -91 
Q 1588 -91 1214 -16 
Q 841 59 441 206 
L 441 856 
Q 825 641 1194 531 
Q 1563 422 1919 422 
Q 2459 422 2753 634 
Q 3047 847 3047 1241 
Q 3047 1584 2836 1778 
Q 2625 1972 2144 2069 
L 1759 2144 
Q 1053 2284 737 2584 
Q 422 2884 422 3419 
Q 422 4038 858 4394 
Q 1294 4750 2059 4750 
Q 2388 4750 2728 4690 
Q 3069 4631 3425 4513 
z
" transform="scale(0.015625)"/>
      </defs>
      <use xlink:href="#DejaVuSans-53"/>
      <use xlink:href="#DejaVuSans-69" x="63.476562"/>
      <use xlink:href="#DejaVuSans-32" x="91.259766"/>
      <use xlink:href="#DejaVuSans-38" x="154.882812"/>
     </g>
    </g>
   </g>
  </g>
  <g id="axes_2">
   <g id="patch_8">
    <path d="M 43.78125 644.918125 
L 690.34375 644.918125 
L 690.34375 362.018125 
L 43.78125 362.018125 
z
" style="fill: #ffffff"/>
   </g>
   <g id="matplotlib.axis_3">
    <g id="xtick_7">
     <g id="line2d_33">
      <path d="M 67.468975 644.918125 
L 67.468975 362.018125 
" clip-path="url(#p42ea50d02d)" style="fill: none; stroke: #b0b0b0; stroke-width: 0.8; stroke-linecap: square"/>
     </g>
     <g id="line2d_34">
      <g>
       <use xlink:href="#m0b1e9e9dd7" x="67.468975" y="644.918125" style="stroke: #000000; stroke-width: 0.8"/>
      </g>
     </g>
     <g id="text_21">
      <!-- 1.0 -->
      <g transform="translate(59.517412 659.516562)scale(0.1 -0.1)">
       <use xlink:href="#DejaVuSans-31"/>
       <use xlink:href="#DejaVuSans-2e" x="63.623047"/>
       <use xlink:href="#DejaVuSans-30" x="95.410156"/>
      </g>
     </g>
    </g>
    <g id="xtick_8">
     <g id="line2d_35">
      <path d="M 187.289545 644.918125 
L 187.289545 362.018125 
" clip-path="url(#p42ea50d02d)" style="fill: none; stroke: #b0b0b0; stroke-width: 0.8; stroke-linecap: square"/>
     </g>
     <g id="line2d_36">
      <g>
       <use xlink:href="#m0b1e9e9dd7" x="187.289545" y="644.918125" style="stroke: #000000; stroke-width: 0.8"/>
      </g>
     </g>
     <g id="text_22">
      <!-- 1.2 -->
      <g transform="translate(179.337982 659.516562)scale(0.1 -0.1)">
       <use xlink:href="#DejaVuSans-31"/>
       <use xlink:href="#DejaVuSans-2e" x="63.623047"/>
       <use xlink:href="#DejaVuSans-32" x="95.410156"/>
      </g>
     </g>
    </g>
    <g id="xtick_9">
     <g id="line2d_37">
      <path d="M 307.110114 644.918125 
L 307.110114 362.018125 
" clip-path="url(#p42ea50d02d)" style="fill: none; stroke: #b0b0b0; stroke-width: 0.8; stroke-linecap: square"/>
     </g>
     <g id="line2d_38">
      <g>
       <use xlink:href="#m0b1e9e9dd7" x="307.110114" y="644.918125" style="stroke: #000000; stroke-width: 0.8"/>
      </g>
     </g>
     <g id="text_23">
      <!-- 1.4 -->
      <g transform="translate(299.158552 659.516562)scale(0.1 -0.1)">
       <use xlink:href="#DejaVuSans-31"/>
       <use xlink:href="#DejaVuSans-2e" x="63.623047"/>
       <use xlink:href="#DejaVuSans-34" x="95.410156"/>
      </g>
     </g>
    </g>
    <g id="xtick_10">
     <g id="line2d_39">
      <path d="M 426.930684 644.918125 
L 426.930684 362.018125 
" clip-path="url(#p42ea50d02d)" style="fill: none; stroke: #b0b0b0; stroke-width: 0.8; stroke-linecap: square"/>
     </g>
     <g id="line2d_40">
      <g>
       <use xlink:href="#m0b1e9e9dd7" x="426.930684" y="644.918125" style="stroke: #000000; stroke-width: 0.8"/>
      </g>
     </g>
     <g id="text_24">
      <!-- 1.6 -->
      <g transform="translate(418.979122 659.516562)scale(0.1 -0.1)">
       <use xlink:href="#DejaVuSans-31"/>
       <use xlink:href="#DejaVuSans-2e" x="63.623047"/>
       <use xlink:href="#DejaVuSans-36" x="95.410156"/>
      </g>
     </g>
    </g>
    <g id="xtick_11">
     <g id="line2d_41">
      <path d="M 546.751254 644.918125 
L 546.751254 362.018125 
" clip-path="url(#p42ea50d02d)" style="fill: none; stroke: #b0b0b0; stroke-width: 0.8; stroke-linecap: square"/>
     </g>
     <g id="line2d_42">
      <g>
       <use xlink:href="#m0b1e9e9dd7" x="546.751254" y="644.918125" style="stroke: #000000; stroke-width: 0.8"/>
      </g>
     </g>
     <g id="text_25">
      <!-- 1.8 -->
      <g transform="translate(538.799692 659.516562)scale(0.1 -0.1)">
       <use xlink:href="#DejaVuSans-31"/>
       <use xlink:href="#DejaVuSans-2e" x="63.623047"/>
       <use xlink:href="#DejaVuSans-38" x="95.410156"/>
      </g>
     </g>
    </g>
    <g id="xtick_12">
     <g id="line2d_43">
      <path d="M 666.571824 644.918125 
L 666.571824 362.018125 
" clip-path="url(#p42ea50d02d)" style="fill: none; stroke: #b0b0b0; stroke-width: 0.8; stroke-linecap: square"/>
     </g>
     <g id="line2d_44">
      <g>
       <use xlink:href="#m0b1e9e9dd7" x="666.571824" y="644.918125" style="stroke: #000000; stroke-width: 0.8"/>
      </g>
     </g>
     <g id="text_26">
      <!-- 2.0 -->
      <g transform="translate(658.620262 659.516562)scale(0.1 -0.1)">
       <use xlink:href="#DejaVuSans-32"/>
       <use xlink:href="#DejaVuSans-2e" x="63.623047"/>
       <use xlink:href="#DejaVuSans-30" x="95.410156"/>
      </g>
     </g>
    </g>
    <g id="text_27">
     <!-- Radial position (cm) -->
     <g transform="translate(317.116406 673.194687)scale(0.1 -0.1)">
      <defs>
       <path id="DejaVuSans-52" d="M 2841 2188 
Q 3044 2119 3236 1894 
Q 3428 1669 3622 1275 
L 4263 0 
L 3584 0 
L 2988 1197 
Q 2756 1666 2539 1819 
Q 2322 1972 1947 1972 
L 1259 1972 
L 1259 0 
L 628 0 
L 628 4666 
L 2053 4666 
Q 2853 4666 3247 4331 
Q 3641 3997 3641 3322 
Q 3641 2881 3436 2590 
Q 3231 2300 2841 2188 
z
M 1259 4147 
L 1259 2491 
L 2053 2491 
Q 2509 2491 2742 2702 
Q 2975 2913 2975 3322 
Q 2975 3731 2742 3939 
Q 2509 4147 2053 4147 
L 1259 4147 
z
" transform="scale(0.015625)"/>
       <path id="DejaVuSans-64" d="M 2906 2969 
L 2906 4863 
L 3481 4863 
L 3481 0 
L 2906 0 
L 2906 525 
Q 2725 213 2448 61 
Q 2172 -91 1784 -91 
Q 1150 -91 751 415 
Q 353 922 353 1747 
Q 353 2572 751 3078 
Q 1150 3584 1784 3584 
Q 2172 3584 2448 3432 
Q 2725 3281 2906 2969 
z
M 947 1747 
Q 947 1113 1208 752 
Q 1469 391 1925 391 
Q 2381 391 2643 752 
Q 2906 1113 2906 1747 
Q 2906 2381 2643 2742 
Q 2381 3103 1925 3103 
Q 1469 3103 1208 2742 
Q 947 2381 947 1747 
z
" transform="scale(0.015625)"/>
      </defs>
      <use xlink:href="#DejaVuSans-52"/>
      <use xlink:href="#DejaVuSans-61" x="67.232422"/>
      <use xlink:href="#DejaVuSans-64" x="128.511719"/>
      <use xlink:href="#DejaVuSans-69" x="191.988281"/>
      <use xlink:href="#DejaVuSans-61" x="219.771484"/>
      <use xlink:href="#DejaVuSans-6c" x="281.050781"/>
      <use xlink:href="#DejaVuSans-20" x="308.833984"/>
      <use xlink:href="#DejaVuSans-70" x="340.621094"/>
      <use xlink:href="#DejaVuSans-6f" x="404.097656"/>
      <use xlink:href="#DejaVuSans-73" x="465.279297"/>
      <use xlink:href="#DejaVuSans-69" x="517.378906"/>
      <use xlink:href="#DejaVuSans-74" x="545.162109"/>
      <use xlink:href="#DejaVuSans-69" x="584.371094"/>
      <use xlink:href="#DejaVuSans-6f" x="612.154297"/>
      <use xlink:href="#DejaVuSans-6e" x="673.335938"/>
      <use xlink:href="#DejaVuSans-20" x="736.714844"/>
      <use xlink:href="#DejaVuSans-28" x="768.501953"/>
      <use xlink:href="#DejaVuSans-63" x="807.515625"/>
      <use xlink:href="#DejaVuSans-6d" x="862.496094"/>
      <use xlink:href="#DejaVuSans-29" x="959.908203"/>
     </g>
    </g>
    <g id="text_28">
     <!-- 1e11 -->
     <g transform="translate(665.103125 672.194687)scale(0.1 -0.1)">
      <use xlink:href="#DejaVuSans-31"/>
      <use xlink:href="#DejaVuSans-65" x="63.623047"/>
      <use xlink:href="#DejaVuSans-31" x="125.146484"/>
      <use xlink:href="#DejaVuSans-31" x="188.769531"/>
     </g>
    </g>
   </g>
   <g id="matplotlib.axis_4">
    <g id="ytick_7">
     <g id="line2d_45">
      <path d="M 43.78125 632.059034 
L 690.34375 632.059034 
" clip-path="url(#p42ea50d02d)" style="fill: none; stroke: #b0b0b0; stroke-width: 0.8; stroke-linecap: square"/>
     </g>
     <g id="line2d_46">
      <g>
       <use xlink:href="#m1947464ec6" x="43.78125" y="632.059034" style="stroke: #000000; stroke-width: 0.8"/>
      </g>
     </g>
     <g id="text_29">
      <!-- 0.0 -->
      <g transform="translate(20.878125 635.858253)scale(0.1 -0.1)">
       <use xlink:href="#DejaVuSans-30"/>
       <use xlink:href="#DejaVuSans-2e" x="63.623047"/>
       <use xlink:href="#DejaVuSans-30" x="95.410156"/>
      </g>
     </g>
    </g>
    <g id="ytick_8">
     <g id="line2d_47">
      <path d="M 43.78125 580.62267 
L 690.34375 580.62267 
" clip-path="url(#p42ea50d02d)" style="fill: none; stroke: #b0b0b0; stroke-width: 0.8; stroke-linecap: square"/>
     </g>
     <g id="line2d_48">
      <g>
       <use xlink:href="#m1947464ec6" x="43.78125" y="580.62267" style="stroke: #000000; stroke-width: 0.8"/>
      </g>
     </g>
     <g id="text_30">
      <!-- 0.2 -->
      <g transform="translate(20.878125 584.421889)scale(0.1 -0.1)">
       <use xlink:href="#DejaVuSans-30"/>
       <use xlink:href="#DejaVuSans-2e" x="63.623047"/>
       <use xlink:href="#DejaVuSans-32" x="95.410156"/>
      </g>
     </g>
    </g>
    <g id="ytick_9">
     <g id="line2d_49">
      <path d="M 43.78125 529.186307 
L 690.34375 529.186307 
" clip-path="url(#p42ea50d02d)" style="fill: none; stroke: #b0b0b0; stroke-width: 0.8; stroke-linecap: square"/>
     </g>
     <g id="line2d_50">
      <g>
       <use xlink:href="#m1947464ec6" x="43.78125" y="529.186307" style="stroke: #000000; stroke-width: 0.8"/>
      </g>
     </g>
     <g id="text_31">
      <!-- 0.4 -->
      <g transform="translate(20.878125 532.985526)scale(0.1 -0.1)">
       <use xlink:href="#DejaVuSans-30"/>
       <use xlink:href="#DejaVuSans-2e" x="63.623047"/>
       <use xlink:href="#DejaVuSans-34" x="95.410156"/>
      </g>
     </g>
    </g>
    <g id="ytick_10">
     <g id="line2d_51">
      <path d="M 43.78125 477.749943 
L 690.34375 477.749943 
" clip-path="url(#p42ea50d02d)" style="fill: none; stroke: #b0b0b0; stroke-width: 0.8; stroke-linecap: square"/>
     </g>
     <g id="line2d_52">
      <g>
       <use xlink:href="#m1947464ec6" x="43.78125" y="477.749943" style="stroke: #000000; stroke-width: 0.8"/>
      </g>
     </g>
     <g id="text_32">
      <!-- 0.6 -->
      <g transform="translate(20.878125 481.549162)scale(0.1 -0.1)">
       <use xlink:href="#DejaVuSans-30"/>
       <use xlink:href="#DejaVuSans-2e" x="63.623047"/>
       <use xlink:href="#DejaVuSans-36" x="95.410156"/>
      </g>
     </g>
    </g>
    <g id="ytick_11">
     <g id="line2d_53">
      <path d="M 43.78125 426.31358 
L 690.34375 426.31358 
" clip-path="url(#p42ea50d02d)" style="fill: none; stroke: #b0b0b0; stroke-width: 0.8; stroke-linecap: square"/>
     </g>
     <g id="line2d_54">
      <g>
       <use xlink:href="#m1947464ec6" x="43.78125" y="426.31358" style="stroke: #000000; stroke-width: 0.8"/>
      </g>
     </g>
     <g id="text_33">
      <!-- 0.8 -->
      <g transform="translate(20.878125 430.112798)scale(0.1 -0.1)">
       <use xlink:href="#DejaVuSans-30"/>
       <use xlink:href="#DejaVuSans-2e" x="63.623047"/>
       <use xlink:href="#DejaVuSans-38" x="95.410156"/>
      </g>
     </g>
    </g>
    <g id="ytick_12">
     <g id="line2d_55">
      <path d="M 43.78125 374.877216 
L 690.34375 374.877216 
" clip-path="url(#p42ea50d02d)" style="fill: none; stroke: #b0b0b0; stroke-width: 0.8; stroke-linecap: square"/>
     </g>
     <g id="line2d_56">
      <g>
       <use xlink:href="#m1947464ec6" x="43.78125" y="374.877216" style="stroke: #000000; stroke-width: 0.8"/>
      </g>
     </g>
     <g id="text_34">
      <!-- 1.0 -->
      <g transform="translate(20.878125 378.676435)scale(0.1 -0.1)">
       <use xlink:href="#DejaVuSans-31"/>
       <use xlink:href="#DejaVuSans-2e" x="63.623047"/>
       <use xlink:href="#DejaVuSans-30" x="95.410156"/>
      </g>
     </g>
    </g>
    <g id="text_35">
     <!-- Profile (arb. unit) -->
     <g transform="translate(14.798438 545.661875)rotate(-90)scale(0.1 -0.1)">
      <use xlink:href="#DejaVuSans-50"/>
      <use xlink:href="#DejaVuSans-72" x="58.552734"/>
      <use xlink:href="#DejaVuSans-6f" x="97.416016"/>
      <use xlink:href="#DejaVuSans-66" x="158.597656"/>
      <use xlink:href="#DejaVuSans-69" x="193.802734"/>
      <use xlink:href="#DejaVuSans-6c" x="221.585938"/>
      <use xlink:href="#DejaVuSans-65" x="249.369141"/>
      <use xlink:href="#DejaVuSans-20" x="310.892578"/>
      <use xlink:href="#DejaVuSans-28" x="342.679688"/>
      <use xlink:href="#DejaVuSans-61" x="381.693359"/>
      <use xlink:href="#DejaVuSans-72" x="442.972656"/>
      <use xlink:href="#DejaVuSans-62" x="484.085938"/>
      <use xlink:href="#DejaVuSans-2e" x="547.5625"/>
      <use xlink:href="#DejaVuSans-20" x="579.349609"/>
      <use xlink:href="#DejaVuSans-75" x="611.136719"/>
      <use xlink:href="#DejaVuSans-6e" x="674.515625"/>
      <use xlink:href="#DejaVuSans-69" x="737.894531"/>
      <use xlink:href="#DejaVuSans-74" x="765.677734"/>
      <use xlink:href="#DejaVuSans-29" x="804.886719"/>
     </g>
    </g>
   </g>
   <g id="line2d_57">
    <path d="M 73.170455 381.925851 
L 77.19459 389.395987 
L 77.542257 374.877216 
L 78.187285 385.759398 
L 79.971676 388.55059 
L 80.953317 382.274358 
L 83.659733 397.426974 
L 83.900605 385.206822 
L 87.598323 398.867859 
L 88.01206 379.336362 
L 88.236539 412.273455 
L 88.532609 379.589249 
L 128.860521 426.061426 
L 133.641592 429.764903 
L 134.483372 433.061633 
L 135.5079 422.972856 
L 136.081745 435.569062 
L 137.366703 436.698638 
L 138.574595 432.233854 
L 138.896269 433.142682 
L 139.397493 440.039642 
L 140.145893 436.981965 
L 140.190297 423.329686 
L 142.128841 430.239872 
L 179.716735 460.110272 
L 182.096843 451.590874 
L 182.133054 454.18772 
L 183.34927 461.727959 
L 183.839282 460.60727 
L 184.234063 453.966499 
L 185.01093 454.92838 
L 186.895634 450.684263 
L 187.216474 463.572351 
L 187.929831 461.410669 
L 187.943725 455.537861 
L 188.799812 455.341898 
L 189.343951 460.364823 
L 191.602578 461.445157 
L 191.710994 462.354862 
L 191.984193 459.190941 
L 233.059552 493.260968 
L 233.978174 493.126191 
L 234.002639 495.061701 
L 239.200194 495.317622 
L 268.430949 517.452094 
L 269.565717 515.759198 
L 269.686706 518.600388 
L 270.440588 511.617311 
L 273.032793 513.717734 
L 274.649493 516.207017 
L 274.869551 517.989942 
L 278.479894 520.39353 
L 279.380626 525.370336 
L 280.021787 517.821597 
L 280.942309 516.107315 
L 281.306019 524.291292 
L 281.72119 517.614396 
L 283.979891 523.375868 
L 284.007874 521.224677 
L 285.364552 522.972716 
L 285.924001 522.390637 
L 287.575245 525.89289 
L 288.015387 530.007809 
L 288.142162 524.085547 
L 307.23222 537.703299 
L 310.230902 537.188455 
L 311.250992 531.284663 
L 313.643776 539.172361 
L 314.014649 534.391793 
L 314.019288 543.912679 
L 314.965018 543.434239 
L 315.576301 532.802028 
L 318.269663 545.485104 
L 320.358767 544.021516 
L 321.526618 542.19258 
L 322.621003 540.8464 
L 322.840021 538.292576 
L 323.367228 549.167824 
L 324.746055 540.012576 
L 325.114381 540.637315 
L 325.963941 551.361626 
L 326.744261 545.165902 
L 327.352319 543.63314 
L 327.638438 550.470887 
L 352.5544 551.485143 
L 353.973757 551.062031 
L 357.985714 556.062279 
L 358.45883 554.51904 
L 359.912095 554.45611 
L 361.442339 556.170383 
L 368.971233 557.679946 
L 369.054829 559.743082 
L 387.856025 569.900566 
L 392.850613 573.252068 
L 393.019444 572.053464 
L 394.288685 574.26473 
L 394.503553 567.725312 
L 394.565242 572.486886 
L 394.775601 577.572322 
L 394.8844 576.135614 
L 396.050415 575.140241 
L 396.284222 575.998267 
L 396.624996 568.996752 
L 397.319757 578.738506 
L 397.489817 577.426877 
L 399.710529 570.862038 
L 399.828035 576.286227 
L 401.209629 574.561158 
L 404.6411 577.940599 
L 405.305671 578.767048 
L 405.614724 576.268593 
L 407.151856 579.822414 
L 407.305592 581.278482 
L 410.306839 571.345672 
L 410.807434 578.425766 
L 415.747902 580.263689 
L 421.972432 581.354553 
L 423.679555 573.108115 
L 424.812348 578.302822 
L 427.686619 582.973537 
L 431.968167 584.227278 
L 432.431829 588.883541 
L 433.60694 581.432288 
L 433.640291 587.851594 
L 434.477294 583.03104 
L 435.508137 587.53065 
L 438.228649 580.971716 
L 438.675272 584.16825 
L 438.693766 589.361462 
L 439.598362 589.226915 
L 440.409307 582.563509 
L 440.595428 586.224627 
L 441.078864 589.302598 
L 441.767597 590.133162 
L 443.371044 590.449241 
L 444.064896 585.012065 
L 445.016336 588.923816 
L 447.913001 586.258773 
L 448.844126 589.170457 
L 449.614203 586.334109 
L 458.805914 595.174171 
L 461.25418 589.283204 
L 464.195992 589.105872 
L 465.205257 590.588452 
L 465.211243 590.273716 
L 468.078046 595.967255 
L 473.039093 594.796809 
L 473.667988 590.404093 
L 475.653289 594.643807 
L 476.14649 588.633835 
L 480.661336 590.313853 
L 481.831891 589.20396 
L 482.953123 586.051435 
L 483.318862 588.628121 
L 485.072283 580.280805 
L 487.685803 590.279787 
L 494.559962 591.677325 
L 499.429046 596.22685 
L 499.883368 586.013147 
L 500.450558 593.885079 
L 501.097 585.998758 
L 503.91419 586.309481 
L 506.573981 586.15963 
L 506.769925 585.819364 
L 508.518696 586.124584 
L 509.739158 581.987252 
L 512.806492 595.137427 
L 516.660352 593.618311 
L 516.759012 591.498833 
L 517.702772 580.178629 
L 518.574696 593.807321 
L 525.499283 592.717852 
L 525.958 590.742816 
L 526.248635 587.985049 
L 526.601752 582.642661 
L 527.222543 596.986288 
L 527.354349 589.657231 
L 527.404896 599.227478 
L 528.075854 596.138548 
L 528.935368 595.378237 
L 530.281672 596.986662 
L 530.435058 591.312181 
L 531.246712 592.437953 
L 531.355881 590.31486 
L 534.876379 598.792915 
L 536.024622 588.590875 
L 536.173956 591.573201 
L 537.308879 593.961285 
L 537.684879 597.218763 
L 537.884715 588.939505 
L 539.129229 592.476924 
L 539.429509 592.161134 
L 540.502583 594.508922 
L 540.711167 593.503655 
L 541.823806 600.826619 
L 542.214519 599.165885 
L 542.855031 597.846847 
L 546.023726 590.890409 
L 548.846207 601.531239 
L 549.290821 595.985899 
L 551.552851 599.475821 
L 552.297475 605.377979 
L 553.739002 593.099236 
L 554.631509 603.385002 
L 556.289422 592.303018 
L 556.412636 599.686867 
L 558.131073 603.902687 
L 561.878311 600.186476 
L 563.500454 598.132932 
L 565.329095 604.526407 
L 567.464651 604.492514 
L 571.985199 607.423896 
L 572.559931 598.296531 
L 576.218548 606.293436 
L 576.810656 604.31283 
L 577.271828 604.721423 
L 577.792643 603.495727 
L 578.73577 603.32864 
L 578.864921 604.671718 
L 579.166938 599.164903 
L 581.094434 604.969745 
L 581.100721 608.227008 
L 581.126581 607.671173 
L 582.411976 604.581048 
L 583.876068 603.036716 
L 584.308774 603.695983 
L 589.160392 608.718463 
L 592.41271 605.944258 
L 592.800967 613.51308 
L 593.134162 609.841124 
L 593.355877 614.07182 
L 595.927513 606.731738 
L 597.740597 613.266248 
L 599.082303 614.817675 
L 602.292335 609.511314 
L 603.364804 617.150921 
L 603.826651 607.109011 
L 604.007603 612.731011 
L 607.749421 608.344143 
L 608.060719 611.211576 
L 608.193891 613.860496 
L 608.751327 614.073662 
L 609.975444 618.574588 
L 610.05151 614.592105 
L 610.278 609.862213 
L 610.411938 618.505673 
L 613.865384 619.055092 
L 615.956967 611.296498 
L 617.809392 618.911934 
L 618.415388 611.060558 
L 619.743243 612.767101 
L 620.983302 612.79906 
L 621.895172 616.351909 
L 622.803544 616.115866 
L 624.931905 617.909944 
L 625.050118 616.108696 
L 625.757562 614.06311 
L 626.267117 616.944656 
L 629.984155 615.953117 
L 630.321311 616.113707 
L 632.734958 621.183631 
L 632.851806 614.548381 
L 633.434927 621.918632 
L 634.070841 618.594223 
L 635.473279 620.861552 
L 636.758886 621.601934 
L 637.224846 621.737363 
L 638.339526 618.159038 
L 639.728148 617.786246 
L 640.504291 622.995463 
L 643.251741 622.677378 
L 643.570864 620.803194 
L 653.210712 619.095382 
L 653.799192 620.940911 
L 654.714493 620.977796 
L 655.131452 620.553357 
L 656.076834 622.054656 
L 657.430029 620.797218 
L 657.479559 624.002451 
L 660.954545 622.033502 
L 660.954545 622.033502 
" clip-path="url(#p42ea50d02d)" style="fill: none; stroke: #1f77b4; stroke-width: 1.5; stroke-linecap: square"/>
   </g>
   <g id="line2d_58">
    <path d="M 73.170455 501.813048 
L 142.128841 486.92435 
L 183.839282 477.781686 
L 184.234063 477.86157 
L 187.216474 477.167951 
L 189.343951 476.746659 
L 191.984193 476.09972 
L 233.978174 466.990898 
L 234.002639 466.893907 
L 239.200194 465.962397 
L 269.686706 459.315254 
L 270.440588 459.287057 
L 274.649493 458.259948 
L 274.869551 458.137369 
L 283.979891 456.286705 
L 284.007874 456.243262 
L 288.015387 455.367271 
L 288.142162 455.37568 
L 311.250992 450.359934 
L 318.269663 448.990668 
L 320.358767 448.340448 
L 323.367228 447.733063 
L 324.746055 447.328211 
L 325.114381 447.37433 
L 325.963941 447.296625 
L 327.638438 446.820516 
L 396.284222 431.972121 
L 396.624996 431.813191 
L 397.489817 431.821581 
L 399.710529 431.140989 
L 399.828035 431.279898 
L 401.209629 430.922255 
L 407.305592 429.765937 
L 410.807434 428.773039 
L 415.747902 427.837675 
L 424.812348 425.778389 
L 427.686619 425.285871 
L 434.477294 423.730844 
L 435.508137 423.472283 
L 441.767597 422.20205 
L 444.064896 421.768488 
L 445.016336 421.628753 
L 449.614203 420.436911 
L 465.205257 417.102998 
L 465.211243 417.180697 
L 468.078046 416.342331 
L 476.14649 414.869322 
L 483.318862 413.244421 
L 485.072283 412.69734 
L 487.685803 412.296138 
L 531.355881 402.79445 
L 534.876379 402.209913 
L 536.173956 401.70472 
L 537.884715 401.410141 
L 539.129229 401.056538 
L 539.429509 401.111922 
L 540.502583 400.730336 
L 540.711167 400.821691 
L 542.214519 400.578009 
L 542.855031 400.616925 
L 546.023726 399.634697 
L 548.846207 399.195125 
L 549.290821 398.986708 
L 552.297475 398.383251 
L 553.739002 397.901833 
L 554.631509 397.964128 
L 556.289422 397.406307 
L 556.412636 397.760507 
L 558.131073 397.08711 
L 565.329095 395.372767 
L 567.464651 395.14254 
L 571.985199 394.240041 
L 572.559931 393.913764 
L 577.792643 392.922722 
L 578.73577 392.756634 
L 578.864921 392.610473 
L 579.166938 392.579159 
L 582.411976 391.8169 
L 583.876068 391.536176 
L 584.308774 391.339161 
L 589.160392 390.37263 
L 592.41271 389.593855 
L 592.800967 389.762475 
L 593.355877 389.582412 
L 595.927513 388.828833 
L 602.292335 387.560168 
L 603.364804 387.2872 
L 603.826651 387.333814 
L 604.007603 387.132226 
L 608.060719 386.18958 
L 608.193891 386.375188 
L 609.975444 385.785614 
L 610.05151 385.72954 
L 610.278 385.707276 
L 610.411938 385.939282 
L 613.865384 384.935718 
L 618.415388 384.063972 
L 619.743243 383.630199 
L 621.895172 383.187937 
L 622.803544 383.081312 
L 624.931905 382.38346 
L 625.050118 382.524805 
L 625.757562 382.384567 
L 626.267117 382.132811 
L 629.984155 381.433938 
L 630.321311 381.541679 
L 631.425623 381.184873 
L 632.734958 381.159999 
L 632.851806 380.932968 
L 633.434927 381.02061 
L 633.827378 380.635916 
L 635.473279 380.499371 
L 636.758886 380.079745 
L 637.224846 380.052819 
L 638.339526 379.689228 
L 639.728148 379.374661 
L 640.504291 379.605404 
L 643.251741 378.812284 
L 643.570864 378.581625 
L 653.210712 376.48927 
L 653.799192 376.26363 
L 655.131452 376.123073 
L 657.430029 375.825903 
L 657.479559 375.493107 
L 660.954545 374.877216 
L 660.954545 374.877216 
" clip-path="url(#p42ea50d02d)" style="fill: none; stroke: #ff7f0e; stroke-width: 1.5; stroke-linecap: square"/>
   </g>
   <g id="line2d_59">
    <path d="M 73.170455 425.613752 
L 77.19459 421.676575 
L 77.542257 428.93424 
L 78.187285 427.503848 
L 79.971676 427.226954 
L 80.953317 429.970223 
L 83.659733 428.21596 
L 83.900605 436.093842 
L 87.598323 427.606402 
L 88.01206 441.049697 
L 88.236539 430.098774 
L 88.532609 447.038051 
L 128.860521 473.851834 
L 133.641592 488.809153 
L 134.483372 471.730805 
L 135.5079 512.23742 
L 136.081745 506.252191 
L 137.366703 490.060581 
L 138.574595 510.883725 
L 138.896269 505.616874 
L 139.397493 480.055848 
L 140.190297 515.423337 
L 142.128841 494.957447 
L 179.716735 554.185544 
L 182.096843 576.932815 
L 182.133054 574.804968 
L 183.34927 549.168971 
L 183.839282 557.428442 
L 184.234063 584.523068 
L 185.01093 581.469524 
L 186.895634 586.228919 
L 187.216474 554.960728 
L 187.929831 566.858551 
L 187.943725 569.759453 
L 188.799812 569.899808 
L 189.343951 582.224219 
L 191.602578 586.162758 
L 191.710994 571.685651 
L 191.984193 589.725703 
L 233.059552 601.113432 
L 233.978174 601.022986 
L 234.002639 601.655189 
L 239.200194 601.88841 
L 268.430949 612.204914 
L 269.565717 613.037226 
L 269.686706 611.037549 
L 270.440588 608.826866 
L 273.032793 609.536932 
L 274.649493 608.213731 
L 274.869551 608.856083 
L 278.479894 609.867025 
L 279.380626 613.424948 
L 280.021787 611.841183 
L 281.306019 612.507753 
L 281.72119 613.998397 
L 283.979891 610.264622 
L 284.007874 614.216838 
L 285.364552 612.593534 
L 285.924001 613.671725 
L 287.575245 612.480525 
L 288.142162 613.211071 
L 307.23222 613.223964 
L 310.230902 616.115187 
L 311.250992 611.618246 
L 313.643776 615.611702 
L 314.014649 612.843334 
L 314.019288 616.797705 
L 314.965018 616.377306 
L 315.576301 612.326956 
L 318.269663 617.846958 
L 320.358767 616.864582 
L 321.526618 615.878511 
L 322.621003 617.285212 
L 322.840021 616.471193 
L 323.367228 618.153176 
L 324.746055 613.195047 
L 325.114381 615.040173 
L 325.963941 618.309493 
L 326.744261 614.925545 
L 327.352319 615.774954 
L 327.638438 618.209926 
L 352.5544 618.712891 
L 353.973757 617.943899 
L 358.45883 620.487667 
L 359.912095 620.28407 
L 361.442339 618.363852 
L 368.971233 621.264962 
L 369.054829 619.855542 
L 387.856025 628.38772 
L 392.850613 630.261989 
L 393.019444 629.77478 
L 394.288685 629.237287 
L 394.503553 627.067347 
L 394.565242 630.244907 
L 394.775601 629.902178 
L 394.8844 630.257216 
L 396.050415 628.627999 
L 396.284222 629.307958 
L 396.624996 627.541135 
L 397.319757 630.301111 
L 397.489817 628.901819 
L 399.710529 627.066667 
L 399.828035 630.158736 
L 401.209629 630.950149 
L 404.6411 631.518403 
L 405.305671 629.969539 
L 405.614724 629.743261 
L 407.151856 630.321447 
L 407.305592 630.748254 
L 410.306839 630.259146 
L 410.807434 631.165539 
L 415.747902 631.024316 
L 421.972432 631.97075 
L 423.679555 630.48658 
L 424.812348 630.98178 
L 427.686619 631.808045 
L 431.968167 632.020138 
L 432.431829 631.920349 
L 433.60694 631.503767 
L 433.640291 631.881865 
L 434.477294 631.084692 
L 435.508137 631.17696 
L 438.228649 631.949367 
L 438.675272 631.925226 
L 438.693766 631.492353 
L 439.598362 631.956923 
L 440.409307 631.033652 
L 440.595428 632.037401 
L 441.767597 631.930036 
L 443.371044 631.845802 
L 444.064896 632.04367 
L 445.016336 632.015844 
L 448.844126 632.046742 
L 449.614203 631.738896 
L 468.078046 632.04231 
L 503.91419 632.058986 
L 660.954545 632.059034 
L 660.954545 632.059034 
" clip-path="url(#p42ea50d02d)" style="fill: none; stroke: #2ca02c; stroke-width: 1.5; stroke-linecap: square"/>
   </g>
   <g id="line2d_60">
    <path d="M 73.170455 621.956778 
L 77.19459 623.28837 
L 77.542257 620.94009 
L 78.187285 621.441334 
L 79.971676 621.510469 
L 80.953317 620.597146 
L 83.659733 621.16461 
L 83.900605 618.493797 
L 87.598323 621.349783 
L 88.01206 616.819579 
L 88.236539 620.577111 
L 88.532609 614.486672 
L 128.860521 603.851412 
L 133.641592 597.40202 
L 134.483372 604.826157 
L 135.5079 586.171374 
L 136.081745 589.104234 
L 137.366703 596.843207 
L 138.574595 586.77511 
L 138.896269 589.401621 
L 139.397493 601.219507 
L 140.190297 584.49796 
L 142.128841 594.469609 
L 179.716735 562.832521 
L 182.096843 547.445682 
L 182.133054 548.9757 
L 183.34927 565.863557 
L 183.839282 560.740884 
L 184.234063 541.629042 
L 185.01093 543.992569 
L 186.895634 540.297539 
L 187.216474 562.251468 
L 187.929831 554.54163 
L 187.943725 552.597408 
L 188.799812 552.450677 
L 189.343951 543.414315 
L 191.602578 540.309925 
L 191.710994 551.213855 
L 191.984193 537.396295 
L 233.059552 526.942428 
L 233.978174 526.966547 
L 234.002639 526.375863 
L 239.200194 526.10101 
L 268.430949 514.007641 
L 269.565717 512.870039 
L 269.686706 515.506189 
L 270.440588 518.339111 
L 273.032793 517.542779 
L 274.649493 519.017862 
L 274.869551 518.229918 
L 278.479894 516.873809 
L 279.380626 512.381183 
L 280.021787 514.538762 
L 280.942309 513.97425 
L 281.306019 513.415163 
L 281.72119 511.595743 
L 283.979891 516.536617 
L 284.007874 511.259896 
L 285.364552 513.40826 
L 285.924001 512.085317 
L 287.575245 513.621017 
L 288.142162 512.494949 
L 307.23222 512.649886 
L 310.230902 509.777942 
L 311.250992 514.695229 
L 313.643776 509.869938 
L 314.014649 513.044558 
L 314.019288 510.236079 
L 314.965018 510.091528 
L 315.576301 513.795251 
L 318.269663 509.721809 
L 320.358767 510.30368 
L 321.526618 510.093978 
L 322.621003 509.532579 
L 322.840021 510.73016 
L 323.367228 510.073715 
L 324.746055 512.731093 
L 325.114381 511.906602 
L 326.744261 511.655074 
L 327.352319 511.30274 
L 327.638438 510.788984 
L 352.5544 510.50778 
L 353.973757 510.746482 
L 357.985714 512.530006 
L 358.45883 511.852128 
L 359.912095 510.79181 
L 361.442339 513.01392 
L 368.971233 513.516846 
L 369.054829 511.605667 
L 387.856025 519.067495 
L 392.850613 519.845229 
L 393.019444 519.144246 
L 394.288685 519.490892 
L 394.503553 516.677622 
L 394.565242 518.435674 
L 394.775601 519.085281 
L 394.8844 518.934528 
L 396.050415 518.145098 
L 396.624996 518.148106 
L 397.319757 520.128672 
L 397.489817 519.662078 
L 399.710529 515.763743 
L 399.828035 519.588965 
L 401.209629 518.023692 
L 404.6411 517.362763 
L 405.305671 518.852649 
L 405.614724 518.684388 
L 407.151856 519.008952 
L 407.305592 518.220677 
L 410.306839 518.983837 
L 410.807434 518.416822 
L 415.747902 519.372197 
L 421.972432 511.620055 
L 423.679555 518.757465 
L 424.812348 519.30622 
L 427.686619 515.980315 
L 431.968167 508.330873 
L 432.431829 513.523259 
L 433.60694 517.758881 
L 433.640291 514.569656 
L 434.477294 519.306243 
L 435.508137 517.816529 
L 438.228649 512.376064 
L 438.675272 511.890789 
L 438.693766 517.893296 
L 439.598362 513.424355 
L 440.409307 517.314886 
L 440.595428 507.829799 
L 441.078864 511.839574 
L 441.767597 512.519805 
L 443.371044 514.284717 
L 444.064896 506.667075 
L 445.016336 509.508192 
L 447.913001 505.816776 
L 448.844126 507.129313 
L 449.614203 516.171627 
L 458.805914 514.173919 
L 461.25418 513.120849 
L 464.195992 508.238417 
L 465.211243 505.256889 
L 468.078046 506.877936 
L 473.039093 508.565303 
L 473.667988 506.334422 
L 475.653289 506.350996 
L 476.14649 506.199181 
L 480.661336 504.623439 
L 481.831891 503.681576 
L 482.953123 508.087979 
L 483.318862 505.041839 
L 485.072283 513.997223 
L 494.559962 509.83017 
L 499.429046 511.054426 
L 499.883368 509.127982 
L 500.450558 513.150315 
L 501.097 519.297431 
L 503.91419 521.0366 
L 506.573981 521.671988 
L 506.769925 518.557361 
L 508.518696 506.954858 
L 509.739158 511.79686 
L 512.806492 518.989636 
L 516.660352 524.54733 
L 516.759012 520.679855 
L 517.702772 514.324111 
L 518.574696 518.152896 
L 525.499283 535.69588 
L 525.958 523.405893 
L 526.248635 524.5014 
L 526.601752 523.099062 
L 527.222543 537.891783 
L 527.354349 516.037316 
L 527.404896 535.988587 
L 528.075854 520.150415 
L 528.935368 529.530029 
L 530.435058 522.065253 
L 531.246712 528.969618 
L 531.355881 514.449951 
L 534.876379 540.625558 
L 536.024622 520.257051 
L 536.173956 527.113955 
L 537.308879 515.343334 
L 537.884715 540.42808 
L 539.129229 518.046533 
L 539.429509 527.540002 
L 540.711167 536.317217 
L 541.823806 539.911036 
L 542.214519 550.602258 
L 542.855031 544.775156 
L 546.023726 529.108345 
L 548.846207 555.919776 
L 549.290821 532.584035 
L 552.297475 558.880127 
L 553.739002 533.608551 
L 554.316162 546.536584 
L 554.631509 545.28335 
L 556.289422 535.119302 
L 556.412636 550.47089 
L 558.131073 552.730761 
L 561.878311 560.805363 
L 563.500454 556.156897 
L 565.329095 559.062796 
L 567.464651 553.455197 
L 571.985199 557.373798 
L 572.559931 550.745196 
L 576.218548 555.232068 
L 576.810656 560.460484 
L 577.271828 554.629669 
L 577.792643 561.055983 
L 578.73577 559.571312 
L 578.864921 563.754318 
L 579.166938 551.552101 
L 581.094434 556.023483 
L 581.100721 559.057432 
L 581.126581 549.168642 
L 582.411976 562.066793 
L 583.876068 560.266936 
L 584.308774 546.272222 
L 589.160392 552.709033 
L 592.41271 556.714284 
L 592.800967 567.122057 
L 593.134162 555.94359 
L 593.355877 569.865375 
L 595.927513 559.877094 
L 597.740597 562.003816 
L 599.082303 564.817614 
L 602.292335 564.999846 
L 603.364804 570.346796 
L 603.826651 562.465436 
L 604.007603 561.912323 
L 607.749421 563.227564 
L 608.060719 568.88363 
L 608.193891 566.945418 
L 608.751327 567.572182 
L 609.975444 571.121786 
L 610.278 565.075046 
L 610.411938 572.036058 
L 613.865384 568.796624 
L 615.956967 564.084661 
L 617.809392 573.329759 
L 618.415388 565.966969 
L 619.743243 566.685269 
L 620.983302 568.134931 
L 621.895172 570.76106 
L 622.803544 569.816949 
L 624.931905 564.619305 
L 625.050118 569.478704 
L 625.757562 569.987302 
L 626.267117 569.2388 
L 629.984155 571.160531 
L 630.321311 569.94355 
L 631.425623 569.730198 
L 632.734958 573.696048 
L 632.851806 568.940644 
L 633.434927 573.323606 
L 633.827378 569.325428 
L 634.070841 569.542377 
L 635.473279 571.911879 
L 636.758886 574.917857 
L 638.339526 570.984798 
L 639.728148 571.365635 
L 640.504291 575.76099 
L 643.251741 575.526863 
L 643.570864 572.006401 
L 648.107591 571.006437 
L 653.210712 572.849365 
L 653.799192 573.800231 
L 655.131452 574.44113 
L 656.076834 572.82307 
L 657.430029 573.517051 
L 657.479559 574.625801 
L 660.954545 572.198272 
L 660.954545 572.198272 
" clip-path="url(#p42ea50d02d)" style="fill: none; stroke: #d62728; stroke-width: 1.5; stroke-linecap: square"/>
   </g>
   <g id="patch_9">
    <path d="M 43.78125 644.918125 
L 43.78125 362.018125 
" style="fill: none; stroke: #000000; stroke-width: 0.8; stroke-linejoin: miter; stroke-linecap: square"/>
   </g>
   <g id="patch_10">
    <path d="M 690.34375 644.918125 
L 690.34375 362.018125 
" style="fill: none; stroke: #000000; stroke-width: 0.8; stroke-linejoin: miter; stroke-linecap: square"/>
   </g>
   <g id="patch_11">
    <path d="M 43.78125 644.918125 
L 690.34375 644.918125 
" style="fill: none; stroke: #000000; stroke-width: 0.8; stroke-linejoin: miter; stroke-linecap: square"/>
   </g>
   <g id="patch_12">
    <path d="M 43.78125 362.018125 
L 690.34375 362.018125 
" style="fill: none; stroke: #000000; stroke-width: 0.8; stroke-linejoin: miter; stroke-linecap: square"/>
   </g>
   <g id="text_36">
    <!-- Profiles along the positive axis -->
    <g transform="translate(275.627188 356.018125)scale(0.12 -0.12)">
     <use xlink:href="#DejaVuSans-50"/>
     <use xlink:href="#DejaVuSans-72" x="58.552734"/>
     <use xlink:href="#DejaVuSans-6f" x="97.416016"/>
     <use xlink:href="#DejaVuSans-66" x="158.597656"/>
     <use xlink:href="#DejaVuSans-69" x="193.802734"/>
     <use xlink:href="#DejaVuSans-6c" x="221.585938"/>
     <use xlink:href="#DejaVuSans-65" x="249.369141"/>
     <use xlink:href="#DejaVuSans-73" x="310.892578"/>
     <use xlink:href="#DejaVuSans-20" x="362.992188"/>
     <use xlink:href="#DejaVuSans-61" x="394.779297"/>
     <use xlink:href="#DejaVuSans-6c" x="456.058594"/>
     <use xlink:href="#DejaVuSans-6f" x="483.841797"/>
     <use xlink:href="#DejaVuSans-6e" x="545.023438"/>
     <use xlink:href="#DejaVuSans-67" x="608.402344"/>
     <use xlink:href="#DejaVuSans-20" x="671.878906"/>
     <use xlink:href="#DejaVuSans-74" x="703.666016"/>
     <use xlink:href="#DejaVuSans-68" x="742.875"/>
     <use xlink:href="#DejaVuSans-65" x="806.253906"/>
     <use xlink:href="#DejaVuSans-20" x="867.777344"/>
     <use xlink:href="#DejaVuSans-70" x="899.564453"/>
     <use xlink:href="#DejaVuSans-6f" x="963.041016"/>
     <use xlink:href="#DejaVuSans-73" x="1024.222656"/>
     <use xlink:href="#DejaVuSans-69" x="1076.322266"/>
     <use xlink:href="#DejaVuSans-74" x="1104.105469"/>
     <use xlink:href="#DejaVuSans-69" x="1143.314453"/>
     <use xlink:href="#DejaVuSans-76" x="1171.097656"/>
     <use xlink:href="#DejaVuSans-65" x="1230.277344"/>
     <use xlink:href="#DejaVuSans-20" x="1291.800781"/>
     <use xlink:href="#DejaVuSans-61" x="1323.587891"/>
     <use xlink:href="#DejaVuSans-78" x="1384.867188"/>
     <use xlink:href="#DejaVuSans-69" x="1444.046875"/>
     <use xlink:href="#DejaVuSans-73" x="1471.830078"/>
    </g>
   </g>
  </g>
 </g>
 <defs>
  <clipPath id="p00d2af5210">
   <rect x="43.78125" y="22.318125" width="646.5625" height="282.9"/>
  </clipPath>
  <clipPath id="p42ea50d02d">
   <rect x="43.78125" y="362.018125" width="646.5625" height="282.9"/>
  </clipPath>
 </defs>
</svg>
