<?xml version="1.0" encoding="utf-8" standalone="no"?>
<!DOCTYPE svg PUBLIC "-//W3C//DTD SVG 1.1//EN"
  "http://www.w3.org/Graphics/SVG/1.1/DTD/svg11.dtd">
<svg xmlns:xlink="http://www.w3.org/1999/xlink" width="408.10125pt" height="310.86825pt" viewBox="0 0 408.10125 310.86825" xmlns="http://www.w3.org/2000/svg" version="1.1">
 <metadata>
  <rdf:RDF xmlns:dc="http://purl.org/dc/elements/1.1/" xmlns:cc="http://creativecommons.org/ns#" xmlns:rdf="http://www.w3.org/1999/02/22-rdf-syntax-ns#">
   <cc:Work>
    <dc:type rdf:resource="http://purl.org/dc/dcmitype/StillImage"/>
    <dc:date>2022-04-24T19:48:16.561606</dc:date>
    <dc:format>image/svg+xml</dc:format>
    <dc:creator>
     <cc:Agent>
      <dc:title>Matplotlib v3.5.1, https://matplotlib.org/</dc:title>
     </cc:Agent>
    </dc:creator>
   </cc:Work>
  </rdf:RDF>
 </metadata>
 <defs>
  <style type="text/css">*{stroke-linejoin: round; stroke-linecap: butt}</style>
 </defs>
 <g id="figure_1">
  <g id="patch_1">
   <path d="M 0 310.86825 
L 408.10125 310.86825 
L 408.10125 0 
L 0 0 
z
" style="fill: #ffffff"/>
  </g>
  <g id="axes_1">
   <g id="patch_2">
    <path d="M 43.78125 273.312 
L 400.90125 273.312 
L 400.90125 7.2 
L 43.78125 7.2 
z
" style="fill: #ffffff"/>
   </g>
   <g id="patch_3">
    <path d="M 60.853485 273.312 
L 62.46853 273.312 
L 62.46853 268.891535 
L 60.853485 268.891535 
z
" clip-path="url(#p85035e7681)" style="fill: #1f77b4"/>
   </g>
   <g id="patch_4">
    <path d="M 62.46853 273.312 
L 64.083575 273.312 
L 64.083575 262.997581 
L 62.46853 262.997581 
z
" clip-path="url(#p85035e7681)" style="fill: #1f77b4"/>
   </g>
   <g id="patch_5">
    <path d="M 64.083575 273.312 
L 65.698619 273.312 
L 65.698619 262.997581 
L 64.083575 262.997581 
z
" clip-path="url(#p85035e7681)" style="fill: #1f77b4"/>
   </g>
   <g id="patch_6">
    <path d="M 65.698619 273.312 
L 67.313664 273.312 
L 67.313664 258.577116 
L 65.698619 258.577116 
z
" clip-path="url(#p85035e7681)" style="fill: #1f77b4"/>
   </g>
   <g id="patch_7">
    <path d="M 67.313664 273.312 
L 68.928709 273.312 
L 68.928709 257.103628 
L 67.313664 257.103628 
z
" clip-path="url(#p85035e7681)" style="fill: #1f77b4"/>
   </g>
   <g id="patch_8">
    <path d="M 68.928709 273.312 
L 70.543754 273.312 
L 70.543754 248.999442 
L 68.928709 248.999442 
z
" clip-path="url(#p85035e7681)" style="fill: #1f77b4"/>
   </g>
   <g id="patch_9">
    <path d="M 70.543754 273.312 
L 72.158799 273.312 
L 72.158799 248.999442 
L 70.543754 248.999442 
z
" clip-path="url(#p85035e7681)" style="fill: #1f77b4"/>
   </g>
   <g id="patch_10">
    <path d="M 72.158799 273.312 
L 73.773844 273.312 
L 73.773844 244.578977 
L 72.158799 244.578977 
z
" clip-path="url(#p85035e7681)" style="fill: #1f77b4"/>
   </g>
   <g id="patch_11">
    <path d="M 73.773844 273.312 
L 75.388889 273.312 
L 75.388889 244.578977 
L 73.773844 244.578977 
z
" clip-path="url(#p85035e7681)" style="fill: #1f77b4"/>
   </g>
   <g id="patch_12">
    <path d="M 75.388889 273.312 
L 77.003934 273.312 
L 77.003934 240.158512 
L 75.388889 240.158512 
z
" clip-path="url(#p85035e7681)" style="fill: #1f77b4"/>
   </g>
   <g id="patch_13">
    <path d="M 77.003934 273.312 
L 78.618978 273.312 
L 78.618978 230.580837 
L 77.003934 230.580837 
z
" clip-path="url(#p85035e7681)" style="fill: #1f77b4"/>
   </g>
   <g id="patch_14">
    <path d="M 78.618978 273.312 
L 80.234023 273.312 
L 80.234023 235.738047 
L 78.618978 235.738047 
z
" clip-path="url(#p85035e7681)" style="fill: #1f77b4"/>
   </g>
   <g id="patch_15">
    <path d="M 80.234023 273.312 
L 81.849068 273.312 
L 81.849068 222.476651 
L 80.234023 222.476651 
z
" clip-path="url(#p85035e7681)" style="fill: #1f77b4"/>
   </g>
   <g id="patch_16">
    <path d="M 81.849068 273.312 
L 83.464113 273.312 
L 83.464113 223.95014 
L 81.849068 223.95014 
z
" clip-path="url(#p85035e7681)" style="fill: #1f77b4"/>
   </g>
   <g id="patch_17">
    <path d="M 83.464113 273.312 
L 85.079158 273.312 
L 85.079158 224.686884 
L 83.464113 224.686884 
z
" clip-path="url(#p85035e7681)" style="fill: #1f77b4"/>
   </g>
   <g id="patch_18">
    <path d="M 85.079158 273.312 
L 86.694203 273.312 
L 86.694203 198.164093 
L 85.079158 198.164093 
z
" clip-path="url(#p85035e7681)" style="fill: #1f77b4"/>
   </g>
   <g id="patch_19">
    <path d="M 86.694203 273.312 
L 88.309248 273.312 
L 88.309248 209.215256 
L 86.694203 209.215256 
z
" clip-path="url(#p85035e7681)" style="fill: #1f77b4"/>
   </g>
   <g id="patch_20">
    <path d="M 88.309248 273.312 
L 89.924293 273.312 
L 89.924293 214.372465 
L 88.309248 214.372465 
z
" clip-path="url(#p85035e7681)" style="fill: #1f77b4"/>
   </g>
   <g id="patch_21">
    <path d="M 89.924293 273.312 
L 91.539337 273.312 
L 91.539337 204.794791 
L 89.924293 204.794791 
z
" clip-path="url(#p85035e7681)" style="fill: #1f77b4"/>
   </g>
   <g id="patch_22">
    <path d="M 91.539337 273.312 
L 93.154382 273.312 
L 93.154382 212.898977 
L 91.539337 212.898977 
z
" clip-path="url(#p85035e7681)" style="fill: #1f77b4"/>
   </g>
   <g id="patch_23">
    <path d="M 93.154382 273.312 
L 94.769427 273.312 
L 94.769427 205.531535 
L 93.154382 205.531535 
z
" clip-path="url(#p85035e7681)" style="fill: #1f77b4"/>
   </g>
   <g id="patch_24">
    <path d="M 94.769427 273.312 
L 96.384472 273.312 
L 96.384472 201.11107 
L 94.769427 201.11107 
z
" clip-path="url(#p85035e7681)" style="fill: #1f77b4"/>
   </g>
   <g id="patch_25">
    <path d="M 96.384472 273.312 
L 97.999517 273.312 
L 97.999517 177.535256 
L 96.384472 177.535256 
z
" clip-path="url(#p85035e7681)" style="fill: #1f77b4"/>
   </g>
   <g id="patch_26">
    <path d="M 97.999517 273.312 
L 99.614562 273.312 
L 99.614562 193.743628 
L 97.999517 193.743628 
z
" clip-path="url(#p85035e7681)" style="fill: #1f77b4"/>
   </g>
   <g id="patch_27">
    <path d="M 99.614562 273.312 
L 101.229607 273.312 
L 101.229607 178.272 
L 99.614562 178.272 
z
" clip-path="url(#p85035e7681)" style="fill: #1f77b4"/>
   </g>
   <g id="patch_28">
    <path d="M 101.229607 273.312 
L 102.844652 273.312 
L 102.844652 204.794791 
L 101.229607 204.794791 
z
" clip-path="url(#p85035e7681)" style="fill: #1f77b4"/>
   </g>
   <g id="patch_29">
    <path d="M 102.844652 273.312 
L 104.459696 273.312 
L 104.459696 185.639442 
L 102.844652 185.639442 
z
" clip-path="url(#p85035e7681)" style="fill: #1f77b4"/>
   </g>
   <g id="patch_30">
    <path d="M 104.459696 273.312 
L 106.074741 273.312 
L 106.074741 167.220837 
L 104.459696 167.220837 
z
" clip-path="url(#p85035e7681)" style="fill: #1f77b4"/>
   </g>
   <g id="patch_31">
    <path d="M 106.074741 273.312 
L 107.689786 273.312 
L 107.689786 170.167814 
L 106.074741 170.167814 
z
" clip-path="url(#p85035e7681)" style="fill: #1f77b4"/>
   </g>
   <g id="patch_32">
    <path d="M 107.689786 273.312 
L 109.304831 273.312 
L 109.304831 157.643163 
L 107.689786 157.643163 
z
" clip-path="url(#p85035e7681)" style="fill: #1f77b4"/>
   </g>
   <g id="patch_33">
    <path d="M 109.304831 273.312 
L 110.919876 273.312 
L 110.919876 159.116651 
L 109.304831 159.116651 
z
" clip-path="url(#p85035e7681)" style="fill: #1f77b4"/>
   </g>
   <g id="patch_34">
    <path d="M 110.919876 273.312 
L 112.534921 273.312 
L 112.534921 146.592 
L 110.919876 146.592 
z
" clip-path="url(#p85035e7681)" style="fill: #1f77b4"/>
   </g>
   <g id="patch_35">
    <path d="M 112.534921 273.312 
L 114.149966 273.312 
L 114.149966 159.853395 
L 112.534921 159.853395 
z
" clip-path="url(#p85035e7681)" style="fill: #1f77b4"/>
   </g>
   <g id="patch_36">
    <path d="M 114.149966 273.312 
L 115.76501 273.312 
L 115.76501 154.696186 
L 114.149966 154.696186 
z
" clip-path="url(#p85035e7681)" style="fill: #1f77b4"/>
   </g>
   <g id="patch_37">
    <path d="M 115.76501 273.312 
L 117.380055 273.312 
L 117.380055 167.957581 
L 115.76501 167.957581 
z
" clip-path="url(#p85035e7681)" style="fill: #1f77b4"/>
   </g>
   <g id="patch_38">
    <path d="M 117.380055 273.312 
L 118.9951 273.312 
L 118.9951 170.904558 
L 117.380055 170.904558 
z
" clip-path="url(#p85035e7681)" style="fill: #1f77b4"/>
   </g>
   <g id="patch_39">
    <path d="M 118.9951 273.312 
L 120.610145 273.312 
L 120.610145 159.116651 
L 118.9951 159.116651 
z
" clip-path="url(#p85035e7681)" style="fill: #1f77b4"/>
   </g>
   <g id="patch_40">
    <path d="M 120.610145 273.312 
L 122.22519 273.312 
L 122.22519 143.645023 
L 120.610145 143.645023 
z
" clip-path="url(#p85035e7681)" style="fill: #1f77b4"/>
   </g>
   <g id="patch_41">
    <path d="M 122.22519 273.312 
L 123.840235 273.312 
L 123.840235 146.592 
L 122.22519 146.592 
z
" clip-path="url(#p85035e7681)" style="fill: #1f77b4"/>
   </g>
   <g id="patch_42">
    <path d="M 123.840235 273.312 
L 125.45528 273.312 
L 125.45528 139.961302 
L 123.840235 139.961302 
z
" clip-path="url(#p85035e7681)" style="fill: #1f77b4"/>
   </g>
   <g id="patch_43">
    <path d="M 125.45528 273.312 
L 127.070325 273.312 
L 127.070325 138.487814 
L 125.45528 138.487814 
z
" clip-path="url(#p85035e7681)" style="fill: #1f77b4"/>
   </g>
   <g id="patch_44">
    <path d="M 127.070325 273.312 
L 128.685369 273.312 
L 128.685369 136.277581 
L 127.070325 136.277581 
z
" clip-path="url(#p85035e7681)" style="fill: #1f77b4"/>
   </g>
   <g id="patch_45">
    <path d="M 128.685369 273.312 
L 130.300414 273.312 
L 130.300414 119.332465 
L 128.685369 119.332465 
z
" clip-path="url(#p85035e7681)" style="fill: #1f77b4"/>
   </g>
   <g id="patch_46">
    <path d="M 130.300414 273.312 
L 131.915459 273.312 
L 131.915459 111.228279 
L 130.300414 111.228279 
z
" clip-path="url(#p85035e7681)" style="fill: #1f77b4"/>
   </g>
   <g id="patch_47">
    <path d="M 131.915459 273.312 
L 133.530504 273.312 
L 133.530504 142.171535 
L 131.915459 142.171535 
z
" clip-path="url(#p85035e7681)" style="fill: #1f77b4"/>
   </g>
   <g id="patch_48">
    <path d="M 133.530504 273.312 
L 135.145549 273.312 
L 135.145549 117.858977 
L 133.530504 117.858977 
z
" clip-path="url(#p85035e7681)" style="fill: #1f77b4"/>
   </g>
   <g id="patch_49">
    <path d="M 135.145549 273.312 
L 136.760594 273.312 
L 136.760594 128.91014 
L 135.145549 128.91014 
z
" clip-path="url(#p85035e7681)" style="fill: #1f77b4"/>
   </g>
   <g id="patch_50">
    <path d="M 136.760594 273.312 
L 138.375639 273.312 
L 138.375639 109.754791 
L 136.760594 109.754791 
z
" clip-path="url(#p85035e7681)" style="fill: #1f77b4"/>
   </g>
   <g id="patch_51">
    <path d="M 138.375639 273.312 
L 139.990684 273.312 
L 139.990684 126.699907 
L 138.375639 126.699907 
z
" clip-path="url(#p85035e7681)" style="fill: #1f77b4"/>
   </g>
   <g id="patch_52">
    <path d="M 139.990684 273.312 
L 141.605728 273.312 
L 141.605728 111.228279 
L 139.990684 111.228279 
z
" clip-path="url(#p85035e7681)" style="fill: #1f77b4"/>
   </g>
   <g id="patch_53">
    <path d="M 141.605728 273.312 
L 143.220773 273.312 
L 143.220773 124.489674 
L 141.605728 124.489674 
z
" clip-path="url(#p85035e7681)" style="fill: #1f77b4"/>
   </g>
   <g id="patch_54">
    <path d="M 143.220773 273.312 
L 144.835818 273.312 
L 144.835818 111.965023 
L 143.220773 111.965023 
z
" clip-path="url(#p85035e7681)" style="fill: #1f77b4"/>
   </g>
   <g id="patch_55">
    <path d="M 144.835818 273.312 
L 146.450863 273.312 
L 146.450863 106.807814 
L 144.835818 106.807814 
z
" clip-path="url(#p85035e7681)" style="fill: #1f77b4"/>
   </g>
   <g id="patch_56">
    <path d="M 146.450863 273.312 
L 148.065908 273.312 
L 148.065908 113.438512 
L 146.450863 113.438512 
z
" clip-path="url(#p85035e7681)" style="fill: #1f77b4"/>
   </g>
   <g id="patch_57">
    <path d="M 148.065908 273.312 
L 149.680953 273.312 
L 149.680953 96.493395 
L 148.065908 96.493395 
z
" clip-path="url(#p85035e7681)" style="fill: #1f77b4"/>
   </g>
   <g id="patch_58">
    <path d="M 149.680953 273.312 
L 151.295998 273.312 
L 151.295998 69.970605 
L 149.680953 69.970605 
z
" clip-path="url(#p85035e7681)" style="fill: #1f77b4"/>
   </g>
   <g id="patch_59">
    <path d="M 151.295998 273.312 
L 152.911042 273.312 
L 152.911042 75.864558 
L 151.295998 75.864558 
z
" clip-path="url(#p85035e7681)" style="fill: #1f77b4"/>
   </g>
   <g id="patch_60">
    <path d="M 152.911042 273.312 
L 154.526087 273.312 
L 154.526087 102.387349 
L 152.911042 102.387349 
z
" clip-path="url(#p85035e7681)" style="fill: #1f77b4"/>
   </g>
   <g id="patch_61">
    <path d="M 154.526087 273.312 
L 156.141132 273.312 
L 156.141132 90.599442 
L 154.526087 90.599442 
z
" clip-path="url(#p85035e7681)" style="fill: #1f77b4"/>
   </g>
   <g id="patch_62">
    <path d="M 156.141132 273.312 
L 157.756177 273.312 
L 157.756177 88.389209 
L 156.141132 88.389209 
z
" clip-path="url(#p85035e7681)" style="fill: #1f77b4"/>
   </g>
   <g id="patch_63">
    <path d="M 157.756177 273.312 
L 159.371222 273.312 
L 159.371222 82.495256 
L 157.756177 82.495256 
z
" clip-path="url(#p85035e7681)" style="fill: #1f77b4"/>
   </g>
   <g id="patch_64">
    <path d="M 159.371222 273.312 
L 160.986267 273.312 
L 160.986267 67.023628 
L 159.371222 67.023628 
z
" clip-path="url(#p85035e7681)" style="fill: #1f77b4"/>
   </g>
   <g id="patch_65">
    <path d="M 160.986267 273.312 
L 162.601312 273.312 
L 162.601312 93.546419 
L 160.986267 93.546419 
z
" clip-path="url(#p85035e7681)" style="fill: #1f77b4"/>
   </g>
   <g id="patch_66">
    <path d="M 162.601312 273.312 
L 164.216357 273.312 
L 164.216357 105.334326 
L 162.601312 105.334326 
z
" clip-path="url(#p85035e7681)" style="fill: #1f77b4"/>
   </g>
   <g id="patch_67">
    <path d="M 164.216357 273.312 
L 165.831401 273.312 
L 165.831401 69.970605 
L 164.216357 69.970605 
z
" clip-path="url(#p85035e7681)" style="fill: #1f77b4"/>
   </g>
   <g id="patch_68">
    <path d="M 165.831401 273.312 
L 167.446446 273.312 
L 167.446446 72.917581 
L 165.831401 72.917581 
z
" clip-path="url(#p85035e7681)" style="fill: #1f77b4"/>
   </g>
   <g id="patch_69">
    <path d="M 167.446446 273.312 
L 169.061491 273.312 
L 169.061491 66.286884 
L 167.446446 66.286884 
z
" clip-path="url(#p85035e7681)" style="fill: #1f77b4"/>
   </g>
   <g id="patch_70">
    <path d="M 169.061491 273.312 
L 170.676536 273.312 
L 170.676536 78.811535 
L 169.061491 78.811535 
z
" clip-path="url(#p85035e7681)" style="fill: #1f77b4"/>
   </g>
   <g id="patch_71">
    <path d="M 170.676536 273.312 
L 172.291581 273.312 
L 172.291581 85.442233 
L 170.676536 85.442233 
z
" clip-path="url(#p85035e7681)" style="fill: #1f77b4"/>
   </g>
   <g id="patch_72">
    <path d="M 172.291581 273.312 
L 173.906626 273.312 
L 173.906626 77.338047 
L 172.291581 77.338047 
z
" clip-path="url(#p85035e7681)" style="fill: #1f77b4"/>
   </g>
   <g id="patch_73">
    <path d="M 173.906626 273.312 
L 175.521671 273.312 
L 175.521671 59.656186 
L 173.906626 59.656186 
z
" clip-path="url(#p85035e7681)" style="fill: #1f77b4"/>
   </g>
   <g id="patch_74">
    <path d="M 175.521671 273.312 
L 177.136716 273.312 
L 177.136716 67.760372 
L 175.521671 67.760372 
z
" clip-path="url(#p85035e7681)" style="fill: #1f77b4"/>
   </g>
   <g id="patch_75">
    <path d="M 177.136716 273.312 
L 178.75176 273.312 
L 178.75176 72.917581 
L 177.136716 72.917581 
z
" clip-path="url(#p85035e7681)" style="fill: #1f77b4"/>
   </g>
   <g id="patch_76">
    <path d="M 178.75176 273.312 
L 180.366805 273.312 
L 180.366805 78.074791 
L 178.75176 78.074791 
z
" clip-path="url(#p85035e7681)" style="fill: #1f77b4"/>
   </g>
   <g id="patch_77">
    <path d="M 180.366805 273.312 
L 181.98185 273.312 
L 181.98185 75.127814 
L 180.366805 75.127814 
z
" clip-path="url(#p85035e7681)" style="fill: #1f77b4"/>
   </g>
   <g id="patch_78">
    <path d="M 181.98185 273.312 
L 183.596895 273.312 
L 183.596895 74.39107 
L 181.98185 74.39107 
z
" clip-path="url(#p85035e7681)" style="fill: #1f77b4"/>
   </g>
   <g id="patch_79">
    <path d="M 183.596895 273.312 
L 185.21194 273.312 
L 185.21194 60.39293 
L 183.596895 60.39293 
z
" clip-path="url(#p85035e7681)" style="fill: #1f77b4"/>
   </g>
   <g id="patch_80">
    <path d="M 185.21194 273.312 
L 186.826985 273.312 
L 186.826985 53.762233 
L 185.21194 53.762233 
z
" clip-path="url(#p85035e7681)" style="fill: #1f77b4"/>
   </g>
   <g id="patch_81">
    <path d="M 186.826985 273.312 
L 188.44203 273.312 
L 188.44203 31.659907 
L 186.826985 31.659907 
z
" clip-path="url(#p85035e7681)" style="fill: #1f77b4"/>
   </g>
   <g id="patch_82">
    <path d="M 188.44203 273.312 
L 190.057075 273.312 
L 190.057075 72.917581 
L 188.44203 72.917581 
z
" clip-path="url(#p85035e7681)" style="fill: #1f77b4"/>
   </g>
   <g id="patch_83">
    <path d="M 190.057075 273.312 
L 191.672119 273.312 
L 191.672119 50.815256 
L 190.057075 50.815256 
z
" clip-path="url(#p85035e7681)" style="fill: #1f77b4"/>
   </g>
   <g id="patch_84">
    <path d="M 191.672119 273.312 
L 193.287164 273.312 
L 193.287164 50.815256 
L 191.672119 50.815256 
z
" clip-path="url(#p85035e7681)" style="fill: #1f77b4"/>
   </g>
   <g id="patch_85">
    <path d="M 193.287164 273.312 
L 194.902209 273.312 
L 194.902209 26.502698 
L 193.287164 26.502698 
z
" clip-path="url(#p85035e7681)" style="fill: #1f77b4"/>
   </g>
   <g id="patch_86">
    <path d="M 194.902209 273.312 
L 196.517254 273.312 
L 196.517254 52.288744 
L 194.902209 52.288744 
z
" clip-path="url(#p85035e7681)" style="fill: #1f77b4"/>
   </g>
   <g id="patch_87">
    <path d="M 196.517254 273.312 
L 198.132299 273.312 
L 198.132299 61.866419 
L 196.517254 61.866419 
z
" clip-path="url(#p85035e7681)" style="fill: #1f77b4"/>
   </g>
   <g id="patch_88">
    <path d="M 198.132299 273.312 
L 199.747344 273.312 
L 199.747344 77.338047 
L 198.132299 77.338047 
z
" clip-path="url(#p85035e7681)" style="fill: #1f77b4"/>
   </g>
   <g id="patch_89">
    <path d="M 199.747344 273.312 
L 201.362389 273.312 
L 201.362389 53.762233 
L 199.747344 53.762233 
z
" clip-path="url(#p85035e7681)" style="fill: #1f77b4"/>
   </g>
   <g id="patch_90">
    <path d="M 201.362389 273.312 
L 202.977433 273.312 
L 202.977433 60.39293 
L 201.362389 60.39293 
z
" clip-path="url(#p85035e7681)" style="fill: #1f77b4"/>
   </g>
   <g id="patch_91">
    <path d="M 202.977433 273.312 
L 204.592478 273.312 
L 204.592478 39.764093 
L 202.977433 39.764093 
z
" clip-path="url(#p85035e7681)" style="fill: #1f77b4"/>
   </g>
   <g id="patch_92">
    <path d="M 204.592478 273.312 
L 206.207523 273.312 
L 206.207523 61.866419 
L 204.592478 61.866419 
z
" clip-path="url(#p85035e7681)" style="fill: #1f77b4"/>
   </g>
   <g id="patch_93">
    <path d="M 206.207523 273.312 
L 207.822568 273.312 
L 207.822568 53.025488 
L 206.207523 53.025488 
z
" clip-path="url(#p85035e7681)" style="fill: #1f77b4"/>
   </g>
   <g id="patch_94">
    <path d="M 207.822568 273.312 
L 209.437613 273.312 
L 209.437613 31.659907 
L 207.822568 31.659907 
z
" clip-path="url(#p85035e7681)" style="fill: #1f77b4"/>
   </g>
   <g id="patch_95">
    <path d="M 209.437613 273.312 
L 211.052658 273.312 
L 211.052658 57.445953 
L 209.437613 57.445953 
z
" clip-path="url(#p85035e7681)" style="fill: #1f77b4"/>
   </g>
   <g id="patch_96">
    <path d="M 211.052658 273.312 
L 212.667703 273.312 
L 212.667703 31.659907 
L 211.052658 31.659907 
z
" clip-path="url(#p85035e7681)" style="fill: #1f77b4"/>
   </g>
   <g id="patch_97">
    <path d="M 212.667703 273.312 
L 214.282748 273.312 
L 214.282748 42.71107 
L 212.667703 42.71107 
z
" clip-path="url(#p85035e7681)" style="fill: #1f77b4"/>
   </g>
   <g id="patch_98">
    <path d="M 214.282748 273.312 
L 215.897792 273.312 
L 215.897792 34.606884 
L 214.282748 34.606884 
z
" clip-path="url(#p85035e7681)" style="fill: #1f77b4"/>
   </g>
   <g id="patch_99">
    <path d="M 215.897792 273.312 
L 217.512837 273.312 
L 217.512837 55.972465 
L 215.897792 55.972465 
z
" clip-path="url(#p85035e7681)" style="fill: #1f77b4"/>
   </g>
   <g id="patch_100">
    <path d="M 217.512837 273.312 
L 219.127882 273.312 
L 219.127882 32.396651 
L 217.512837 32.396651 
z
" clip-path="url(#p85035e7681)" style="fill: #1f77b4"/>
   </g>
   <g id="patch_101">
    <path d="M 219.127882 273.312 
L 220.742927 273.312 
L 220.742927 24.292465 
L 219.127882 24.292465 
z
" clip-path="url(#p85035e7681)" style="fill: #1f77b4"/>
   </g>
   <g id="patch_102">
    <path d="M 220.742927 273.312 
L 222.357972 273.312 
L 222.357972 50.815256 
L 220.742927 50.815256 
z
" clip-path="url(#p85035e7681)" style="fill: #1f77b4"/>
   </g>
   <g id="patch_103">
    <path d="M 222.357972 273.312 
L 223.973017 273.312 
L 223.973017 19.872 
L 222.357972 19.872 
z
" clip-path="url(#p85035e7681)" style="fill: #1f77b4"/>
   </g>
   <g id="patch_104">
    <path d="M 223.973017 273.312 
L 225.588062 273.312 
L 225.588062 40.500837 
L 223.973017 40.500837 
z
" clip-path="url(#p85035e7681)" style="fill: #1f77b4"/>
   </g>
   <g id="patch_105">
    <path d="M 225.588062 273.312 
L 227.203107 273.312 
L 227.203107 36.817116 
L 225.588062 36.817116 
z
" clip-path="url(#p85035e7681)" style="fill: #1f77b4"/>
   </g>
   <g id="patch_106">
    <path d="M 227.203107 273.312 
L 228.818151 273.312 
L 228.818151 25.029209 
L 227.203107 25.029209 
z
" clip-path="url(#p85035e7681)" style="fill: #1f77b4"/>
   </g>
   <g id="patch_107">
    <path d="M 228.818151 273.312 
L 230.433196 273.312 
L 230.433196 37.55386 
L 228.818151 37.55386 
z
" clip-path="url(#p85035e7681)" style="fill: #1f77b4"/>
   </g>
   <g id="patch_108">
    <path d="M 230.433196 273.312 
L 232.048241 273.312 
L 232.048241 29.449674 
L 230.433196 29.449674 
z
" clip-path="url(#p85035e7681)" style="fill: #1f77b4"/>
   </g>
   <g id="patch_109">
    <path d="M 232.048241 273.312 
L 233.663286 273.312 
L 233.663286 49.341767 
L 232.048241 49.341767 
z
" clip-path="url(#p85035e7681)" style="fill: #1f77b4"/>
   </g>
   <g id="patch_110">
    <path d="M 233.663286 273.312 
L 235.278331 273.312 
L 235.278331 24.292465 
L 233.663286 24.292465 
z
" clip-path="url(#p85035e7681)" style="fill: #1f77b4"/>
   </g>
   <g id="patch_111">
    <path d="M 235.278331 273.312 
L 236.893376 273.312 
L 236.893376 39.764093 
L 235.278331 39.764093 
z
" clip-path="url(#p85035e7681)" style="fill: #1f77b4"/>
   </g>
   <g id="patch_112">
    <path d="M 236.893376 273.312 
L 238.508421 273.312 
L 238.508421 53.762233 
L 236.893376 53.762233 
z
" clip-path="url(#p85035e7681)" style="fill: #1f77b4"/>
   </g>
   <g id="patch_113">
    <path d="M 238.508421 273.312 
L 240.123465 273.312 
L 240.123465 47.868279 
L 238.508421 47.868279 
z
" clip-path="url(#p85035e7681)" style="fill: #1f77b4"/>
   </g>
   <g id="patch_114">
    <path d="M 240.123465 273.312 
L 241.73851 273.312 
L 241.73851 39.027349 
L 240.123465 39.027349 
z
" clip-path="url(#p85035e7681)" style="fill: #1f77b4"/>
   </g>
   <g id="patch_115">
    <path d="M 241.73851 273.312 
L 243.353555 273.312 
L 243.353555 61.866419 
L 241.73851 61.866419 
z
" clip-path="url(#p85035e7681)" style="fill: #1f77b4"/>
   </g>
   <g id="patch_116">
    <path d="M 243.353555 273.312 
L 244.9686 273.312 
L 244.9686 39.764093 
L 243.353555 39.764093 
z
" clip-path="url(#p85035e7681)" style="fill: #1f77b4"/>
   </g>
   <g id="patch_117">
    <path d="M 244.9686 273.312 
L 246.583645 273.312 
L 246.583645 45.658047 
L 244.9686 45.658047 
z
" clip-path="url(#p85035e7681)" style="fill: #1f77b4"/>
   </g>
   <g id="patch_118">
    <path d="M 246.583645 273.312 
L 248.19869 273.312 
L 248.19869 22.818977 
L 246.583645 22.818977 
z
" clip-path="url(#p85035e7681)" style="fill: #1f77b4"/>
   </g>
   <g id="patch_119">
    <path d="M 248.19869 273.312 
L 249.813735 273.312 
L 249.813735 51.552 
L 248.19869 51.552 
z
" clip-path="url(#p85035e7681)" style="fill: #1f77b4"/>
   </g>
   <g id="patch_120">
    <path d="M 249.813735 273.312 
L 251.42878 273.312 
L 251.42878 49.341767 
L 249.813735 49.341767 
z
" clip-path="url(#p85035e7681)" style="fill: #1f77b4"/>
   </g>
   <g id="patch_121">
    <path d="M 251.42878 273.312 
L 253.043824 273.312 
L 253.043824 41.974326 
L 251.42878 41.974326 
z
" clip-path="url(#p85035e7681)" style="fill: #1f77b4"/>
   </g>
   <g id="patch_122">
    <path d="M 253.043824 273.312 
L 254.658869 273.312 
L 254.658869 47.868279 
L 253.043824 47.868279 
z
" clip-path="url(#p85035e7681)" style="fill: #1f77b4"/>
   </g>
   <g id="patch_123">
    <path d="M 254.658869 273.312 
L 256.273914 273.312 
L 256.273914 60.39293 
L 254.658869 60.39293 
z
" clip-path="url(#p85035e7681)" style="fill: #1f77b4"/>
   </g>
   <g id="patch_124">
    <path d="M 256.273914 273.312 
L 257.888959 273.312 
L 257.888959 54.498977 
L 256.273914 54.498977 
z
" clip-path="url(#p85035e7681)" style="fill: #1f77b4"/>
   </g>
   <g id="patch_125">
    <path d="M 257.888959 273.312 
L 259.504004 273.312 
L 259.504004 81.021767 
L 257.888959 81.021767 
z
" clip-path="url(#p85035e7681)" style="fill: #1f77b4"/>
   </g>
   <g id="patch_126">
    <path d="M 259.504004 273.312 
L 261.119049 273.312 
L 261.119049 83.232 
L 259.504004 83.232 
z
" clip-path="url(#p85035e7681)" style="fill: #1f77b4"/>
   </g>
   <g id="patch_127">
    <path d="M 261.119049 273.312 
L 262.734094 273.312 
L 262.734094 36.080372 
L 261.119049 36.080372 
z
" clip-path="url(#p85035e7681)" style="fill: #1f77b4"/>
   </g>
   <g id="patch_128">
    <path d="M 262.734094 273.312 
L 264.349139 273.312 
L 264.349139 74.39107 
L 262.734094 74.39107 
z
" clip-path="url(#p85035e7681)" style="fill: #1f77b4"/>
   </g>
   <g id="patch_129">
    <path d="M 264.349139 273.312 
L 265.964183 273.312 
L 265.964183 61.129674 
L 264.349139 61.129674 
z
" clip-path="url(#p85035e7681)" style="fill: #1f77b4"/>
   </g>
   <g id="patch_130">
    <path d="M 265.964183 273.312 
L 267.579228 273.312 
L 267.579228 62.603163 
L 265.964183 62.603163 
z
" clip-path="url(#p85035e7681)" style="fill: #1f77b4"/>
   </g>
   <g id="patch_131">
    <path d="M 267.579228 273.312 
L 269.194273 273.312 
L 269.194273 75.864558 
L 267.579228 75.864558 
z
" clip-path="url(#p85035e7681)" style="fill: #1f77b4"/>
   </g>
   <g id="patch_132">
    <path d="M 269.194273 273.312 
L 270.809318 273.312 
L 270.809318 67.023628 
L 269.194273 67.023628 
z
" clip-path="url(#p85035e7681)" style="fill: #1f77b4"/>
   </g>
   <g id="patch_133">
    <path d="M 270.809318 273.312 
L 272.424363 273.312 
L 272.424363 72.180837 
L 270.809318 72.180837 
z
" clip-path="url(#p85035e7681)" style="fill: #1f77b4"/>
   </g>
   <g id="patch_134">
    <path d="M 272.424363 273.312 
L 274.039408 273.312 
L 274.039408 80.285023 
L 272.424363 80.285023 
z
" clip-path="url(#p85035e7681)" style="fill: #1f77b4"/>
   </g>
   <g id="patch_135">
    <path d="M 274.039408 273.312 
L 275.654453 273.312 
L 275.654453 66.286884 
L 274.039408 66.286884 
z
" clip-path="url(#p85035e7681)" style="fill: #1f77b4"/>
   </g>
   <g id="patch_136">
    <path d="M 275.654453 273.312 
L 277.269498 273.312 
L 277.269498 61.129674 
L 275.654453 61.129674 
z
" clip-path="url(#p85035e7681)" style="fill: #1f77b4"/>
   </g>
   <g id="patch_137">
    <path d="M 277.269498 273.312 
L 278.884542 273.312 
L 278.884542 77.338047 
L 277.269498 77.338047 
z
" clip-path="url(#p85035e7681)" style="fill: #1f77b4"/>
   </g>
   <g id="patch_138">
    <path d="M 278.884542 273.312 
L 280.499587 273.312 
L 280.499587 80.285023 
L 278.884542 80.285023 
z
" clip-path="url(#p85035e7681)" style="fill: #1f77b4"/>
   </g>
   <g id="patch_139">
    <path d="M 280.499587 273.312 
L 282.114632 273.312 
L 282.114632 84.705488 
L 280.499587 84.705488 
z
" clip-path="url(#p85035e7681)" style="fill: #1f77b4"/>
   </g>
   <g id="patch_140">
    <path d="M 282.114632 273.312 
L 283.729677 273.312 
L 283.729677 83.968744 
L 282.114632 83.968744 
z
" clip-path="url(#p85035e7681)" style="fill: #1f77b4"/>
   </g>
   <g id="patch_141">
    <path d="M 283.729677 273.312 
L 285.344722 273.312 
L 285.344722 87.652465 
L 283.729677 87.652465 
z
" clip-path="url(#p85035e7681)" style="fill: #1f77b4"/>
   </g>
   <g id="patch_142">
    <path d="M 285.344722 273.312 
L 286.959767 273.312 
L 286.959767 69.23386 
L 285.344722 69.23386 
z
" clip-path="url(#p85035e7681)" style="fill: #1f77b4"/>
   </g>
   <g id="patch_143">
    <path d="M 286.959767 273.312 
L 288.574812 273.312 
L 288.574812 90.599442 
L 286.959767 90.599442 
z
" clip-path="url(#p85035e7681)" style="fill: #1f77b4"/>
   </g>
   <g id="patch_144">
    <path d="M 288.574812 273.312 
L 290.189856 273.312 
L 290.189856 75.127814 
L 288.574812 75.127814 
z
" clip-path="url(#p85035e7681)" style="fill: #1f77b4"/>
   </g>
   <g id="patch_145">
    <path d="M 290.189856 273.312 
L 291.804901 273.312 
L 291.804901 78.074791 
L 290.189856 78.074791 
z
" clip-path="url(#p85035e7681)" style="fill: #1f77b4"/>
   </g>
   <g id="patch_146">
    <path d="M 291.804901 273.312 
L 293.419946 273.312 
L 293.419946 92.07293 
L 291.804901 92.07293 
z
" clip-path="url(#p85035e7681)" style="fill: #1f77b4"/>
   </g>
   <g id="patch_147">
    <path d="M 293.419946 273.312 
L 295.034991 273.312 
L 295.034991 109.754791 
L 293.419946 109.754791 
z
" clip-path="url(#p85035e7681)" style="fill: #1f77b4"/>
   </g>
   <g id="patch_148">
    <path d="M 295.034991 273.312 
L 296.650036 273.312 
L 296.650036 105.334326 
L 295.034991 105.334326 
z
" clip-path="url(#p85035e7681)" style="fill: #1f77b4"/>
   </g>
   <g id="patch_149">
    <path d="M 296.650036 273.312 
L 298.265081 273.312 
L 298.265081 103.860837 
L 296.650036 103.860837 
z
" clip-path="url(#p85035e7681)" style="fill: #1f77b4"/>
   </g>
   <g id="patch_150">
    <path d="M 298.265081 273.312 
L 299.880126 273.312 
L 299.880126 104.597581 
L 298.265081 104.597581 
z
" clip-path="url(#p85035e7681)" style="fill: #1f77b4"/>
   </g>
   <g id="patch_151">
    <path d="M 299.880126 273.312 
L 301.495171 273.312 
L 301.495171 114.912 
L 299.880126 114.912 
z
" clip-path="url(#p85035e7681)" style="fill: #1f77b4"/>
   </g>
   <g id="patch_152">
    <path d="M 301.495171 273.312 
L 303.110215 273.312 
L 303.110215 100.91386 
L 301.495171 100.91386 
z
" clip-path="url(#p85035e7681)" style="fill: #1f77b4"/>
   </g>
   <g id="patch_153">
    <path d="M 303.110215 273.312 
L 304.72526 273.312 
L 304.72526 99.440372 
L 303.110215 99.440372 
z
" clip-path="url(#p85035e7681)" style="fill: #1f77b4"/>
   </g>
   <g id="patch_154">
    <path d="M 304.72526 273.312 
L 306.340305 273.312 
L 306.340305 125.226419 
L 304.72526 125.226419 
z
" clip-path="url(#p85035e7681)" style="fill: #1f77b4"/>
   </g>
   <g id="patch_155">
    <path d="M 306.340305 273.312 
L 307.95535 273.312 
L 307.95535 106.07107 
L 306.340305 106.07107 
z
" clip-path="url(#p85035e7681)" style="fill: #1f77b4"/>
   </g>
   <g id="patch_156">
    <path d="M 307.95535 273.312 
L 309.570395 273.312 
L 309.570395 131.857116 
L 307.95535 131.857116 
z
" clip-path="url(#p85035e7681)" style="fill: #1f77b4"/>
   </g>
   <g id="patch_157">
    <path d="M 309.570395 273.312 
L 311.18544 273.312 
L 311.18544 106.807814 
L 309.570395 106.807814 
z
" clip-path="url(#p85035e7681)" style="fill: #1f77b4"/>
   </g>
   <g id="patch_158">
    <path d="M 311.18544 273.312 
L 312.800485 273.312 
L 312.800485 139.961302 
L 311.18544 139.961302 
z
" clip-path="url(#p85035e7681)" style="fill: #1f77b4"/>
   </g>
   <g id="patch_159">
    <path d="M 312.800485 273.312 
L 314.41553 273.312 
L 314.41553 137.75107 
L 312.800485 137.75107 
z
" clip-path="url(#p85035e7681)" style="fill: #1f77b4"/>
   </g>
   <g id="patch_160">
    <path d="M 314.41553 273.312 
L 316.030574 273.312 
L 316.030574 118.595721 
L 314.41553 118.595721 
z
" clip-path="url(#p85035e7681)" style="fill: #1f77b4"/>
   </g>
   <g id="patch_161">
    <path d="M 316.030574 273.312 
L 317.645619 273.312 
L 317.645619 134.067349 
L 316.030574 134.067349 
z
" clip-path="url(#p85035e7681)" style="fill: #1f77b4"/>
   </g>
   <g id="patch_162">
    <path d="M 317.645619 273.312 
L 319.260664 273.312 
L 319.260664 113.438512 
L 317.645619 113.438512 
z
" clip-path="url(#p85035e7681)" style="fill: #1f77b4"/>
   </g>
   <g id="patch_163">
    <path d="M 319.260664 273.312 
L 320.875709 273.312 
L 320.875709 128.173395 
L 319.260664 128.173395 
z
" clip-path="url(#p85035e7681)" style="fill: #1f77b4"/>
   </g>
   <g id="patch_164">
    <path d="M 320.875709 273.312 
L 322.490754 273.312 
L 322.490754 137.014326 
L 320.875709 137.014326 
z
" clip-path="url(#p85035e7681)" style="fill: #1f77b4"/>
   </g>
   <g id="patch_165">
    <path d="M 322.490754 273.312 
L 324.105799 273.312 
L 324.105799 138.487814 
L 322.490754 138.487814 
z
" clip-path="url(#p85035e7681)" style="fill: #1f77b4"/>
   </g>
   <g id="patch_166">
    <path d="M 324.105799 273.312 
L 325.720844 273.312 
L 325.720844 140.698047 
L 324.105799 140.698047 
z
" clip-path="url(#p85035e7681)" style="fill: #1f77b4"/>
   </g>
   <g id="patch_167">
    <path d="M 325.720844 273.312 
L 327.335889 273.312 
L 327.335889 153.959442 
L 325.720844 153.959442 
z
" clip-path="url(#p85035e7681)" style="fill: #1f77b4"/>
   </g>
   <g id="patch_168">
    <path d="M 327.335889 273.312 
L 328.950933 273.312 
L 328.950933 133.330605 
L 327.335889 133.330605 
z
" clip-path="url(#p85035e7681)" style="fill: #1f77b4"/>
   </g>
   <g id="patch_169">
    <path d="M 328.950933 273.312 
L 330.565978 273.312 
L 330.565978 151.749209 
L 328.950933 151.749209 
z
" clip-path="url(#p85035e7681)" style="fill: #1f77b4"/>
   </g>
   <g id="patch_170">
    <path d="M 330.565978 273.312 
L 332.181023 273.312 
L 332.181023 163.537116 
L 330.565978 163.537116 
z
" clip-path="url(#p85035e7681)" style="fill: #1f77b4"/>
   </g>
   <g id="patch_171">
    <path d="M 332.181023 273.312 
L 333.796068 273.312 
L 333.796068 173.114791 
L 332.181023 173.114791 
z
" clip-path="url(#p85035e7681)" style="fill: #1f77b4"/>
   </g>
   <g id="patch_172">
    <path d="M 333.796068 273.312 
L 335.411113 273.312 
L 335.411113 182.692465 
L 333.796068 182.692465 
z
" clip-path="url(#p85035e7681)" style="fill: #1f77b4"/>
   </g>
   <g id="patch_173">
    <path d="M 335.411113 273.312 
L 337.026158 273.312 
L 337.026158 169.43107 
L 335.411113 169.43107 
z
" clip-path="url(#p85035e7681)" style="fill: #1f77b4"/>
   </g>
   <g id="patch_174">
    <path d="M 337.026158 273.312 
L 338.641203 273.312 
L 338.641203 167.957581 
L 337.026158 167.957581 
z
" clip-path="url(#p85035e7681)" style="fill: #1f77b4"/>
   </g>
   <g id="patch_175">
    <path d="M 338.641203 273.312 
L 340.256247 273.312 
L 340.256247 181.955721 
L 338.641203 181.955721 
z
" clip-path="url(#p85035e7681)" style="fill: #1f77b4"/>
   </g>
   <g id="patch_176">
    <path d="M 340.256247 273.312 
L 341.871292 273.312 
L 341.871292 184.902698 
L 340.256247 184.902698 
z
" clip-path="url(#p85035e7681)" style="fill: #1f77b4"/>
   </g>
   <g id="patch_177">
    <path d="M 341.871292 273.312 
L 343.486337 273.312 
L 343.486337 194.480372 
L 341.871292 194.480372 
z
" clip-path="url(#p85035e7681)" style="fill: #1f77b4"/>
   </g>
   <g id="patch_178">
    <path d="M 343.486337 273.312 
L 345.101382 273.312 
L 345.101382 174.588279 
L 343.486337 174.588279 
z
" clip-path="url(#p85035e7681)" style="fill: #1f77b4"/>
   </g>
   <g id="patch_179">
    <path d="M 345.101382 273.312 
L 346.716427 273.312 
L 346.716427 182.692465 
L 345.101382 182.692465 
z
" clip-path="url(#p85035e7681)" style="fill: #1f77b4"/>
   </g>
   <g id="patch_180">
    <path d="M 346.716427 273.312 
L 348.331472 273.312 
L 348.331472 183.429209 
L 346.716427 183.429209 
z
" clip-path="url(#p85035e7681)" style="fill: #1f77b4"/>
   </g>
   <g id="patch_181">
    <path d="M 348.331472 273.312 
L 349.946517 273.312 
L 349.946517 207.741767 
L 348.331472 207.741767 
z
" clip-path="url(#p85035e7681)" style="fill: #1f77b4"/>
   </g>
   <g id="patch_182">
    <path d="M 349.946517 273.312 
L 351.561562 273.312 
L 351.561562 193.006884 
L 349.946517 193.006884 
z
" clip-path="url(#p85035e7681)" style="fill: #1f77b4"/>
   </g>
   <g id="patch_183">
    <path d="M 351.561562 273.312 
L 353.176606 273.312 
L 353.176606 197.427349 
L 351.561562 197.427349 
z
" clip-path="url(#p85035e7681)" style="fill: #1f77b4"/>
   </g>
   <g id="patch_184">
    <path d="M 353.176606 273.312 
L 354.791651 273.312 
L 354.791651 199.637581 
L 353.176606 199.637581 
z
" clip-path="url(#p85035e7681)" style="fill: #1f77b4"/>
   </g>
   <g id="patch_185">
    <path d="M 354.791651 273.312 
L 356.406696 273.312 
L 356.406696 209.952 
L 354.791651 209.952 
z
" clip-path="url(#p85035e7681)" style="fill: #1f77b4"/>
   </g>
   <g id="patch_186">
    <path d="M 356.406696 273.312 
L 358.021741 273.312 
L 358.021741 229.107349 
L 356.406696 229.107349 
z
" clip-path="url(#p85035e7681)" style="fill: #1f77b4"/>
   </g>
   <g id="patch_187">
    <path d="M 358.021741 273.312 
L 359.636786 273.312 
L 359.636786 226.897116 
L 358.021741 226.897116 
z
" clip-path="url(#p85035e7681)" style="fill: #1f77b4"/>
   </g>
   <g id="patch_188">
    <path d="M 359.636786 273.312 
L 361.251831 273.312 
L 361.251831 224.686884 
L 359.636786 224.686884 
z
" clip-path="url(#p85035e7681)" style="fill: #1f77b4"/>
   </g>
   <g id="patch_189">
    <path d="M 361.251831 273.312 
L 362.866876 273.312 
L 362.866876 213.635721 
L 361.251831 213.635721 
z
" clip-path="url(#p85035e7681)" style="fill: #1f77b4"/>
   </g>
   <g id="patch_190">
    <path d="M 362.866876 273.312 
L 364.481921 273.312 
L 364.481921 226.160372 
L 362.866876 226.160372 
z
" clip-path="url(#p85035e7681)" style="fill: #1f77b4"/>
   </g>
   <g id="patch_191">
    <path d="M 364.481921 273.312 
L 366.096965 273.312 
L 366.096965 228.370605 
L 364.481921 228.370605 
z
" clip-path="url(#p85035e7681)" style="fill: #1f77b4"/>
   </g>
   <g id="patch_192">
    <path d="M 366.096965 273.312 
L 367.71201 273.312 
L 367.71201 224.686884 
L 366.096965 224.686884 
z
" clip-path="url(#p85035e7681)" style="fill: #1f77b4"/>
   </g>
   <g id="patch_193">
    <path d="M 367.71201 273.312 
L 369.327055 273.312 
L 369.327055 239.421767 
L 367.71201 239.421767 
z
" clip-path="url(#p85035e7681)" style="fill: #1f77b4"/>
   </g>
   <g id="patch_194">
    <path d="M 369.327055 273.312 
L 370.9421 273.312 
L 370.9421 243.105488 
L 369.327055 243.105488 
z
" clip-path="url(#p85035e7681)" style="fill: #1f77b4"/>
   </g>
   <g id="patch_195">
    <path d="M 370.9421 273.312 
L 372.557145 273.312 
L 372.557145 241.632 
L 370.9421 241.632 
z
" clip-path="url(#p85035e7681)" style="fill: #1f77b4"/>
   </g>
   <g id="patch_196">
    <path d="M 372.557145 273.312 
L 374.17219 273.312 
L 374.17219 242.368744 
L 372.557145 242.368744 
z
" clip-path="url(#p85035e7681)" style="fill: #1f77b4"/>
   </g>
   <g id="patch_197">
    <path d="M 374.17219 273.312 
L 375.787235 273.312 
L 375.787235 248.999442 
L 374.17219 248.999442 
z
" clip-path="url(#p85035e7681)" style="fill: #1f77b4"/>
   </g>
   <g id="patch_198">
    <path d="M 375.787235 273.312 
L 377.402279 273.312 
L 377.402279 254.156651 
L 375.787235 254.156651 
z
" clip-path="url(#p85035e7681)" style="fill: #1f77b4"/>
   </g>
   <g id="patch_199">
    <path d="M 377.402279 273.312 
L 379.017324 273.312 
L 379.017324 259.31386 
L 377.402279 259.31386 
z
" clip-path="url(#p85035e7681)" style="fill: #1f77b4"/>
   </g>
   <g id="patch_200">
    <path d="M 379.017324 273.312 
L 380.632369 273.312 
L 380.632369 265.207814 
L 379.017324 265.207814 
z
" clip-path="url(#p85035e7681)" style="fill: #1f77b4"/>
   </g>
   <g id="patch_201">
    <path d="M 380.632369 273.312 
L 382.247414 273.312 
L 382.247414 269.628279 
L 380.632369 269.628279 
z
" clip-path="url(#p85035e7681)" style="fill: #1f77b4"/>
   </g>
   <g id="patch_202">
    <path d="M 382.247414 273.312 
L 383.862459 273.312 
L 383.862459 270.365023 
L 382.247414 270.365023 
z
" clip-path="url(#p85035e7681)" style="fill: #1f77b4"/>
   </g>
   <g id="matplotlib.axis_1">
    <g id="xtick_1">
     <g id="line2d_1">
      <defs>
       <path id="mfffd307b6e" d="M 0 0 
L 0 3.5 
" style="stroke: #000000; stroke-width: 0.8"/>
      </defs>
      <g>
       <use xlink:href="#mfffd307b6e" x="60.013977" y="273.312" style="stroke: #000000; stroke-width: 0.8"/>
      </g>
     </g>
     <g id="text_1">
      <!-- 0.0 -->
      <g transform="translate(52.062415 287.910437)scale(0.1 -0.1)">
       <defs>
        <path id="DejaVuSans-30" d="M 2034 4250 
Q 1547 4250 1301 3770 
Q 1056 3291 1056 2328 
Q 1056 1369 1301 889 
Q 1547 409 2034 409 
Q 2525 409 2770 889 
Q 3016 1369 3016 2328 
Q 3016 3291 2770 3770 
Q 2525 4250 2034 4250 
z
M 2034 4750 
Q 2819 4750 3233 4129 
Q 3647 3509 3647 2328 
Q 3647 1150 3233 529 
Q 2819 -91 2034 -91 
Q 1250 -91 836 529 
Q 422 1150 422 2328 
Q 422 3509 836 4129 
Q 1250 4750 2034 4750 
z
" transform="scale(0.015625)"/>
        <path id="DejaVuSans-2e" d="M 684 794 
L 1344 794 
L 1344 0 
L 684 0 
L 684 794 
z
" transform="scale(0.015625)"/>
       </defs>
       <use xlink:href="#DejaVuSans-30"/>
       <use xlink:href="#DejaVuSans-2e" x="63.623047"/>
       <use xlink:href="#DejaVuSans-30" x="95.410156"/>
      </g>
     </g>
    </g>
    <g id="xtick_2">
     <g id="line2d_2">
      <g>
       <use xlink:href="#mfffd307b6e" x="101.350278" y="273.312" style="stroke: #000000; stroke-width: 0.8"/>
      </g>
     </g>
     <g id="text_2">
      <!-- 0.2 -->
      <g transform="translate(93.398715 287.910437)scale(0.1 -0.1)">
       <defs>
        <path id="DejaVuSans-32" d="M 1228 531 
L 3431 531 
L 3431 0 
L 469 0 
L 469 531 
Q 828 903 1448 1529 
Q 2069 2156 2228 2338 
Q 2531 2678 2651 2914 
Q 2772 3150 2772 3378 
Q 2772 3750 2511 3984 
Q 2250 4219 1831 4219 
Q 1534 4219 1204 4116 
Q 875 4013 500 3803 
L 500 4441 
Q 881 4594 1212 4672 
Q 1544 4750 1819 4750 
Q 2544 4750 2975 4387 
Q 3406 4025 3406 3419 
Q 3406 3131 3298 2873 
Q 3191 2616 2906 2266 
Q 2828 2175 2409 1742 
Q 1991 1309 1228 531 
z
" transform="scale(0.015625)"/>
       </defs>
       <use xlink:href="#DejaVuSans-30"/>
       <use xlink:href="#DejaVuSans-2e" x="63.623047"/>
       <use xlink:href="#DejaVuSans-32" x="95.410156"/>
      </g>
     </g>
    </g>
    <g id="xtick_3">
     <g id="line2d_3">
      <g>
       <use xlink:href="#mfffd307b6e" x="142.686578" y="273.312" style="stroke: #000000; stroke-width: 0.8"/>
      </g>
     </g>
     <g id="text_3">
      <!-- 0.4 -->
      <g transform="translate(134.735016 287.910437)scale(0.1 -0.1)">
       <defs>
        <path id="DejaVuSans-34" d="M 2419 4116 
L 825 1625 
L 2419 1625 
L 2419 4116 
z
M 2253 4666 
L 3047 4666 
L 3047 1625 
L 3713 1625 
L 3713 1100 
L 3047 1100 
L 3047 0 
L 2419 0 
L 2419 1100 
L 313 1100 
L 313 1709 
L 2253 4666 
z
" transform="scale(0.015625)"/>
       </defs>
       <use xlink:href="#DejaVuSans-30"/>
       <use xlink:href="#DejaVuSans-2e" x="63.623047"/>
       <use xlink:href="#DejaVuSans-34" x="95.410156"/>
      </g>
     </g>
    </g>
    <g id="xtick_4">
     <g id="line2d_4">
      <g>
       <use xlink:href="#mfffd307b6e" x="184.022879" y="273.312" style="stroke: #000000; stroke-width: 0.8"/>
      </g>
     </g>
     <g id="text_4">
      <!-- 0.6 -->
      <g transform="translate(176.071316 287.910437)scale(0.1 -0.1)">
       <defs>
        <path id="DejaVuSans-36" d="M 2113 2584 
Q 1688 2584 1439 2293 
Q 1191 2003 1191 1497 
Q 1191 994 1439 701 
Q 1688 409 2113 409 
Q 2538 409 2786 701 
Q 3034 994 3034 1497 
Q 3034 2003 2786 2293 
Q 2538 2584 2113 2584 
z
M 3366 4563 
L 3366 3988 
Q 3128 4100 2886 4159 
Q 2644 4219 2406 4219 
Q 1781 4219 1451 3797 
Q 1122 3375 1075 2522 
Q 1259 2794 1537 2939 
Q 1816 3084 2150 3084 
Q 2853 3084 3261 2657 
Q 3669 2231 3669 1497 
Q 3669 778 3244 343 
Q 2819 -91 2113 -91 
Q 1303 -91 875 529 
Q 447 1150 447 2328 
Q 447 3434 972 4092 
Q 1497 4750 2381 4750 
Q 2619 4750 2861 4703 
Q 3103 4656 3366 4563 
z
" transform="scale(0.015625)"/>
       </defs>
       <use xlink:href="#DejaVuSans-30"/>
       <use xlink:href="#DejaVuSans-2e" x="63.623047"/>
       <use xlink:href="#DejaVuSans-36" x="95.410156"/>
      </g>
     </g>
    </g>
    <g id="xtick_5">
     <g id="line2d_5">
      <g>
       <use xlink:href="#mfffd307b6e" x="225.35918" y="273.312" style="stroke: #000000; stroke-width: 0.8"/>
      </g>
     </g>
     <g id="text_5">
      <!-- 0.8 -->
      <g transform="translate(217.407617 287.910437)scale(0.1 -0.1)">
       <defs>
        <path id="DejaVuSans-38" d="M 2034 2216 
Q 1584 2216 1326 1975 
Q 1069 1734 1069 1313 
Q 1069 891 1326 650 
Q 1584 409 2034 409 
Q 2484 409 2743 651 
Q 3003 894 3003 1313 
Q 3003 1734 2745 1975 
Q 2488 2216 2034 2216 
z
M 1403 2484 
Q 997 2584 770 2862 
Q 544 3141 544 3541 
Q 544 4100 942 4425 
Q 1341 4750 2034 4750 
Q 2731 4750 3128 4425 
Q 3525 4100 3525 3541 
Q 3525 3141 3298 2862 
Q 3072 2584 2669 2484 
Q 3125 2378 3379 2068 
Q 3634 1759 3634 1313 
Q 3634 634 3220 271 
Q 2806 -91 2034 -91 
Q 1263 -91 848 271 
Q 434 634 434 1313 
Q 434 1759 690 2068 
Q 947 2378 1403 2484 
z
M 1172 3481 
Q 1172 3119 1398 2916 
Q 1625 2713 2034 2713 
Q 2441 2713 2670 2916 
Q 2900 3119 2900 3481 
Q 2900 3844 2670 4047 
Q 2441 4250 2034 4250 
Q 1625 4250 1398 4047 
Q 1172 3844 1172 3481 
z
" transform="scale(0.015625)"/>
       </defs>
       <use xlink:href="#DejaVuSans-30"/>
       <use xlink:href="#DejaVuSans-2e" x="63.623047"/>
       <use xlink:href="#DejaVuSans-38" x="95.410156"/>
      </g>
     </g>
    </g>
    <g id="xtick_6">
     <g id="line2d_6">
      <g>
       <use xlink:href="#mfffd307b6e" x="266.69548" y="273.312" style="stroke: #000000; stroke-width: 0.8"/>
      </g>
     </g>
     <g id="text_6">
      <!-- 1.0 -->
      <g transform="translate(258.743918 287.910437)scale(0.1 -0.1)">
       <defs>
        <path id="DejaVuSans-31" d="M 794 531 
L 1825 531 
L 1825 4091 
L 703 3866 
L 703 4441 
L 1819 4666 
L 2450 4666 
L 2450 531 
L 3481 531 
L 3481 0 
L 794 0 
L 794 531 
z
" transform="scale(0.015625)"/>
       </defs>
       <use xlink:href="#DejaVuSans-31"/>
       <use xlink:href="#DejaVuSans-2e" x="63.623047"/>
       <use xlink:href="#DejaVuSans-30" x="95.410156"/>
      </g>
     </g>
    </g>
    <g id="xtick_7">
     <g id="line2d_7">
      <g>
       <use xlink:href="#mfffd307b6e" x="308.031781" y="273.312" style="stroke: #000000; stroke-width: 0.8"/>
      </g>
     </g>
     <g id="text_7">
      <!-- 1.2 -->
      <g transform="translate(300.080218 287.910437)scale(0.1 -0.1)">
       <use xlink:href="#DejaVuSans-31"/>
       <use xlink:href="#DejaVuSans-2e" x="63.623047"/>
       <use xlink:href="#DejaVuSans-32" x="95.410156"/>
      </g>
     </g>
    </g>
    <g id="xtick_8">
     <g id="line2d_8">
      <g>
       <use xlink:href="#mfffd307b6e" x="349.368081" y="273.312" style="stroke: #000000; stroke-width: 0.8"/>
      </g>
     </g>
     <g id="text_8">
      <!-- 1.4 -->
      <g transform="translate(341.416519 287.910437)scale(0.1 -0.1)">
       <use xlink:href="#DejaVuSans-31"/>
       <use xlink:href="#DejaVuSans-2e" x="63.623047"/>
       <use xlink:href="#DejaVuSans-34" x="95.410156"/>
      </g>
     </g>
    </g>
    <g id="xtick_9">
     <g id="line2d_9">
      <g>
       <use xlink:href="#mfffd307b6e" x="390.704382" y="273.312" style="stroke: #000000; stroke-width: 0.8"/>
      </g>
     </g>
     <g id="text_9">
      <!-- 1.6 -->
      <g transform="translate(382.752819 287.910437)scale(0.1 -0.1)">
       <use xlink:href="#DejaVuSans-31"/>
       <use xlink:href="#DejaVuSans-2e" x="63.623047"/>
       <use xlink:href="#DejaVuSans-36" x="95.410156"/>
      </g>
     </g>
    </g>
    <g id="text_10">
     <!-- Angle with normal (rad) -->
     <g transform="translate(163.023281 301.588562)scale(0.1 -0.1)">
      <defs>
       <path id="DejaVuSans-41" d="M 2188 4044 
L 1331 1722 
L 3047 1722 
L 2188 4044 
z
M 1831 4666 
L 2547 4666 
L 4325 0 
L 3669 0 
L 3244 1197 
L 1141 1197 
L 716 0 
L 50 0 
L 1831 4666 
z
" transform="scale(0.015625)"/>
       <path id="DejaVuSans-6e" d="M 3513 2113 
L 3513 0 
L 2938 0 
L 2938 2094 
Q 2938 2591 2744 2837 
Q 2550 3084 2163 3084 
Q 1697 3084 1428 2787 
Q 1159 2491 1159 1978 
L 1159 0 
L 581 0 
L 581 3500 
L 1159 3500 
L 1159 2956 
Q 1366 3272 1645 3428 
Q 1925 3584 2291 3584 
Q 2894 3584 3203 3211 
Q 3513 2838 3513 2113 
z
" transform="scale(0.015625)"/>
       <path id="DejaVuSans-67" d="M 2906 1791 
Q 2906 2416 2648 2759 
Q 2391 3103 1925 3103 
Q 1463 3103 1205 2759 
Q 947 2416 947 1791 
Q 947 1169 1205 825 
Q 1463 481 1925 481 
Q 2391 481 2648 825 
Q 2906 1169 2906 1791 
z
M 3481 434 
Q 3481 -459 3084 -895 
Q 2688 -1331 1869 -1331 
Q 1566 -1331 1297 -1286 
Q 1028 -1241 775 -1147 
L 775 -588 
Q 1028 -725 1275 -790 
Q 1522 -856 1778 -856 
Q 2344 -856 2625 -561 
Q 2906 -266 2906 331 
L 2906 616 
Q 2728 306 2450 153 
Q 2172 0 1784 0 
Q 1141 0 747 490 
Q 353 981 353 1791 
Q 353 2603 747 3093 
Q 1141 3584 1784 3584 
Q 2172 3584 2450 3431 
Q 2728 3278 2906 2969 
L 2906 3500 
L 3481 3500 
L 3481 434 
z
" transform="scale(0.015625)"/>
       <path id="DejaVuSans-6c" d="M 603 4863 
L 1178 4863 
L 1178 0 
L 603 0 
L 603 4863 
z
" transform="scale(0.015625)"/>
       <path id="DejaVuSans-65" d="M 3597 1894 
L 3597 1613 
L 953 1613 
Q 991 1019 1311 708 
Q 1631 397 2203 397 
Q 2534 397 2845 478 
Q 3156 559 3463 722 
L 3463 178 
Q 3153 47 2828 -22 
Q 2503 -91 2169 -91 
Q 1331 -91 842 396 
Q 353 884 353 1716 
Q 353 2575 817 3079 
Q 1281 3584 2069 3584 
Q 2775 3584 3186 3129 
Q 3597 2675 3597 1894 
z
M 3022 2063 
Q 3016 2534 2758 2815 
Q 2500 3097 2075 3097 
Q 1594 3097 1305 2825 
Q 1016 2553 972 2059 
L 3022 2063 
z
" transform="scale(0.015625)"/>
       <path id="DejaVuSans-20" transform="scale(0.015625)"/>
       <path id="DejaVuSans-77" d="M 269 3500 
L 844 3500 
L 1563 769 
L 2278 3500 
L 2956 3500 
L 3675 769 
L 4391 3500 
L 4966 3500 
L 4050 0 
L 3372 0 
L 2619 2869 
L 1863 0 
L 1184 0 
L 269 3500 
z
" transform="scale(0.015625)"/>
       <path id="DejaVuSans-69" d="M 603 3500 
L 1178 3500 
L 1178 0 
L 603 0 
L 603 3500 
z
M 603 4863 
L 1178 4863 
L 1178 4134 
L 603 4134 
L 603 4863 
z
" transform="scale(0.015625)"/>
       <path id="DejaVuSans-74" d="M 1172 4494 
L 1172 3500 
L 2356 3500 
L 2356 3053 
L 1172 3053 
L 1172 1153 
Q 1172 725 1289 603 
Q 1406 481 1766 481 
L 2356 481 
L 2356 0 
L 1766 0 
Q 1100 0 847 248 
Q 594 497 594 1153 
L 594 3053 
L 172 3053 
L 172 3500 
L 594 3500 
L 594 4494 
L 1172 4494 
z
" transform="scale(0.015625)"/>
       <path id="DejaVuSans-68" d="M 3513 2113 
L 3513 0 
L 2938 0 
L 2938 2094 
Q 2938 2591 2744 2837 
Q 2550 3084 2163 3084 
Q 1697 3084 1428 2787 
Q 1159 2491 1159 1978 
L 1159 0 
L 581 0 
L 581 4863 
L 1159 4863 
L 1159 2956 
Q 1366 3272 1645 3428 
Q 1925 3584 2291 3584 
Q 2894 3584 3203 3211 
Q 3513 2838 3513 2113 
z
" transform="scale(0.015625)"/>
       <path id="DejaVuSans-6f" d="M 1959 3097 
Q 1497 3097 1228 2736 
Q 959 2375 959 1747 
Q 959 1119 1226 758 
Q 1494 397 1959 397 
Q 2419 397 2687 759 
Q 2956 1122 2956 1747 
Q 2956 2369 2687 2733 
Q 2419 3097 1959 3097 
z
M 1959 3584 
Q 2709 3584 3137 3096 
Q 3566 2609 3566 1747 
Q 3566 888 3137 398 
Q 2709 -91 1959 -91 
Q 1206 -91 779 398 
Q 353 888 353 1747 
Q 353 2609 779 3096 
Q 1206 3584 1959 3584 
z
" transform="scale(0.015625)"/>
       <path id="DejaVuSans-72" d="M 2631 2963 
Q 2534 3019 2420 3045 
Q 2306 3072 2169 3072 
Q 1681 3072 1420 2755 
Q 1159 2438 1159 1844 
L 1159 0 
L 581 0 
L 581 3500 
L 1159 3500 
L 1159 2956 
Q 1341 3275 1631 3429 
Q 1922 3584 2338 3584 
Q 2397 3584 2469 3576 
Q 2541 3569 2628 3553 
L 2631 2963 
z
" transform="scale(0.015625)"/>
       <path id="DejaVuSans-6d" d="M 3328 2828 
Q 3544 3216 3844 3400 
Q 4144 3584 4550 3584 
Q 5097 3584 5394 3201 
Q 5691 2819 5691 2113 
L 5691 0 
L 5113 0 
L 5113 2094 
Q 5113 2597 4934 2840 
Q 4756 3084 4391 3084 
Q 3944 3084 3684 2787 
Q 3425 2491 3425 1978 
L 3425 0 
L 2847 0 
L 2847 2094 
Q 2847 2600 2669 2842 
Q 2491 3084 2119 3084 
Q 1678 3084 1418 2786 
Q 1159 2488 1159 1978 
L 1159 0 
L 581 0 
L 581 3500 
L 1159 3500 
L 1159 2956 
Q 1356 3278 1631 3431 
Q 1906 3584 2284 3584 
Q 2666 3584 2933 3390 
Q 3200 3197 3328 2828 
z
" transform="scale(0.015625)"/>
       <path id="DejaVuSans-61" d="M 2194 1759 
Q 1497 1759 1228 1600 
Q 959 1441 959 1056 
Q 959 750 1161 570 
Q 1363 391 1709 391 
Q 2188 391 2477 730 
Q 2766 1069 2766 1631 
L 2766 1759 
L 2194 1759 
z
M 3341 1997 
L 3341 0 
L 2766 0 
L 2766 531 
Q 2569 213 2275 61 
Q 1981 -91 1556 -91 
Q 1019 -91 701 211 
Q 384 513 384 1019 
Q 384 1609 779 1909 
Q 1175 2209 1959 2209 
L 2766 2209 
L 2766 2266 
Q 2766 2663 2505 2880 
Q 2244 3097 1772 3097 
Q 1472 3097 1187 3025 
Q 903 2953 641 2809 
L 641 3341 
Q 956 3463 1253 3523 
Q 1550 3584 1831 3584 
Q 2591 3584 2966 3190 
Q 3341 2797 3341 1997 
z
" transform="scale(0.015625)"/>
       <path id="DejaVuSans-28" d="M 1984 4856 
Q 1566 4138 1362 3434 
Q 1159 2731 1159 2009 
Q 1159 1288 1364 580 
Q 1569 -128 1984 -844 
L 1484 -844 
Q 1016 -109 783 600 
Q 550 1309 550 2009 
Q 550 2706 781 3412 
Q 1013 4119 1484 4856 
L 1984 4856 
z
" transform="scale(0.015625)"/>
       <path id="DejaVuSans-64" d="M 2906 2969 
L 2906 4863 
L 3481 4863 
L 3481 0 
L 2906 0 
L 2906 525 
Q 2725 213 2448 61 
Q 2172 -91 1784 -91 
Q 1150 -91 751 415 
Q 353 922 353 1747 
Q 353 2572 751 3078 
Q 1150 3584 1784 3584 
Q 2172 3584 2448 3432 
Q 2725 3281 2906 2969 
z
M 947 1747 
Q 947 1113 1208 752 
Q 1469 391 1925 391 
Q 2381 391 2643 752 
Q 2906 1113 2906 1747 
Q 2906 2381 2643 2742 
Q 2381 3103 1925 3103 
Q 1469 3103 1208 2742 
Q 947 2381 947 1747 
z
" transform="scale(0.015625)"/>
       <path id="DejaVuSans-29" d="M 513 4856 
L 1013 4856 
Q 1481 4119 1714 3412 
Q 1947 2706 1947 2009 
Q 1947 1309 1714 600 
Q 1481 -109 1013 -844 
L 513 -844 
Q 928 -128 1133 580 
Q 1338 1288 1338 2009 
Q 1338 2731 1133 3434 
Q 928 4138 513 4856 
z
" transform="scale(0.015625)"/>
      </defs>
      <use xlink:href="#DejaVuSans-41"/>
      <use xlink:href="#DejaVuSans-6e" x="68.408203"/>
      <use xlink:href="#DejaVuSans-67" x="131.787109"/>
      <use xlink:href="#DejaVuSans-6c" x="195.263672"/>
      <use xlink:href="#DejaVuSans-65" x="223.046875"/>
      <use xlink:href="#DejaVuSans-20" x="284.570312"/>
      <use xlink:href="#DejaVuSans-77" x="316.357422"/>
      <use xlink:href="#DejaVuSans-69" x="398.144531"/>
      <use xlink:href="#DejaVuSans-74" x="425.927734"/>
      <use xlink:href="#DejaVuSans-68" x="465.136719"/>
      <use xlink:href="#DejaVuSans-20" x="528.515625"/>
      <use xlink:href="#DejaVuSans-6e" x="560.302734"/>
      <use xlink:href="#DejaVuSans-6f" x="623.681641"/>
      <use xlink:href="#DejaVuSans-72" x="684.863281"/>
      <use xlink:href="#DejaVuSans-6d" x="724.226562"/>
      <use xlink:href="#DejaVuSans-61" x="821.638672"/>
      <use xlink:href="#DejaVuSans-6c" x="882.917969"/>
      <use xlink:href="#DejaVuSans-20" x="910.701172"/>
      <use xlink:href="#DejaVuSans-28" x="942.488281"/>
      <use xlink:href="#DejaVuSans-72" x="981.501953"/>
      <use xlink:href="#DejaVuSans-61" x="1022.615234"/>
      <use xlink:href="#DejaVuSans-64" x="1083.894531"/>
      <use xlink:href="#DejaVuSans-29" x="1147.371094"/>
     </g>
    </g>
   </g>
   <g id="matplotlib.axis_2">
    <g id="ytick_1">
     <g id="line2d_10">
      <defs>
       <path id="m7834ce6d0f" d="M 0 0 
L -3.5 0 
" style="stroke: #000000; stroke-width: 0.8"/>
      </defs>
      <g>
       <use xlink:href="#m7834ce6d0f" x="43.78125" y="273.312" style="stroke: #000000; stroke-width: 0.8"/>
      </g>
     </g>
     <g id="text_11">
      <!-- 0.0 -->
      <g transform="translate(20.878125 277.111219)scale(0.1 -0.1)">
       <use xlink:href="#DejaVuSans-30"/>
       <use xlink:href="#DejaVuSans-2e" x="63.623047"/>
       <use xlink:href="#DejaVuSans-30" x="95.410156"/>
      </g>
     </g>
    </g>
    <g id="ytick_2">
     <g id="line2d_11">
      <g>
       <use xlink:href="#m7834ce6d0f" x="43.78125" y="227.255632" style="stroke: #000000; stroke-width: 0.8"/>
      </g>
     </g>
     <g id="text_12">
      <!-- 0.2 -->
      <g transform="translate(20.878125 231.054851)scale(0.1 -0.1)">
       <use xlink:href="#DejaVuSans-30"/>
       <use xlink:href="#DejaVuSans-2e" x="63.623047"/>
       <use xlink:href="#DejaVuSans-32" x="95.410156"/>
      </g>
     </g>
    </g>
    <g id="ytick_3">
     <g id="line2d_12">
      <g>
       <use xlink:href="#m7834ce6d0f" x="43.78125" y="181.199264" style="stroke: #000000; stroke-width: 0.8"/>
      </g>
     </g>
     <g id="text_13">
      <!-- 0.4 -->
      <g transform="translate(20.878125 184.998483)scale(0.1 -0.1)">
       <use xlink:href="#DejaVuSans-30"/>
       <use xlink:href="#DejaVuSans-2e" x="63.623047"/>
       <use xlink:href="#DejaVuSans-34" x="95.410156"/>
      </g>
     </g>
    </g>
    <g id="ytick_4">
     <g id="line2d_13">
      <g>
       <use xlink:href="#m7834ce6d0f" x="43.78125" y="135.142896" style="stroke: #000000; stroke-width: 0.8"/>
      </g>
     </g>
     <g id="text_14">
      <!-- 0.6 -->
      <g transform="translate(20.878125 138.942115)scale(0.1 -0.1)">
       <use xlink:href="#DejaVuSans-30"/>
       <use xlink:href="#DejaVuSans-2e" x="63.623047"/>
       <use xlink:href="#DejaVuSans-36" x="95.410156"/>
      </g>
     </g>
    </g>
    <g id="ytick_5">
     <g id="line2d_14">
      <g>
       <use xlink:href="#m7834ce6d0f" x="43.78125" y="89.086528" style="stroke: #000000; stroke-width: 0.8"/>
      </g>
     </g>
     <g id="text_15">
      <!-- 0.8 -->
      <g transform="translate(20.878125 92.885747)scale(0.1 -0.1)">
       <use xlink:href="#DejaVuSans-30"/>
       <use xlink:href="#DejaVuSans-2e" x="63.623047"/>
       <use xlink:href="#DejaVuSans-38" x="95.410156"/>
      </g>
     </g>
    </g>
    <g id="ytick_6">
     <g id="line2d_15">
      <g>
       <use xlink:href="#m7834ce6d0f" x="43.78125" y="43.03016" style="stroke: #000000; stroke-width: 0.8"/>
      </g>
     </g>
     <g id="text_16">
      <!-- 1.0 -->
      <g transform="translate(20.878125 46.829379)scale(0.1 -0.1)">
       <use xlink:href="#DejaVuSans-31"/>
       <use xlink:href="#DejaVuSans-2e" x="63.623047"/>
       <use xlink:href="#DejaVuSans-30" x="95.410156"/>
      </g>
     </g>
    </g>
    <g id="text_17">
     <!-- Probability density -->
     <g transform="translate(14.798438 186.606781)rotate(-90)scale(0.1 -0.1)">
      <defs>
       <path id="DejaVuSans-50" d="M 1259 4147 
L 1259 2394 
L 2053 2394 
Q 2494 2394 2734 2622 
Q 2975 2850 2975 3272 
Q 2975 3691 2734 3919 
Q 2494 4147 2053 4147 
L 1259 4147 
z
M 628 4666 
L 2053 4666 
Q 2838 4666 3239 4311 
Q 3641 3956 3641 3272 
Q 3641 2581 3239 2228 
Q 2838 1875 2053 1875 
L 1259 1875 
L 1259 0 
L 628 0 
L 628 4666 
z
" transform="scale(0.015625)"/>
       <path id="DejaVuSans-62" d="M 3116 1747 
Q 3116 2381 2855 2742 
Q 2594 3103 2138 3103 
Q 1681 3103 1420 2742 
Q 1159 2381 1159 1747 
Q 1159 1113 1420 752 
Q 1681 391 2138 391 
Q 2594 391 2855 752 
Q 3116 1113 3116 1747 
z
M 1159 2969 
Q 1341 3281 1617 3432 
Q 1894 3584 2278 3584 
Q 2916 3584 3314 3078 
Q 3713 2572 3713 1747 
Q 3713 922 3314 415 
Q 2916 -91 2278 -91 
Q 1894 -91 1617 61 
Q 1341 213 1159 525 
L 1159 0 
L 581 0 
L 581 4863 
L 1159 4863 
L 1159 2969 
z
" transform="scale(0.015625)"/>
       <path id="DejaVuSans-79" d="M 2059 -325 
Q 1816 -950 1584 -1140 
Q 1353 -1331 966 -1331 
L 506 -1331 
L 506 -850 
L 844 -850 
Q 1081 -850 1212 -737 
Q 1344 -625 1503 -206 
L 1606 56 
L 191 3500 
L 800 3500 
L 1894 763 
L 2988 3500 
L 3597 3500 
L 2059 -325 
z
" transform="scale(0.015625)"/>
       <path id="DejaVuSans-73" d="M 2834 3397 
L 2834 2853 
Q 2591 2978 2328 3040 
Q 2066 3103 1784 3103 
Q 1356 3103 1142 2972 
Q 928 2841 928 2578 
Q 928 2378 1081 2264 
Q 1234 2150 1697 2047 
L 1894 2003 
Q 2506 1872 2764 1633 
Q 3022 1394 3022 966 
Q 3022 478 2636 193 
Q 2250 -91 1575 -91 
Q 1294 -91 989 -36 
Q 684 19 347 128 
L 347 722 
Q 666 556 975 473 
Q 1284 391 1588 391 
Q 1994 391 2212 530 
Q 2431 669 2431 922 
Q 2431 1156 2273 1281 
Q 2116 1406 1581 1522 
L 1381 1569 
Q 847 1681 609 1914 
Q 372 2147 372 2553 
Q 372 3047 722 3315 
Q 1072 3584 1716 3584 
Q 2034 3584 2315 3537 
Q 2597 3491 2834 3397 
z
" transform="scale(0.015625)"/>
      </defs>
      <use xlink:href="#DejaVuSans-50"/>
      <use xlink:href="#DejaVuSans-72" x="58.552734"/>
      <use xlink:href="#DejaVuSans-6f" x="97.416016"/>
      <use xlink:href="#DejaVuSans-62" x="158.597656"/>
      <use xlink:href="#DejaVuSans-61" x="222.074219"/>
      <use xlink:href="#DejaVuSans-62" x="283.353516"/>
      <use xlink:href="#DejaVuSans-69" x="346.830078"/>
      <use xlink:href="#DejaVuSans-6c" x="374.613281"/>
      <use xlink:href="#DejaVuSans-69" x="402.396484"/>
      <use xlink:href="#DejaVuSans-74" x="430.179688"/>
      <use xlink:href="#DejaVuSans-79" x="469.388672"/>
      <use xlink:href="#DejaVuSans-20" x="528.568359"/>
      <use xlink:href="#DejaVuSans-64" x="560.355469"/>
      <use xlink:href="#DejaVuSans-65" x="623.832031"/>
      <use xlink:href="#DejaVuSans-6e" x="685.355469"/>
      <use xlink:href="#DejaVuSans-73" x="748.734375"/>
      <use xlink:href="#DejaVuSans-69" x="800.833984"/>
      <use xlink:href="#DejaVuSans-74" x="828.617188"/>
      <use xlink:href="#DejaVuSans-79" x="867.826172"/>
     </g>
    </g>
   </g>
   <g id="line2d_16">
    <path d="M 60.013977 273.312 
L 79.837728 229.407698 
L 90.237073 206.919629 
L 99.01152 188.458808 
L 106.811029 172.558396 
L 113.960578 158.4848 
L 120.460169 146.165648 
L 126.63478 134.927437 
L 132.484411 124.735668 
L 138.009063 115.546581 
L 143.208736 107.309371 
L 148.408408 99.492336 
L 153.283101 92.563083 
L 157.832814 86.458279 
L 162.382528 80.715597 
L 166.932241 75.346168 
L 171.156975 70.70359 
L 175.381709 66.399586 
L 179.281463 62.733397 
L 183.181217 59.367051 
L 187.080972 56.305341 
L 190.655746 53.77012 
L 194.230521 51.497579 
L 197.805296 49.490439 
L 201.380071 47.751099 
L 204.629866 46.404028 
L 207.879661 45.281337 
L 211.129456 44.384135 
L 214.379252 43.71331 
L 217.629047 43.269524 
L 220.878842 43.053218 
L 224.128637 43.064604 
L 227.378433 43.303672 
L 230.628228 43.770185 
L 233.878023 44.463681 
L 237.127818 45.383476 
L 240.377614 46.528659 
L 243.627409 47.898098 
L 246.877204 49.490439 
L 250.451979 51.497579 
L 254.026754 53.77012 
L 257.601528 56.305341 
L 261.176303 59.10021 
L 265.076058 62.441347 
L 268.975812 66.082742 
L 272.875566 70.019212 
L 277.1003 74.610192 
L 281.325034 79.533217 
L 285.874747 85.196829 
L 290.42446 91.225008 
L 295.299153 98.075044 
L 300.173846 105.314929 
L 305.373519 113.44901 
L 310.573191 121.987727 
L 316.097843 131.479284 
L 321.947474 141.970294 
L 328.122085 153.499879 
L 334.621676 166.097443 
L 341.771225 180.442484 
L 349.570734 196.595955 
L 358.345181 215.286028 
L 369.069506 238.683409 
L 384.668523 273.312 
L 384.668523 273.312 
" clip-path="url(#p85035e7681)" style="fill: none; stroke: #ff7f0e; stroke-width: 1.5; stroke-linecap: square"/>
   </g>
   <g id="patch_203">
    <path d="M 43.78125 273.312 
L 43.78125 7.2 
" style="fill: none; stroke: #000000; stroke-width: 0.8; stroke-linejoin: miter; stroke-linecap: square"/>
   </g>
   <g id="patch_204">
    <path d="M 400.90125 273.312 
L 400.90125 7.2 
" style="fill: none; stroke: #000000; stroke-width: 0.8; stroke-linejoin: miter; stroke-linecap: square"/>
   </g>
   <g id="patch_205">
    <path d="M 43.78125 273.312 
L 400.90125 273.312 
" style="fill: none; stroke: #000000; stroke-width: 0.8; stroke-linejoin: miter; stroke-linecap: square"/>
   </g>
   <g id="patch_206">
    <path d="M 43.78125 7.2 
L 400.90125 7.2 
" style="fill: none; stroke: #000000; stroke-width: 0.8; stroke-linejoin: miter; stroke-linecap: square"/>
   </g>
  </g>
 </g>
 <defs>
  <clipPath id="p85035e7681">
   <rect x="43.78125" y="7.2" width="357.12" height="266.112"/>
  </clipPath>
 </defs>
</svg>
