<?xml version="1.0" encoding="utf-8" standalone="no"?>
<!DOCTYPE svg PUBLIC "-//W3C//DTD SVG 1.1//EN"
  "http://www.w3.org/Graphics/SVG/1.1/DTD/svg11.dtd">
<svg xmlns:xlink="http://www.w3.org/1999/xlink" width="414.46375pt" height="310.86825pt" viewBox="0 0 414.46375 310.86825" xmlns="http://www.w3.org/2000/svg" version="1.1">
 <metadata>
  <rdf:RDF xmlns:dc="http://purl.org/dc/elements/1.1/" xmlns:cc="http://creativecommons.org/ns#" xmlns:rdf="http://www.w3.org/1999/02/22-rdf-syntax-ns#">
   <cc:Work>
    <dc:type rdf:resource="http://purl.org/dc/dcmitype/StillImage"/>
    <dc:date>2022-04-24T19:48:15.173254</dc:date>
    <dc:format>image/svg+xml</dc:format>
    <dc:creator>
     <cc:Agent>
      <dc:title>Matplotlib v3.5.1, https://matplotlib.org/</dc:title>
     </cc:Agent>
    </dc:creator>
   </cc:Work>
  </rdf:RDF>
 </metadata>
 <defs>
  <style type="text/css">*{stroke-linejoin: round; stroke-linecap: butt}</style>
 </defs>
 <g id="figure_1">
  <g id="patch_1">
   <path d="M 0 310.86825 
L 414.46375 310.86825 
L 414.46375 0 
L 0 0 
z
" style="fill: #ffffff"/>
  </g>
  <g id="axes_1">
   <g id="patch_2">
    <path d="M 50.14375 273.312 
L 407.26375 273.312 
L 407.26375 7.2 
L 50.14375 7.2 
z
" style="fill: #ffffff"/>
   </g>
   <g id="patch_3">
    <path d="M 67.642636 273.312 
L 69.259565 273.312 
L 69.259565 272.119341 
L 67.642636 272.119341 
z
" clip-path="url(#pb0c8f65c98)" style="fill: #1f77b4"/>
   </g>
   <g id="patch_4">
    <path d="M 69.259565 273.312 
L 70.876493 273.312 
L 70.876493 271.523012 
L 69.259565 271.523012 
z
" clip-path="url(#pb0c8f65c98)" style="fill: #1f77b4"/>
   </g>
   <g id="patch_5">
    <path d="M 70.876493 273.312 
L 72.493422 273.312 
L 72.493422 272.119341 
L 70.876493 272.119341 
z
" clip-path="url(#pb0c8f65c98)" style="fill: #1f77b4"/>
   </g>
   <g id="patch_6">
    <path d="M 72.493422 273.312 
L 74.11035 273.312 
L 74.11035 269.137694 
L 72.493422 269.137694 
z
" clip-path="url(#pb0c8f65c98)" style="fill: #1f77b4"/>
   </g>
   <g id="patch_7">
    <path d="M 74.11035 273.312 
L 75.727279 273.312 
L 75.727279 267.945035 
L 74.11035 267.945035 
z
" clip-path="url(#pb0c8f65c98)" style="fill: #1f77b4"/>
   </g>
   <g id="patch_8">
    <path d="M 75.727279 273.312 
L 77.344207 273.312 
L 77.344207 265.559718 
L 75.727279 265.559718 
z
" clip-path="url(#pb0c8f65c98)" style="fill: #1f77b4"/>
   </g>
   <g id="patch_9">
    <path d="M 77.344207 273.312 
L 78.961136 273.312 
L 78.961136 261.981741 
L 77.344207 261.981741 
z
" clip-path="url(#pb0c8f65c98)" style="fill: #1f77b4"/>
   </g>
   <g id="patch_10">
    <path d="M 78.961136 273.312 
L 80.578064 273.312 
L 80.578064 265.559718 
L 78.961136 265.559718 
z
" clip-path="url(#pb0c8f65c98)" style="fill: #1f77b4"/>
   </g>
   <g id="patch_11">
    <path d="M 80.578064 273.312 
L 82.194993 273.312 
L 82.194993 260.192753 
L 80.578064 260.192753 
z
" clip-path="url(#pb0c8f65c98)" style="fill: #1f77b4"/>
   </g>
   <g id="patch_12">
    <path d="M 82.194993 273.312 
L 83.811921 273.312 
L 83.811921 258.403765 
L 82.194993 258.403765 
z
" clip-path="url(#pb0c8f65c98)" style="fill: #1f77b4"/>
   </g>
   <g id="patch_13">
    <path d="M 83.811921 273.312 
L 85.42885 273.312 
L 85.42885 256.614776 
L 83.811921 256.614776 
z
" clip-path="url(#pb0c8f65c98)" style="fill: #1f77b4"/>
   </g>
   <g id="patch_14">
    <path d="M 85.42885 273.312 
L 87.045779 273.312 
L 87.045779 260.789082 
L 85.42885 260.789082 
z
" clip-path="url(#pb0c8f65c98)" style="fill: #1f77b4"/>
   </g>
   <g id="patch_15">
    <path d="M 87.045779 273.312 
L 88.662707 273.312 
L 88.662707 256.018447 
L 87.045779 256.018447 
z
" clip-path="url(#pb0c8f65c98)" style="fill: #1f77b4"/>
   </g>
   <g id="patch_16">
    <path d="M 88.662707 273.312 
L 90.279636 273.312 
L 90.279636 257.211106 
L 88.662707 257.211106 
z
" clip-path="url(#pb0c8f65c98)" style="fill: #1f77b4"/>
   </g>
   <g id="patch_17">
    <path d="M 90.279636 273.312 
L 91.896564 273.312 
L 91.896564 254.229459 
L 90.279636 254.229459 
z
" clip-path="url(#pb0c8f65c98)" style="fill: #1f77b4"/>
   </g>
   <g id="patch_18">
    <path d="M 91.896564 273.312 
L 93.513493 273.312 
L 93.513493 254.229459 
L 91.896564 254.229459 
z
" clip-path="url(#pb0c8f65c98)" style="fill: #1f77b4"/>
   </g>
   <g id="patch_19">
    <path d="M 93.513493 273.312 
L 95.130421 273.312 
L 95.130421 248.862494 
L 93.513493 248.862494 
z
" clip-path="url(#pb0c8f65c98)" style="fill: #1f77b4"/>
   </g>
   <g id="patch_20">
    <path d="M 95.130421 273.312 
L 96.74735 273.312 
L 96.74735 254.229459 
L 95.130421 254.229459 
z
" clip-path="url(#pb0c8f65c98)" style="fill: #1f77b4"/>
   </g>
   <g id="patch_21">
    <path d="M 96.74735 273.312 
L 98.364278 273.312 
L 98.364278 245.880847 
L 96.74735 245.880847 
z
" clip-path="url(#pb0c8f65c98)" style="fill: #1f77b4"/>
   </g>
   <g id="patch_22">
    <path d="M 98.364278 273.312 
L 99.981207 273.312 
L 99.981207 246.477176 
L 98.364278 246.477176 
z
" clip-path="url(#pb0c8f65c98)" style="fill: #1f77b4"/>
   </g>
   <g id="patch_23">
    <path d="M 99.981207 273.312 
L 101.598135 273.312 
L 101.598135 244.091859 
L 99.981207 244.091859 
z
" clip-path="url(#pb0c8f65c98)" style="fill: #1f77b4"/>
   </g>
   <g id="patch_24">
    <path d="M 101.598135 273.312 
L 103.215064 273.312 
L 103.215064 242.8992 
L 101.598135 242.8992 
z
" clip-path="url(#pb0c8f65c98)" style="fill: #1f77b4"/>
   </g>
   <g id="patch_25">
    <path d="M 103.215064 273.312 
L 104.831993 273.312 
L 104.831993 254.825788 
L 103.215064 254.825788 
z
" clip-path="url(#pb0c8f65c98)" style="fill: #1f77b4"/>
   </g>
   <g id="patch_26">
    <path d="M 104.831993 273.312 
L 106.448921 273.312 
L 106.448921 245.284518 
L 104.831993 245.284518 
z
" clip-path="url(#pb0c8f65c98)" style="fill: #1f77b4"/>
   </g>
   <g id="patch_27">
    <path d="M 106.448921 273.312 
L 108.06585 273.312 
L 108.06585 247.073506 
L 106.448921 247.073506 
z
" clip-path="url(#pb0c8f65c98)" style="fill: #1f77b4"/>
   </g>
   <g id="patch_28">
    <path d="M 108.06585 273.312 
L 109.682778 273.312 
L 109.682778 250.651482 
L 108.06585 250.651482 
z
" clip-path="url(#pb0c8f65c98)" style="fill: #1f77b4"/>
   </g>
   <g id="patch_29">
    <path d="M 109.682778 273.312 
L 111.299707 273.312 
L 111.299707 248.266165 
L 109.682778 248.266165 
z
" clip-path="url(#pb0c8f65c98)" style="fill: #1f77b4"/>
   </g>
   <g id="patch_30">
    <path d="M 111.299707 273.312 
L 112.916635 273.312 
L 112.916635 236.935906 
L 111.299707 236.935906 
z
" clip-path="url(#pb0c8f65c98)" style="fill: #1f77b4"/>
   </g>
   <g id="patch_31">
    <path d="M 112.916635 273.312 
L 114.533564 273.312 
L 114.533564 238.724894 
L 112.916635 238.724894 
z
" clip-path="url(#pb0c8f65c98)" style="fill: #1f77b4"/>
   </g>
   <g id="patch_32">
    <path d="M 114.533564 273.312 
L 116.150492 273.312 
L 116.150492 232.7616 
L 114.533564 232.7616 
z
" clip-path="url(#pb0c8f65c98)" style="fill: #1f77b4"/>
   </g>
   <g id="patch_33">
    <path d="M 116.150492 273.312 
L 117.767421 273.312 
L 117.767421 229.779953 
L 116.150492 229.779953 
z
" clip-path="url(#pb0c8f65c98)" style="fill: #1f77b4"/>
   </g>
   <g id="patch_34">
    <path d="M 117.767421 273.312 
L 119.384349 273.312 
L 119.384349 235.743247 
L 117.767421 235.743247 
z
" clip-path="url(#pb0c8f65c98)" style="fill: #1f77b4"/>
   </g>
   <g id="patch_35">
    <path d="M 119.384349 273.312 
L 121.001278 273.312 
L 121.001278 232.7616 
L 119.384349 232.7616 
z
" clip-path="url(#pb0c8f65c98)" style="fill: #1f77b4"/>
   </g>
   <g id="patch_36">
    <path d="M 121.001278 273.312 
L 122.618206 273.312 
L 122.618206 239.321224 
L 121.001278 239.321224 
z
" clip-path="url(#pb0c8f65c98)" style="fill: #1f77b4"/>
   </g>
   <g id="patch_37">
    <path d="M 122.618206 273.312 
L 124.235135 273.312 
L 124.235135 232.165271 
L 122.618206 232.165271 
z
" clip-path="url(#pb0c8f65c98)" style="fill: #1f77b4"/>
   </g>
   <g id="patch_38">
    <path d="M 124.235135 273.312 
L 125.852064 273.312 
L 125.852064 226.201976 
L 124.235135 226.201976 
z
" clip-path="url(#pb0c8f65c98)" style="fill: #1f77b4"/>
   </g>
   <g id="patch_39">
    <path d="M 125.852064 273.312 
L 127.468992 273.312 
L 127.468992 224.412988 
L 125.852064 224.412988 
z
" clip-path="url(#pb0c8f65c98)" style="fill: #1f77b4"/>
   </g>
   <g id="patch_40">
    <path d="M 127.468992 273.312 
L 129.085921 273.312 
L 129.085921 226.201976 
L 127.468992 226.201976 
z
" clip-path="url(#pb0c8f65c98)" style="fill: #1f77b4"/>
   </g>
   <g id="patch_41">
    <path d="M 129.085921 273.312 
L 130.702849 273.312 
L 130.702849 217.257035 
L 129.085921 217.257035 
z
" clip-path="url(#pb0c8f65c98)" style="fill: #1f77b4"/>
   </g>
   <g id="patch_42">
    <path d="M 130.702849 273.312 
L 132.319778 273.312 
L 132.319778 231.568941 
L 130.702849 231.568941 
z
" clip-path="url(#pb0c8f65c98)" style="fill: #1f77b4"/>
   </g>
   <g id="patch_43">
    <path d="M 132.319778 273.312 
L 133.936706 273.312 
L 133.936706 230.376282 
L 132.319778 230.376282 
z
" clip-path="url(#pb0c8f65c98)" style="fill: #1f77b4"/>
   </g>
   <g id="patch_44">
    <path d="M 133.936706 273.312 
L 135.553635 273.312 
L 135.553635 226.798306 
L 133.936706 226.798306 
z
" clip-path="url(#pb0c8f65c98)" style="fill: #1f77b4"/>
   </g>
   <g id="patch_45">
    <path d="M 135.553635 273.312 
L 137.170563 273.312 
L 137.170563 225.009318 
L 135.553635 225.009318 
z
" clip-path="url(#pb0c8f65c98)" style="fill: #1f77b4"/>
   </g>
   <g id="patch_46">
    <path d="M 137.170563 273.312 
L 138.787492 273.312 
L 138.787492 217.853365 
L 137.170563 217.853365 
z
" clip-path="url(#pb0c8f65c98)" style="fill: #1f77b4"/>
   </g>
   <g id="patch_47">
    <path d="M 138.787492 273.312 
L 140.40442 273.312 
L 140.40442 216.660706 
L 138.787492 216.660706 
z
" clip-path="url(#pb0c8f65c98)" style="fill: #1f77b4"/>
   </g>
   <g id="patch_48">
    <path d="M 140.40442 273.312 
L 142.021349 273.312 
L 142.021349 220.835012 
L 140.40442 220.835012 
z
" clip-path="url(#pb0c8f65c98)" style="fill: #1f77b4"/>
   </g>
   <g id="patch_49">
    <path d="M 142.021349 273.312 
L 143.638278 273.312 
L 143.638278 223.816659 
L 142.021349 223.816659 
z
" clip-path="url(#pb0c8f65c98)" style="fill: #1f77b4"/>
   </g>
   <g id="patch_50">
    <path d="M 143.638278 273.312 
L 145.255206 273.312 
L 145.255206 226.798306 
L 143.638278 226.798306 
z
" clip-path="url(#pb0c8f65c98)" style="fill: #1f77b4"/>
   </g>
   <g id="patch_51">
    <path d="M 145.255206 273.312 
L 146.872135 273.312 
L 146.872135 217.257035 
L 145.255206 217.257035 
z
" clip-path="url(#pb0c8f65c98)" style="fill: #1f77b4"/>
   </g>
   <g id="patch_52">
    <path d="M 146.872135 273.312 
L 148.489063 273.312 
L 148.489063 221.431341 
L 146.872135 221.431341 
z
" clip-path="url(#pb0c8f65c98)" style="fill: #1f77b4"/>
   </g>
   <g id="patch_53">
    <path d="M 148.489063 273.312 
L 150.105992 273.312 
L 150.105992 214.275388 
L 148.489063 214.275388 
z
" clip-path="url(#pb0c8f65c98)" style="fill: #1f77b4"/>
   </g>
   <g id="patch_54">
    <path d="M 150.105992 273.312 
L 151.72292 273.312 
L 151.72292 206.523106 
L 150.105992 206.523106 
z
" clip-path="url(#pb0c8f65c98)" style="fill: #1f77b4"/>
   </g>
   <g id="patch_55">
    <path d="M 151.72292 273.312 
L 153.339849 273.312 
L 153.339849 205.926776 
L 151.72292 205.926776 
z
" clip-path="url(#pb0c8f65c98)" style="fill: #1f77b4"/>
   </g>
   <g id="patch_56">
    <path d="M 153.339849 273.312 
L 154.956777 273.312 
L 154.956777 199.963482 
L 153.339849 199.963482 
z
" clip-path="url(#pb0c8f65c98)" style="fill: #1f77b4"/>
   </g>
   <g id="patch_57">
    <path d="M 154.956777 273.312 
L 156.573706 273.312 
L 156.573706 202.945129 
L 154.956777 202.945129 
z
" clip-path="url(#pb0c8f65c98)" style="fill: #1f77b4"/>
   </g>
   <g id="patch_58">
    <path d="M 156.573706 273.312 
L 158.190634 273.312 
L 158.190634 214.275388 
L 156.573706 214.275388 
z
" clip-path="url(#pb0c8f65c98)" style="fill: #1f77b4"/>
   </g>
   <g id="patch_59">
    <path d="M 158.190634 273.312 
L 159.807563 273.312 
L 159.807563 194.596518 
L 158.190634 194.596518 
z
" clip-path="url(#pb0c8f65c98)" style="fill: #1f77b4"/>
   </g>
   <g id="patch_60">
    <path d="M 159.807563 273.312 
L 161.424492 273.312 
L 161.424492 204.734118 
L 159.807563 204.734118 
z
" clip-path="url(#pb0c8f65c98)" style="fill: #1f77b4"/>
   </g>
   <g id="patch_61">
    <path d="M 161.424492 273.312 
L 163.04142 273.312 
L 163.04142 198.770824 
L 161.424492 198.770824 
z
" clip-path="url(#pb0c8f65c98)" style="fill: #1f77b4"/>
   </g>
   <g id="patch_62">
    <path d="M 163.04142 273.312 
L 164.658349 273.312 
L 164.658349 202.945129 
L 163.04142 202.945129 
z
" clip-path="url(#pb0c8f65c98)" style="fill: #1f77b4"/>
   </g>
   <g id="patch_63">
    <path d="M 164.658349 273.312 
L 166.275277 273.312 
L 166.275277 194.000188 
L 164.658349 194.000188 
z
" clip-path="url(#pb0c8f65c98)" style="fill: #1f77b4"/>
   </g>
   <g id="patch_64">
    <path d="M 166.275277 273.312 
L 167.892206 273.312 
L 167.892206 191.018541 
L 166.275277 191.018541 
z
" clip-path="url(#pb0c8f65c98)" style="fill: #1f77b4"/>
   </g>
   <g id="patch_65">
    <path d="M 167.892206 273.312 
L 169.509134 273.312 
L 169.509134 184.458918 
L 167.892206 184.458918 
z
" clip-path="url(#pb0c8f65c98)" style="fill: #1f77b4"/>
   </g>
   <g id="patch_66">
    <path d="M 169.509134 273.312 
L 171.126063 273.312 
L 171.126063 201.156141 
L 169.509134 201.156141 
z
" clip-path="url(#pb0c8f65c98)" style="fill: #1f77b4"/>
   </g>
   <g id="patch_67">
    <path d="M 171.126063 273.312 
L 172.742991 273.312 
L 172.742991 191.018541 
L 171.126063 191.018541 
z
" clip-path="url(#pb0c8f65c98)" style="fill: #1f77b4"/>
   </g>
   <g id="patch_68">
    <path d="M 172.742991 273.312 
L 174.35992 273.312 
L 174.35992 190.422212 
L 172.742991 190.422212 
z
" clip-path="url(#pb0c8f65c98)" style="fill: #1f77b4"/>
   </g>
   <g id="patch_69">
    <path d="M 174.35992 273.312 
L 175.976848 273.312 
L 175.976848 195.192847 
L 174.35992 195.192847 
z
" clip-path="url(#pb0c8f65c98)" style="fill: #1f77b4"/>
   </g>
   <g id="patch_70">
    <path d="M 175.976848 273.312 
L 177.593777 273.312 
L 177.593777 201.156141 
L 175.976848 201.156141 
z
" clip-path="url(#pb0c8f65c98)" style="fill: #1f77b4"/>
   </g>
   <g id="patch_71">
    <path d="M 177.593777 273.312 
L 179.210705 273.312 
L 179.210705 196.385506 
L 177.593777 196.385506 
z
" clip-path="url(#pb0c8f65c98)" style="fill: #1f77b4"/>
   </g>
   <g id="patch_72">
    <path d="M 179.210705 273.312 
L 180.827634 273.312 
L 180.827634 190.422212 
L 179.210705 190.422212 
z
" clip-path="url(#pb0c8f65c98)" style="fill: #1f77b4"/>
   </g>
   <g id="patch_73">
    <path d="M 180.827634 273.312 
L 182.444563 273.312 
L 182.444563 179.091953 
L 180.827634 179.091953 
z
" clip-path="url(#pb0c8f65c98)" style="fill: #1f77b4"/>
   </g>
   <g id="patch_74">
    <path d="M 182.444563 273.312 
L 184.061491 273.312 
L 184.061491 198.174494 
L 182.444563 198.174494 
z
" clip-path="url(#pb0c8f65c98)" style="fill: #1f77b4"/>
   </g>
   <g id="patch_75">
    <path d="M 184.061491 273.312 
L 185.67842 273.312 
L 185.67842 177.302965 
L 184.061491 177.302965 
z
" clip-path="url(#pb0c8f65c98)" style="fill: #1f77b4"/>
   </g>
   <g id="patch_76">
    <path d="M 185.67842 273.312 
L 187.295348 273.312 
L 187.295348 189.825882 
L 185.67842 189.825882 
z
" clip-path="url(#pb0c8f65c98)" style="fill: #1f77b4"/>
   </g>
   <g id="patch_77">
    <path d="M 187.295348 273.312 
L 188.912277 273.312 
L 188.912277 188.036894 
L 187.295348 188.036894 
z
" clip-path="url(#pb0c8f65c98)" style="fill: #1f77b4"/>
   </g>
   <g id="patch_78">
    <path d="M 188.912277 273.312 
L 190.529205 273.312 
L 190.529205 183.862588 
L 188.912277 183.862588 
z
" clip-path="url(#pb0c8f65c98)" style="fill: #1f77b4"/>
   </g>
   <g id="patch_79">
    <path d="M 190.529205 273.312 
L 192.146134 273.312 
L 192.146134 185.055247 
L 190.529205 185.055247 
z
" clip-path="url(#pb0c8f65c98)" style="fill: #1f77b4"/>
   </g>
   <g id="patch_80">
    <path d="M 192.146134 273.312 
L 193.763062 273.312 
L 193.763062 160.605741 
L 192.146134 160.605741 
z
" clip-path="url(#pb0c8f65c98)" style="fill: #1f77b4"/>
   </g>
   <g id="patch_81">
    <path d="M 193.763062 273.312 
L 195.379991 273.312 
L 195.379991 182.0736 
L 193.763062 182.0736 
z
" clip-path="url(#pb0c8f65c98)" style="fill: #1f77b4"/>
   </g>
   <g id="patch_82">
    <path d="M 195.379991 273.312 
L 196.996919 273.312 
L 196.996919 186.247906 
L 195.379991 186.247906 
z
" clip-path="url(#pb0c8f65c98)" style="fill: #1f77b4"/>
   </g>
   <g id="patch_83">
    <path d="M 196.996919 273.312 
L 198.613848 273.312 
L 198.613848 178.495624 
L 196.996919 178.495624 
z
" clip-path="url(#pb0c8f65c98)" style="fill: #1f77b4"/>
   </g>
   <g id="patch_84">
    <path d="M 198.613848 273.312 
L 200.230777 273.312 
L 200.230777 175.513976 
L 198.613848 175.513976 
z
" clip-path="url(#pb0c8f65c98)" style="fill: #1f77b4"/>
   </g>
   <g id="patch_85">
    <path d="M 200.230777 273.312 
L 201.847705 273.312 
L 201.847705 182.0736 
L 200.230777 182.0736 
z
" clip-path="url(#pb0c8f65c98)" style="fill: #1f77b4"/>
   </g>
   <g id="patch_86">
    <path d="M 201.847705 273.312 
L 203.464634 273.312 
L 203.464634 176.110306 
L 201.847705 176.110306 
z
" clip-path="url(#pb0c8f65c98)" style="fill: #1f77b4"/>
   </g>
   <g id="patch_87">
    <path d="M 203.464634 273.312 
L 205.081562 273.312 
L 205.081562 180.880941 
L 203.464634 180.880941 
z
" clip-path="url(#pb0c8f65c98)" style="fill: #1f77b4"/>
   </g>
   <g id="patch_88">
    <path d="M 205.081562 273.312 
L 206.698491 273.312 
L 206.698491 174.917647 
L 205.081562 174.917647 
z
" clip-path="url(#pb0c8f65c98)" style="fill: #1f77b4"/>
   </g>
   <g id="patch_89">
    <path d="M 206.698491 273.312 
L 208.315419 273.312 
L 208.315419 159.413082 
L 206.698491 159.413082 
z
" clip-path="url(#pb0c8f65c98)" style="fill: #1f77b4"/>
   </g>
   <g id="patch_90">
    <path d="M 208.315419 273.312 
L 209.932348 273.312 
L 209.932348 158.816753 
L 208.315419 158.816753 
z
" clip-path="url(#pb0c8f65c98)" style="fill: #1f77b4"/>
   </g>
   <g id="patch_91">
    <path d="M 209.932348 273.312 
L 211.549276 273.312 
L 211.549276 157.624094 
L 209.932348 157.624094 
z
" clip-path="url(#pb0c8f65c98)" style="fill: #1f77b4"/>
   </g>
   <g id="patch_92">
    <path d="M 211.549276 273.312 
L 213.166205 273.312 
L 213.166205 168.954353 
L 211.549276 168.954353 
z
" clip-path="url(#pb0c8f65c98)" style="fill: #1f77b4"/>
   </g>
   <g id="patch_93">
    <path d="M 213.166205 273.312 
L 214.783133 273.312 
L 214.783133 164.183718 
L 213.166205 164.183718 
z
" clip-path="url(#pb0c8f65c98)" style="fill: #1f77b4"/>
   </g>
   <g id="patch_94">
    <path d="M 214.783133 273.312 
L 216.400062 273.312 
L 216.400062 154.046118 
L 214.783133 154.046118 
z
" clip-path="url(#pb0c8f65c98)" style="fill: #1f77b4"/>
   </g>
   <g id="patch_95">
    <path d="M 216.400062 273.312 
L 218.016991 273.312 
L 218.016991 160.605741 
L 216.400062 160.605741 
z
" clip-path="url(#pb0c8f65c98)" style="fill: #1f77b4"/>
   </g>
   <g id="patch_96">
    <path d="M 218.016991 273.312 
L 219.633919 273.312 
L 219.633919 173.128659 
L 218.016991 173.128659 
z
" clip-path="url(#pb0c8f65c98)" style="fill: #1f77b4"/>
   </g>
   <g id="patch_97">
    <path d="M 219.633919 273.312 
L 221.250848 273.312 
L 221.250848 156.431435 
L 219.633919 156.431435 
z
" clip-path="url(#pb0c8f65c98)" style="fill: #1f77b4"/>
   </g>
   <g id="patch_98">
    <path d="M 221.250848 273.312 
L 222.867776 273.312 
L 222.867776 160.605741 
L 221.250848 160.605741 
z
" clip-path="url(#pb0c8f65c98)" style="fill: #1f77b4"/>
   </g>
   <g id="patch_99">
    <path d="M 222.867776 273.312 
L 224.484705 273.312 
L 224.484705 170.147012 
L 222.867776 170.147012 
z
" clip-path="url(#pb0c8f65c98)" style="fill: #1f77b4"/>
   </g>
   <g id="patch_100">
    <path d="M 224.484705 273.312 
L 226.101633 273.312 
L 226.101633 145.101176 
L 224.484705 145.101176 
z
" clip-path="url(#pb0c8f65c98)" style="fill: #1f77b4"/>
   </g>
   <g id="patch_101">
    <path d="M 226.101633 273.312 
L 227.718562 273.312 
L 227.718562 159.413082 
L 226.101633 159.413082 
z
" clip-path="url(#pb0c8f65c98)" style="fill: #1f77b4"/>
   </g>
   <g id="patch_102">
    <path d="M 227.718562 273.312 
L 229.33549 273.312 
L 229.33549 147.486494 
L 227.718562 147.486494 
z
" clip-path="url(#pb0c8f65c98)" style="fill: #1f77b4"/>
   </g>
   <g id="patch_103">
    <path d="M 229.33549 273.312 
L 230.952419 273.312 
L 230.952419 152.257129 
L 229.33549 152.257129 
z
" clip-path="url(#pb0c8f65c98)" style="fill: #1f77b4"/>
   </g>
   <g id="patch_104">
    <path d="M 230.952419 273.312 
L 232.569347 273.312 
L 232.569347 148.679153 
L 230.952419 148.679153 
z
" clip-path="url(#pb0c8f65c98)" style="fill: #1f77b4"/>
   </g>
   <g id="patch_105">
    <path d="M 232.569347 273.312 
L 234.186276 273.312 
L 234.186276 158.220424 
L 232.569347 158.220424 
z
" clip-path="url(#pb0c8f65c98)" style="fill: #1f77b4"/>
   </g>
   <g id="patch_106">
    <path d="M 234.186276 273.312 
L 235.803204 273.312 
L 235.803204 148.679153 
L 234.186276 148.679153 
z
" clip-path="url(#pb0c8f65c98)" style="fill: #1f77b4"/>
   </g>
   <g id="patch_107">
    <path d="M 235.803204 273.312 
L 237.420133 273.312 
L 237.420133 148.679153 
L 235.803204 148.679153 
z
" clip-path="url(#pb0c8f65c98)" style="fill: #1f77b4"/>
   </g>
   <g id="patch_108">
    <path d="M 237.420133 273.312 
L 239.037062 273.312 
L 239.037062 153.449788 
L 237.420133 153.449788 
z
" clip-path="url(#pb0c8f65c98)" style="fill: #1f77b4"/>
   </g>
   <g id="patch_109">
    <path d="M 239.037062 273.312 
L 240.65399 273.312 
L 240.65399 153.449788 
L 239.037062 153.449788 
z
" clip-path="url(#pb0c8f65c98)" style="fill: #1f77b4"/>
   </g>
   <g id="patch_110">
    <path d="M 240.65399 273.312 
L 242.270919 273.312 
L 242.270919 136.752565 
L 240.65399 136.752565 
z
" clip-path="url(#pb0c8f65c98)" style="fill: #1f77b4"/>
   </g>
   <g id="patch_111">
    <path d="M 242.270919 273.312 
L 243.887847 273.312 
L 243.887847 149.871812 
L 242.270919 149.871812 
z
" clip-path="url(#pb0c8f65c98)" style="fill: #1f77b4"/>
   </g>
   <g id="patch_112">
    <path d="M 243.887847 273.312 
L 245.504776 273.312 
L 245.504776 149.871812 
L 243.887847 149.871812 
z
" clip-path="url(#pb0c8f65c98)" style="fill: #1f77b4"/>
   </g>
   <g id="patch_113">
    <path d="M 245.504776 273.312 
L 247.121704 273.312 
L 247.121704 140.926871 
L 245.504776 140.926871 
z
" clip-path="url(#pb0c8f65c98)" style="fill: #1f77b4"/>
   </g>
   <g id="patch_114">
    <path d="M 247.121704 273.312 
L 248.738633 273.312 
L 248.738633 134.367247 
L 247.121704 134.367247 
z
" clip-path="url(#pb0c8f65c98)" style="fill: #1f77b4"/>
   </g>
   <g id="patch_115">
    <path d="M 248.738633 273.312 
L 250.355561 273.312 
L 250.355561 134.963576 
L 248.738633 134.963576 
z
" clip-path="url(#pb0c8f65c98)" style="fill: #1f77b4"/>
   </g>
   <g id="patch_116">
    <path d="M 250.355561 273.312 
L 251.97249 273.312 
L 251.97249 155.835106 
L 250.355561 155.835106 
z
" clip-path="url(#pb0c8f65c98)" style="fill: #1f77b4"/>
   </g>
   <g id="patch_117">
    <path d="M 251.97249 273.312 
L 253.589418 273.312 
L 253.589418 151.064471 
L 251.97249 151.064471 
z
" clip-path="url(#pb0c8f65c98)" style="fill: #1f77b4"/>
   </g>
   <g id="patch_118">
    <path d="M 253.589418 273.312 
L 255.206347 273.312 
L 255.206347 136.752565 
L 253.589418 136.752565 
z
" clip-path="url(#pb0c8f65c98)" style="fill: #1f77b4"/>
   </g>
   <g id="patch_119">
    <path d="M 255.206347 273.312 
L 256.823276 273.312 
L 256.823276 137.945224 
L 255.206347 137.945224 
z
" clip-path="url(#pb0c8f65c98)" style="fill: #1f77b4"/>
   </g>
   <g id="patch_120">
    <path d="M 256.823276 273.312 
L 258.440204 273.312 
L 258.440204 134.963576 
L 256.823276 134.963576 
z
" clip-path="url(#pb0c8f65c98)" style="fill: #1f77b4"/>
   </g>
   <g id="patch_121">
    <path d="M 258.440204 273.312 
L 260.057133 273.312 
L 260.057133 129.000282 
L 258.440204 129.000282 
z
" clip-path="url(#pb0c8f65c98)" style="fill: #1f77b4"/>
   </g>
   <g id="patch_122">
    <path d="M 260.057133 273.312 
L 261.674061 273.312 
L 261.674061 118.266353 
L 260.057133 118.266353 
z
" clip-path="url(#pb0c8f65c98)" style="fill: #1f77b4"/>
   </g>
   <g id="patch_123">
    <path d="M 261.674061 273.312 
L 263.29099 273.312 
L 263.29099 124.825976 
L 261.674061 124.825976 
z
" clip-path="url(#pb0c8f65c98)" style="fill: #1f77b4"/>
   </g>
   <g id="patch_124">
    <path d="M 263.29099 273.312 
L 264.907918 273.312 
L 264.907918 138.541553 
L 263.29099 138.541553 
z
" clip-path="url(#pb0c8f65c98)" style="fill: #1f77b4"/>
   </g>
   <g id="patch_125">
    <path d="M 264.907918 273.312 
L 266.524847 273.312 
L 266.524847 100.376471 
L 264.907918 100.376471 
z
" clip-path="url(#pb0c8f65c98)" style="fill: #1f77b4"/>
   </g>
   <g id="patch_126">
    <path d="M 266.524847 273.312 
L 268.141775 273.312 
L 268.141775 126.614965 
L 266.524847 126.614965 
z
" clip-path="url(#pb0c8f65c98)" style="fill: #1f77b4"/>
   </g>
   <g id="patch_127">
    <path d="M 268.141775 273.312 
L 269.758704 273.312 
L 269.758704 121.844329 
L 268.141775 121.844329 
z
" clip-path="url(#pb0c8f65c98)" style="fill: #1f77b4"/>
   </g>
   <g id="patch_128">
    <path d="M 269.758704 273.312 
L 271.375632 273.312 
L 271.375632 118.862682 
L 269.758704 118.862682 
z
" clip-path="url(#pb0c8f65c98)" style="fill: #1f77b4"/>
   </g>
   <g id="patch_129">
    <path d="M 271.375632 273.312 
L 272.992561 273.312 
L 272.992561 127.807624 
L 271.375632 127.807624 
z
" clip-path="url(#pb0c8f65c98)" style="fill: #1f77b4"/>
   </g>
   <g id="patch_130">
    <path d="M 272.992561 273.312 
L 274.609489 273.312 
L 274.609489 120.651671 
L 272.992561 120.651671 
z
" clip-path="url(#pb0c8f65c98)" style="fill: #1f77b4"/>
   </g>
   <g id="patch_131">
    <path d="M 274.609489 273.312 
L 276.226418 273.312 
L 276.226418 115.881035 
L 274.609489 115.881035 
z
" clip-path="url(#pb0c8f65c98)" style="fill: #1f77b4"/>
   </g>
   <g id="patch_132">
    <path d="M 276.226418 273.312 
L 277.843347 273.312 
L 277.843347 131.3856 
L 276.226418 131.3856 
z
" clip-path="url(#pb0c8f65c98)" style="fill: #1f77b4"/>
   </g>
   <g id="patch_133">
    <path d="M 277.843347 273.312 
L 279.460275 273.312 
L 279.460275 122.440659 
L 277.843347 122.440659 
z
" clip-path="url(#pb0c8f65c98)" style="fill: #1f77b4"/>
   </g>
   <g id="patch_134">
    <path d="M 279.460275 273.312 
L 281.077204 273.312 
L 281.077204 108.128753 
L 279.460275 108.128753 
z
" clip-path="url(#pb0c8f65c98)" style="fill: #1f77b4"/>
   </g>
   <g id="patch_135">
    <path d="M 281.077204 273.312 
L 282.694132 273.312 
L 282.694132 100.376471 
L 281.077204 100.376471 
z
" clip-path="url(#pb0c8f65c98)" style="fill: #1f77b4"/>
   </g>
   <g id="patch_136">
    <path d="M 282.694132 273.312 
L 284.311061 273.312 
L 284.311061 121.844329 
L 282.694132 121.844329 
z
" clip-path="url(#pb0c8f65c98)" style="fill: #1f77b4"/>
   </g>
   <g id="patch_137">
    <path d="M 284.311061 273.312 
L 285.927989 273.312 
L 285.927989 100.376471 
L 284.311061 100.376471 
z
" clip-path="url(#pb0c8f65c98)" style="fill: #1f77b4"/>
   </g>
   <g id="patch_138">
    <path d="M 285.927989 273.312 
L 287.544918 273.312 
L 287.544918 100.376471 
L 285.927989 100.376471 
z
" clip-path="url(#pb0c8f65c98)" style="fill: #1f77b4"/>
   </g>
   <g id="patch_139">
    <path d="M 287.544918 273.312 
L 289.161846 273.312 
L 289.161846 115.881035 
L 287.544918 115.881035 
z
" clip-path="url(#pb0c8f65c98)" style="fill: #1f77b4"/>
   </g>
   <g id="patch_140">
    <path d="M 289.161846 273.312 
L 290.778775 273.312 
L 290.778775 91.431529 
L 289.161846 91.431529 
z
" clip-path="url(#pb0c8f65c98)" style="fill: #1f77b4"/>
   </g>
   <g id="patch_141">
    <path d="M 290.778775 273.312 
L 292.395703 273.312 
L 292.395703 105.147106 
L 290.778775 105.147106 
z
" clip-path="url(#pb0c8f65c98)" style="fill: #1f77b4"/>
   </g>
   <g id="patch_142">
    <path d="M 292.395703 273.312 
L 294.012632 273.312 
L 294.012632 109.321412 
L 292.395703 109.321412 
z
" clip-path="url(#pb0c8f65c98)" style="fill: #1f77b4"/>
   </g>
   <g id="patch_143">
    <path d="M 294.012632 273.312 
L 295.629561 273.312 
L 295.629561 88.449882 
L 294.012632 88.449882 
z
" clip-path="url(#pb0c8f65c98)" style="fill: #1f77b4"/>
   </g>
   <g id="patch_144">
    <path d="M 295.629561 273.312 
L 297.246489 273.312 
L 297.246489 103.954447 
L 295.629561 103.954447 
z
" clip-path="url(#pb0c8f65c98)" style="fill: #1f77b4"/>
   </g>
   <g id="patch_145">
    <path d="M 297.246489 273.312 
L 298.863418 273.312 
L 298.863418 90.8352 
L 297.246489 90.8352 
z
" clip-path="url(#pb0c8f65c98)" style="fill: #1f77b4"/>
   </g>
   <g id="patch_146">
    <path d="M 298.863418 273.312 
L 300.480346 273.312 
L 300.480346 104.550776 
L 298.863418 104.550776 
z
" clip-path="url(#pb0c8f65c98)" style="fill: #1f77b4"/>
   </g>
   <g id="patch_147">
    <path d="M 300.480346 273.312 
L 302.097275 273.312 
L 302.097275 97.394824 
L 300.480346 97.394824 
z
" clip-path="url(#pb0c8f65c98)" style="fill: #1f77b4"/>
   </g>
   <g id="patch_148">
    <path d="M 302.097275 273.312 
L 303.714203 273.312 
L 303.714203 102.165459 
L 302.097275 102.165459 
z
" clip-path="url(#pb0c8f65c98)" style="fill: #1f77b4"/>
   </g>
   <g id="patch_149">
    <path d="M 303.714203 273.312 
L 305.331132 273.312 
L 305.331132 94.413176 
L 303.714203 94.413176 
z
" clip-path="url(#pb0c8f65c98)" style="fill: #1f77b4"/>
   </g>
   <g id="patch_150">
    <path d="M 305.331132 273.312 
L 306.94806 273.312 
L 306.94806 93.220518 
L 305.331132 93.220518 
z
" clip-path="url(#pb0c8f65c98)" style="fill: #1f77b4"/>
   </g>
   <g id="patch_151">
    <path d="M 306.94806 273.312 
L 308.564989 273.312 
L 308.564989 106.339765 
L 306.94806 106.339765 
z
" clip-path="url(#pb0c8f65c98)" style="fill: #1f77b4"/>
   </g>
   <g id="patch_152">
    <path d="M 308.564989 273.312 
L 310.181917 273.312 
L 310.181917 91.431529 
L 308.564989 91.431529 
z
" clip-path="url(#pb0c8f65c98)" style="fill: #1f77b4"/>
   </g>
   <g id="patch_153">
    <path d="M 310.181917 273.312 
L 311.798846 273.312 
L 311.798846 81.890259 
L 310.181917 81.890259 
z
" clip-path="url(#pb0c8f65c98)" style="fill: #1f77b4"/>
   </g>
   <g id="patch_154">
    <path d="M 311.798846 273.312 
L 313.415775 273.312 
L 313.415775 99.780141 
L 311.798846 99.780141 
z
" clip-path="url(#pb0c8f65c98)" style="fill: #1f77b4"/>
   </g>
   <g id="patch_155">
    <path d="M 313.415775 273.312 
L 315.032703 273.312 
L 315.032703 101.569129 
L 313.415775 101.569129 
z
" clip-path="url(#pb0c8f65c98)" style="fill: #1f77b4"/>
   </g>
   <g id="patch_156">
    <path d="M 315.032703 273.312 
L 316.649632 273.312 
L 316.649632 83.082918 
L 315.032703 83.082918 
z
" clip-path="url(#pb0c8f65c98)" style="fill: #1f77b4"/>
   </g>
   <g id="patch_157">
    <path d="M 316.649632 273.312 
L 318.26656 273.312 
L 318.26656 109.917741 
L 316.649632 109.917741 
z
" clip-path="url(#pb0c8f65c98)" style="fill: #1f77b4"/>
   </g>
   <g id="patch_158">
    <path d="M 318.26656 273.312 
L 319.883489 273.312 
L 319.883489 87.257224 
L 318.26656 87.257224 
z
" clip-path="url(#pb0c8f65c98)" style="fill: #1f77b4"/>
   </g>
   <g id="patch_159">
    <path d="M 319.883489 273.312 
L 321.500417 273.312 
L 321.500417 114.688376 
L 319.883489 114.688376 
z
" clip-path="url(#pb0c8f65c98)" style="fill: #1f77b4"/>
   </g>
   <g id="patch_160">
    <path d="M 321.500417 273.312 
L 323.117346 273.312 
L 323.117346 88.449882 
L 321.500417 88.449882 
z
" clip-path="url(#pb0c8f65c98)" style="fill: #1f77b4"/>
   </g>
   <g id="patch_161">
    <path d="M 323.117346 273.312 
L 324.734274 273.312 
L 324.734274 81.890259 
L 323.117346 81.890259 
z
" clip-path="url(#pb0c8f65c98)" style="fill: #1f77b4"/>
   </g>
   <g id="patch_162">
    <path d="M 324.734274 273.312 
L 326.351203 273.312 
L 326.351203 67.578353 
L 324.734274 67.578353 
z
" clip-path="url(#pb0c8f65c98)" style="fill: #1f77b4"/>
   </g>
   <g id="patch_163">
    <path d="M 326.351203 273.312 
L 327.968131 273.312 
L 327.968131 87.853553 
L 326.351203 87.853553 
z
" clip-path="url(#pb0c8f65c98)" style="fill: #1f77b4"/>
   </g>
   <g id="patch_164">
    <path d="M 327.968131 273.312 
L 329.58506 273.312 
L 329.58506 78.908612 
L 327.968131 78.908612 
z
" clip-path="url(#pb0c8f65c98)" style="fill: #1f77b4"/>
   </g>
   <g id="patch_165">
    <path d="M 329.58506 273.312 
L 331.201988 273.312 
L 331.201988 86.064565 
L 329.58506 86.064565 
z
" clip-path="url(#pb0c8f65c98)" style="fill: #1f77b4"/>
   </g>
   <g id="patch_166">
    <path d="M 331.201988 273.312 
L 332.818917 273.312 
L 332.818917 64.596706 
L 331.201988 64.596706 
z
" clip-path="url(#pb0c8f65c98)" style="fill: #1f77b4"/>
   </g>
   <g id="patch_167">
    <path d="M 332.818917 273.312 
L 334.435846 273.312 
L 334.435846 78.312282 
L 332.818917 78.312282 
z
" clip-path="url(#pb0c8f65c98)" style="fill: #1f77b4"/>
   </g>
   <g id="patch_168">
    <path d="M 334.435846 273.312 
L 336.052774 273.312 
L 336.052774 86.660894 
L 334.435846 86.660894 
z
" clip-path="url(#pb0c8f65c98)" style="fill: #1f77b4"/>
   </g>
   <g id="patch_169">
    <path d="M 336.052774 273.312 
L 337.669703 273.312 
L 337.669703 90.8352 
L 336.052774 90.8352 
z
" clip-path="url(#pb0c8f65c98)" style="fill: #1f77b4"/>
   </g>
   <g id="patch_170">
    <path d="M 337.669703 273.312 
L 339.286631 273.312 
L 339.286631 85.468235 
L 337.669703 85.468235 
z
" clip-path="url(#pb0c8f65c98)" style="fill: #1f77b4"/>
   </g>
   <g id="patch_171">
    <path d="M 339.286631 273.312 
L 340.90356 273.312 
L 340.90356 85.468235 
L 339.286631 85.468235 
z
" clip-path="url(#pb0c8f65c98)" style="fill: #1f77b4"/>
   </g>
   <g id="patch_172">
    <path d="M 340.90356 273.312 
L 342.520488 273.312 
L 342.520488 58.633412 
L 340.90356 58.633412 
z
" clip-path="url(#pb0c8f65c98)" style="fill: #1f77b4"/>
   </g>
   <g id="patch_173">
    <path d="M 342.520488 273.312 
L 344.137417 273.312 
L 344.137417 79.504941 
L 342.520488 79.504941 
z
" clip-path="url(#pb0c8f65c98)" style="fill: #1f77b4"/>
   </g>
   <g id="patch_174">
    <path d="M 344.137417 273.312 
L 345.754345 273.312 
L 345.754345 86.660894 
L 344.137417 86.660894 
z
" clip-path="url(#pb0c8f65c98)" style="fill: #1f77b4"/>
   </g>
   <g id="patch_175">
    <path d="M 345.754345 273.312 
L 347.371274 273.312 
L 347.371274 63.404047 
L 345.754345 63.404047 
z
" clip-path="url(#pb0c8f65c98)" style="fill: #1f77b4"/>
   </g>
   <g id="patch_176">
    <path d="M 347.371274 273.312 
L 348.988202 273.312 
L 348.988202 67.578353 
L 347.371274 67.578353 
z
" clip-path="url(#pb0c8f65c98)" style="fill: #1f77b4"/>
   </g>
   <g id="patch_177">
    <path d="M 348.988202 273.312 
L 350.605131 273.312 
L 350.605131 59.826071 
L 348.988202 59.826071 
z
" clip-path="url(#pb0c8f65c98)" style="fill: #1f77b4"/>
   </g>
   <g id="patch_178">
    <path d="M 350.605131 273.312 
L 352.22206 273.312 
L 352.22206 84.275576 
L 350.605131 84.275576 
z
" clip-path="url(#pb0c8f65c98)" style="fill: #1f77b4"/>
   </g>
   <g id="patch_179">
    <path d="M 352.22206 273.312 
L 353.838988 273.312 
L 353.838988 63.404047 
L 352.22206 63.404047 
z
" clip-path="url(#pb0c8f65c98)" style="fill: #1f77b4"/>
   </g>
   <g id="patch_180">
    <path d="M 353.838988 273.312 
L 355.455917 273.312 
L 355.455917 55.055435 
L 353.838988 55.055435 
z
" clip-path="url(#pb0c8f65c98)" style="fill: #1f77b4"/>
   </g>
   <g id="patch_181">
    <path d="M 355.455917 273.312 
L 357.072845 273.312 
L 357.072845 61.018729 
L 355.455917 61.018729 
z
" clip-path="url(#pb0c8f65c98)" style="fill: #1f77b4"/>
   </g>
   <g id="patch_182">
    <path d="M 357.072845 273.312 
L 358.689774 273.312 
L 358.689774 65.193035 
L 357.072845 65.193035 
z
" clip-path="url(#pb0c8f65c98)" style="fill: #1f77b4"/>
   </g>
   <g id="patch_183">
    <path d="M 358.689774 273.312 
L 360.306702 273.312 
L 360.306702 47.899482 
L 358.689774 47.899482 
z
" clip-path="url(#pb0c8f65c98)" style="fill: #1f77b4"/>
   </g>
   <g id="patch_184">
    <path d="M 360.306702 273.312 
L 361.923631 273.312 
L 361.923631 30.605929 
L 360.306702 30.605929 
z
" clip-path="url(#pb0c8f65c98)" style="fill: #1f77b4"/>
   </g>
   <g id="patch_185">
    <path d="M 361.923631 273.312 
L 363.540559 273.312 
L 363.540559 66.385694 
L 361.923631 66.385694 
z
" clip-path="url(#pb0c8f65c98)" style="fill: #1f77b4"/>
   </g>
   <g id="patch_186">
    <path d="M 363.540559 273.312 
L 365.157488 273.312 
L 365.157488 66.982024 
L 363.540559 66.982024 
z
" clip-path="url(#pb0c8f65c98)" style="fill: #1f77b4"/>
   </g>
   <g id="patch_187">
    <path d="M 365.157488 273.312 
L 366.774416 273.312 
L 366.774416 59.229741 
L 365.157488 59.229741 
z
" clip-path="url(#pb0c8f65c98)" style="fill: #1f77b4"/>
   </g>
   <g id="patch_188">
    <path d="M 366.774416 273.312 
L 368.391345 273.312 
L 368.391345 67.578353 
L 366.774416 67.578353 
z
" clip-path="url(#pb0c8f65c98)" style="fill: #1f77b4"/>
   </g>
   <g id="patch_189">
    <path d="M 368.391345 273.312 
L 370.008274 273.312 
L 370.008274 53.862776 
L 368.391345 53.862776 
z
" clip-path="url(#pb0c8f65c98)" style="fill: #1f77b4"/>
   </g>
   <g id="patch_190">
    <path d="M 370.008274 273.312 
L 371.625202 273.312 
L 371.625202 62.211388 
L 370.008274 62.211388 
z
" clip-path="url(#pb0c8f65c98)" style="fill: #1f77b4"/>
   </g>
   <g id="patch_191">
    <path d="M 371.625202 273.312 
L 373.242131 273.312 
L 373.242131 30.605929 
L 371.625202 30.605929 
z
" clip-path="url(#pb0c8f65c98)" style="fill: #1f77b4"/>
   </g>
   <g id="patch_192">
    <path d="M 373.242131 273.312 
L 374.859059 273.312 
L 374.859059 56.248094 
L 373.242131 56.248094 
z
" clip-path="url(#pb0c8f65c98)" style="fill: #1f77b4"/>
   </g>
   <g id="patch_193">
    <path d="M 374.859059 273.312 
L 376.475988 273.312 
L 376.475988 50.2848 
L 374.859059 50.2848 
z
" clip-path="url(#pb0c8f65c98)" style="fill: #1f77b4"/>
   </g>
   <g id="patch_194">
    <path d="M 376.475988 273.312 
L 378.092916 273.312 
L 378.092916 60.4224 
L 376.475988 60.4224 
z
" clip-path="url(#pb0c8f65c98)" style="fill: #1f77b4"/>
   </g>
   <g id="patch_195">
    <path d="M 378.092916 273.312 
L 379.709845 273.312 
L 379.709845 62.211388 
L 378.092916 62.211388 
z
" clip-path="url(#pb0c8f65c98)" style="fill: #1f77b4"/>
   </g>
   <g id="patch_196">
    <path d="M 379.709845 273.312 
L 381.326773 273.312 
L 381.326773 27.624282 
L 379.709845 27.624282 
z
" clip-path="url(#pb0c8f65c98)" style="fill: #1f77b4"/>
   </g>
   <g id="patch_197">
    <path d="M 381.326773 273.312 
L 382.943702 273.312 
L 382.943702 31.202259 
L 381.326773 31.202259 
z
" clip-path="url(#pb0c8f65c98)" style="fill: #1f77b4"/>
   </g>
   <g id="patch_198">
    <path d="M 382.943702 273.312 
L 384.56063 273.312 
L 384.56063 55.055435 
L 382.943702 55.055435 
z
" clip-path="url(#pb0c8f65c98)" style="fill: #1f77b4"/>
   </g>
   <g id="patch_199">
    <path d="M 384.56063 273.312 
L 386.177559 273.312 
L 386.177559 31.202259 
L 384.56063 31.202259 
z
" clip-path="url(#pb0c8f65c98)" style="fill: #1f77b4"/>
   </g>
   <g id="patch_200">
    <path d="M 386.177559 273.312 
L 387.794487 273.312 
L 387.794487 59.826071 
L 386.177559 59.826071 
z
" clip-path="url(#pb0c8f65c98)" style="fill: #1f77b4"/>
   </g>
   <g id="patch_201">
    <path d="M 387.794487 273.312 
L 389.411416 273.312 
L 389.411416 19.872 
L 387.794487 19.872 
z
" clip-path="url(#pb0c8f65c98)" style="fill: #1f77b4"/>
   </g>
   <g id="patch_202">
    <path d="M 389.411416 273.312 
L 391.028345 273.312 
L 391.028345 38.954541 
L 389.411416 38.954541 
z
" clip-path="url(#pb0c8f65c98)" style="fill: #1f77b4"/>
   </g>
   <g id="matplotlib.axis_1">
    <g id="xtick_1">
     <g id="line2d_1">
      <defs>
       <path id="m5046de2a04" d="M 0 0 
L 0 3.5 
" style="stroke: #000000; stroke-width: 0.8"/>
      </defs>
      <g>
       <use xlink:href="#m5046de2a04" x="66.376477" y="273.312" style="stroke: #000000; stroke-width: 0.8"/>
      </g>
     </g>
     <g id="text_1">
      <!-- 0.0 -->
      <g transform="translate(58.424915 287.910437)scale(0.1 -0.1)">
       <defs>
        <path id="DejaVuSans-30" d="M 2034 4250 
Q 1547 4250 1301 3770 
Q 1056 3291 1056 2328 
Q 1056 1369 1301 889 
Q 1547 409 2034 409 
Q 2525 409 2770 889 
Q 3016 1369 3016 2328 
Q 3016 3291 2770 3770 
Q 2525 4250 2034 4250 
z
M 2034 4750 
Q 2819 4750 3233 4129 
Q 3647 3509 3647 2328 
Q 3647 1150 3233 529 
Q 2819 -91 2034 -91 
Q 1250 -91 836 529 
Q 422 1150 422 2328 
Q 422 3509 836 4129 
Q 1250 4750 2034 4750 
z
" transform="scale(0.015625)"/>
        <path id="DejaVuSans-2e" d="M 684 794 
L 1344 794 
L 1344 0 
L 684 0 
L 684 794 
z
" transform="scale(0.015625)"/>
       </defs>
       <use xlink:href="#DejaVuSans-30"/>
       <use xlink:href="#DejaVuSans-2e" x="63.623047"/>
       <use xlink:href="#DejaVuSans-30" x="95.410156"/>
      </g>
     </g>
    </g>
    <g id="xtick_2">
     <g id="line2d_2">
      <g>
       <use xlink:href="#m5046de2a04" x="131.307386" y="273.312" style="stroke: #000000; stroke-width: 0.8"/>
      </g>
     </g>
     <g id="text_2">
      <!-- 0.2 -->
      <g transform="translate(123.355824 287.910437)scale(0.1 -0.1)">
       <defs>
        <path id="DejaVuSans-32" d="M 1228 531 
L 3431 531 
L 3431 0 
L 469 0 
L 469 531 
Q 828 903 1448 1529 
Q 2069 2156 2228 2338 
Q 2531 2678 2651 2914 
Q 2772 3150 2772 3378 
Q 2772 3750 2511 3984 
Q 2250 4219 1831 4219 
Q 1534 4219 1204 4116 
Q 875 4013 500 3803 
L 500 4441 
Q 881 4594 1212 4672 
Q 1544 4750 1819 4750 
Q 2544 4750 2975 4387 
Q 3406 4025 3406 3419 
Q 3406 3131 3298 2873 
Q 3191 2616 2906 2266 
Q 2828 2175 2409 1742 
Q 1991 1309 1228 531 
z
" transform="scale(0.015625)"/>
       </defs>
       <use xlink:href="#DejaVuSans-30"/>
       <use xlink:href="#DejaVuSans-2e" x="63.623047"/>
       <use xlink:href="#DejaVuSans-32" x="95.410156"/>
      </g>
     </g>
    </g>
    <g id="xtick_3">
     <g id="line2d_3">
      <g>
       <use xlink:href="#m5046de2a04" x="196.238295" y="273.312" style="stroke: #000000; stroke-width: 0.8"/>
      </g>
     </g>
     <g id="text_3">
      <!-- 0.4 -->
      <g transform="translate(188.286733 287.910437)scale(0.1 -0.1)">
       <defs>
        <path id="DejaVuSans-34" d="M 2419 4116 
L 825 1625 
L 2419 1625 
L 2419 4116 
z
M 2253 4666 
L 3047 4666 
L 3047 1625 
L 3713 1625 
L 3713 1100 
L 3047 1100 
L 3047 0 
L 2419 0 
L 2419 1100 
L 313 1100 
L 313 1709 
L 2253 4666 
z
" transform="scale(0.015625)"/>
       </defs>
       <use xlink:href="#DejaVuSans-30"/>
       <use xlink:href="#DejaVuSans-2e" x="63.623047"/>
       <use xlink:href="#DejaVuSans-34" x="95.410156"/>
      </g>
     </g>
    </g>
    <g id="xtick_4">
     <g id="line2d_4">
      <g>
       <use xlink:href="#m5046de2a04" x="261.169205" y="273.312" style="stroke: #000000; stroke-width: 0.8"/>
      </g>
     </g>
     <g id="text_4">
      <!-- 0.6 -->
      <g transform="translate(253.217642 287.910437)scale(0.1 -0.1)">
       <defs>
        <path id="DejaVuSans-36" d="M 2113 2584 
Q 1688 2584 1439 2293 
Q 1191 2003 1191 1497 
Q 1191 994 1439 701 
Q 1688 409 2113 409 
Q 2538 409 2786 701 
Q 3034 994 3034 1497 
Q 3034 2003 2786 2293 
Q 2538 2584 2113 2584 
z
M 3366 4563 
L 3366 3988 
Q 3128 4100 2886 4159 
Q 2644 4219 2406 4219 
Q 1781 4219 1451 3797 
Q 1122 3375 1075 2522 
Q 1259 2794 1537 2939 
Q 1816 3084 2150 3084 
Q 2853 3084 3261 2657 
Q 3669 2231 3669 1497 
Q 3669 778 3244 343 
Q 2819 -91 2113 -91 
Q 1303 -91 875 529 
Q 447 1150 447 2328 
Q 447 3434 972 4092 
Q 1497 4750 2381 4750 
Q 2619 4750 2861 4703 
Q 3103 4656 3366 4563 
z
" transform="scale(0.015625)"/>
       </defs>
       <use xlink:href="#DejaVuSans-30"/>
       <use xlink:href="#DejaVuSans-2e" x="63.623047"/>
       <use xlink:href="#DejaVuSans-36" x="95.410156"/>
      </g>
     </g>
    </g>
    <g id="xtick_5">
     <g id="line2d_5">
      <g>
       <use xlink:href="#m5046de2a04" x="326.100114" y="273.312" style="stroke: #000000; stroke-width: 0.8"/>
      </g>
     </g>
     <g id="text_5">
      <!-- 0.8 -->
      <g transform="translate(318.148551 287.910437)scale(0.1 -0.1)">
       <defs>
        <path id="DejaVuSans-38" d="M 2034 2216 
Q 1584 2216 1326 1975 
Q 1069 1734 1069 1313 
Q 1069 891 1326 650 
Q 1584 409 2034 409 
Q 2484 409 2743 651 
Q 3003 894 3003 1313 
Q 3003 1734 2745 1975 
Q 2488 2216 2034 2216 
z
M 1403 2484 
Q 997 2584 770 2862 
Q 544 3141 544 3541 
Q 544 4100 942 4425 
Q 1341 4750 2034 4750 
Q 2731 4750 3128 4425 
Q 3525 4100 3525 3541 
Q 3525 3141 3298 2862 
Q 3072 2584 2669 2484 
Q 3125 2378 3379 2068 
Q 3634 1759 3634 1313 
Q 3634 634 3220 271 
Q 2806 -91 2034 -91 
Q 1263 -91 848 271 
Q 434 634 434 1313 
Q 434 1759 690 2068 
Q 947 2378 1403 2484 
z
M 1172 3481 
Q 1172 3119 1398 2916 
Q 1625 2713 2034 2713 
Q 2441 2713 2670 2916 
Q 2900 3119 2900 3481 
Q 2900 3844 2670 4047 
Q 2441 4250 2034 4250 
Q 1625 4250 1398 4047 
Q 1172 3844 1172 3481 
z
" transform="scale(0.015625)"/>
       </defs>
       <use xlink:href="#DejaVuSans-30"/>
       <use xlink:href="#DejaVuSans-2e" x="63.623047"/>
       <use xlink:href="#DejaVuSans-38" x="95.410156"/>
      </g>
     </g>
    </g>
    <g id="xtick_6">
     <g id="line2d_6">
      <g>
       <use xlink:href="#m5046de2a04" x="391.031023" y="273.312" style="stroke: #000000; stroke-width: 0.8"/>
      </g>
     </g>
     <g id="text_6">
      <!-- 1.0 -->
      <g transform="translate(383.07946 287.910437)scale(0.1 -0.1)">
       <defs>
        <path id="DejaVuSans-31" d="M 794 531 
L 1825 531 
L 1825 4091 
L 703 3866 
L 703 4441 
L 1819 4666 
L 2450 4666 
L 2450 531 
L 3481 531 
L 3481 0 
L 794 0 
L 794 531 
z
" transform="scale(0.015625)"/>
       </defs>
       <use xlink:href="#DejaVuSans-31"/>
       <use xlink:href="#DejaVuSans-2e" x="63.623047"/>
       <use xlink:href="#DejaVuSans-30" x="95.410156"/>
      </g>
     </g>
    </g>
    <g id="text_7">
     <!-- Propagation direction -->
     <g transform="translate(175.221719 301.588562)scale(0.1 -0.1)">
      <defs>
       <path id="DejaVuSans-50" d="M 1259 4147 
L 1259 2394 
L 2053 2394 
Q 2494 2394 2734 2622 
Q 2975 2850 2975 3272 
Q 2975 3691 2734 3919 
Q 2494 4147 2053 4147 
L 1259 4147 
z
M 628 4666 
L 2053 4666 
Q 2838 4666 3239 4311 
Q 3641 3956 3641 3272 
Q 3641 2581 3239 2228 
Q 2838 1875 2053 1875 
L 1259 1875 
L 1259 0 
L 628 0 
L 628 4666 
z
" transform="scale(0.015625)"/>
       <path id="DejaVuSans-72" d="M 2631 2963 
Q 2534 3019 2420 3045 
Q 2306 3072 2169 3072 
Q 1681 3072 1420 2755 
Q 1159 2438 1159 1844 
L 1159 0 
L 581 0 
L 581 3500 
L 1159 3500 
L 1159 2956 
Q 1341 3275 1631 3429 
Q 1922 3584 2338 3584 
Q 2397 3584 2469 3576 
Q 2541 3569 2628 3553 
L 2631 2963 
z
" transform="scale(0.015625)"/>
       <path id="DejaVuSans-6f" d="M 1959 3097 
Q 1497 3097 1228 2736 
Q 959 2375 959 1747 
Q 959 1119 1226 758 
Q 1494 397 1959 397 
Q 2419 397 2687 759 
Q 2956 1122 2956 1747 
Q 2956 2369 2687 2733 
Q 2419 3097 1959 3097 
z
M 1959 3584 
Q 2709 3584 3137 3096 
Q 3566 2609 3566 1747 
Q 3566 888 3137 398 
Q 2709 -91 1959 -91 
Q 1206 -91 779 398 
Q 353 888 353 1747 
Q 353 2609 779 3096 
Q 1206 3584 1959 3584 
z
" transform="scale(0.015625)"/>
       <path id="DejaVuSans-70" d="M 1159 525 
L 1159 -1331 
L 581 -1331 
L 581 3500 
L 1159 3500 
L 1159 2969 
Q 1341 3281 1617 3432 
Q 1894 3584 2278 3584 
Q 2916 3584 3314 3078 
Q 3713 2572 3713 1747 
Q 3713 922 3314 415 
Q 2916 -91 2278 -91 
Q 1894 -91 1617 61 
Q 1341 213 1159 525 
z
M 3116 1747 
Q 3116 2381 2855 2742 
Q 2594 3103 2138 3103 
Q 1681 3103 1420 2742 
Q 1159 2381 1159 1747 
Q 1159 1113 1420 752 
Q 1681 391 2138 391 
Q 2594 391 2855 752 
Q 3116 1113 3116 1747 
z
" transform="scale(0.015625)"/>
       <path id="DejaVuSans-61" d="M 2194 1759 
Q 1497 1759 1228 1600 
Q 959 1441 959 1056 
Q 959 750 1161 570 
Q 1363 391 1709 391 
Q 2188 391 2477 730 
Q 2766 1069 2766 1631 
L 2766 1759 
L 2194 1759 
z
M 3341 1997 
L 3341 0 
L 2766 0 
L 2766 531 
Q 2569 213 2275 61 
Q 1981 -91 1556 -91 
Q 1019 -91 701 211 
Q 384 513 384 1019 
Q 384 1609 779 1909 
Q 1175 2209 1959 2209 
L 2766 2209 
L 2766 2266 
Q 2766 2663 2505 2880 
Q 2244 3097 1772 3097 
Q 1472 3097 1187 3025 
Q 903 2953 641 2809 
L 641 3341 
Q 956 3463 1253 3523 
Q 1550 3584 1831 3584 
Q 2591 3584 2966 3190 
Q 3341 2797 3341 1997 
z
" transform="scale(0.015625)"/>
       <path id="DejaVuSans-67" d="M 2906 1791 
Q 2906 2416 2648 2759 
Q 2391 3103 1925 3103 
Q 1463 3103 1205 2759 
Q 947 2416 947 1791 
Q 947 1169 1205 825 
Q 1463 481 1925 481 
Q 2391 481 2648 825 
Q 2906 1169 2906 1791 
z
M 3481 434 
Q 3481 -459 3084 -895 
Q 2688 -1331 1869 -1331 
Q 1566 -1331 1297 -1286 
Q 1028 -1241 775 -1147 
L 775 -588 
Q 1028 -725 1275 -790 
Q 1522 -856 1778 -856 
Q 2344 -856 2625 -561 
Q 2906 -266 2906 331 
L 2906 616 
Q 2728 306 2450 153 
Q 2172 0 1784 0 
Q 1141 0 747 490 
Q 353 981 353 1791 
Q 353 2603 747 3093 
Q 1141 3584 1784 3584 
Q 2172 3584 2450 3431 
Q 2728 3278 2906 2969 
L 2906 3500 
L 3481 3500 
L 3481 434 
z
" transform="scale(0.015625)"/>
       <path id="DejaVuSans-74" d="M 1172 4494 
L 1172 3500 
L 2356 3500 
L 2356 3053 
L 1172 3053 
L 1172 1153 
Q 1172 725 1289 603 
Q 1406 481 1766 481 
L 2356 481 
L 2356 0 
L 1766 0 
Q 1100 0 847 248 
Q 594 497 594 1153 
L 594 3053 
L 172 3053 
L 172 3500 
L 594 3500 
L 594 4494 
L 1172 4494 
z
" transform="scale(0.015625)"/>
       <path id="DejaVuSans-69" d="M 603 3500 
L 1178 3500 
L 1178 0 
L 603 0 
L 603 3500 
z
M 603 4863 
L 1178 4863 
L 1178 4134 
L 603 4134 
L 603 4863 
z
" transform="scale(0.015625)"/>
       <path id="DejaVuSans-6e" d="M 3513 2113 
L 3513 0 
L 2938 0 
L 2938 2094 
Q 2938 2591 2744 2837 
Q 2550 3084 2163 3084 
Q 1697 3084 1428 2787 
Q 1159 2491 1159 1978 
L 1159 0 
L 581 0 
L 581 3500 
L 1159 3500 
L 1159 2956 
Q 1366 3272 1645 3428 
Q 1925 3584 2291 3584 
Q 2894 3584 3203 3211 
Q 3513 2838 3513 2113 
z
" transform="scale(0.015625)"/>
       <path id="DejaVuSans-20" transform="scale(0.015625)"/>
       <path id="DejaVuSans-64" d="M 2906 2969 
L 2906 4863 
L 3481 4863 
L 3481 0 
L 2906 0 
L 2906 525 
Q 2725 213 2448 61 
Q 2172 -91 1784 -91 
Q 1150 -91 751 415 
Q 353 922 353 1747 
Q 353 2572 751 3078 
Q 1150 3584 1784 3584 
Q 2172 3584 2448 3432 
Q 2725 3281 2906 2969 
z
M 947 1747 
Q 947 1113 1208 752 
Q 1469 391 1925 391 
Q 2381 391 2643 752 
Q 2906 1113 2906 1747 
Q 2906 2381 2643 2742 
Q 2381 3103 1925 3103 
Q 1469 3103 1208 2742 
Q 947 2381 947 1747 
z
" transform="scale(0.015625)"/>
       <path id="DejaVuSans-65" d="M 3597 1894 
L 3597 1613 
L 953 1613 
Q 991 1019 1311 708 
Q 1631 397 2203 397 
Q 2534 397 2845 478 
Q 3156 559 3463 722 
L 3463 178 
Q 3153 47 2828 -22 
Q 2503 -91 2169 -91 
Q 1331 -91 842 396 
Q 353 884 353 1716 
Q 353 2575 817 3079 
Q 1281 3584 2069 3584 
Q 2775 3584 3186 3129 
Q 3597 2675 3597 1894 
z
M 3022 2063 
Q 3016 2534 2758 2815 
Q 2500 3097 2075 3097 
Q 1594 3097 1305 2825 
Q 1016 2553 972 2059 
L 3022 2063 
z
" transform="scale(0.015625)"/>
       <path id="DejaVuSans-63" d="M 3122 3366 
L 3122 2828 
Q 2878 2963 2633 3030 
Q 2388 3097 2138 3097 
Q 1578 3097 1268 2742 
Q 959 2388 959 1747 
Q 959 1106 1268 751 
Q 1578 397 2138 397 
Q 2388 397 2633 464 
Q 2878 531 3122 666 
L 3122 134 
Q 2881 22 2623 -34 
Q 2366 -91 2075 -91 
Q 1284 -91 818 406 
Q 353 903 353 1747 
Q 353 2603 823 3093 
Q 1294 3584 2113 3584 
Q 2378 3584 2631 3529 
Q 2884 3475 3122 3366 
z
" transform="scale(0.015625)"/>
      </defs>
      <use xlink:href="#DejaVuSans-50"/>
      <use xlink:href="#DejaVuSans-72" x="58.552734"/>
      <use xlink:href="#DejaVuSans-6f" x="97.416016"/>
      <use xlink:href="#DejaVuSans-70" x="158.597656"/>
      <use xlink:href="#DejaVuSans-61" x="222.074219"/>
      <use xlink:href="#DejaVuSans-67" x="283.353516"/>
      <use xlink:href="#DejaVuSans-61" x="346.830078"/>
      <use xlink:href="#DejaVuSans-74" x="408.109375"/>
      <use xlink:href="#DejaVuSans-69" x="447.318359"/>
      <use xlink:href="#DejaVuSans-6f" x="475.101562"/>
      <use xlink:href="#DejaVuSans-6e" x="536.283203"/>
      <use xlink:href="#DejaVuSans-20" x="599.662109"/>
      <use xlink:href="#DejaVuSans-64" x="631.449219"/>
      <use xlink:href="#DejaVuSans-69" x="694.925781"/>
      <use xlink:href="#DejaVuSans-72" x="722.708984"/>
      <use xlink:href="#DejaVuSans-65" x="761.572266"/>
      <use xlink:href="#DejaVuSans-63" x="823.095703"/>
      <use xlink:href="#DejaVuSans-74" x="878.076172"/>
      <use xlink:href="#DejaVuSans-69" x="917.285156"/>
      <use xlink:href="#DejaVuSans-6f" x="945.068359"/>
      <use xlink:href="#DejaVuSans-6e" x="1006.25"/>
     </g>
    </g>
   </g>
   <g id="matplotlib.axis_2">
    <g id="ytick_1">
     <g id="line2d_7">
      <defs>
       <path id="mfe07e59ca4" d="M 0 0 
L -3.5 0 
" style="stroke: #000000; stroke-width: 0.8"/>
      </defs>
      <g>
       <use xlink:href="#mfe07e59ca4" x="50.14375" y="273.312" style="stroke: #000000; stroke-width: 0.8"/>
      </g>
     </g>
     <g id="text_8">
      <!-- 0.00 -->
      <g transform="translate(20.878125 277.111219)scale(0.1 -0.1)">
       <use xlink:href="#DejaVuSans-30"/>
       <use xlink:href="#DejaVuSans-2e" x="63.623047"/>
       <use xlink:href="#DejaVuSans-30" x="95.410156"/>
       <use xlink:href="#DejaVuSans-30" x="159.033203"/>
      </g>
     </g>
    </g>
    <g id="ytick_2">
     <g id="line2d_8">
      <g>
       <use xlink:href="#mfe07e59ca4" x="50.14375" y="243.61206" style="stroke: #000000; stroke-width: 0.8"/>
      </g>
     </g>
     <g id="text_9">
      <!-- 0.25 -->
      <g transform="translate(20.878125 247.411279)scale(0.1 -0.1)">
       <defs>
        <path id="DejaVuSans-35" d="M 691 4666 
L 3169 4666 
L 3169 4134 
L 1269 4134 
L 1269 2991 
Q 1406 3038 1543 3061 
Q 1681 3084 1819 3084 
Q 2600 3084 3056 2656 
Q 3513 2228 3513 1497 
Q 3513 744 3044 326 
Q 2575 -91 1722 -91 
Q 1428 -91 1123 -41 
Q 819 9 494 109 
L 494 744 
Q 775 591 1075 516 
Q 1375 441 1709 441 
Q 2250 441 2565 725 
Q 2881 1009 2881 1497 
Q 2881 1984 2565 2268 
Q 2250 2553 1709 2553 
Q 1456 2553 1204 2497 
Q 953 2441 691 2322 
L 691 4666 
z
" transform="scale(0.015625)"/>
       </defs>
       <use xlink:href="#DejaVuSans-30"/>
       <use xlink:href="#DejaVuSans-2e" x="63.623047"/>
       <use xlink:href="#DejaVuSans-32" x="95.410156"/>
       <use xlink:href="#DejaVuSans-35" x="159.033203"/>
      </g>
     </g>
    </g>
    <g id="ytick_3">
     <g id="line2d_9">
      <g>
       <use xlink:href="#mfe07e59ca4" x="50.14375" y="213.91212" style="stroke: #000000; stroke-width: 0.8"/>
      </g>
     </g>
     <g id="text_10">
      <!-- 0.50 -->
      <g transform="translate(20.878125 217.711339)scale(0.1 -0.1)">
       <use xlink:href="#DejaVuSans-30"/>
       <use xlink:href="#DejaVuSans-2e" x="63.623047"/>
       <use xlink:href="#DejaVuSans-35" x="95.410156"/>
       <use xlink:href="#DejaVuSans-30" x="159.033203"/>
      </g>
     </g>
    </g>
    <g id="ytick_4">
     <g id="line2d_10">
      <g>
       <use xlink:href="#mfe07e59ca4" x="50.14375" y="184.21218" style="stroke: #000000; stroke-width: 0.8"/>
      </g>
     </g>
     <g id="text_11">
      <!-- 0.75 -->
      <g transform="translate(20.878125 188.011399)scale(0.1 -0.1)">
       <defs>
        <path id="DejaVuSans-37" d="M 525 4666 
L 3525 4666 
L 3525 4397 
L 1831 0 
L 1172 0 
L 2766 4134 
L 525 4134 
L 525 4666 
z
" transform="scale(0.015625)"/>
       </defs>
       <use xlink:href="#DejaVuSans-30"/>
       <use xlink:href="#DejaVuSans-2e" x="63.623047"/>
       <use xlink:href="#DejaVuSans-37" x="95.410156"/>
       <use xlink:href="#DejaVuSans-35" x="159.033203"/>
      </g>
     </g>
    </g>
    <g id="ytick_5">
     <g id="line2d_11">
      <g>
       <use xlink:href="#mfe07e59ca4" x="50.14375" y="154.512241" style="stroke: #000000; stroke-width: 0.8"/>
      </g>
     </g>
     <g id="text_12">
      <!-- 1.00 -->
      <g transform="translate(20.878125 158.311459)scale(0.1 -0.1)">
       <use xlink:href="#DejaVuSans-31"/>
       <use xlink:href="#DejaVuSans-2e" x="63.623047"/>
       <use xlink:href="#DejaVuSans-30" x="95.410156"/>
       <use xlink:href="#DejaVuSans-30" x="159.033203"/>
      </g>
     </g>
    </g>
    <g id="ytick_6">
     <g id="line2d_12">
      <g>
       <use xlink:href="#mfe07e59ca4" x="50.14375" y="124.812301" style="stroke: #000000; stroke-width: 0.8"/>
      </g>
     </g>
     <g id="text_13">
      <!-- 1.25 -->
      <g transform="translate(20.878125 128.61152)scale(0.1 -0.1)">
       <use xlink:href="#DejaVuSans-31"/>
       <use xlink:href="#DejaVuSans-2e" x="63.623047"/>
       <use xlink:href="#DejaVuSans-32" x="95.410156"/>
       <use xlink:href="#DejaVuSans-35" x="159.033203"/>
      </g>
     </g>
    </g>
    <g id="ytick_7">
     <g id="line2d_13">
      <g>
       <use xlink:href="#mfe07e59ca4" x="50.14375" y="95.112361" style="stroke: #000000; stroke-width: 0.8"/>
      </g>
     </g>
     <g id="text_14">
      <!-- 1.50 -->
      <g transform="translate(20.878125 98.91158)scale(0.1 -0.1)">
       <use xlink:href="#DejaVuSans-31"/>
       <use xlink:href="#DejaVuSans-2e" x="63.623047"/>
       <use xlink:href="#DejaVuSans-35" x="95.410156"/>
       <use xlink:href="#DejaVuSans-30" x="159.033203"/>
      </g>
     </g>
    </g>
    <g id="ytick_8">
     <g id="line2d_14">
      <g>
       <use xlink:href="#mfe07e59ca4" x="50.14375" y="65.412421" style="stroke: #000000; stroke-width: 0.8"/>
      </g>
     </g>
     <g id="text_15">
      <!-- 1.75 -->
      <g transform="translate(20.878125 69.21164)scale(0.1 -0.1)">
       <use xlink:href="#DejaVuSans-31"/>
       <use xlink:href="#DejaVuSans-2e" x="63.623047"/>
       <use xlink:href="#DejaVuSans-37" x="95.410156"/>
       <use xlink:href="#DejaVuSans-35" x="159.033203"/>
      </g>
     </g>
    </g>
    <g id="ytick_9">
     <g id="line2d_15">
      <g>
       <use xlink:href="#mfe07e59ca4" x="50.14375" y="35.712481" style="stroke: #000000; stroke-width: 0.8"/>
      </g>
     </g>
     <g id="text_16">
      <!-- 2.00 -->
      <g transform="translate(20.878125 39.5117)scale(0.1 -0.1)">
       <use xlink:href="#DejaVuSans-32"/>
       <use xlink:href="#DejaVuSans-2e" x="63.623047"/>
       <use xlink:href="#DejaVuSans-30" x="95.410156"/>
       <use xlink:href="#DejaVuSans-30" x="159.033203"/>
      </g>
     </g>
    </g>
    <g id="text_17">
     <!-- Probability density -->
     <g transform="translate(14.798438 186.606781)rotate(-90)scale(0.1 -0.1)">
      <defs>
       <path id="DejaVuSans-62" d="M 3116 1747 
Q 3116 2381 2855 2742 
Q 2594 3103 2138 3103 
Q 1681 3103 1420 2742 
Q 1159 2381 1159 1747 
Q 1159 1113 1420 752 
Q 1681 391 2138 391 
Q 2594 391 2855 752 
Q 3116 1113 3116 1747 
z
M 1159 2969 
Q 1341 3281 1617 3432 
Q 1894 3584 2278 3584 
Q 2916 3584 3314 3078 
Q 3713 2572 3713 1747 
Q 3713 922 3314 415 
Q 2916 -91 2278 -91 
Q 1894 -91 1617 61 
Q 1341 213 1159 525 
L 1159 0 
L 581 0 
L 581 4863 
L 1159 4863 
L 1159 2969 
z
" transform="scale(0.015625)"/>
       <path id="DejaVuSans-6c" d="M 603 4863 
L 1178 4863 
L 1178 0 
L 603 0 
L 603 4863 
z
" transform="scale(0.015625)"/>
       <path id="DejaVuSans-79" d="M 2059 -325 
Q 1816 -950 1584 -1140 
Q 1353 -1331 966 -1331 
L 506 -1331 
L 506 -850 
L 844 -850 
Q 1081 -850 1212 -737 
Q 1344 -625 1503 -206 
L 1606 56 
L 191 3500 
L 800 3500 
L 1894 763 
L 2988 3500 
L 3597 3500 
L 2059 -325 
z
" transform="scale(0.015625)"/>
       <path id="DejaVuSans-73" d="M 2834 3397 
L 2834 2853 
Q 2591 2978 2328 3040 
Q 2066 3103 1784 3103 
Q 1356 3103 1142 2972 
Q 928 2841 928 2578 
Q 928 2378 1081 2264 
Q 1234 2150 1697 2047 
L 1894 2003 
Q 2506 1872 2764 1633 
Q 3022 1394 3022 966 
Q 3022 478 2636 193 
Q 2250 -91 1575 -91 
Q 1294 -91 989 -36 
Q 684 19 347 128 
L 347 722 
Q 666 556 975 473 
Q 1284 391 1588 391 
Q 1994 391 2212 530 
Q 2431 669 2431 922 
Q 2431 1156 2273 1281 
Q 2116 1406 1581 1522 
L 1381 1569 
Q 847 1681 609 1914 
Q 372 2147 372 2553 
Q 372 3047 722 3315 
Q 1072 3584 1716 3584 
Q 2034 3584 2315 3537 
Q 2597 3491 2834 3397 
z
" transform="scale(0.015625)"/>
      </defs>
      <use xlink:href="#DejaVuSans-50"/>
      <use xlink:href="#DejaVuSans-72" x="58.552734"/>
      <use xlink:href="#DejaVuSans-6f" x="97.416016"/>
      <use xlink:href="#DejaVuSans-62" x="158.597656"/>
      <use xlink:href="#DejaVuSans-61" x="222.074219"/>
      <use xlink:href="#DejaVuSans-62" x="283.353516"/>
      <use xlink:href="#DejaVuSans-69" x="346.830078"/>
      <use xlink:href="#DejaVuSans-6c" x="374.613281"/>
      <use xlink:href="#DejaVuSans-69" x="402.396484"/>
      <use xlink:href="#DejaVuSans-74" x="430.179688"/>
      <use xlink:href="#DejaVuSans-79" x="469.388672"/>
      <use xlink:href="#DejaVuSans-20" x="528.568359"/>
      <use xlink:href="#DejaVuSans-64" x="560.355469"/>
      <use xlink:href="#DejaVuSans-65" x="623.832031"/>
      <use xlink:href="#DejaVuSans-6e" x="685.355469"/>
      <use xlink:href="#DejaVuSans-73" x="748.734375"/>
      <use xlink:href="#DejaVuSans-69" x="800.833984"/>
      <use xlink:href="#DejaVuSans-74" x="828.617188"/>
      <use xlink:href="#DejaVuSans-79" x="867.826172"/>
     </g>
    </g>
   </g>
   <g id="line2d_16">
    <path d="M 66.376477 273.312 
L 391.031023 35.712481 
L 391.031023 35.712481 
" clip-path="url(#pb0c8f65c98)" style="fill: none; stroke: #ff7f0e; stroke-width: 1.5; stroke-linecap: square"/>
   </g>
   <g id="patch_203">
    <path d="M 50.14375 273.312 
L 50.14375 7.2 
" style="fill: none; stroke: #000000; stroke-width: 0.8; stroke-linejoin: miter; stroke-linecap: square"/>
   </g>
   <g id="patch_204">
    <path d="M 407.26375 273.312 
L 407.26375 7.2 
" style="fill: none; stroke: #000000; stroke-width: 0.8; stroke-linejoin: miter; stroke-linecap: square"/>
   </g>
   <g id="patch_205">
    <path d="M 50.14375 273.312 
L 407.26375 273.312 
" style="fill: none; stroke: #000000; stroke-width: 0.8; stroke-linejoin: miter; stroke-linecap: square"/>
   </g>
   <g id="patch_206">
    <path d="M 50.14375 7.2 
L 407.26375 7.2 
" style="fill: none; stroke: #000000; stroke-width: 0.8; stroke-linejoin: miter; stroke-linecap: square"/>
   </g>
  </g>
 </g>
 <defs>
  <clipPath id="pb0c8f65c98">
   <rect x="50.14375" y="7.2" width="357.12" height="266.112"/>
  </clipPath>
 </defs>
</svg>
