<?xml version="1.0" encoding="utf-8" standalone="no"?>
<!DOCTYPE svg PUBLIC "-//W3C//DTD SVG 1.1//EN"
  "http://www.w3.org/Graphics/SVG/1.1/DTD/svg11.dtd">
<svg xmlns:xlink="http://www.w3.org/1999/xlink" width="414.46375pt" height="310.86825pt" viewBox="0 0 414.46375 310.86825" xmlns="http://www.w3.org/2000/svg" version="1.1">
 <metadata>
  <rdf:RDF xmlns:dc="http://purl.org/dc/elements/1.1/" xmlns:cc="http://creativecommons.org/ns#" xmlns:rdf="http://www.w3.org/1999/02/22-rdf-syntax-ns#">
   <cc:Work>
    <dc:type rdf:resource="http://purl.org/dc/dcmitype/StillImage"/>
    <dc:date>2022-04-24T19:30:43.633378</dc:date>
    <dc:format>image/svg+xml</dc:format>
    <dc:creator>
     <cc:Agent>
      <dc:title>Matplotlib v3.5.1, https://matplotlib.org/</dc:title>
     </cc:Agent>
    </dc:creator>
   </cc:Work>
  </rdf:RDF>
 </metadata>
 <defs>
  <style type="text/css">*{stroke-linejoin: round; stroke-linecap: butt}</style>
 </defs>
 <g id="figure_1">
  <g id="patch_1">
   <path d="M 0 310.86825 
L 414.46375 310.86825 
L 414.46375 0 
L 0 0 
z
" style="fill: #ffffff"/>
  </g>
  <g id="axes_1">
   <g id="patch_2">
    <path d="M 50.14375 273.312 
L 407.26375 273.312 
L 407.26375 7.2 
L 50.14375 7.2 
z
" style="fill: #ffffff"/>
   </g>
   <g id="patch_3">
    <path d="M 68.255525 273.312 
L 69.869348 273.312 
L 69.869348 270.915404 
L 68.255525 270.915404 
z
" clip-path="url(#pdbd05d44f0)" style="fill: #1f77b4"/>
   </g>
   <g id="patch_4">
    <path d="M 69.869348 273.312 
L 71.483171 273.312 
L 71.483171 271.514553 
L 69.869348 271.514553 
z
" clip-path="url(#pdbd05d44f0)" style="fill: #1f77b4"/>
   </g>
   <g id="patch_5">
    <path d="M 71.483171 273.312 
L 73.096995 273.312 
L 73.096995 268.518809 
L 71.483171 268.518809 
z
" clip-path="url(#pdbd05d44f0)" style="fill: #1f77b4"/>
   </g>
   <g id="patch_6">
    <path d="M 73.096995 273.312 
L 74.710818 273.312 
L 74.710818 268.518809 
L 73.096995 268.518809 
z
" clip-path="url(#pdbd05d44f0)" style="fill: #1f77b4"/>
   </g>
   <g id="patch_7">
    <path d="M 74.710818 273.312 
L 76.324641 273.312 
L 76.324641 267.91966 
L 74.710818 267.91966 
z
" clip-path="url(#pdbd05d44f0)" style="fill: #1f77b4"/>
   </g>
   <g id="patch_8">
    <path d="M 76.324641 273.312 
L 77.938465 273.312 
L 77.938465 263.126468 
L 76.324641 263.126468 
z
" clip-path="url(#pdbd05d44f0)" style="fill: #1f77b4"/>
   </g>
   <g id="patch_9">
    <path d="M 77.938465 273.312 
L 79.552288 273.312 
L 79.552288 261.92817 
L 77.938465 261.92817 
z
" clip-path="url(#pdbd05d44f0)" style="fill: #1f77b4"/>
   </g>
   <g id="patch_10">
    <path d="M 79.552288 273.312 
L 81.166111 273.312 
L 81.166111 259.531574 
L 79.552288 259.531574 
z
" clip-path="url(#pdbd05d44f0)" style="fill: #1f77b4"/>
   </g>
   <g id="patch_11">
    <path d="M 81.166111 273.312 
L 82.779935 273.312 
L 82.779935 263.725617 
L 81.166111 263.725617 
z
" clip-path="url(#pdbd05d44f0)" style="fill: #1f77b4"/>
   </g>
   <g id="patch_12">
    <path d="M 82.779935 273.312 
L 84.393758 273.312 
L 84.393758 261.92817 
L 82.779935 261.92817 
z
" clip-path="url(#pdbd05d44f0)" style="fill: #1f77b4"/>
   </g>
   <g id="patch_13">
    <path d="M 84.393758 273.312 
L 86.007581 273.312 
L 86.007581 257.134979 
L 84.393758 257.134979 
z
" clip-path="url(#pdbd05d44f0)" style="fill: #1f77b4"/>
   </g>
   <g id="patch_14">
    <path d="M 86.007581 273.312 
L 87.621405 273.312 
L 87.621405 262.527319 
L 86.007581 262.527319 
z
" clip-path="url(#pdbd05d44f0)" style="fill: #1f77b4"/>
   </g>
   <g id="patch_15">
    <path d="M 87.621405 273.312 
L 89.235228 273.312 
L 89.235228 255.337532 
L 87.621405 255.337532 
z
" clip-path="url(#pdbd05d44f0)" style="fill: #1f77b4"/>
   </g>
   <g id="patch_16">
    <path d="M 89.235228 273.312 
L 90.849052 273.312 
L 90.849052 260.729872 
L 89.235228 260.729872 
z
" clip-path="url(#pdbd05d44f0)" style="fill: #1f77b4"/>
   </g>
   <g id="patch_17">
    <path d="M 90.849052 273.312 
L 92.462875 273.312 
L 92.462875 250.54434 
L 90.849052 250.54434 
z
" clip-path="url(#pdbd05d44f0)" style="fill: #1f77b4"/>
   </g>
   <g id="patch_18">
    <path d="M 92.462875 273.312 
L 94.076698 273.312 
L 94.076698 257.134979 
L 92.462875 257.134979 
z
" clip-path="url(#pdbd05d44f0)" style="fill: #1f77b4"/>
   </g>
   <g id="patch_19">
    <path d="M 94.076698 273.312 
L 95.690522 273.312 
L 95.690522 258.932426 
L 94.076698 258.932426 
z
" clip-path="url(#pdbd05d44f0)" style="fill: #1f77b4"/>
   </g>
   <g id="patch_20">
    <path d="M 95.690522 273.312 
L 97.304345 273.312 
L 97.304345 247.548596 
L 95.690522 247.548596 
z
" clip-path="url(#pdbd05d44f0)" style="fill: #1f77b4"/>
   </g>
   <g id="patch_21">
    <path d="M 97.304345 273.312 
L 98.918168 273.312 
L 98.918168 242.755404 
L 97.304345 242.755404 
z
" clip-path="url(#pdbd05d44f0)" style="fill: #1f77b4"/>
   </g>
   <g id="patch_22">
    <path d="M 98.918168 273.312 
L 100.531992 273.312 
L 100.531992 242.755404 
L 98.918168 242.755404 
z
" clip-path="url(#pdbd05d44f0)" style="fill: #1f77b4"/>
   </g>
   <g id="patch_23">
    <path d="M 100.531992 273.312 
L 102.145815 273.312 
L 102.145815 242.156255 
L 100.531992 242.156255 
z
" clip-path="url(#pdbd05d44f0)" style="fill: #1f77b4"/>
   </g>
   <g id="patch_24">
    <path d="M 102.145815 273.312 
L 103.759638 273.312 
L 103.759638 246.350298 
L 102.145815 246.350298 
z
" clip-path="url(#pdbd05d44f0)" style="fill: #1f77b4"/>
   </g>
   <g id="patch_25">
    <path d="M 103.759638 273.312 
L 105.373462 273.312 
L 105.373462 245.751149 
L 103.759638 245.751149 
z
" clip-path="url(#pdbd05d44f0)" style="fill: #1f77b4"/>
   </g>
   <g id="patch_26">
    <path d="M 105.373462 273.312 
L 106.987285 273.312 
L 106.987285 252.940936 
L 105.373462 252.940936 
z
" clip-path="url(#pdbd05d44f0)" style="fill: #1f77b4"/>
   </g>
   <g id="patch_27">
    <path d="M 106.987285 273.312 
L 108.601108 273.312 
L 108.601108 244.552851 
L 106.987285 244.552851 
z
" clip-path="url(#pdbd05d44f0)" style="fill: #1f77b4"/>
   </g>
   <g id="patch_28">
    <path d="M 108.601108 273.312 
L 110.214932 273.312 
L 110.214932 241.557106 
L 108.601108 241.557106 
z
" clip-path="url(#pdbd05d44f0)" style="fill: #1f77b4"/>
   </g>
   <g id="patch_29">
    <path d="M 110.214932 273.312 
L 111.828755 273.312 
L 111.828755 239.75966 
L 110.214932 239.75966 
z
" clip-path="url(#pdbd05d44f0)" style="fill: #1f77b4"/>
   </g>
   <g id="patch_30">
    <path d="M 111.828755 273.312 
L 113.442578 273.312 
L 113.442578 242.156255 
L 111.828755 242.156255 
z
" clip-path="url(#pdbd05d44f0)" style="fill: #1f77b4"/>
   </g>
   <g id="patch_31">
    <path d="M 113.442578 273.312 
L 115.056402 273.312 
L 115.056402 246.949447 
L 113.442578 246.949447 
z
" clip-path="url(#pdbd05d44f0)" style="fill: #1f77b4"/>
   </g>
   <g id="patch_32">
    <path d="M 115.056402 273.312 
L 116.670225 273.312 
L 116.670225 234.966468 
L 115.056402 234.966468 
z
" clip-path="url(#pdbd05d44f0)" style="fill: #1f77b4"/>
   </g>
   <g id="patch_33">
    <path d="M 116.670225 273.312 
L 118.284048 273.312 
L 118.284048 246.350298 
L 116.670225 246.350298 
z
" clip-path="url(#pdbd05d44f0)" style="fill: #1f77b4"/>
   </g>
   <g id="patch_34">
    <path d="M 118.284048 273.312 
L 119.897872 273.312 
L 119.897872 226.578383 
L 118.284048 226.578383 
z
" clip-path="url(#pdbd05d44f0)" style="fill: #1f77b4"/>
   </g>
   <g id="patch_35">
    <path d="M 119.897872 273.312 
L 121.511695 273.312 
L 121.511695 234.966468 
L 119.897872 234.966468 
z
" clip-path="url(#pdbd05d44f0)" style="fill: #1f77b4"/>
   </g>
   <g id="patch_36">
    <path d="M 121.511695 273.312 
L 123.125518 273.312 
L 123.125518 232.569872 
L 121.511695 232.569872 
z
" clip-path="url(#pdbd05d44f0)" style="fill: #1f77b4"/>
   </g>
   <g id="patch_37">
    <path d="M 123.125518 273.312 
L 124.739342 273.312 
L 124.739342 235.565617 
L 123.125518 235.565617 
z
" clip-path="url(#pdbd05d44f0)" style="fill: #1f77b4"/>
   </g>
   <g id="patch_38">
    <path d="M 124.739342 273.312 
L 126.353165 273.312 
L 126.353165 232.569872 
L 124.739342 232.569872 
z
" clip-path="url(#pdbd05d44f0)" style="fill: #1f77b4"/>
   </g>
   <g id="patch_39">
    <path d="M 126.353165 273.312 
L 127.966989 273.312 
L 127.966989 230.173277 
L 126.353165 230.173277 
z
" clip-path="url(#pdbd05d44f0)" style="fill: #1f77b4"/>
   </g>
   <g id="patch_40">
    <path d="M 127.966989 273.312 
L 129.580812 273.312 
L 129.580812 224.181787 
L 127.966989 224.181787 
z
" clip-path="url(#pdbd05d44f0)" style="fill: #1f77b4"/>
   </g>
   <g id="patch_41">
    <path d="M 129.580812 273.312 
L 131.194635 273.312 
L 131.194635 226.578383 
L 129.580812 226.578383 
z
" clip-path="url(#pdbd05d44f0)" style="fill: #1f77b4"/>
   </g>
   <g id="patch_42">
    <path d="M 131.194635 273.312 
L 132.808459 273.312 
L 132.808459 227.177532 
L 131.194635 227.177532 
z
" clip-path="url(#pdbd05d44f0)" style="fill: #1f77b4"/>
   </g>
   <g id="patch_43">
    <path d="M 132.808459 273.312 
L 134.422282 273.312 
L 134.422282 225.979234 
L 132.808459 225.979234 
z
" clip-path="url(#pdbd05d44f0)" style="fill: #1f77b4"/>
   </g>
   <g id="patch_44">
    <path d="M 134.422282 273.312 
L 136.036105 273.312 
L 136.036105 227.177532 
L 134.422282 227.177532 
z
" clip-path="url(#pdbd05d44f0)" style="fill: #1f77b4"/>
   </g>
   <g id="patch_45">
    <path d="M 136.036105 273.312 
L 137.649929 273.312 
L 137.649929 227.776681 
L 136.036105 227.776681 
z
" clip-path="url(#pdbd05d44f0)" style="fill: #1f77b4"/>
   </g>
   <g id="patch_46">
    <path d="M 137.649929 273.312 
L 139.263752 273.312 
L 139.263752 221.785191 
L 137.649929 221.785191 
z
" clip-path="url(#pdbd05d44f0)" style="fill: #1f77b4"/>
   </g>
   <g id="patch_47">
    <path d="M 139.263752 273.312 
L 140.877575 273.312 
L 140.877575 226.578383 
L 139.263752 226.578383 
z
" clip-path="url(#pdbd05d44f0)" style="fill: #1f77b4"/>
   </g>
   <g id="patch_48">
    <path d="M 140.877575 273.312 
L 142.491399 273.312 
L 142.491399 214.595404 
L 140.877575 214.595404 
z
" clip-path="url(#pdbd05d44f0)" style="fill: #1f77b4"/>
   </g>
   <g id="patch_49">
    <path d="M 142.491399 273.312 
L 144.105222 273.312 
L 144.105222 219.388596 
L 142.491399 219.388596 
z
" clip-path="url(#pdbd05d44f0)" style="fill: #1f77b4"/>
   </g>
   <g id="patch_50">
    <path d="M 144.105222 273.312 
L 145.719045 273.312 
L 145.719045 211.000511 
L 144.105222 211.000511 
z
" clip-path="url(#pdbd05d44f0)" style="fill: #1f77b4"/>
   </g>
   <g id="patch_51">
    <path d="M 145.719045 273.312 
L 147.332869 273.312 
L 147.332869 215.793702 
L 145.719045 215.793702 
z
" clip-path="url(#pdbd05d44f0)" style="fill: #1f77b4"/>
   </g>
   <g id="patch_52">
    <path d="M 147.332869 273.312 
L 148.946692 273.312 
L 148.946692 206.207319 
L 147.332869 206.207319 
z
" clip-path="url(#pdbd05d44f0)" style="fill: #1f77b4"/>
   </g>
   <g id="patch_53">
    <path d="M 148.946692 273.312 
L 150.560515 273.312 
L 150.560515 205.60817 
L 148.946692 205.60817 
z
" clip-path="url(#pdbd05d44f0)" style="fill: #1f77b4"/>
   </g>
   <g id="patch_54">
    <path d="M 150.560515 273.312 
L 152.174339 273.312 
L 152.174339 213.397106 
L 150.560515 213.397106 
z
" clip-path="url(#pdbd05d44f0)" style="fill: #1f77b4"/>
   </g>
   <g id="patch_55">
    <path d="M 152.174339 273.312 
L 153.788162 273.312 
L 153.788162 200.21583 
L 152.174339 200.21583 
z
" clip-path="url(#pdbd05d44f0)" style="fill: #1f77b4"/>
   </g>
   <g id="patch_56">
    <path d="M 153.788162 273.312 
L 155.401985 273.312 
L 155.401985 208.603915 
L 153.788162 208.603915 
z
" clip-path="url(#pdbd05d44f0)" style="fill: #1f77b4"/>
   </g>
   <g id="patch_57">
    <path d="M 155.401985 273.312 
L 157.015809 273.312 
L 157.015809 200.814979 
L 155.401985 200.814979 
z
" clip-path="url(#pdbd05d44f0)" style="fill: #1f77b4"/>
   </g>
   <g id="patch_58">
    <path d="M 157.015809 273.312 
L 158.629632 273.312 
L 158.629632 200.814979 
L 157.015809 200.814979 
z
" clip-path="url(#pdbd05d44f0)" style="fill: #1f77b4"/>
   </g>
   <g id="patch_59">
    <path d="M 158.629632 273.312 
L 160.243456 273.312 
L 160.243456 215.194553 
L 158.629632 215.194553 
z
" clip-path="url(#pdbd05d44f0)" style="fill: #1f77b4"/>
   </g>
   <g id="patch_60">
    <path d="M 160.243456 273.312 
L 161.857279 273.312 
L 161.857279 205.009021 
L 160.243456 205.009021 
z
" clip-path="url(#pdbd05d44f0)" style="fill: #1f77b4"/>
   </g>
   <g id="patch_61">
    <path d="M 161.857279 273.312 
L 163.471102 273.312 
L 163.471102 201.414128 
L 161.857279 201.414128 
z
" clip-path="url(#pdbd05d44f0)" style="fill: #1f77b4"/>
   </g>
   <g id="patch_62">
    <path d="M 163.471102 273.312 
L 165.084926 273.312 
L 165.084926 206.207319 
L 163.471102 206.207319 
z
" clip-path="url(#pdbd05d44f0)" style="fill: #1f77b4"/>
   </g>
   <g id="patch_63">
    <path d="M 165.084926 273.312 
L 166.698749 273.312 
L 166.698749 199.616681 
L 165.084926 199.616681 
z
" clip-path="url(#pdbd05d44f0)" style="fill: #1f77b4"/>
   </g>
   <g id="patch_64">
    <path d="M 166.698749 273.312 
L 168.312572 273.312 
L 168.312572 202.612426 
L 166.698749 202.612426 
z
" clip-path="url(#pdbd05d44f0)" style="fill: #1f77b4"/>
   </g>
   <g id="patch_65">
    <path d="M 168.312572 273.312 
L 169.926396 273.312 
L 169.926396 203.810723 
L 168.312572 203.810723 
z
" clip-path="url(#pdbd05d44f0)" style="fill: #1f77b4"/>
   </g>
   <g id="patch_66">
    <path d="M 169.926396 273.312 
L 171.540219 273.312 
L 171.540219 193.026043 
L 169.926396 193.026043 
z
" clip-path="url(#pdbd05d44f0)" style="fill: #1f77b4"/>
   </g>
   <g id="patch_67">
    <path d="M 171.540219 273.312 
L 173.154042 273.312 
L 173.154042 203.810723 
L 171.540219 203.810723 
z
" clip-path="url(#pdbd05d44f0)" style="fill: #1f77b4"/>
   </g>
   <g id="patch_68">
    <path d="M 173.154042 273.312 
L 174.767866 273.312 
L 174.767866 196.021787 
L 173.154042 196.021787 
z
" clip-path="url(#pdbd05d44f0)" style="fill: #1f77b4"/>
   </g>
   <g id="patch_69">
    <path d="M 174.767866 273.312 
L 176.381689 273.312 
L 176.381689 196.620936 
L 174.767866 196.620936 
z
" clip-path="url(#pdbd05d44f0)" style="fill: #1f77b4"/>
   </g>
   <g id="patch_70">
    <path d="M 176.381689 273.312 
L 177.995512 273.312 
L 177.995512 187.633702 
L 176.381689 187.633702 
z
" clip-path="url(#pdbd05d44f0)" style="fill: #1f77b4"/>
   </g>
   <g id="patch_71">
    <path d="M 177.995512 273.312 
L 179.609336 273.312 
L 179.609336 194.22434 
L 177.995512 194.22434 
z
" clip-path="url(#pdbd05d44f0)" style="fill: #1f77b4"/>
   </g>
   <g id="patch_72">
    <path d="M 179.609336 273.312 
L 181.223159 273.312 
L 181.223159 179.245617 
L 179.609336 179.245617 
z
" clip-path="url(#pdbd05d44f0)" style="fill: #1f77b4"/>
   </g>
   <g id="patch_73">
    <path d="M 181.223159 273.312 
L 182.836982 273.312 
L 182.836982 189.431149 
L 181.223159 189.431149 
z
" clip-path="url(#pdbd05d44f0)" style="fill: #1f77b4"/>
   </g>
   <g id="patch_74">
    <path d="M 182.836982 273.312 
L 184.450806 273.312 
L 184.450806 185.237106 
L 182.836982 185.237106 
z
" clip-path="url(#pdbd05d44f0)" style="fill: #1f77b4"/>
   </g>
   <g id="patch_75">
    <path d="M 184.450806 273.312 
L 186.064629 273.312 
L 186.064629 182.241362 
L 184.450806 182.241362 
z
" clip-path="url(#pdbd05d44f0)" style="fill: #1f77b4"/>
   </g>
   <g id="patch_76">
    <path d="M 186.064629 273.312 
L 187.678452 273.312 
L 187.678452 191.827745 
L 186.064629 191.827745 
z
" clip-path="url(#pdbd05d44f0)" style="fill: #1f77b4"/>
   </g>
   <g id="patch_77">
    <path d="M 187.678452 273.312 
L 189.292276 273.312 
L 189.292276 175.650723 
L 187.678452 175.650723 
z
" clip-path="url(#pdbd05d44f0)" style="fill: #1f77b4"/>
   </g>
   <g id="patch_78">
    <path d="M 189.292276 273.312 
L 190.906099 273.312 
L 190.906099 190.629447 
L 189.292276 190.629447 
z
" clip-path="url(#pdbd05d44f0)" style="fill: #1f77b4"/>
   </g>
   <g id="patch_79">
    <path d="M 190.906099 273.312 
L 192.519922 273.312 
L 192.519922 173.853277 
L 190.906099 173.853277 
z
" clip-path="url(#pdbd05d44f0)" style="fill: #1f77b4"/>
   </g>
   <g id="patch_80">
    <path d="M 192.519922 273.312 
L 194.133746 273.312 
L 194.133746 181.043064 
L 192.519922 181.043064 
z
" clip-path="url(#pdbd05d44f0)" style="fill: #1f77b4"/>
   </g>
   <g id="patch_81">
    <path d="M 194.133746 273.312 
L 195.747569 273.312 
L 195.747569 181.043064 
L 194.133746 181.043064 
z
" clip-path="url(#pdbd05d44f0)" style="fill: #1f77b4"/>
   </g>
   <g id="patch_82">
    <path d="M 195.747569 273.312 
L 197.361393 273.312 
L 197.361393 176.849021 
L 195.747569 176.849021 
z
" clip-path="url(#pdbd05d44f0)" style="fill: #1f77b4"/>
   </g>
   <g id="patch_83">
    <path d="M 197.361393 273.312 
L 198.975216 273.312 
L 198.975216 178.047319 
L 197.361393 178.047319 
z
" clip-path="url(#pdbd05d44f0)" style="fill: #1f77b4"/>
   </g>
   <g id="patch_84">
    <path d="M 198.975216 273.312 
L 200.589039 273.312 
L 200.589039 175.051574 
L 198.975216 175.051574 
z
" clip-path="url(#pdbd05d44f0)" style="fill: #1f77b4"/>
   </g>
   <g id="patch_85">
    <path d="M 200.589039 273.312 
L 202.202863 273.312 
L 202.202863 181.043064 
L 200.589039 181.043064 
z
" clip-path="url(#pdbd05d44f0)" style="fill: #1f77b4"/>
   </g>
   <g id="patch_86">
    <path d="M 202.202863 273.312 
L 203.816686 273.312 
L 203.816686 163.667745 
L 202.202863 163.667745 
z
" clip-path="url(#pdbd05d44f0)" style="fill: #1f77b4"/>
   </g>
   <g id="patch_87">
    <path d="M 203.816686 273.312 
L 205.430509 273.312 
L 205.430509 175.051574 
L 203.816686 175.051574 
z
" clip-path="url(#pdbd05d44f0)" style="fill: #1f77b4"/>
   </g>
   <g id="patch_88">
    <path d="M 205.430509 273.312 
L 207.044333 273.312 
L 207.044333 168.460936 
L 205.430509 168.460936 
z
" clip-path="url(#pdbd05d44f0)" style="fill: #1f77b4"/>
   </g>
   <g id="patch_89">
    <path d="M 207.044333 273.312 
L 208.658156 273.312 
L 208.658156 173.853277 
L 207.044333 173.853277 
z
" clip-path="url(#pdbd05d44f0)" style="fill: #1f77b4"/>
   </g>
   <g id="patch_90">
    <path d="M 208.658156 273.312 
L 210.271979 273.312 
L 210.271979 184.637957 
L 208.658156 184.637957 
z
" clip-path="url(#pdbd05d44f0)" style="fill: #1f77b4"/>
   </g>
   <g id="patch_91">
    <path d="M 210.271979 273.312 
L 211.885803 273.312 
L 211.885803 176.249872 
L 210.271979 176.249872 
z
" clip-path="url(#pdbd05d44f0)" style="fill: #1f77b4"/>
   </g>
   <g id="patch_92">
    <path d="M 211.885803 273.312 
L 213.499626 273.312 
L 213.499626 171.456681 
L 211.885803 171.456681 
z
" clip-path="url(#pdbd05d44f0)" style="fill: #1f77b4"/>
   </g>
   <g id="patch_93">
    <path d="M 213.499626 273.312 
L 215.113449 273.312 
L 215.113449 163.068596 
L 213.499626 163.068596 
z
" clip-path="url(#pdbd05d44f0)" style="fill: #1f77b4"/>
   </g>
   <g id="patch_94">
    <path d="M 215.113449 273.312 
L 216.727273 273.312 
L 216.727273 180.443915 
L 215.113449 180.443915 
z
" clip-path="url(#pdbd05d44f0)" style="fill: #1f77b4"/>
   </g>
   <g id="patch_95">
    <path d="M 216.727273 273.312 
L 218.341096 273.312 
L 218.341096 168.460936 
L 216.727273 168.460936 
z
" clip-path="url(#pdbd05d44f0)" style="fill: #1f77b4"/>
   </g>
   <g id="patch_96">
    <path d="M 218.341096 273.312 
L 219.954919 273.312 
L 219.954919 151.684766 
L 218.341096 151.684766 
z
" clip-path="url(#pdbd05d44f0)" style="fill: #1f77b4"/>
   </g>
   <g id="patch_97">
    <path d="M 219.954919 273.312 
L 221.568743 273.312 
L 221.568743 154.680511 
L 219.954919 154.680511 
z
" clip-path="url(#pdbd05d44f0)" style="fill: #1f77b4"/>
   </g>
   <g id="patch_98">
    <path d="M 221.568743 273.312 
L 223.182566 273.312 
L 223.182566 154.680511 
L 221.568743 154.680511 
z
" clip-path="url(#pdbd05d44f0)" style="fill: #1f77b4"/>
   </g>
   <g id="patch_99">
    <path d="M 223.182566 273.312 
L 224.796389 273.312 
L 224.796389 161.271149 
L 223.182566 161.271149 
z
" clip-path="url(#pdbd05d44f0)" style="fill: #1f77b4"/>
   </g>
   <g id="patch_100">
    <path d="M 224.796389 273.312 
L 226.410213 273.312 
L 226.410213 146.292426 
L 224.796389 146.292426 
z
" clip-path="url(#pdbd05d44f0)" style="fill: #1f77b4"/>
   </g>
   <g id="patch_101">
    <path d="M 226.410213 273.312 
L 228.024036 273.312 
L 228.024036 166.06434 
L 226.410213 166.06434 
z
" clip-path="url(#pdbd05d44f0)" style="fill: #1f77b4"/>
   </g>
   <g id="patch_102">
    <path d="M 228.024036 273.312 
L 229.637859 273.312 
L 229.637859 164.266894 
L 228.024036 164.266894 
z
" clip-path="url(#pdbd05d44f0)" style="fill: #1f77b4"/>
   </g>
   <g id="patch_103">
    <path d="M 229.637859 273.312 
L 231.251683 273.312 
L 231.251683 154.680511 
L 229.637859 154.680511 
z
" clip-path="url(#pdbd05d44f0)" style="fill: #1f77b4"/>
   </g>
   <g id="patch_104">
    <path d="M 231.251683 273.312 
L 232.865506 273.312 
L 232.865506 150.486468 
L 231.251683 150.486468 
z
" clip-path="url(#pdbd05d44f0)" style="fill: #1f77b4"/>
   </g>
   <g id="patch_105">
    <path d="M 232.865506 273.312 
L 234.47933 273.312 
L 234.47933 151.085617 
L 232.865506 151.085617 
z
" clip-path="url(#pdbd05d44f0)" style="fill: #1f77b4"/>
   </g>
   <g id="patch_106">
    <path d="M 234.47933 273.312 
L 236.093153 273.312 
L 236.093153 158.874553 
L 234.47933 158.874553 
z
" clip-path="url(#pdbd05d44f0)" style="fill: #1f77b4"/>
   </g>
   <g id="patch_107">
    <path d="M 236.093153 273.312 
L 237.706976 273.312 
L 237.706976 142.098383 
L 236.093153 142.098383 
z
" clip-path="url(#pdbd05d44f0)" style="fill: #1f77b4"/>
   </g>
   <g id="patch_108">
    <path d="M 237.706976 273.312 
L 239.3208 273.312 
L 239.3208 136.106894 
L 237.706976 136.106894 
z
" clip-path="url(#pdbd05d44f0)" style="fill: #1f77b4"/>
   </g>
   <g id="patch_109">
    <path d="M 239.3208 273.312 
L 240.934623 273.312 
L 240.934623 148.089872 
L 239.3208 148.089872 
z
" clip-path="url(#pdbd05d44f0)" style="fill: #1f77b4"/>
   </g>
   <g id="patch_110">
    <path d="M 240.934623 273.312 
L 242.548446 273.312 
L 242.548446 133.710298 
L 240.934623 133.710298 
z
" clip-path="url(#pdbd05d44f0)" style="fill: #1f77b4"/>
   </g>
   <g id="patch_111">
    <path d="M 242.548446 273.312 
L 244.16227 273.312 
L 244.16227 141.499234 
L 242.548446 141.499234 
z
" clip-path="url(#pdbd05d44f0)" style="fill: #1f77b4"/>
   </g>
   <g id="patch_112">
    <path d="M 244.16227 273.312 
L 245.776093 273.312 
L 245.776093 160.672 
L 244.16227 160.672 
z
" clip-path="url(#pdbd05d44f0)" style="fill: #1f77b4"/>
   </g>
   <g id="patch_113">
    <path d="M 245.776093 273.312 
L 247.389916 273.312 
L 247.389916 142.697532 
L 245.776093 142.697532 
z
" clip-path="url(#pdbd05d44f0)" style="fill: #1f77b4"/>
   </g>
   <g id="patch_114">
    <path d="M 247.389916 273.312 
L 249.00374 273.312 
L 249.00374 140.300936 
L 247.389916 140.300936 
z
" clip-path="url(#pdbd05d44f0)" style="fill: #1f77b4"/>
   </g>
   <g id="patch_115">
    <path d="M 249.00374 273.312 
L 250.617563 273.312 
L 250.617563 124.123915 
L 249.00374 124.123915 
z
" clip-path="url(#pdbd05d44f0)" style="fill: #1f77b4"/>
   </g>
   <g id="patch_116">
    <path d="M 250.617563 273.312 
L 252.231386 273.312 
L 252.231386 134.309447 
L 250.617563 134.309447 
z
" clip-path="url(#pdbd05d44f0)" style="fill: #1f77b4"/>
   </g>
   <g id="patch_117">
    <path d="M 252.231386 273.312 
L 253.84521 273.312 
L 253.84521 121.12817 
L 252.231386 121.12817 
z
" clip-path="url(#pdbd05d44f0)" style="fill: #1f77b4"/>
   </g>
   <g id="patch_118">
    <path d="M 253.84521 273.312 
L 255.459033 273.312 
L 255.459033 150.486468 
L 253.84521 150.486468 
z
" clip-path="url(#pdbd05d44f0)" style="fill: #1f77b4"/>
   </g>
   <g id="patch_119">
    <path d="M 255.459033 273.312 
L 257.072856 273.312 
L 257.072856 124.123915 
L 255.459033 124.123915 
z
" clip-path="url(#pdbd05d44f0)" style="fill: #1f77b4"/>
   </g>
   <g id="patch_120">
    <path d="M 257.072856 273.312 
L 258.68668 273.312 
L 258.68668 144.494979 
L 257.072856 144.494979 
z
" clip-path="url(#pdbd05d44f0)" style="fill: #1f77b4"/>
   </g>
   <g id="patch_121">
    <path d="M 258.68668 273.312 
L 260.300503 273.312 
L 260.300503 146.292426 
L 258.68668 146.292426 
z
" clip-path="url(#pdbd05d44f0)" style="fill: #1f77b4"/>
   </g>
   <g id="patch_122">
    <path d="M 260.300503 273.312 
L 261.914326 273.312 
L 261.914326 128.317957 
L 260.300503 128.317957 
z
" clip-path="url(#pdbd05d44f0)" style="fill: #1f77b4"/>
   </g>
   <g id="patch_123">
    <path d="M 261.914326 273.312 
L 263.52815 273.312 
L 263.52815 138.503489 
L 261.914326 138.503489 
z
" clip-path="url(#pdbd05d44f0)" style="fill: #1f77b4"/>
   </g>
   <g id="patch_124">
    <path d="M 263.52815 273.312 
L 265.141973 273.312 
L 265.141973 124.723064 
L 263.52815 124.723064 
z
" clip-path="url(#pdbd05d44f0)" style="fill: #1f77b4"/>
   </g>
   <g id="patch_125">
    <path d="M 265.141973 273.312 
L 266.755796 273.312 
L 266.755796 113.938383 
L 265.141973 113.938383 
z
" clip-path="url(#pdbd05d44f0)" style="fill: #1f77b4"/>
   </g>
   <g id="patch_126">
    <path d="M 266.755796 273.312 
L 268.36962 273.312 
L 268.36962 127.11966 
L 266.755796 127.11966 
z
" clip-path="url(#pdbd05d44f0)" style="fill: #1f77b4"/>
   </g>
   <g id="patch_127">
    <path d="M 268.36962 273.312 
L 269.983443 273.312 
L 269.983443 142.098383 
L 268.36962 142.098383 
z
" clip-path="url(#pdbd05d44f0)" style="fill: #1f77b4"/>
   </g>
   <g id="patch_128">
    <path d="M 269.983443 273.312 
L 271.597267 273.312 
L 271.597267 128.917106 
L 269.983443 128.917106 
z
" clip-path="url(#pdbd05d44f0)" style="fill: #1f77b4"/>
   </g>
   <g id="patch_129">
    <path d="M 271.597267 273.312 
L 273.21109 273.312 
L 273.21109 142.697532 
L 271.597267 142.697532 
z
" clip-path="url(#pdbd05d44f0)" style="fill: #1f77b4"/>
   </g>
   <g id="patch_130">
    <path d="M 273.21109 273.312 
L 274.824913 273.312 
L 274.824913 122.326468 
L 273.21109 122.326468 
z
" clip-path="url(#pdbd05d44f0)" style="fill: #1f77b4"/>
   </g>
   <g id="patch_131">
    <path d="M 274.824913 273.312 
L 276.438737 273.312 
L 276.438737 115.136681 
L 274.824913 115.136681 
z
" clip-path="url(#pdbd05d44f0)" style="fill: #1f77b4"/>
   </g>
   <g id="patch_132">
    <path d="M 276.438737 273.312 
L 278.05256 273.312 
L 278.05256 113.339234 
L 276.438737 113.339234 
z
" clip-path="url(#pdbd05d44f0)" style="fill: #1f77b4"/>
   </g>
   <g id="patch_133">
    <path d="M 278.05256 273.312 
L 279.666383 273.312 
L 279.666383 115.73583 
L 278.05256 115.73583 
z
" clip-path="url(#pdbd05d44f0)" style="fill: #1f77b4"/>
   </g>
   <g id="patch_134">
    <path d="M 279.666383 273.312 
L 281.280207 273.312 
L 281.280207 118.731574 
L 279.666383 118.731574 
z
" clip-path="url(#pdbd05d44f0)" style="fill: #1f77b4"/>
   </g>
   <g id="patch_135">
    <path d="M 281.280207 273.312 
L 282.89403 273.312 
L 282.89403 130.115404 
L 281.280207 130.115404 
z
" clip-path="url(#pdbd05d44f0)" style="fill: #1f77b4"/>
   </g>
   <g id="patch_136">
    <path d="M 282.89403 273.312 
L 284.507853 273.312 
L 284.507853 112.740085 
L 282.89403 112.740085 
z
" clip-path="url(#pdbd05d44f0)" style="fill: #1f77b4"/>
   </g>
   <g id="patch_137">
    <path d="M 284.507853 273.312 
L 286.121677 273.312 
L 286.121677 122.925617 
L 284.507853 122.925617 
z
" clip-path="url(#pdbd05d44f0)" style="fill: #1f77b4"/>
   </g>
   <g id="patch_138">
    <path d="M 286.121677 273.312 
L 287.7355 273.312 
L 287.7355 117.533277 
L 286.121677 117.533277 
z
" clip-path="url(#pdbd05d44f0)" style="fill: #1f77b4"/>
   </g>
   <g id="patch_139">
    <path d="M 287.7355 273.312 
L 289.349323 273.312 
L 289.349323 112.740085 
L 287.7355 112.740085 
z
" clip-path="url(#pdbd05d44f0)" style="fill: #1f77b4"/>
   </g>
   <g id="patch_140">
    <path d="M 289.349323 273.312 
L 290.963147 273.312 
L 290.963147 94.765617 
L 289.349323 94.765617 
z
" clip-path="url(#pdbd05d44f0)" style="fill: #1f77b4"/>
   </g>
   <g id="patch_141">
    <path d="M 290.963147 273.312 
L 292.57697 273.312 
L 292.57697 108.546043 
L 290.963147 108.546043 
z
" clip-path="url(#pdbd05d44f0)" style="fill: #1f77b4"/>
   </g>
   <g id="patch_142">
    <path d="M 292.57697 273.312 
L 294.190793 273.312 
L 294.190793 93.567319 
L 292.57697 93.567319 
z
" clip-path="url(#pdbd05d44f0)" style="fill: #1f77b4"/>
   </g>
   <g id="patch_143">
    <path d="M 294.190793 273.312 
L 295.804617 273.312 
L 295.804617 119.330723 
L 294.190793 119.330723 
z
" clip-path="url(#pdbd05d44f0)" style="fill: #1f77b4"/>
   </g>
   <g id="patch_144">
    <path d="M 295.804617 273.312 
L 297.41844 273.312 
L 297.41844 103.153702 
L 295.804617 103.153702 
z
" clip-path="url(#pdbd05d44f0)" style="fill: #1f77b4"/>
   </g>
   <g id="patch_145">
    <path d="M 297.41844 273.312 
L 299.032263 273.312 
L 299.032263 110.343489 
L 297.41844 110.343489 
z
" clip-path="url(#pdbd05d44f0)" style="fill: #1f77b4"/>
   </g>
   <g id="patch_146">
    <path d="M 299.032263 273.312 
L 300.646087 273.312 
L 300.646087 91.769872 
L 299.032263 91.769872 
z
" clip-path="url(#pdbd05d44f0)" style="fill: #1f77b4"/>
   </g>
   <g id="patch_147">
    <path d="M 300.646087 273.312 
L 302.25991 273.312 
L 302.25991 98.360511 
L 300.646087 98.360511 
z
" clip-path="url(#pdbd05d44f0)" style="fill: #1f77b4"/>
   </g>
   <g id="patch_148">
    <path d="M 302.25991 273.312 
L 303.873733 273.312 
L 303.873733 98.360511 
L 302.25991 98.360511 
z
" clip-path="url(#pdbd05d44f0)" style="fill: #1f77b4"/>
   </g>
   <g id="patch_149">
    <path d="M 303.873733 273.312 
L 305.487557 273.312 
L 305.487557 93.567319 
L 303.873733 93.567319 
z
" clip-path="url(#pdbd05d44f0)" style="fill: #1f77b4"/>
   </g>
   <g id="patch_150">
    <path d="M 305.487557 273.312 
L 307.10138 273.312 
L 307.10138 93.567319 
L 305.487557 93.567319 
z
" clip-path="url(#pdbd05d44f0)" style="fill: #1f77b4"/>
   </g>
   <g id="patch_151">
    <path d="M 307.10138 273.312 
L 308.715204 273.312 
L 308.715204 73.795404 
L 307.10138 73.795404 
z
" clip-path="url(#pdbd05d44f0)" style="fill: #1f77b4"/>
   </g>
   <g id="patch_152">
    <path d="M 308.715204 273.312 
L 310.329027 273.312 
L 310.329027 94.765617 
L 308.715204 94.765617 
z
" clip-path="url(#pdbd05d44f0)" style="fill: #1f77b4"/>
   </g>
   <g id="patch_153">
    <path d="M 310.329027 273.312 
L 311.94285 273.312 
L 311.94285 92.96817 
L 310.329027 92.96817 
z
" clip-path="url(#pdbd05d44f0)" style="fill: #1f77b4"/>
   </g>
   <g id="patch_154">
    <path d="M 311.94285 273.312 
L 313.556674 273.312 
L 313.556674 94.765617 
L 311.94285 94.765617 
z
" clip-path="url(#pdbd05d44f0)" style="fill: #1f77b4"/>
   </g>
   <g id="patch_155">
    <path d="M 313.556674 273.312 
L 315.170497 273.312 
L 315.170497 90.571574 
L 313.556674 90.571574 
z
" clip-path="url(#pdbd05d44f0)" style="fill: #1f77b4"/>
   </g>
   <g id="patch_156">
    <path d="M 315.170497 273.312 
L 316.78432 273.312 
L 316.78432 99.558809 
L 315.170497 99.558809 
z
" clip-path="url(#pdbd05d44f0)" style="fill: #1f77b4"/>
   </g>
   <g id="patch_157">
    <path d="M 316.78432 273.312 
L 318.398144 273.312 
L 318.398144 85.179234 
L 316.78432 85.179234 
z
" clip-path="url(#pdbd05d44f0)" style="fill: #1f77b4"/>
   </g>
   <g id="patch_158">
    <path d="M 318.398144 273.312 
L 320.011967 273.312 
L 320.011967 96.563064 
L 318.398144 96.563064 
z
" clip-path="url(#pdbd05d44f0)" style="fill: #1f77b4"/>
   </g>
   <g id="patch_159">
    <path d="M 320.011967 273.312 
L 321.62579 273.312 
L 321.62579 84.580085 
L 320.011967 84.580085 
z
" clip-path="url(#pdbd05d44f0)" style="fill: #1f77b4"/>
   </g>
   <g id="patch_160">
    <path d="M 321.62579 273.312 
L 323.239614 273.312 
L 323.239614 86.976681 
L 321.62579 86.976681 
z
" clip-path="url(#pdbd05d44f0)" style="fill: #1f77b4"/>
   </g>
   <g id="patch_161">
    <path d="M 323.239614 273.312 
L 324.853437 273.312 
L 324.853437 82.782638 
L 323.239614 82.782638 
z
" clip-path="url(#pdbd05d44f0)" style="fill: #1f77b4"/>
   </g>
   <g id="patch_162">
    <path d="M 324.853437 273.312 
L 326.46726 273.312 
L 326.46726 74.394553 
L 324.853437 74.394553 
z
" clip-path="url(#pdbd05d44f0)" style="fill: #1f77b4"/>
   </g>
   <g id="patch_163">
    <path d="M 326.46726 273.312 
L 328.081084 273.312 
L 328.081084 86.976681 
L 326.46726 86.976681 
z
" clip-path="url(#pdbd05d44f0)" style="fill: #1f77b4"/>
   </g>
   <g id="patch_164">
    <path d="M 328.081084 273.312 
L 329.694907 273.312 
L 329.694907 62.411574 
L 328.081084 62.411574 
z
" clip-path="url(#pdbd05d44f0)" style="fill: #1f77b4"/>
   </g>
   <g id="patch_165">
    <path d="M 329.694907 273.312 
L 331.30873 273.312 
L 331.30873 84.580085 
L 329.694907 84.580085 
z
" clip-path="url(#pdbd05d44f0)" style="fill: #1f77b4"/>
   </g>
   <g id="patch_166">
    <path d="M 331.30873 273.312 
L 332.922554 273.312 
L 332.922554 69.601362 
L 331.30873 69.601362 
z
" clip-path="url(#pdbd05d44f0)" style="fill: #1f77b4"/>
   </g>
   <g id="patch_167">
    <path d="M 332.922554 273.312 
L 334.536377 273.312 
L 334.536377 68.403064 
L 332.922554 68.403064 
z
" clip-path="url(#pdbd05d44f0)" style="fill: #1f77b4"/>
   </g>
   <g id="patch_168">
    <path d="M 334.536377 273.312 
L 336.1502 273.312 
L 336.1502 88.774128 
L 334.536377 88.774128 
z
" clip-path="url(#pdbd05d44f0)" style="fill: #1f77b4"/>
   </g>
   <g id="patch_169">
    <path d="M 336.1502 273.312 
L 337.764024 273.312 
L 337.764024 82.183489 
L 336.1502 82.183489 
z
" clip-path="url(#pdbd05d44f0)" style="fill: #1f77b4"/>
   </g>
   <g id="patch_170">
    <path d="M 337.764024 273.312 
L 339.377847 273.312 
L 339.377847 68.403064 
L 337.764024 68.403064 
z
" clip-path="url(#pdbd05d44f0)" style="fill: #1f77b4"/>
   </g>
   <g id="patch_171">
    <path d="M 339.377847 273.312 
L 340.99167 273.312 
L 340.99167 86.377532 
L 339.377847 86.377532 
z
" clip-path="url(#pdbd05d44f0)" style="fill: #1f77b4"/>
   </g>
   <g id="patch_172">
    <path d="M 340.99167 273.312 
L 342.605494 273.312 
L 342.605494 74.394553 
L 340.99167 74.394553 
z
" clip-path="url(#pdbd05d44f0)" style="fill: #1f77b4"/>
   </g>
   <g id="patch_173">
    <path d="M 342.605494 273.312 
L 344.219317 273.312 
L 344.219317 67.803915 
L 342.605494 67.803915 
z
" clip-path="url(#pdbd05d44f0)" style="fill: #1f77b4"/>
   </g>
   <g id="patch_174">
    <path d="M 344.219317 273.312 
L 345.833141 273.312 
L 345.833141 68.403064 
L 344.219317 68.403064 
z
" clip-path="url(#pdbd05d44f0)" style="fill: #1f77b4"/>
   </g>
   <g id="patch_175">
    <path d="M 345.833141 273.312 
L 347.446964 273.312 
L 347.446964 53.42434 
L 345.833141 53.42434 
z
" clip-path="url(#pdbd05d44f0)" style="fill: #1f77b4"/>
   </g>
   <g id="patch_176">
    <path d="M 347.446964 273.312 
L 349.060787 273.312 
L 349.060787 54.023489 
L 347.446964 54.023489 
z
" clip-path="url(#pdbd05d44f0)" style="fill: #1f77b4"/>
   </g>
   <g id="patch_177">
    <path d="M 349.060787 273.312 
L 350.674611 273.312 
L 350.674611 60.014979 
L 349.060787 60.014979 
z
" clip-path="url(#pdbd05d44f0)" style="fill: #1f77b4"/>
   </g>
   <g id="patch_178">
    <path d="M 350.674611 273.312 
L 352.288434 273.312 
L 352.288434 54.023489 
L 350.674611 54.023489 
z
" clip-path="url(#pdbd05d44f0)" style="fill: #1f77b4"/>
   </g>
   <g id="patch_179">
    <path d="M 352.288434 273.312 
L 353.902257 273.312 
L 353.902257 58.816681 
L 352.288434 58.816681 
z
" clip-path="url(#pdbd05d44f0)" style="fill: #1f77b4"/>
   </g>
   <g id="patch_180">
    <path d="M 353.902257 273.312 
L 355.516081 273.312 
L 355.516081 68.403064 
L 353.902257 68.403064 
z
" clip-path="url(#pdbd05d44f0)" style="fill: #1f77b4"/>
   </g>
   <g id="patch_181">
    <path d="M 355.516081 273.312 
L 357.129904 273.312 
L 357.129904 67.204766 
L 355.516081 67.204766 
z
" clip-path="url(#pdbd05d44f0)" style="fill: #1f77b4"/>
   </g>
   <g id="patch_182">
    <path d="M 357.129904 273.312 
L 358.743727 273.312 
L 358.743727 35.449872 
L 357.129904 35.449872 
z
" clip-path="url(#pdbd05d44f0)" style="fill: #1f77b4"/>
   </g>
   <g id="patch_183">
    <path d="M 358.743727 273.312 
L 360.357551 273.312 
L 360.357551 49.230298 
L 358.743727 49.230298 
z
" clip-path="url(#pdbd05d44f0)" style="fill: #1f77b4"/>
   </g>
   <g id="patch_184">
    <path d="M 360.357551 273.312 
L 361.971374 273.312 
L 361.971374 51.626894 
L 360.357551 51.626894 
z
" clip-path="url(#pdbd05d44f0)" style="fill: #1f77b4"/>
   </g>
   <g id="patch_185">
    <path d="M 361.971374 273.312 
L 363.585197 273.312 
L 363.585197 39.044766 
L 361.971374 39.044766 
z
" clip-path="url(#pdbd05d44f0)" style="fill: #1f77b4"/>
   </g>
   <g id="patch_186">
    <path d="M 363.585197 273.312 
L 365.199021 273.312 
L 365.199021 60.614128 
L 363.585197 60.614128 
z
" clip-path="url(#pdbd05d44f0)" style="fill: #1f77b4"/>
   </g>
   <g id="patch_187">
    <path d="M 365.199021 273.312 
L 366.812844 273.312 
L 366.812844 69.002213 
L 365.199021 69.002213 
z
" clip-path="url(#pdbd05d44f0)" style="fill: #1f77b4"/>
   </g>
   <g id="patch_188">
    <path d="M 366.812844 273.312 
L 368.426667 273.312 
L 368.426667 52.825191 
L 366.812844 52.825191 
z
" clip-path="url(#pdbd05d44f0)" style="fill: #1f77b4"/>
   </g>
   <g id="patch_189">
    <path d="M 368.426667 273.312 
L 370.040491 273.312 
L 370.040491 40.243064 
L 368.426667 40.243064 
z
" clip-path="url(#pdbd05d44f0)" style="fill: #1f77b4"/>
   </g>
   <g id="patch_190">
    <path d="M 370.040491 273.312 
L 371.654314 273.312 
L 371.654314 64.209021 
L 370.040491 64.209021 
z
" clip-path="url(#pdbd05d44f0)" style="fill: #1f77b4"/>
   </g>
   <g id="patch_191">
    <path d="M 371.654314 273.312 
L 373.268137 273.312 
L 373.268137 48.631149 
L 371.654314 48.631149 
z
" clip-path="url(#pdbd05d44f0)" style="fill: #1f77b4"/>
   </g>
   <g id="patch_192">
    <path d="M 373.268137 273.312 
L 374.881961 273.312 
L 374.881961 48.631149 
L 373.268137 48.631149 
z
" clip-path="url(#pdbd05d44f0)" style="fill: #1f77b4"/>
   </g>
   <g id="patch_193">
    <path d="M 374.881961 273.312 
L 376.495784 273.312 
L 376.495784 46.833702 
L 374.881961 46.833702 
z
" clip-path="url(#pdbd05d44f0)" style="fill: #1f77b4"/>
   </g>
   <g id="patch_194">
    <path d="M 376.495784 273.312 
L 378.109607 273.312 
L 378.109607 40.842213 
L 376.495784 40.842213 
z
" clip-path="url(#pdbd05d44f0)" style="fill: #1f77b4"/>
   </g>
   <g id="patch_195">
    <path d="M 378.109607 273.312 
L 379.723431 273.312 
L 379.723431 19.872 
L 378.109607 19.872 
z
" clip-path="url(#pdbd05d44f0)" style="fill: #1f77b4"/>
   </g>
   <g id="patch_196">
    <path d="M 379.723431 273.312 
L 381.337254 273.312 
L 381.337254 42.040511 
L 379.723431 42.040511 
z
" clip-path="url(#pdbd05d44f0)" style="fill: #1f77b4"/>
   </g>
   <g id="patch_197">
    <path d="M 381.337254 273.312 
L 382.951078 273.312 
L 382.951078 52.226043 
L 381.337254 52.226043 
z
" clip-path="url(#pdbd05d44f0)" style="fill: #1f77b4"/>
   </g>
   <g id="patch_198">
    <path d="M 382.951078 273.312 
L 384.564901 273.312 
L 384.564901 27.061787 
L 382.951078 27.061787 
z
" clip-path="url(#pdbd05d44f0)" style="fill: #1f77b4"/>
   </g>
   <g id="patch_199">
    <path d="M 384.564901 273.312 
L 386.178724 273.312 
L 386.178724 55.221787 
L 384.564901 55.221787 
z
" clip-path="url(#pdbd05d44f0)" style="fill: #1f77b4"/>
   </g>
   <g id="patch_200">
    <path d="M 386.178724 273.312 
L 387.792548 273.312 
L 387.792548 26.462638 
L 386.178724 26.462638 
z
" clip-path="url(#pdbd05d44f0)" style="fill: #1f77b4"/>
   </g>
   <g id="patch_201">
    <path d="M 387.792548 273.312 
L 389.406371 273.312 
L 389.406371 36.64817 
L 387.792548 36.64817 
z
" clip-path="url(#pdbd05d44f0)" style="fill: #1f77b4"/>
   </g>
   <g id="patch_202">
    <path d="M 389.406371 273.312 
L 391.020194 273.312 
L 391.020194 27.061787 
L 389.406371 27.061787 
z
" clip-path="url(#pdbd05d44f0)" style="fill: #1f77b4"/>
   </g>
   <g id="matplotlib.axis_1">
    <g id="xtick_1">
     <g id="line2d_1">
      <defs>
       <path id="m831987514a" d="M 0 0 
L 0 3.5 
" style="stroke: #000000; stroke-width: 0.8"/>
      </defs>
      <g>
       <use xlink:href="#m831987514a" x="66.376477" y="273.312" style="stroke: #000000; stroke-width: 0.8"/>
      </g>
     </g>
     <g id="text_1">
      <!-- 0.0 -->
      <g transform="translate(58.424915 287.910437)scale(0.1 -0.1)">
       <defs>
        <path id="DejaVuSans-30" d="M 2034 4250 
Q 1547 4250 1301 3770 
Q 1056 3291 1056 2328 
Q 1056 1369 1301 889 
Q 1547 409 2034 409 
Q 2525 409 2770 889 
Q 3016 1369 3016 2328 
Q 3016 3291 2770 3770 
Q 2525 4250 2034 4250 
z
M 2034 4750 
Q 2819 4750 3233 4129 
Q 3647 3509 3647 2328 
Q 3647 1150 3233 529 
Q 2819 -91 2034 -91 
Q 1250 -91 836 529 
Q 422 1150 422 2328 
Q 422 3509 836 4129 
Q 1250 4750 2034 4750 
z
" transform="scale(0.015625)"/>
        <path id="DejaVuSans-2e" d="M 684 794 
L 1344 794 
L 1344 0 
L 684 0 
L 684 794 
z
" transform="scale(0.015625)"/>
       </defs>
       <use xlink:href="#DejaVuSans-30"/>
       <use xlink:href="#DejaVuSans-2e" x="63.623047"/>
       <use xlink:href="#DejaVuSans-30" x="95.410156"/>
      </g>
     </g>
    </g>
    <g id="xtick_2">
     <g id="line2d_2">
      <g>
       <use xlink:href="#m831987514a" x="131.307386" y="273.312" style="stroke: #000000; stroke-width: 0.8"/>
      </g>
     </g>
     <g id="text_2">
      <!-- 0.2 -->
      <g transform="translate(123.355824 287.910437)scale(0.1 -0.1)">
       <defs>
        <path id="DejaVuSans-32" d="M 1228 531 
L 3431 531 
L 3431 0 
L 469 0 
L 469 531 
Q 828 903 1448 1529 
Q 2069 2156 2228 2338 
Q 2531 2678 2651 2914 
Q 2772 3150 2772 3378 
Q 2772 3750 2511 3984 
Q 2250 4219 1831 4219 
Q 1534 4219 1204 4116 
Q 875 4013 500 3803 
L 500 4441 
Q 881 4594 1212 4672 
Q 1544 4750 1819 4750 
Q 2544 4750 2975 4387 
Q 3406 4025 3406 3419 
Q 3406 3131 3298 2873 
Q 3191 2616 2906 2266 
Q 2828 2175 2409 1742 
Q 1991 1309 1228 531 
z
" transform="scale(0.015625)"/>
       </defs>
       <use xlink:href="#DejaVuSans-30"/>
       <use xlink:href="#DejaVuSans-2e" x="63.623047"/>
       <use xlink:href="#DejaVuSans-32" x="95.410156"/>
      </g>
     </g>
    </g>
    <g id="xtick_3">
     <g id="line2d_3">
      <g>
       <use xlink:href="#m831987514a" x="196.238295" y="273.312" style="stroke: #000000; stroke-width: 0.8"/>
      </g>
     </g>
     <g id="text_3">
      <!-- 0.4 -->
      <g transform="translate(188.286733 287.910437)scale(0.1 -0.1)">
       <defs>
        <path id="DejaVuSans-34" d="M 2419 4116 
L 825 1625 
L 2419 1625 
L 2419 4116 
z
M 2253 4666 
L 3047 4666 
L 3047 1625 
L 3713 1625 
L 3713 1100 
L 3047 1100 
L 3047 0 
L 2419 0 
L 2419 1100 
L 313 1100 
L 313 1709 
L 2253 4666 
z
" transform="scale(0.015625)"/>
       </defs>
       <use xlink:href="#DejaVuSans-30"/>
       <use xlink:href="#DejaVuSans-2e" x="63.623047"/>
       <use xlink:href="#DejaVuSans-34" x="95.410156"/>
      </g>
     </g>
    </g>
    <g id="xtick_4">
     <g id="line2d_4">
      <g>
       <use xlink:href="#m831987514a" x="261.169205" y="273.312" style="stroke: #000000; stroke-width: 0.8"/>
      </g>
     </g>
     <g id="text_4">
      <!-- 0.6 -->
      <g transform="translate(253.217642 287.910437)scale(0.1 -0.1)">
       <defs>
        <path id="DejaVuSans-36" d="M 2113 2584 
Q 1688 2584 1439 2293 
Q 1191 2003 1191 1497 
Q 1191 994 1439 701 
Q 1688 409 2113 409 
Q 2538 409 2786 701 
Q 3034 994 3034 1497 
Q 3034 2003 2786 2293 
Q 2538 2584 2113 2584 
z
M 3366 4563 
L 3366 3988 
Q 3128 4100 2886 4159 
Q 2644 4219 2406 4219 
Q 1781 4219 1451 3797 
Q 1122 3375 1075 2522 
Q 1259 2794 1537 2939 
Q 1816 3084 2150 3084 
Q 2853 3084 3261 2657 
Q 3669 2231 3669 1497 
Q 3669 778 3244 343 
Q 2819 -91 2113 -91 
Q 1303 -91 875 529 
Q 447 1150 447 2328 
Q 447 3434 972 4092 
Q 1497 4750 2381 4750 
Q 2619 4750 2861 4703 
Q 3103 4656 3366 4563 
z
" transform="scale(0.015625)"/>
       </defs>
       <use xlink:href="#DejaVuSans-30"/>
       <use xlink:href="#DejaVuSans-2e" x="63.623047"/>
       <use xlink:href="#DejaVuSans-36" x="95.410156"/>
      </g>
     </g>
    </g>
    <g id="xtick_5">
     <g id="line2d_5">
      <g>
       <use xlink:href="#m831987514a" x="326.100114" y="273.312" style="stroke: #000000; stroke-width: 0.8"/>
      </g>
     </g>
     <g id="text_5">
      <!-- 0.8 -->
      <g transform="translate(318.148551 287.910437)scale(0.1 -0.1)">
       <defs>
        <path id="DejaVuSans-38" d="M 2034 2216 
Q 1584 2216 1326 1975 
Q 1069 1734 1069 1313 
Q 1069 891 1326 650 
Q 1584 409 2034 409 
Q 2484 409 2743 651 
Q 3003 894 3003 1313 
Q 3003 1734 2745 1975 
Q 2488 2216 2034 2216 
z
M 1403 2484 
Q 997 2584 770 2862 
Q 544 3141 544 3541 
Q 544 4100 942 4425 
Q 1341 4750 2034 4750 
Q 2731 4750 3128 4425 
Q 3525 4100 3525 3541 
Q 3525 3141 3298 2862 
Q 3072 2584 2669 2484 
Q 3125 2378 3379 2068 
Q 3634 1759 3634 1313 
Q 3634 634 3220 271 
Q 2806 -91 2034 -91 
Q 1263 -91 848 271 
Q 434 634 434 1313 
Q 434 1759 690 2068 
Q 947 2378 1403 2484 
z
M 1172 3481 
Q 1172 3119 1398 2916 
Q 1625 2713 2034 2713 
Q 2441 2713 2670 2916 
Q 2900 3119 2900 3481 
Q 2900 3844 2670 4047 
Q 2441 4250 2034 4250 
Q 1625 4250 1398 4047 
Q 1172 3844 1172 3481 
z
" transform="scale(0.015625)"/>
       </defs>
       <use xlink:href="#DejaVuSans-30"/>
       <use xlink:href="#DejaVuSans-2e" x="63.623047"/>
       <use xlink:href="#DejaVuSans-38" x="95.410156"/>
      </g>
     </g>
    </g>
    <g id="xtick_6">
     <g id="line2d_6">
      <g>
       <use xlink:href="#m831987514a" x="391.031023" y="273.312" style="stroke: #000000; stroke-width: 0.8"/>
      </g>
     </g>
     <g id="text_6">
      <!-- 1.0 -->
      <g transform="translate(383.07946 287.910437)scale(0.1 -0.1)">
       <defs>
        <path id="DejaVuSans-31" d="M 794 531 
L 1825 531 
L 1825 4091 
L 703 3866 
L 703 4441 
L 1819 4666 
L 2450 4666 
L 2450 531 
L 3481 531 
L 3481 0 
L 794 0 
L 794 531 
z
" transform="scale(0.015625)"/>
       </defs>
       <use xlink:href="#DejaVuSans-31"/>
       <use xlink:href="#DejaVuSans-2e" x="63.623047"/>
       <use xlink:href="#DejaVuSans-30" x="95.410156"/>
      </g>
     </g>
    </g>
    <g id="text_7">
     <!-- Propagation direction -->
     <g transform="translate(175.221719 301.588562)scale(0.1 -0.1)">
      <defs>
       <path id="DejaVuSans-50" d="M 1259 4147 
L 1259 2394 
L 2053 2394 
Q 2494 2394 2734 2622 
Q 2975 2850 2975 3272 
Q 2975 3691 2734 3919 
Q 2494 4147 2053 4147 
L 1259 4147 
z
M 628 4666 
L 2053 4666 
Q 2838 4666 3239 4311 
Q 3641 3956 3641 3272 
Q 3641 2581 3239 2228 
Q 2838 1875 2053 1875 
L 1259 1875 
L 1259 0 
L 628 0 
L 628 4666 
z
" transform="scale(0.015625)"/>
       <path id="DejaVuSans-72" d="M 2631 2963 
Q 2534 3019 2420 3045 
Q 2306 3072 2169 3072 
Q 1681 3072 1420 2755 
Q 1159 2438 1159 1844 
L 1159 0 
L 581 0 
L 581 3500 
L 1159 3500 
L 1159 2956 
Q 1341 3275 1631 3429 
Q 1922 3584 2338 3584 
Q 2397 3584 2469 3576 
Q 2541 3569 2628 3553 
L 2631 2963 
z
" transform="scale(0.015625)"/>
       <path id="DejaVuSans-6f" d="M 1959 3097 
Q 1497 3097 1228 2736 
Q 959 2375 959 1747 
Q 959 1119 1226 758 
Q 1494 397 1959 397 
Q 2419 397 2687 759 
Q 2956 1122 2956 1747 
Q 2956 2369 2687 2733 
Q 2419 3097 1959 3097 
z
M 1959 3584 
Q 2709 3584 3137 3096 
Q 3566 2609 3566 1747 
Q 3566 888 3137 398 
Q 2709 -91 1959 -91 
Q 1206 -91 779 398 
Q 353 888 353 1747 
Q 353 2609 779 3096 
Q 1206 3584 1959 3584 
z
" transform="scale(0.015625)"/>
       <path id="DejaVuSans-70" d="M 1159 525 
L 1159 -1331 
L 581 -1331 
L 581 3500 
L 1159 3500 
L 1159 2969 
Q 1341 3281 1617 3432 
Q 1894 3584 2278 3584 
Q 2916 3584 3314 3078 
Q 3713 2572 3713 1747 
Q 3713 922 3314 415 
Q 2916 -91 2278 -91 
Q 1894 -91 1617 61 
Q 1341 213 1159 525 
z
M 3116 1747 
Q 3116 2381 2855 2742 
Q 2594 3103 2138 3103 
Q 1681 3103 1420 2742 
Q 1159 2381 1159 1747 
Q 1159 1113 1420 752 
Q 1681 391 2138 391 
Q 2594 391 2855 752 
Q 3116 1113 3116 1747 
z
" transform="scale(0.015625)"/>
       <path id="DejaVuSans-61" d="M 2194 1759 
Q 1497 1759 1228 1600 
Q 959 1441 959 1056 
Q 959 750 1161 570 
Q 1363 391 1709 391 
Q 2188 391 2477 730 
Q 2766 1069 2766 1631 
L 2766 1759 
L 2194 1759 
z
M 3341 1997 
L 3341 0 
L 2766 0 
L 2766 531 
Q 2569 213 2275 61 
Q 1981 -91 1556 -91 
Q 1019 -91 701 211 
Q 384 513 384 1019 
Q 384 1609 779 1909 
Q 1175 2209 1959 2209 
L 2766 2209 
L 2766 2266 
Q 2766 2663 2505 2880 
Q 2244 3097 1772 3097 
Q 1472 3097 1187 3025 
Q 903 2953 641 2809 
L 641 3341 
Q 956 3463 1253 3523 
Q 1550 3584 1831 3584 
Q 2591 3584 2966 3190 
Q 3341 2797 3341 1997 
z
" transform="scale(0.015625)"/>
       <path id="DejaVuSans-67" d="M 2906 1791 
Q 2906 2416 2648 2759 
Q 2391 3103 1925 3103 
Q 1463 3103 1205 2759 
Q 947 2416 947 1791 
Q 947 1169 1205 825 
Q 1463 481 1925 481 
Q 2391 481 2648 825 
Q 2906 1169 2906 1791 
z
M 3481 434 
Q 3481 -459 3084 -895 
Q 2688 -1331 1869 -1331 
Q 1566 -1331 1297 -1286 
Q 1028 -1241 775 -1147 
L 775 -588 
Q 1028 -725 1275 -790 
Q 1522 -856 1778 -856 
Q 2344 -856 2625 -561 
Q 2906 -266 2906 331 
L 2906 616 
Q 2728 306 2450 153 
Q 2172 0 1784 0 
Q 1141 0 747 490 
Q 353 981 353 1791 
Q 353 2603 747 3093 
Q 1141 3584 1784 3584 
Q 2172 3584 2450 3431 
Q 2728 3278 2906 2969 
L 2906 3500 
L 3481 3500 
L 3481 434 
z
" transform="scale(0.015625)"/>
       <path id="DejaVuSans-74" d="M 1172 4494 
L 1172 3500 
L 2356 3500 
L 2356 3053 
L 1172 3053 
L 1172 1153 
Q 1172 725 1289 603 
Q 1406 481 1766 481 
L 2356 481 
L 2356 0 
L 1766 0 
Q 1100 0 847 248 
Q 594 497 594 1153 
L 594 3053 
L 172 3053 
L 172 3500 
L 594 3500 
L 594 4494 
L 1172 4494 
z
" transform="scale(0.015625)"/>
       <path id="DejaVuSans-69" d="M 603 3500 
L 1178 3500 
L 1178 0 
L 603 0 
L 603 3500 
z
M 603 4863 
L 1178 4863 
L 1178 4134 
L 603 4134 
L 603 4863 
z
" transform="scale(0.015625)"/>
       <path id="DejaVuSans-6e" d="M 3513 2113 
L 3513 0 
L 2938 0 
L 2938 2094 
Q 2938 2591 2744 2837 
Q 2550 3084 2163 3084 
Q 1697 3084 1428 2787 
Q 1159 2491 1159 1978 
L 1159 0 
L 581 0 
L 581 3500 
L 1159 3500 
L 1159 2956 
Q 1366 3272 1645 3428 
Q 1925 3584 2291 3584 
Q 2894 3584 3203 3211 
Q 3513 2838 3513 2113 
z
" transform="scale(0.015625)"/>
       <path id="DejaVuSans-20" transform="scale(0.015625)"/>
       <path id="DejaVuSans-64" d="M 2906 2969 
L 2906 4863 
L 3481 4863 
L 3481 0 
L 2906 0 
L 2906 525 
Q 2725 213 2448 61 
Q 2172 -91 1784 -91 
Q 1150 -91 751 415 
Q 353 922 353 1747 
Q 353 2572 751 3078 
Q 1150 3584 1784 3584 
Q 2172 3584 2448 3432 
Q 2725 3281 2906 2969 
z
M 947 1747 
Q 947 1113 1208 752 
Q 1469 391 1925 391 
Q 2381 391 2643 752 
Q 2906 1113 2906 1747 
Q 2906 2381 2643 2742 
Q 2381 3103 1925 3103 
Q 1469 3103 1208 2742 
Q 947 2381 947 1747 
z
" transform="scale(0.015625)"/>
       <path id="DejaVuSans-65" d="M 3597 1894 
L 3597 1613 
L 953 1613 
Q 991 1019 1311 708 
Q 1631 397 2203 397 
Q 2534 397 2845 478 
Q 3156 559 3463 722 
L 3463 178 
Q 3153 47 2828 -22 
Q 2503 -91 2169 -91 
Q 1331 -91 842 396 
Q 353 884 353 1716 
Q 353 2575 817 3079 
Q 1281 3584 2069 3584 
Q 2775 3584 3186 3129 
Q 3597 2675 3597 1894 
z
M 3022 2063 
Q 3016 2534 2758 2815 
Q 2500 3097 2075 3097 
Q 1594 3097 1305 2825 
Q 1016 2553 972 2059 
L 3022 2063 
z
" transform="scale(0.015625)"/>
       <path id="DejaVuSans-63" d="M 3122 3366 
L 3122 2828 
Q 2878 2963 2633 3030 
Q 2388 3097 2138 3097 
Q 1578 3097 1268 2742 
Q 959 2388 959 1747 
Q 959 1106 1268 751 
Q 1578 397 2138 397 
Q 2388 397 2633 464 
Q 2878 531 3122 666 
L 3122 134 
Q 2881 22 2623 -34 
Q 2366 -91 2075 -91 
Q 1284 -91 818 406 
Q 353 903 353 1747 
Q 353 2603 823 3093 
Q 1294 3584 2113 3584 
Q 2378 3584 2631 3529 
Q 2884 3475 3122 3366 
z
" transform="scale(0.015625)"/>
      </defs>
      <use xlink:href="#DejaVuSans-50"/>
      <use xlink:href="#DejaVuSans-72" x="58.552734"/>
      <use xlink:href="#DejaVuSans-6f" x="97.416016"/>
      <use xlink:href="#DejaVuSans-70" x="158.597656"/>
      <use xlink:href="#DejaVuSans-61" x="222.074219"/>
      <use xlink:href="#DejaVuSans-67" x="283.353516"/>
      <use xlink:href="#DejaVuSans-61" x="346.830078"/>
      <use xlink:href="#DejaVuSans-74" x="408.109375"/>
      <use xlink:href="#DejaVuSans-69" x="447.318359"/>
      <use xlink:href="#DejaVuSans-6f" x="475.101562"/>
      <use xlink:href="#DejaVuSans-6e" x="536.283203"/>
      <use xlink:href="#DejaVuSans-20" x="599.662109"/>
      <use xlink:href="#DejaVuSans-64" x="631.449219"/>
      <use xlink:href="#DejaVuSans-69" x="694.925781"/>
      <use xlink:href="#DejaVuSans-72" x="722.708984"/>
      <use xlink:href="#DejaVuSans-65" x="761.572266"/>
      <use xlink:href="#DejaVuSans-63" x="823.095703"/>
      <use xlink:href="#DejaVuSans-74" x="878.076172"/>
      <use xlink:href="#DejaVuSans-69" x="917.285156"/>
      <use xlink:href="#DejaVuSans-6f" x="945.068359"/>
      <use xlink:href="#DejaVuSans-6e" x="1006.25"/>
     </g>
    </g>
   </g>
   <g id="matplotlib.axis_2">
    <g id="ytick_1">
     <g id="line2d_7">
      <defs>
       <path id="m964d8dcc64" d="M 0 0 
L -3.5 0 
" style="stroke: #000000; stroke-width: 0.8"/>
      </defs>
      <g>
       <use xlink:href="#m964d8dcc64" x="50.14375" y="273.312" style="stroke: #000000; stroke-width: 0.8"/>
      </g>
     </g>
     <g id="text_8">
      <!-- 0.00 -->
      <g transform="translate(20.878125 277.111219)scale(0.1 -0.1)">
       <use xlink:href="#DejaVuSans-30"/>
       <use xlink:href="#DejaVuSans-2e" x="63.623047"/>
       <use xlink:href="#DejaVuSans-30" x="95.410156"/>
       <use xlink:href="#DejaVuSans-30" x="159.033203"/>
      </g>
     </g>
    </g>
    <g id="ytick_2">
     <g id="line2d_8">
      <g>
       <use xlink:href="#m964d8dcc64" x="50.14375" y="243.528941" style="stroke: #000000; stroke-width: 0.8"/>
      </g>
     </g>
     <g id="text_9">
      <!-- 0.25 -->
      <g transform="translate(20.878125 247.32816)scale(0.1 -0.1)">
       <defs>
        <path id="DejaVuSans-35" d="M 691 4666 
L 3169 4666 
L 3169 4134 
L 1269 4134 
L 1269 2991 
Q 1406 3038 1543 3061 
Q 1681 3084 1819 3084 
Q 2600 3084 3056 2656 
Q 3513 2228 3513 1497 
Q 3513 744 3044 326 
Q 2575 -91 1722 -91 
Q 1428 -91 1123 -41 
Q 819 9 494 109 
L 494 744 
Q 775 591 1075 516 
Q 1375 441 1709 441 
Q 2250 441 2565 725 
Q 2881 1009 2881 1497 
Q 2881 1984 2565 2268 
Q 2250 2553 1709 2553 
Q 1456 2553 1204 2497 
Q 953 2441 691 2322 
L 691 4666 
z
" transform="scale(0.015625)"/>
       </defs>
       <use xlink:href="#DejaVuSans-30"/>
       <use xlink:href="#DejaVuSans-2e" x="63.623047"/>
       <use xlink:href="#DejaVuSans-32" x="95.410156"/>
       <use xlink:href="#DejaVuSans-35" x="159.033203"/>
      </g>
     </g>
    </g>
    <g id="ytick_3">
     <g id="line2d_9">
      <g>
       <use xlink:href="#m964d8dcc64" x="50.14375" y="213.745882" style="stroke: #000000; stroke-width: 0.8"/>
      </g>
     </g>
     <g id="text_10">
      <!-- 0.50 -->
      <g transform="translate(20.878125 217.545101)scale(0.1 -0.1)">
       <use xlink:href="#DejaVuSans-30"/>
       <use xlink:href="#DejaVuSans-2e" x="63.623047"/>
       <use xlink:href="#DejaVuSans-35" x="95.410156"/>
       <use xlink:href="#DejaVuSans-30" x="159.033203"/>
      </g>
     </g>
    </g>
    <g id="ytick_4">
     <g id="line2d_10">
      <g>
       <use xlink:href="#m964d8dcc64" x="50.14375" y="183.962824" style="stroke: #000000; stroke-width: 0.8"/>
      </g>
     </g>
     <g id="text_11">
      <!-- 0.75 -->
      <g transform="translate(20.878125 187.762042)scale(0.1 -0.1)">
       <defs>
        <path id="DejaVuSans-37" d="M 525 4666 
L 3525 4666 
L 3525 4397 
L 1831 0 
L 1172 0 
L 2766 4134 
L 525 4134 
L 525 4666 
z
" transform="scale(0.015625)"/>
       </defs>
       <use xlink:href="#DejaVuSans-30"/>
       <use xlink:href="#DejaVuSans-2e" x="63.623047"/>
       <use xlink:href="#DejaVuSans-37" x="95.410156"/>
       <use xlink:href="#DejaVuSans-35" x="159.033203"/>
      </g>
     </g>
    </g>
    <g id="ytick_5">
     <g id="line2d_11">
      <g>
       <use xlink:href="#m964d8dcc64" x="50.14375" y="154.179765" style="stroke: #000000; stroke-width: 0.8"/>
      </g>
     </g>
     <g id="text_12">
      <!-- 1.00 -->
      <g transform="translate(20.878125 157.978984)scale(0.1 -0.1)">
       <use xlink:href="#DejaVuSans-31"/>
       <use xlink:href="#DejaVuSans-2e" x="63.623047"/>
       <use xlink:href="#DejaVuSans-30" x="95.410156"/>
       <use xlink:href="#DejaVuSans-30" x="159.033203"/>
      </g>
     </g>
    </g>
    <g id="ytick_6">
     <g id="line2d_12">
      <g>
       <use xlink:href="#m964d8dcc64" x="50.14375" y="124.396706" style="stroke: #000000; stroke-width: 0.8"/>
      </g>
     </g>
     <g id="text_13">
      <!-- 1.25 -->
      <g transform="translate(20.878125 128.195925)scale(0.1 -0.1)">
       <use xlink:href="#DejaVuSans-31"/>
       <use xlink:href="#DejaVuSans-2e" x="63.623047"/>
       <use xlink:href="#DejaVuSans-32" x="95.410156"/>
       <use xlink:href="#DejaVuSans-35" x="159.033203"/>
      </g>
     </g>
    </g>
    <g id="ytick_7">
     <g id="line2d_13">
      <g>
       <use xlink:href="#m964d8dcc64" x="50.14375" y="94.613647" style="stroke: #000000; stroke-width: 0.8"/>
      </g>
     </g>
     <g id="text_14">
      <!-- 1.50 -->
      <g transform="translate(20.878125 98.412866)scale(0.1 -0.1)">
       <use xlink:href="#DejaVuSans-31"/>
       <use xlink:href="#DejaVuSans-2e" x="63.623047"/>
       <use xlink:href="#DejaVuSans-35" x="95.410156"/>
       <use xlink:href="#DejaVuSans-30" x="159.033203"/>
      </g>
     </g>
    </g>
    <g id="ytick_8">
     <g id="line2d_14">
      <g>
       <use xlink:href="#m964d8dcc64" x="50.14375" y="64.830588" style="stroke: #000000; stroke-width: 0.8"/>
      </g>
     </g>
     <g id="text_15">
      <!-- 1.75 -->
      <g transform="translate(20.878125 68.629807)scale(0.1 -0.1)">
       <use xlink:href="#DejaVuSans-31"/>
       <use xlink:href="#DejaVuSans-2e" x="63.623047"/>
       <use xlink:href="#DejaVuSans-37" x="95.410156"/>
       <use xlink:href="#DejaVuSans-35" x="159.033203"/>
      </g>
     </g>
    </g>
    <g id="ytick_9">
     <g id="line2d_15">
      <g>
       <use xlink:href="#m964d8dcc64" x="50.14375" y="35.04753" style="stroke: #000000; stroke-width: 0.8"/>
      </g>
     </g>
     <g id="text_16">
      <!-- 2.00 -->
      <g transform="translate(20.878125 38.846748)scale(0.1 -0.1)">
       <use xlink:href="#DejaVuSans-32"/>
       <use xlink:href="#DejaVuSans-2e" x="63.623047"/>
       <use xlink:href="#DejaVuSans-30" x="95.410156"/>
       <use xlink:href="#DejaVuSans-30" x="159.033203"/>
      </g>
     </g>
    </g>
    <g id="text_17">
     <!-- Probability density -->
     <g transform="translate(14.798438 186.606781)rotate(-90)scale(0.1 -0.1)">
      <defs>
       <path id="DejaVuSans-62" d="M 3116 1747 
Q 3116 2381 2855 2742 
Q 2594 3103 2138 3103 
Q 1681 3103 1420 2742 
Q 1159 2381 1159 1747 
Q 1159 1113 1420 752 
Q 1681 391 2138 391 
Q 2594 391 2855 752 
Q 3116 1113 3116 1747 
z
M 1159 2969 
Q 1341 3281 1617 3432 
Q 1894 3584 2278 3584 
Q 2916 3584 3314 3078 
Q 3713 2572 3713 1747 
Q 3713 922 3314 415 
Q 2916 -91 2278 -91 
Q 1894 -91 1617 61 
Q 1341 213 1159 525 
L 1159 0 
L 581 0 
L 581 4863 
L 1159 4863 
L 1159 2969 
z
" transform="scale(0.015625)"/>
       <path id="DejaVuSans-6c" d="M 603 4863 
L 1178 4863 
L 1178 0 
L 603 0 
L 603 4863 
z
" transform="scale(0.015625)"/>
       <path id="DejaVuSans-79" d="M 2059 -325 
Q 1816 -950 1584 -1140 
Q 1353 -1331 966 -1331 
L 506 -1331 
L 506 -850 
L 844 -850 
Q 1081 -850 1212 -737 
Q 1344 -625 1503 -206 
L 1606 56 
L 191 3500 
L 800 3500 
L 1894 763 
L 2988 3500 
L 3597 3500 
L 2059 -325 
z
" transform="scale(0.015625)"/>
       <path id="DejaVuSans-73" d="M 2834 3397 
L 2834 2853 
Q 2591 2978 2328 3040 
Q 2066 3103 1784 3103 
Q 1356 3103 1142 2972 
Q 928 2841 928 2578 
Q 928 2378 1081 2264 
Q 1234 2150 1697 2047 
L 1894 2003 
Q 2506 1872 2764 1633 
Q 3022 1394 3022 966 
Q 3022 478 2636 193 
Q 2250 -91 1575 -91 
Q 1294 -91 989 -36 
Q 684 19 347 128 
L 347 722 
Q 666 556 975 473 
Q 1284 391 1588 391 
Q 1994 391 2212 530 
Q 2431 669 2431 922 
Q 2431 1156 2273 1281 
Q 2116 1406 1581 1522 
L 1381 1569 
Q 847 1681 609 1914 
Q 372 2147 372 2553 
Q 372 3047 722 3315 
Q 1072 3584 1716 3584 
Q 2034 3584 2315 3537 
Q 2597 3491 2834 3397 
z
" transform="scale(0.015625)"/>
      </defs>
      <use xlink:href="#DejaVuSans-50"/>
      <use xlink:href="#DejaVuSans-72" x="58.552734"/>
      <use xlink:href="#DejaVuSans-6f" x="97.416016"/>
      <use xlink:href="#DejaVuSans-62" x="158.597656"/>
      <use xlink:href="#DejaVuSans-61" x="222.074219"/>
      <use xlink:href="#DejaVuSans-62" x="283.353516"/>
      <use xlink:href="#DejaVuSans-69" x="346.830078"/>
      <use xlink:href="#DejaVuSans-6c" x="374.613281"/>
      <use xlink:href="#DejaVuSans-69" x="402.396484"/>
      <use xlink:href="#DejaVuSans-74" x="430.179688"/>
      <use xlink:href="#DejaVuSans-79" x="469.388672"/>
      <use xlink:href="#DejaVuSans-20" x="528.568359"/>
      <use xlink:href="#DejaVuSans-64" x="560.355469"/>
      <use xlink:href="#DejaVuSans-65" x="623.832031"/>
      <use xlink:href="#DejaVuSans-6e" x="685.355469"/>
      <use xlink:href="#DejaVuSans-73" x="748.734375"/>
      <use xlink:href="#DejaVuSans-69" x="800.833984"/>
      <use xlink:href="#DejaVuSans-74" x="828.617188"/>
      <use xlink:href="#DejaVuSans-79" x="867.826172"/>
     </g>
    </g>
   </g>
   <g id="line2d_16">
    <path d="M 66.376477 273.312 
L 391.031023 35.04753 
L 391.031023 35.04753 
" clip-path="url(#pdbd05d44f0)" style="fill: none; stroke: #ff7f0e; stroke-width: 1.5; stroke-linecap: square"/>
   </g>
   <g id="patch_203">
    <path d="M 50.14375 273.312 
L 50.14375 7.2 
" style="fill: none; stroke: #000000; stroke-width: 0.8; stroke-linejoin: miter; stroke-linecap: square"/>
   </g>
   <g id="patch_204">
    <path d="M 407.26375 273.312 
L 407.26375 7.2 
" style="fill: none; stroke: #000000; stroke-width: 0.8; stroke-linejoin: miter; stroke-linecap: square"/>
   </g>
   <g id="patch_205">
    <path d="M 50.14375 273.312 
L 407.26375 273.312 
" style="fill: none; stroke: #000000; stroke-width: 0.8; stroke-linejoin: miter; stroke-linecap: square"/>
   </g>
   <g id="patch_206">
    <path d="M 50.14375 7.2 
L 407.26375 7.2 
" style="fill: none; stroke: #000000; stroke-width: 0.8; stroke-linejoin: miter; stroke-linecap: square"/>
   </g>
  </g>
 </g>
 <defs>
  <clipPath id="pdbd05d44f0">
   <rect x="50.14375" y="7.2" width="357.12" height="266.112"/>
  </clipPath>
 </defs>
</svg>
