<?xml version="1.0" encoding="utf-8" standalone="no"?>
<!DOCTYPE svg PUBLIC "-//W3C//DTD SVG 1.1//EN"
  "http://www.w3.org/Graphics/SVG/1.1/DTD/svg11.dtd">
<svg xmlns:xlink="http://www.w3.org/1999/xlink" width="408.10125pt" height="310.86825pt" viewBox="0 0 408.10125 310.86825" xmlns="http://www.w3.org/2000/svg" version="1.1">
 <metadata>
  <rdf:RDF xmlns:dc="http://purl.org/dc/elements/1.1/" xmlns:cc="http://creativecommons.org/ns#" xmlns:rdf="http://www.w3.org/1999/02/22-rdf-syntax-ns#">
   <cc:Work>
    <dc:type rdf:resource="http://purl.org/dc/dcmitype/StillImage"/>
    <dc:date>2022-04-24T19:30:44.612048</dc:date>
    <dc:format>image/svg+xml</dc:format>
    <dc:creator>
     <cc:Agent>
      <dc:title>Matplotlib v3.5.1, https://matplotlib.org/</dc:title>
     </cc:Agent>
    </dc:creator>
   </cc:Work>
  </rdf:RDF>
 </metadata>
 <defs>
  <style type="text/css">*{stroke-linejoin: round; stroke-linecap: butt}</style>
 </defs>
 <g id="figure_1">
  <g id="patch_1">
   <path d="M 0 310.86825 
L 408.10125 310.86825 
L 408.10125 0 
L 0 0 
z
" style="fill: #ffffff"/>
  </g>
  <g id="axes_1">
   <g id="patch_2">
    <path d="M 43.78125 273.312 
L 400.90125 273.312 
L 400.90125 7.2 
L 43.78125 7.2 
z
" style="fill: #ffffff"/>
   </g>
   <g id="patch_3">
    <path d="M 61.702048 273.312 
L 63.310899 273.312 
L 63.310899 265.835894 
L 61.702048 265.835894 
z
" clip-path="url(#pa005a343c4)" style="fill: #1f77b4"/>
   </g>
   <g id="patch_4">
    <path d="M 63.310899 273.312 
L 64.919751 273.312 
L 64.919751 265.088283 
L 63.310899 265.088283 
z
" clip-path="url(#pa005a343c4)" style="fill: #1f77b4"/>
   </g>
   <g id="patch_5">
    <path d="M 64.919751 273.312 
L 66.528602 273.312 
L 66.528602 259.107398 
L 64.919751 259.107398 
z
" clip-path="url(#pa005a343c4)" style="fill: #1f77b4"/>
   </g>
   <g id="patch_6">
    <path d="M 66.528602 273.312 
L 68.137453 273.312 
L 68.137453 256.116956 
L 66.528602 256.116956 
z
" clip-path="url(#pa005a343c4)" style="fill: #1f77b4"/>
   </g>
   <g id="patch_7">
    <path d="M 68.137453 273.312 
L 69.746304 273.312 
L 69.746304 249.38846 
L 68.137453 249.38846 
z
" clip-path="url(#pa005a343c4)" style="fill: #1f77b4"/>
   </g>
   <g id="patch_8">
    <path d="M 69.746304 273.312 
L 71.355155 273.312 
L 71.355155 250.883681 
L 69.746304 250.883681 
z
" clip-path="url(#pa005a343c4)" style="fill: #1f77b4"/>
   </g>
   <g id="patch_9">
    <path d="M 71.355155 273.312 
L 72.964006 273.312 
L 72.964006 246.398018 
L 71.355155 246.398018 
z
" clip-path="url(#pa005a343c4)" style="fill: #1f77b4"/>
   </g>
   <g id="patch_10">
    <path d="M 72.964006 273.312 
L 74.572857 273.312 
L 74.572857 239.669522 
L 72.964006 239.669522 
z
" clip-path="url(#pa005a343c4)" style="fill: #1f77b4"/>
   </g>
   <g id="patch_11">
    <path d="M 74.572857 273.312 
L 76.181709 273.312 
L 76.181709 238.921912 
L 74.572857 238.921912 
z
" clip-path="url(#pa005a343c4)" style="fill: #1f77b4"/>
   </g>
   <g id="patch_12">
    <path d="M 76.181709 273.312 
L 77.79056 273.312 
L 77.79056 232.193416 
L 76.181709 232.193416 
z
" clip-path="url(#pa005a343c4)" style="fill: #1f77b4"/>
   </g>
   <g id="patch_13">
    <path d="M 77.79056 273.312 
L 79.399411 273.312 
L 79.399411 236.67908 
L 77.79056 236.67908 
z
" clip-path="url(#pa005a343c4)" style="fill: #1f77b4"/>
   </g>
   <g id="patch_14">
    <path d="M 79.399411 273.312 
L 81.008262 273.312 
L 81.008262 222.474478 
L 79.399411 222.474478 
z
" clip-path="url(#pa005a343c4)" style="fill: #1f77b4"/>
   </g>
   <g id="patch_15">
    <path d="M 81.008262 273.312 
L 82.617113 273.312 
L 82.617113 219.484035 
L 81.008262 219.484035 
z
" clip-path="url(#pa005a343c4)" style="fill: #1f77b4"/>
   </g>
   <g id="patch_16">
    <path d="M 82.617113 273.312 
L 84.225964 273.312 
L 84.225964 206.774655 
L 82.617113 206.774655 
z
" clip-path="url(#pa005a343c4)" style="fill: #1f77b4"/>
   </g>
   <g id="patch_17">
    <path d="M 84.225964 273.312 
L 85.834815 273.312 
L 85.834815 222.474478 
L 84.225964 222.474478 
z
" clip-path="url(#pa005a343c4)" style="fill: #1f77b4"/>
   </g>
   <g id="patch_18">
    <path d="M 85.834815 273.312 
L 87.443667 273.312 
L 87.443667 224.71731 
L 85.834815 224.71731 
z
" clip-path="url(#pa005a343c4)" style="fill: #1f77b4"/>
   </g>
   <g id="patch_19">
    <path d="M 87.443667 273.312 
L 89.052518 273.312 
L 89.052518 219.484035 
L 87.443667 219.484035 
z
" clip-path="url(#pa005a343c4)" style="fill: #1f77b4"/>
   </g>
   <g id="patch_20">
    <path d="M 89.052518 273.312 
L 90.661369 273.312 
L 90.661369 187.336779 
L 89.052518 187.336779 
z
" clip-path="url(#pa005a343c4)" style="fill: #1f77b4"/>
   </g>
   <g id="patch_21">
    <path d="M 90.661369 273.312 
L 92.27022 273.312 
L 92.27022 196.308106 
L 90.661369 196.308106 
z
" clip-path="url(#pa005a343c4)" style="fill: #1f77b4"/>
   </g>
   <g id="patch_22">
    <path d="M 92.27022 273.312 
L 93.879071 273.312 
L 93.879071 206.027044 
L 92.27022 206.027044 
z
" clip-path="url(#pa005a343c4)" style="fill: #1f77b4"/>
   </g>
   <g id="patch_23">
    <path d="M 93.879071 273.312 
L 95.487922 273.312 
L 95.487922 199.298549 
L 93.879071 199.298549 
z
" clip-path="url(#pa005a343c4)" style="fill: #1f77b4"/>
   </g>
   <g id="patch_24">
    <path d="M 95.487922 273.312 
L 97.096773 273.312 
L 97.096773 194.065274 
L 95.487922 194.065274 
z
" clip-path="url(#pa005a343c4)" style="fill: #1f77b4"/>
   </g>
   <g id="patch_25">
    <path d="M 97.096773 273.312 
L 98.705625 273.312 
L 98.705625 197.803327 
L 97.096773 197.803327 
z
" clip-path="url(#pa005a343c4)" style="fill: #1f77b4"/>
   </g>
   <g id="patch_26">
    <path d="M 98.705625 273.312 
L 100.314476 273.312 
L 100.314476 194.812885 
L 98.705625 194.812885 
z
" clip-path="url(#pa005a343c4)" style="fill: #1f77b4"/>
   </g>
   <g id="patch_27">
    <path d="M 100.314476 273.312 
L 101.923327 273.312 
L 101.923327 184.346336 
L 100.314476 184.346336 
z
" clip-path="url(#pa005a343c4)" style="fill: #1f77b4"/>
   </g>
   <g id="patch_28">
    <path d="M 101.923327 273.312 
L 103.532178 273.312 
L 103.532178 173.132177 
L 101.923327 173.132177 
z
" clip-path="url(#pa005a343c4)" style="fill: #1f77b4"/>
   </g>
   <g id="patch_29">
    <path d="M 103.532178 273.312 
L 105.141029 273.312 
L 105.141029 175.375009 
L 103.532178 175.375009 
z
" clip-path="url(#pa005a343c4)" style="fill: #1f77b4"/>
   </g>
   <g id="patch_30">
    <path d="M 105.141029 273.312 
L 106.74988 273.312 
L 106.74988 159.675186 
L 105.141029 159.675186 
z
" clip-path="url(#pa005a343c4)" style="fill: #1f77b4"/>
   </g>
   <g id="patch_31">
    <path d="M 106.74988 273.312 
L 108.358731 273.312 
L 108.358731 174.627398 
L 106.74988 174.627398 
z
" clip-path="url(#pa005a343c4)" style="fill: #1f77b4"/>
   </g>
   <g id="patch_32">
    <path d="M 108.358731 273.312 
L 109.967583 273.312 
L 109.967583 182.851115 
L 108.358731 182.851115 
z
" clip-path="url(#pa005a343c4)" style="fill: #1f77b4"/>
   </g>
   <g id="patch_33">
    <path d="M 109.967583 273.312 
L 111.576434 273.312 
L 111.576434 171.636956 
L 109.967583 171.636956 
z
" clip-path="url(#pa005a343c4)" style="fill: #1f77b4"/>
   </g>
   <g id="patch_34">
    <path d="M 111.576434 273.312 
L 113.185285 273.312 
L 113.185285 155.189522 
L 111.576434 155.189522 
z
" clip-path="url(#pa005a343c4)" style="fill: #1f77b4"/>
   </g>
   <g id="patch_35">
    <path d="M 113.185285 273.312 
L 114.794136 273.312 
L 114.794136 150.703858 
L 113.185285 150.703858 
z
" clip-path="url(#pa005a343c4)" style="fill: #1f77b4"/>
   </g>
   <g id="patch_36">
    <path d="M 114.794136 273.312 
L 116.402987 273.312 
L 116.402987 156.684743 
L 114.794136 156.684743 
z
" clip-path="url(#pa005a343c4)" style="fill: #1f77b4"/>
   </g>
   <g id="patch_37">
    <path d="M 116.402987 273.312 
L 118.011838 273.312 
L 118.011838 128.27554 
L 116.402987 128.27554 
z
" clip-path="url(#pa005a343c4)" style="fill: #1f77b4"/>
   </g>
   <g id="patch_38">
    <path d="M 118.011838 273.312 
L 119.620689 273.312 
L 119.620689 135.004035 
L 118.011838 135.004035 
z
" clip-path="url(#pa005a343c4)" style="fill: #1f77b4"/>
   </g>
   <g id="patch_39">
    <path d="M 119.620689 273.312 
L 121.229541 273.312 
L 121.229541 136.499257 
L 119.620689 136.499257 
z
" clip-path="url(#pa005a343c4)" style="fill: #1f77b4"/>
   </g>
   <g id="patch_40">
    <path d="M 121.229541 273.312 
L 122.838392 273.312 
L 122.838392 146.965805 
L 121.229541 146.965805 
z
" clip-path="url(#pa005a343c4)" style="fill: #1f77b4"/>
   </g>
   <g id="patch_41">
    <path d="M 122.838392 273.312 
L 124.447243 273.312 
L 124.447243 141.732531 
L 122.838392 141.732531 
z
" clip-path="url(#pa005a343c4)" style="fill: #1f77b4"/>
   </g>
   <g id="patch_42">
    <path d="M 124.447243 273.312 
L 126.056094 273.312 
L 126.056094 136.499257 
L 124.447243 136.499257 
z
" clip-path="url(#pa005a343c4)" style="fill: #1f77b4"/>
   </g>
   <g id="patch_43">
    <path d="M 126.056094 273.312 
L 127.664945 273.312 
L 127.664945 128.27554 
L 126.056094 128.27554 
z
" clip-path="url(#pa005a343c4)" style="fill: #1f77b4"/>
   </g>
   <g id="patch_44">
    <path d="M 127.664945 273.312 
L 129.273796 273.312 
L 129.273796 138.742088 
L 127.664945 138.742088 
z
" clip-path="url(#pa005a343c4)" style="fill: #1f77b4"/>
   </g>
   <g id="patch_45">
    <path d="M 129.273796 273.312 
L 130.882647 273.312 
L 130.882647 114.818549 
L 129.273796 114.818549 
z
" clip-path="url(#pa005a343c4)" style="fill: #1f77b4"/>
   </g>
   <g id="patch_46">
    <path d="M 130.882647 273.312 
L 132.491499 273.312 
L 132.491499 151.451469 
L 130.882647 151.451469 
z
" clip-path="url(#pa005a343c4)" style="fill: #1f77b4"/>
   </g>
   <g id="patch_47">
    <path d="M 132.491499 273.312 
L 134.10035 273.312 
L 134.10035 125.285097 
L 132.491499 125.285097 
z
" clip-path="url(#pa005a343c4)" style="fill: #1f77b4"/>
   </g>
   <g id="patch_48">
    <path d="M 134.10035 273.312 
L 135.709201 273.312 
L 135.709201 105.847221 
L 134.10035 105.847221 
z
" clip-path="url(#pa005a343c4)" style="fill: #1f77b4"/>
   </g>
   <g id="patch_49">
    <path d="M 135.709201 273.312 
L 137.318052 273.312 
L 137.318052 106.594832 
L 135.709201 106.594832 
z
" clip-path="url(#pa005a343c4)" style="fill: #1f77b4"/>
   </g>
   <g id="patch_50">
    <path d="M 137.318052 273.312 
L 138.926903 273.312 
L 138.926903 103.604389 
L 137.318052 103.604389 
z
" clip-path="url(#pa005a343c4)" style="fill: #1f77b4"/>
   </g>
   <g id="patch_51">
    <path d="M 138.926903 273.312 
L 140.535754 273.312 
L 140.535754 135.004035 
L 138.926903 135.004035 
z
" clip-path="url(#pa005a343c4)" style="fill: #1f77b4"/>
   </g>
   <g id="patch_52">
    <path d="M 140.535754 273.312 
L 142.144606 273.312 
L 142.144606 120.051823 
L 140.535754 120.051823 
z
" clip-path="url(#pa005a343c4)" style="fill: #1f77b4"/>
   </g>
   <g id="patch_53">
    <path d="M 142.144606 273.312 
L 143.753457 273.312 
L 143.753457 108.090053 
L 142.144606 108.090053 
z
" clip-path="url(#pa005a343c4)" style="fill: #1f77b4"/>
   </g>
   <g id="patch_54">
    <path d="M 143.753457 273.312 
L 145.362308 273.312 
L 145.362308 106.594832 
L 143.753457 106.594832 
z
" clip-path="url(#pa005a343c4)" style="fill: #1f77b4"/>
   </g>
   <g id="patch_55">
    <path d="M 145.362308 273.312 
L 146.971159 273.312 
L 146.971159 84.166513 
L 145.362308 84.166513 
z
" clip-path="url(#pa005a343c4)" style="fill: #1f77b4"/>
   </g>
   <g id="patch_56">
    <path d="M 146.971159 273.312 
L 148.58001 273.312 
L 148.58001 89.399788 
L 146.971159 89.399788 
z
" clip-path="url(#pa005a343c4)" style="fill: #1f77b4"/>
   </g>
   <g id="patch_57">
    <path d="M 148.58001 273.312 
L 150.188861 273.312 
L 150.188861 101.361558 
L 148.58001 101.361558 
z
" clip-path="url(#pa005a343c4)" style="fill: #1f77b4"/>
   </g>
   <g id="patch_58">
    <path d="M 150.188861 273.312 
L 151.797712 273.312 
L 151.797712 88.652177 
L 150.188861 88.652177 
z
" clip-path="url(#pa005a343c4)" style="fill: #1f77b4"/>
   </g>
   <g id="patch_59">
    <path d="M 151.797712 273.312 
L 153.406564 273.312 
L 153.406564 68.46669 
L 151.797712 68.46669 
z
" clip-path="url(#pa005a343c4)" style="fill: #1f77b4"/>
   </g>
   <g id="patch_60">
    <path d="M 153.406564 273.312 
L 155.015415 273.312 
L 155.015415 76.690407 
L 153.406564 76.690407 
z
" clip-path="url(#pa005a343c4)" style="fill: #1f77b4"/>
   </g>
   <g id="patch_61">
    <path d="M 155.015415 273.312 
L 156.624266 273.312 
L 156.624266 87.904566 
L 155.015415 87.904566 
z
" clip-path="url(#pa005a343c4)" style="fill: #1f77b4"/>
   </g>
   <g id="patch_62">
    <path d="M 156.624266 273.312 
L 158.233117 273.312 
L 158.233117 90.147398 
L 156.624266 90.147398 
z
" clip-path="url(#pa005a343c4)" style="fill: #1f77b4"/>
   </g>
   <g id="patch_63">
    <path d="M 158.233117 273.312 
L 159.841968 273.312 
L 159.841968 87.904566 
L 158.233117 87.904566 
z
" clip-path="url(#pa005a343c4)" style="fill: #1f77b4"/>
   </g>
   <g id="patch_64">
    <path d="M 159.841968 273.312 
L 161.450819 273.312 
L 161.450819 81.176071 
L 159.841968 81.176071 
z
" clip-path="url(#pa005a343c4)" style="fill: #1f77b4"/>
   </g>
   <g id="patch_65">
    <path d="M 161.450819 273.312 
L 163.05967 273.312 
L 163.05967 71.457133 
L 161.450819 71.457133 
z
" clip-path="url(#pa005a343c4)" style="fill: #1f77b4"/>
   </g>
   <g id="patch_66">
    <path d="M 163.05967 273.312 
L 164.668522 273.312 
L 164.668522 66.223858 
L 163.05967 66.223858 
z
" clip-path="url(#pa005a343c4)" style="fill: #1f77b4"/>
   </g>
   <g id="patch_67">
    <path d="M 164.668522 273.312 
L 166.277373 273.312 
L 166.277373 69.961912 
L 164.668522 69.961912 
z
" clip-path="url(#pa005a343c4)" style="fill: #1f77b4"/>
   </g>
   <g id="patch_68">
    <path d="M 166.277373 273.312 
L 167.886224 273.312 
L 167.886224 66.971469 
L 166.277373 66.971469 
z
" clip-path="url(#pa005a343c4)" style="fill: #1f77b4"/>
   </g>
   <g id="patch_69">
    <path d="M 167.886224 273.312 
L 169.495075 273.312 
L 169.495075 46.038372 
L 167.886224 46.038372 
z
" clip-path="url(#pa005a343c4)" style="fill: #1f77b4"/>
   </g>
   <g id="patch_70">
    <path d="M 169.495075 273.312 
L 171.103926 273.312 
L 171.103926 72.952354 
L 169.495075 72.952354 
z
" clip-path="url(#pa005a343c4)" style="fill: #1f77b4"/>
   </g>
   <g id="patch_71">
    <path d="M 171.103926 273.312 
L 172.712777 273.312 
L 172.712777 61.738195 
L 171.103926 61.738195 
z
" clip-path="url(#pa005a343c4)" style="fill: #1f77b4"/>
   </g>
   <g id="patch_72">
    <path d="M 172.712777 273.312 
L 174.321628 273.312 
L 174.321628 66.971469 
L 172.712777 66.971469 
z
" clip-path="url(#pa005a343c4)" style="fill: #1f77b4"/>
   </g>
   <g id="patch_73">
    <path d="M 174.321628 273.312 
L 175.93048 273.312 
L 175.93048 67.71908 
L 174.321628 67.71908 
z
" clip-path="url(#pa005a343c4)" style="fill: #1f77b4"/>
   </g>
   <g id="patch_74">
    <path d="M 175.93048 273.312 
L 177.539331 273.312 
L 177.539331 74.447575 
L 175.93048 74.447575 
z
" clip-path="url(#pa005a343c4)" style="fill: #1f77b4"/>
   </g>
   <g id="patch_75">
    <path d="M 177.539331 273.312 
L 179.148182 273.312 
L 179.148182 54.262088 
L 177.539331 54.262088 
z
" clip-path="url(#pa005a343c4)" style="fill: #1f77b4"/>
   </g>
   <g id="patch_76">
    <path d="M 179.148182 273.312 
L 180.757033 273.312 
L 180.757033 78.185628 
L 179.148182 78.185628 
z
" clip-path="url(#pa005a343c4)" style="fill: #1f77b4"/>
   </g>
   <g id="patch_77">
    <path d="M 180.757033 273.312 
L 182.365884 273.312 
L 182.365884 56.50492 
L 180.757033 56.50492 
z
" clip-path="url(#pa005a343c4)" style="fill: #1f77b4"/>
   </g>
   <g id="patch_78">
    <path d="M 182.365884 273.312 
L 183.974735 273.312 
L 183.974735 71.457133 
L 182.365884 71.457133 
z
" clip-path="url(#pa005a343c4)" style="fill: #1f77b4"/>
   </g>
   <g id="patch_79">
    <path d="M 183.974735 273.312 
L 185.583586 273.312 
L 185.583586 41.552708 
L 183.974735 41.552708 
z
" clip-path="url(#pa005a343c4)" style="fill: #1f77b4"/>
   </g>
   <g id="patch_80">
    <path d="M 185.583586 273.312 
L 187.192438 273.312 
L 187.192438 49.028814 
L 185.583586 49.028814 
z
" clip-path="url(#pa005a343c4)" style="fill: #1f77b4"/>
   </g>
   <g id="patch_81">
    <path d="M 187.192438 273.312 
L 188.801289 273.312 
L 188.801289 58.000142 
L 187.192438 58.000142 
z
" clip-path="url(#pa005a343c4)" style="fill: #1f77b4"/>
   </g>
   <g id="patch_82">
    <path d="M 188.801289 273.312 
L 190.41014 273.312 
L 190.41014 34.076602 
L 188.801289 34.076602 
z
" clip-path="url(#pa005a343c4)" style="fill: #1f77b4"/>
   </g>
   <g id="patch_83">
    <path d="M 190.41014 273.312 
L 192.018991 273.312 
L 192.018991 55.75731 
L 190.41014 55.75731 
z
" clip-path="url(#pa005a343c4)" style="fill: #1f77b4"/>
   </g>
   <g id="patch_84">
    <path d="M 192.018991 273.312 
L 193.627842 273.312 
L 193.627842 23.610053 
L 192.018991 23.610053 
z
" clip-path="url(#pa005a343c4)" style="fill: #1f77b4"/>
   </g>
   <g id="patch_85">
    <path d="M 193.627842 273.312 
L 195.236693 273.312 
L 195.236693 56.50492 
L 193.627842 56.50492 
z
" clip-path="url(#pa005a343c4)" style="fill: #1f77b4"/>
   </g>
   <g id="patch_86">
    <path d="M 195.236693 273.312 
L 196.845544 273.312 
L 196.845544 31.086159 
L 195.236693 31.086159 
z
" clip-path="url(#pa005a343c4)" style="fill: #1f77b4"/>
   </g>
   <g id="patch_87">
    <path d="M 196.845544 273.312 
L 198.454396 273.312 
L 198.454396 66.223858 
L 196.845544 66.223858 
z
" clip-path="url(#pa005a343c4)" style="fill: #1f77b4"/>
   </g>
   <g id="patch_88">
    <path d="M 198.454396 273.312 
L 200.063247 273.312 
L 200.063247 41.552708 
L 198.454396 41.552708 
z
" clip-path="url(#pa005a343c4)" style="fill: #1f77b4"/>
   </g>
   <g id="patch_89">
    <path d="M 200.063247 273.312 
L 201.672098 273.312 
L 201.672098 60.990584 
L 200.063247 60.990584 
z
" clip-path="url(#pa005a343c4)" style="fill: #1f77b4"/>
   </g>
   <g id="patch_90">
    <path d="M 201.672098 273.312 
L 203.280949 273.312 
L 203.280949 49.028814 
L 201.672098 49.028814 
z
" clip-path="url(#pa005a343c4)" style="fill: #1f77b4"/>
   </g>
   <g id="patch_91">
    <path d="M 203.280949 273.312 
L 204.8898 273.312 
L 204.8898 35.571823 
L 203.280949 35.571823 
z
" clip-path="url(#pa005a343c4)" style="fill: #1f77b4"/>
   </g>
   <g id="patch_92">
    <path d="M 204.8898 273.312 
L 206.498651 273.312 
L 206.498651 55.009699 
L 204.8898 55.009699 
z
" clip-path="url(#pa005a343c4)" style="fill: #1f77b4"/>
   </g>
   <g id="patch_93">
    <path d="M 206.498651 273.312 
L 208.107502 273.312 
L 208.107502 41.552708 
L 206.498651 41.552708 
z
" clip-path="url(#pa005a343c4)" style="fill: #1f77b4"/>
   </g>
   <g id="patch_94">
    <path d="M 208.107502 273.312 
L 209.716354 273.312 
L 209.716354 37.814655 
L 208.107502 37.814655 
z
" clip-path="url(#pa005a343c4)" style="fill: #1f77b4"/>
   </g>
   <g id="patch_95">
    <path d="M 209.716354 273.312 
L 211.325205 273.312 
L 211.325205 34.076602 
L 209.716354 34.076602 
z
" clip-path="url(#pa005a343c4)" style="fill: #1f77b4"/>
   </g>
   <g id="patch_96">
    <path d="M 211.325205 273.312 
L 212.934056 273.312 
L 212.934056 19.872 
L 211.325205 19.872 
z
" clip-path="url(#pa005a343c4)" style="fill: #1f77b4"/>
   </g>
   <g id="patch_97">
    <path d="M 212.934056 273.312 
L 214.542907 273.312 
L 214.542907 37.067044 
L 212.934056 37.067044 
z
" clip-path="url(#pa005a343c4)" style="fill: #1f77b4"/>
   </g>
   <g id="patch_98">
    <path d="M 214.542907 273.312 
L 216.151758 273.312 
L 216.151758 34.824212 
L 214.542907 34.824212 
z
" clip-path="url(#pa005a343c4)" style="fill: #1f77b4"/>
   </g>
   <g id="patch_99">
    <path d="M 216.151758 273.312 
L 217.760609 273.312 
L 217.760609 37.814655 
L 216.151758 37.814655 
z
" clip-path="url(#pa005a343c4)" style="fill: #1f77b4"/>
   </g>
   <g id="patch_100">
    <path d="M 217.760609 273.312 
L 219.36946 273.312 
L 219.36946 31.086159 
L 217.760609 31.086159 
z
" clip-path="url(#pa005a343c4)" style="fill: #1f77b4"/>
   </g>
   <g id="patch_101">
    <path d="M 219.36946 273.312 
L 220.978312 273.312 
L 220.978312 50.524035 
L 219.36946 50.524035 
z
" clip-path="url(#pa005a343c4)" style="fill: #1f77b4"/>
   </g>
   <g id="patch_102">
    <path d="M 220.978312 273.312 
L 222.587163 273.312 
L 222.587163 37.814655 
L 220.978312 37.814655 
z
" clip-path="url(#pa005a343c4)" style="fill: #1f77b4"/>
   </g>
   <g id="patch_103">
    <path d="M 222.587163 273.312 
L 224.196014 273.312 
L 224.196014 59.495363 
L 222.587163 59.495363 
z
" clip-path="url(#pa005a343c4)" style="fill: #1f77b4"/>
   </g>
   <g id="patch_104">
    <path d="M 224.196014 273.312 
L 225.804865 273.312 
L 225.804865 28.843327 
L 224.196014 28.843327 
z
" clip-path="url(#pa005a343c4)" style="fill: #1f77b4"/>
   </g>
   <g id="patch_105">
    <path d="M 225.804865 273.312 
L 227.413716 273.312 
L 227.413716 27.348106 
L 225.804865 27.348106 
z
" clip-path="url(#pa005a343c4)" style="fill: #1f77b4"/>
   </g>
   <g id="patch_106">
    <path d="M 227.413716 273.312 
L 229.022567 273.312 
L 229.022567 33.328991 
L 227.413716 33.328991 
z
" clip-path="url(#pa005a343c4)" style="fill: #1f77b4"/>
   </g>
   <g id="patch_107">
    <path d="M 229.022567 273.312 
L 230.631419 273.312 
L 230.631419 46.038372 
L 229.022567 46.038372 
z
" clip-path="url(#pa005a343c4)" style="fill: #1f77b4"/>
   </g>
   <g id="patch_108">
    <path d="M 230.631419 273.312 
L 232.24027 273.312 
L 232.24027 55.75731 
L 230.631419 55.75731 
z
" clip-path="url(#pa005a343c4)" style="fill: #1f77b4"/>
   </g>
   <g id="patch_109">
    <path d="M 232.24027 273.312 
L 233.849121 273.312 
L 233.849121 47.533593 
L 232.24027 47.533593 
z
" clip-path="url(#pa005a343c4)" style="fill: #1f77b4"/>
   </g>
   <g id="patch_110">
    <path d="M 233.849121 273.312 
L 235.457972 273.312 
L 235.457972 50.524035 
L 233.849121 50.524035 
z
" clip-path="url(#pa005a343c4)" style="fill: #1f77b4"/>
   </g>
   <g id="patch_111">
    <path d="M 235.457972 273.312 
L 237.066823 273.312 
L 237.066823 39.309876 
L 235.457972 39.309876 
z
" clip-path="url(#pa005a343c4)" style="fill: #1f77b4"/>
   </g>
   <g id="patch_112">
    <path d="M 237.066823 273.312 
L 238.675674 273.312 
L 238.675674 38.562265 
L 237.066823 38.562265 
z
" clip-path="url(#pa005a343c4)" style="fill: #1f77b4"/>
   </g>
   <g id="patch_113">
    <path d="M 238.675674 273.312 
L 240.284525 273.312 
L 240.284525 51.271646 
L 238.675674 51.271646 
z
" clip-path="url(#pa005a343c4)" style="fill: #1f77b4"/>
   </g>
   <g id="patch_114">
    <path d="M 240.284525 273.312 
L 241.893377 273.312 
L 241.893377 43.79554 
L 240.284525 43.79554 
z
" clip-path="url(#pa005a343c4)" style="fill: #1f77b4"/>
   </g>
   <g id="patch_115">
    <path d="M 241.893377 273.312 
L 243.502228 273.312 
L 243.502228 69.214301 
L 241.893377 69.214301 
z
" clip-path="url(#pa005a343c4)" style="fill: #1f77b4"/>
   </g>
   <g id="patch_116">
    <path d="M 243.502228 273.312 
L 245.111079 273.312 
L 245.111079 55.75731 
L 243.502228 55.75731 
z
" clip-path="url(#pa005a343c4)" style="fill: #1f77b4"/>
   </g>
   <g id="patch_117">
    <path d="M 245.111079 273.312 
L 246.71993 273.312 
L 246.71993 77.438018 
L 245.111079 77.438018 
z
" clip-path="url(#pa005a343c4)" style="fill: #1f77b4"/>
   </g>
   <g id="patch_118">
    <path d="M 246.71993 273.312 
L 248.328781 273.312 
L 248.328781 29.590938 
L 246.71993 29.590938 
z
" clip-path="url(#pa005a343c4)" style="fill: #1f77b4"/>
   </g>
   <g id="patch_119">
    <path d="M 248.328781 273.312 
L 249.937632 273.312 
L 249.937632 42.300319 
L 248.328781 42.300319 
z
" clip-path="url(#pa005a343c4)" style="fill: #1f77b4"/>
   </g>
   <g id="patch_120">
    <path d="M 249.937632 273.312 
L 251.546483 273.312 
L 251.546483 56.50492 
L 249.937632 56.50492 
z
" clip-path="url(#pa005a343c4)" style="fill: #1f77b4"/>
   </g>
   <g id="patch_121">
    <path d="M 251.546483 273.312 
L 253.155335 273.312 
L 253.155335 66.971469 
L 251.546483 66.971469 
z
" clip-path="url(#pa005a343c4)" style="fill: #1f77b4"/>
   </g>
   <g id="patch_122">
    <path d="M 253.155335 273.312 
L 254.764186 273.312 
L 254.764186 56.50492 
L 253.155335 56.50492 
z
" clip-path="url(#pa005a343c4)" style="fill: #1f77b4"/>
   </g>
   <g id="patch_123">
    <path d="M 254.764186 273.312 
L 256.373037 273.312 
L 256.373037 52.766867 
L 254.764186 52.766867 
z
" clip-path="url(#pa005a343c4)" style="fill: #1f77b4"/>
   </g>
   <g id="patch_124">
    <path d="M 256.373037 273.312 
L 257.981888 273.312 
L 257.981888 55.75731 
L 256.373037 55.75731 
z
" clip-path="url(#pa005a343c4)" style="fill: #1f77b4"/>
   </g>
   <g id="patch_125">
    <path d="M 257.981888 273.312 
L 259.590739 273.312 
L 259.590739 40.057487 
L 257.981888 40.057487 
z
" clip-path="url(#pa005a343c4)" style="fill: #1f77b4"/>
   </g>
   <g id="patch_126">
    <path d="M 259.590739 273.312 
L 261.19959 273.312 
L 261.19959 40.805097 
L 259.590739 40.805097 
z
" clip-path="url(#pa005a343c4)" style="fill: #1f77b4"/>
   </g>
   <g id="patch_127">
    <path d="M 261.19959 273.312 
L 262.808441 273.312 
L 262.808441 55.75731 
L 261.19959 55.75731 
z
" clip-path="url(#pa005a343c4)" style="fill: #1f77b4"/>
   </g>
   <g id="patch_128">
    <path d="M 262.808441 273.312 
L 264.417293 273.312 
L 264.417293 81.923681 
L 262.808441 81.923681 
z
" clip-path="url(#pa005a343c4)" style="fill: #1f77b4"/>
   </g>
   <g id="patch_129">
    <path d="M 264.417293 273.312 
L 266.026144 273.312 
L 266.026144 64.728637 
L 264.417293 64.728637 
z
" clip-path="url(#pa005a343c4)" style="fill: #1f77b4"/>
   </g>
   <g id="patch_130">
    <path d="M 266.026144 273.312 
L 267.634995 273.312 
L 267.634995 46.785982 
L 266.026144 46.785982 
z
" clip-path="url(#pa005a343c4)" style="fill: #1f77b4"/>
   </g>
   <g id="patch_131">
    <path d="M 267.634995 273.312 
L 269.243846 273.312 
L 269.243846 60.242973 
L 267.634995 60.242973 
z
" clip-path="url(#pa005a343c4)" style="fill: #1f77b4"/>
   </g>
   <g id="patch_132">
    <path d="M 269.243846 273.312 
L 270.852697 273.312 
L 270.852697 44.54315 
L 269.243846 44.54315 
z
" clip-path="url(#pa005a343c4)" style="fill: #1f77b4"/>
   </g>
   <g id="patch_133">
    <path d="M 270.852697 273.312 
L 272.461548 273.312 
L 272.461548 85.661735 
L 270.852697 85.661735 
z
" clip-path="url(#pa005a343c4)" style="fill: #1f77b4"/>
   </g>
   <g id="patch_134">
    <path d="M 272.461548 273.312 
L 274.070399 273.312 
L 274.070399 66.223858 
L 272.461548 66.223858 
z
" clip-path="url(#pa005a343c4)" style="fill: #1f77b4"/>
   </g>
   <g id="patch_135">
    <path d="M 274.070399 273.312 
L 275.679251 273.312 
L 275.679251 67.71908 
L 274.070399 67.71908 
z
" clip-path="url(#pa005a343c4)" style="fill: #1f77b4"/>
   </g>
   <g id="patch_136">
    <path d="M 275.679251 273.312 
L 277.288102 273.312 
L 277.288102 84.166513 
L 275.679251 84.166513 
z
" clip-path="url(#pa005a343c4)" style="fill: #1f77b4"/>
   </g>
   <g id="patch_137">
    <path d="M 277.288102 273.312 
L 278.896953 273.312 
L 278.896953 93.885451 
L 277.288102 93.885451 
z
" clip-path="url(#pa005a343c4)" style="fill: #1f77b4"/>
   </g>
   <g id="patch_138">
    <path d="M 278.896953 273.312 
L 280.505804 273.312 
L 280.505804 65.476248 
L 278.896953 65.476248 
z
" clip-path="url(#pa005a343c4)" style="fill: #1f77b4"/>
   </g>
   <g id="patch_139">
    <path d="M 280.505804 273.312 
L 282.114655 273.312 
L 282.114655 64.728637 
L 280.505804 64.728637 
z
" clip-path="url(#pa005a343c4)" style="fill: #1f77b4"/>
   </g>
   <g id="patch_140">
    <path d="M 282.114655 273.312 
L 283.723506 273.312 
L 283.723506 67.71908 
L 282.114655 67.71908 
z
" clip-path="url(#pa005a343c4)" style="fill: #1f77b4"/>
   </g>
   <g id="patch_141">
    <path d="M 283.723506 273.312 
L 285.332357 273.312 
L 285.332357 89.399788 
L 283.723506 89.399788 
z
" clip-path="url(#pa005a343c4)" style="fill: #1f77b4"/>
   </g>
   <g id="patch_142">
    <path d="M 285.332357 273.312 
L 286.941209 273.312 
L 286.941209 111.828106 
L 285.332357 111.828106 
z
" clip-path="url(#pa005a343c4)" style="fill: #1f77b4"/>
   </g>
   <g id="patch_143">
    <path d="M 286.941209 273.312 
L 288.55006 273.312 
L 288.55006 84.914124 
L 286.941209 84.914124 
z
" clip-path="url(#pa005a343c4)" style="fill: #1f77b4"/>
   </g>
   <g id="patch_144">
    <path d="M 288.55006 273.312 
L 290.158911 273.312 
L 290.158911 101.361558 
L 288.55006 101.361558 
z
" clip-path="url(#pa005a343c4)" style="fill: #1f77b4"/>
   </g>
   <g id="patch_145">
    <path d="M 290.158911 273.312 
L 291.767762 273.312 
L 291.767762 116.31377 
L 290.158911 116.31377 
z
" clip-path="url(#pa005a343c4)" style="fill: #1f77b4"/>
   </g>
   <g id="patch_146">
    <path d="M 291.767762 273.312 
L 293.376613 273.312 
L 293.376613 87.156956 
L 291.767762 87.156956 
z
" clip-path="url(#pa005a343c4)" style="fill: #1f77b4"/>
   </g>
   <g id="patch_147">
    <path d="M 293.376613 273.312 
L 294.985464 273.312 
L 294.985464 86.409345 
L 293.376613 86.409345 
z
" clip-path="url(#pa005a343c4)" style="fill: #1f77b4"/>
   </g>
   <g id="patch_148">
    <path d="M 294.985464 273.312 
L 296.594315 273.312 
L 296.594315 102.109168 
L 294.985464 102.109168 
z
" clip-path="url(#pa005a343c4)" style="fill: #1f77b4"/>
   </g>
   <g id="patch_149">
    <path d="M 296.594315 273.312 
L 298.203167 273.312 
L 298.203167 95.380673 
L 296.594315 95.380673 
z
" clip-path="url(#pa005a343c4)" style="fill: #1f77b4"/>
   </g>
   <g id="patch_150">
    <path d="M 298.203167 273.312 
L 299.812018 273.312 
L 299.812018 109.585274 
L 298.203167 109.585274 
z
" clip-path="url(#pa005a343c4)" style="fill: #1f77b4"/>
   </g>
   <g id="patch_151">
    <path d="M 299.812018 273.312 
L 301.420869 273.312 
L 301.420869 108.837664 
L 299.812018 108.837664 
z
" clip-path="url(#pa005a343c4)" style="fill: #1f77b4"/>
   </g>
   <g id="patch_152">
    <path d="M 301.420869 273.312 
L 303.02972 273.312 
L 303.02972 96.875894 
L 301.420869 96.875894 
z
" clip-path="url(#pa005a343c4)" style="fill: #1f77b4"/>
   </g>
   <g id="patch_153">
    <path d="M 303.02972 273.312 
L 304.638571 273.312 
L 304.638571 111.080496 
L 303.02972 111.080496 
z
" clip-path="url(#pa005a343c4)" style="fill: #1f77b4"/>
   </g>
   <g id="patch_154">
    <path d="M 304.638571 273.312 
L 306.247422 273.312 
L 306.247422 108.090053 
L 304.638571 108.090053 
z
" clip-path="url(#pa005a343c4)" style="fill: #1f77b4"/>
   </g>
   <g id="patch_155">
    <path d="M 306.247422 273.312 
L 307.856273 273.312 
L 307.856273 118.556602 
L 306.247422 118.556602 
z
" clip-path="url(#pa005a343c4)" style="fill: #1f77b4"/>
   </g>
   <g id="patch_156">
    <path d="M 307.856273 273.312 
L 309.465125 273.312 
L 309.465125 111.828106 
L 307.856273 111.828106 
z
" clip-path="url(#pa005a343c4)" style="fill: #1f77b4"/>
   </g>
   <g id="patch_157">
    <path d="M 309.465125 273.312 
L 311.073976 273.312 
L 311.073976 107.342442 
L 309.465125 107.342442 
z
" clip-path="url(#pa005a343c4)" style="fill: #1f77b4"/>
   </g>
   <g id="patch_158">
    <path d="M 311.073976 273.312 
L 312.682827 273.312 
L 312.682827 122.294655 
L 311.073976 122.294655 
z
" clip-path="url(#pa005a343c4)" style="fill: #1f77b4"/>
   </g>
   <g id="patch_159">
    <path d="M 312.682827 273.312 
L 314.291678 273.312 
L 314.291678 132.013593 
L 312.682827 132.013593 
z
" clip-path="url(#pa005a343c4)" style="fill: #1f77b4"/>
   </g>
   <g id="patch_160">
    <path d="M 314.291678 273.312 
L 315.900529 273.312 
L 315.900529 135.004035 
L 314.291678 135.004035 
z
" clip-path="url(#pa005a343c4)" style="fill: #1f77b4"/>
   </g>
   <g id="patch_161">
    <path d="M 315.900529 273.312 
L 317.50938 273.312 
L 317.50938 130.518372 
L 315.900529 130.518372 
z
" clip-path="url(#pa005a343c4)" style="fill: #1f77b4"/>
   </g>
   <g id="patch_162">
    <path d="M 317.50938 273.312 
L 319.118232 273.312 
L 319.118232 146.218195 
L 317.50938 146.218195 
z
" clip-path="url(#pa005a343c4)" style="fill: #1f77b4"/>
   </g>
   <g id="patch_163">
    <path d="M 319.118232 273.312 
L 320.727083 273.312 
L 320.727083 134.256425 
L 319.118232 134.256425 
z
" clip-path="url(#pa005a343c4)" style="fill: #1f77b4"/>
   </g>
   <g id="patch_164">
    <path d="M 320.727083 273.312 
L 322.335934 273.312 
L 322.335934 143.975363 
L 320.727083 143.975363 
z
" clip-path="url(#pa005a343c4)" style="fill: #1f77b4"/>
   </g>
   <g id="patch_165">
    <path d="M 322.335934 273.312 
L 323.944785 273.312 
L 323.944785 143.975363 
L 322.335934 143.975363 
z
" clip-path="url(#pa005a343c4)" style="fill: #1f77b4"/>
   </g>
   <g id="patch_166">
    <path d="M 323.944785 273.312 
L 325.553636 273.312 
L 325.553636 155.937133 
L 323.944785 155.937133 
z
" clip-path="url(#pa005a343c4)" style="fill: #1f77b4"/>
   </g>
   <g id="patch_167">
    <path d="M 325.553636 273.312 
L 327.162487 273.312 
L 327.162487 136.499257 
L 325.553636 136.499257 
z
" clip-path="url(#pa005a343c4)" style="fill: #1f77b4"/>
   </g>
   <g id="patch_168">
    <path d="M 327.162487 273.312 
L 328.771338 273.312 
L 328.771338 148.461027 
L 327.162487 148.461027 
z
" clip-path="url(#pa005a343c4)" style="fill: #1f77b4"/>
   </g>
   <g id="patch_169">
    <path d="M 328.771338 273.312 
L 330.38019 273.312 
L 330.38019 152.94669 
L 328.771338 152.94669 
z
" clip-path="url(#pa005a343c4)" style="fill: #1f77b4"/>
   </g>
   <g id="patch_170">
    <path d="M 330.38019 273.312 
L 331.989041 273.312 
L 331.989041 144.722973 
L 330.38019 144.722973 
z
" clip-path="url(#pa005a343c4)" style="fill: #1f77b4"/>
   </g>
   <g id="patch_171">
    <path d="M 331.989041 273.312 
L 333.597892 273.312 
L 333.597892 156.684743 
L 331.989041 156.684743 
z
" clip-path="url(#pa005a343c4)" style="fill: #1f77b4"/>
   </g>
   <g id="patch_172">
    <path d="M 333.597892 273.312 
L 335.206743 273.312 
L 335.206743 158.179965 
L 333.597892 158.179965 
z
" clip-path="url(#pa005a343c4)" style="fill: #1f77b4"/>
   </g>
   <g id="patch_173">
    <path d="M 335.206743 273.312 
L 336.815594 273.312 
L 336.815594 167.898903 
L 335.206743 167.898903 
z
" clip-path="url(#pa005a343c4)" style="fill: #1f77b4"/>
   </g>
   <g id="patch_174">
    <path d="M 336.815594 273.312 
L 338.424445 273.312 
L 338.424445 181.355894 
L 336.815594 181.355894 
z
" clip-path="url(#pa005a343c4)" style="fill: #1f77b4"/>
   </g>
   <g id="patch_175">
    <path d="M 338.424445 273.312 
L 340.033296 273.312 
L 340.033296 182.851115 
L 338.424445 182.851115 
z
" clip-path="url(#pa005a343c4)" style="fill: #1f77b4"/>
   </g>
   <g id="patch_176">
    <path d="M 340.033296 273.312 
L 341.642148 273.312 
L 341.642148 191.074832 
L 340.033296 191.074832 
z
" clip-path="url(#pa005a343c4)" style="fill: #1f77b4"/>
   </g>
   <g id="patch_177">
    <path d="M 341.642148 273.312 
L 343.250999 273.312 
L 343.250999 177.617841 
L 341.642148 177.617841 
z
" clip-path="url(#pa005a343c4)" style="fill: #1f77b4"/>
   </g>
   <g id="patch_178">
    <path d="M 343.250999 273.312 
L 344.85985 273.312 
L 344.85985 179.860673 
L 343.250999 179.860673 
z
" clip-path="url(#pa005a343c4)" style="fill: #1f77b4"/>
   </g>
   <g id="patch_179">
    <path d="M 344.85985 273.312 
L 346.468701 273.312 
L 346.468701 194.065274 
L 344.85985 194.065274 
z
" clip-path="url(#pa005a343c4)" style="fill: #1f77b4"/>
   </g>
   <g id="patch_180">
    <path d="M 346.468701 273.312 
L 348.077552 273.312 
L 348.077552 190.327221 
L 346.468701 190.327221 
z
" clip-path="url(#pa005a343c4)" style="fill: #1f77b4"/>
   </g>
   <g id="patch_181">
    <path d="M 348.077552 273.312 
L 349.686403 273.312 
L 349.686403 197.803327 
L 348.077552 197.803327 
z
" clip-path="url(#pa005a343c4)" style="fill: #1f77b4"/>
   </g>
   <g id="patch_182">
    <path d="M 349.686403 273.312 
L 351.295254 273.312 
L 351.295254 195.560496 
L 349.686403 195.560496 
z
" clip-path="url(#pa005a343c4)" style="fill: #1f77b4"/>
   </g>
   <g id="patch_183">
    <path d="M 351.295254 273.312 
L 352.904106 273.312 
L 352.904106 209.017487 
L 351.295254 209.017487 
z
" clip-path="url(#pa005a343c4)" style="fill: #1f77b4"/>
   </g>
   <g id="patch_184">
    <path d="M 352.904106 273.312 
L 354.512957 273.312 
L 354.512957 212.007929 
L 352.904106 212.007929 
z
" clip-path="url(#pa005a343c4)" style="fill: #1f77b4"/>
   </g>
   <g id="patch_185">
    <path d="M 354.512957 273.312 
L 356.121808 273.312 
L 356.121808 212.007929 
L 354.512957 212.007929 
z
" clip-path="url(#pa005a343c4)" style="fill: #1f77b4"/>
   </g>
   <g id="patch_186">
    <path d="M 356.121808 273.312 
L 357.730659 273.312 
L 357.730659 212.007929 
L 356.121808 212.007929 
z
" clip-path="url(#pa005a343c4)" style="fill: #1f77b4"/>
   </g>
   <g id="patch_187">
    <path d="M 357.730659 273.312 
L 359.33951 273.312 
L 359.33951 221.726867 
L 357.730659 221.726867 
z
" clip-path="url(#pa005a343c4)" style="fill: #1f77b4"/>
   </g>
   <g id="patch_188">
    <path d="M 359.33951 273.312 
L 360.948361 273.312 
L 360.948361 227.707752 
L 359.33951 227.707752 
z
" clip-path="url(#pa005a343c4)" style="fill: #1f77b4"/>
   </g>
   <g id="patch_189">
    <path d="M 360.948361 273.312 
L 362.557212 273.312 
L 362.557212 214.250761 
L 360.948361 214.250761 
z
" clip-path="url(#pa005a343c4)" style="fill: #1f77b4"/>
   </g>
   <g id="patch_190">
    <path d="M 362.557212 273.312 
L 364.166064 273.312 
L 364.166064 218.736425 
L 362.557212 218.736425 
z
" clip-path="url(#pa005a343c4)" style="fill: #1f77b4"/>
   </g>
   <g id="patch_191">
    <path d="M 364.166064 273.312 
L 365.774915 273.312 
L 365.774915 217.241204 
L 364.166064 217.241204 
z
" clip-path="url(#pa005a343c4)" style="fill: #1f77b4"/>
   </g>
   <g id="patch_192">
    <path d="M 365.774915 273.312 
L 367.383766 273.312 
L 367.383766 238.174301 
L 365.774915 238.174301 
z
" clip-path="url(#pa005a343c4)" style="fill: #1f77b4"/>
   </g>
   <g id="patch_193">
    <path d="M 367.383766 273.312 
L 368.992617 273.312 
L 368.992617 234.436248 
L 367.383766 234.436248 
z
" clip-path="url(#pa005a343c4)" style="fill: #1f77b4"/>
   </g>
   <g id="patch_194">
    <path d="M 368.992617 273.312 
L 370.601468 273.312 
L 370.601468 244.155186 
L 368.992617 244.155186 
z
" clip-path="url(#pa005a343c4)" style="fill: #1f77b4"/>
   </g>
   <g id="patch_195">
    <path d="M 370.601468 273.312 
L 372.210319 273.312 
L 372.210319 248.64085 
L 370.601468 248.64085 
z
" clip-path="url(#pa005a343c4)" style="fill: #1f77b4"/>
   </g>
   <g id="patch_196">
    <path d="M 372.210319 273.312 
L 373.81917 273.312 
L 373.81917 245.650407 
L 372.210319 245.650407 
z
" clip-path="url(#pa005a343c4)" style="fill: #1f77b4"/>
   </g>
   <g id="patch_197">
    <path d="M 373.81917 273.312 
L 375.428022 273.312 
L 375.428022 251.631292 
L 373.81917 251.631292 
z
" clip-path="url(#pa005a343c4)" style="fill: #1f77b4"/>
   </g>
   <g id="patch_198">
    <path d="M 375.428022 273.312 
L 377.036873 273.312 
L 377.036873 248.64085 
L 375.428022 248.64085 
z
" clip-path="url(#pa005a343c4)" style="fill: #1f77b4"/>
   </g>
   <g id="patch_199">
    <path d="M 377.036873 273.312 
L 378.645724 273.312 
L 378.645724 253.874124 
L 377.036873 253.874124 
z
" clip-path="url(#pa005a343c4)" style="fill: #1f77b4"/>
   </g>
   <g id="patch_200">
    <path d="M 378.645724 273.312 
L 380.254575 273.312 
L 380.254575 265.088283 
L 378.645724 265.088283 
z
" clip-path="url(#pa005a343c4)" style="fill: #1f77b4"/>
   </g>
   <g id="patch_201">
    <path d="M 380.254575 273.312 
L 381.863426 273.312 
L 381.863426 265.835894 
L 380.254575 265.835894 
z
" clip-path="url(#pa005a343c4)" style="fill: #1f77b4"/>
   </g>
   <g id="patch_202">
    <path d="M 381.863426 273.312 
L 383.472277 273.312 
L 383.472277 268.826336 
L 381.863426 268.826336 
z
" clip-path="url(#pa005a343c4)" style="fill: #1f77b4"/>
   </g>
   <g id="matplotlib.axis_1">
    <g id="xtick_1">
     <g id="line2d_1">
      <defs>
       <path id="m74b0056a4f" d="M 0 0 
L 0 3.5 
" style="stroke: #000000; stroke-width: 0.8"/>
      </defs>
      <g>
       <use xlink:href="#m74b0056a4f" x="60.013977" y="273.312" style="stroke: #000000; stroke-width: 0.8"/>
      </g>
     </g>
     <g id="text_1">
      <!-- 0.0 -->
      <g transform="translate(52.062415 287.910437)scale(0.1 -0.1)">
       <defs>
        <path id="DejaVuSans-30" d="M 2034 4250 
Q 1547 4250 1301 3770 
Q 1056 3291 1056 2328 
Q 1056 1369 1301 889 
Q 1547 409 2034 409 
Q 2525 409 2770 889 
Q 3016 1369 3016 2328 
Q 3016 3291 2770 3770 
Q 2525 4250 2034 4250 
z
M 2034 4750 
Q 2819 4750 3233 4129 
Q 3647 3509 3647 2328 
Q 3647 1150 3233 529 
Q 2819 -91 2034 -91 
Q 1250 -91 836 529 
Q 422 1150 422 2328 
Q 422 3509 836 4129 
Q 1250 4750 2034 4750 
z
" transform="scale(0.015625)"/>
        <path id="DejaVuSans-2e" d="M 684 794 
L 1344 794 
L 1344 0 
L 684 0 
L 684 794 
z
" transform="scale(0.015625)"/>
       </defs>
       <use xlink:href="#DejaVuSans-30"/>
       <use xlink:href="#DejaVuSans-2e" x="63.623047"/>
       <use xlink:href="#DejaVuSans-30" x="95.410156"/>
      </g>
     </g>
    </g>
    <g id="xtick_2">
     <g id="line2d_2">
      <g>
       <use xlink:href="#m74b0056a4f" x="101.350278" y="273.312" style="stroke: #000000; stroke-width: 0.8"/>
      </g>
     </g>
     <g id="text_2">
      <!-- 0.2 -->
      <g transform="translate(93.398715 287.910437)scale(0.1 -0.1)">
       <defs>
        <path id="DejaVuSans-32" d="M 1228 531 
L 3431 531 
L 3431 0 
L 469 0 
L 469 531 
Q 828 903 1448 1529 
Q 2069 2156 2228 2338 
Q 2531 2678 2651 2914 
Q 2772 3150 2772 3378 
Q 2772 3750 2511 3984 
Q 2250 4219 1831 4219 
Q 1534 4219 1204 4116 
Q 875 4013 500 3803 
L 500 4441 
Q 881 4594 1212 4672 
Q 1544 4750 1819 4750 
Q 2544 4750 2975 4387 
Q 3406 4025 3406 3419 
Q 3406 3131 3298 2873 
Q 3191 2616 2906 2266 
Q 2828 2175 2409 1742 
Q 1991 1309 1228 531 
z
" transform="scale(0.015625)"/>
       </defs>
       <use xlink:href="#DejaVuSans-30"/>
       <use xlink:href="#DejaVuSans-2e" x="63.623047"/>
       <use xlink:href="#DejaVuSans-32" x="95.410156"/>
      </g>
     </g>
    </g>
    <g id="xtick_3">
     <g id="line2d_3">
      <g>
       <use xlink:href="#m74b0056a4f" x="142.686578" y="273.312" style="stroke: #000000; stroke-width: 0.8"/>
      </g>
     </g>
     <g id="text_3">
      <!-- 0.4 -->
      <g transform="translate(134.735016 287.910437)scale(0.1 -0.1)">
       <defs>
        <path id="DejaVuSans-34" d="M 2419 4116 
L 825 1625 
L 2419 1625 
L 2419 4116 
z
M 2253 4666 
L 3047 4666 
L 3047 1625 
L 3713 1625 
L 3713 1100 
L 3047 1100 
L 3047 0 
L 2419 0 
L 2419 1100 
L 313 1100 
L 313 1709 
L 2253 4666 
z
" transform="scale(0.015625)"/>
       </defs>
       <use xlink:href="#DejaVuSans-30"/>
       <use xlink:href="#DejaVuSans-2e" x="63.623047"/>
       <use xlink:href="#DejaVuSans-34" x="95.410156"/>
      </g>
     </g>
    </g>
    <g id="xtick_4">
     <g id="line2d_4">
      <g>
       <use xlink:href="#m74b0056a4f" x="184.022879" y="273.312" style="stroke: #000000; stroke-width: 0.8"/>
      </g>
     </g>
     <g id="text_4">
      <!-- 0.6 -->
      <g transform="translate(176.071316 287.910437)scale(0.1 -0.1)">
       <defs>
        <path id="DejaVuSans-36" d="M 2113 2584 
Q 1688 2584 1439 2293 
Q 1191 2003 1191 1497 
Q 1191 994 1439 701 
Q 1688 409 2113 409 
Q 2538 409 2786 701 
Q 3034 994 3034 1497 
Q 3034 2003 2786 2293 
Q 2538 2584 2113 2584 
z
M 3366 4563 
L 3366 3988 
Q 3128 4100 2886 4159 
Q 2644 4219 2406 4219 
Q 1781 4219 1451 3797 
Q 1122 3375 1075 2522 
Q 1259 2794 1537 2939 
Q 1816 3084 2150 3084 
Q 2853 3084 3261 2657 
Q 3669 2231 3669 1497 
Q 3669 778 3244 343 
Q 2819 -91 2113 -91 
Q 1303 -91 875 529 
Q 447 1150 447 2328 
Q 447 3434 972 4092 
Q 1497 4750 2381 4750 
Q 2619 4750 2861 4703 
Q 3103 4656 3366 4563 
z
" transform="scale(0.015625)"/>
       </defs>
       <use xlink:href="#DejaVuSans-30"/>
       <use xlink:href="#DejaVuSans-2e" x="63.623047"/>
       <use xlink:href="#DejaVuSans-36" x="95.410156"/>
      </g>
     </g>
    </g>
    <g id="xtick_5">
     <g id="line2d_5">
      <g>
       <use xlink:href="#m74b0056a4f" x="225.35918" y="273.312" style="stroke: #000000; stroke-width: 0.8"/>
      </g>
     </g>
     <g id="text_5">
      <!-- 0.8 -->
      <g transform="translate(217.407617 287.910437)scale(0.1 -0.1)">
       <defs>
        <path id="DejaVuSans-38" d="M 2034 2216 
Q 1584 2216 1326 1975 
Q 1069 1734 1069 1313 
Q 1069 891 1326 650 
Q 1584 409 2034 409 
Q 2484 409 2743 651 
Q 3003 894 3003 1313 
Q 3003 1734 2745 1975 
Q 2488 2216 2034 2216 
z
M 1403 2484 
Q 997 2584 770 2862 
Q 544 3141 544 3541 
Q 544 4100 942 4425 
Q 1341 4750 2034 4750 
Q 2731 4750 3128 4425 
Q 3525 4100 3525 3541 
Q 3525 3141 3298 2862 
Q 3072 2584 2669 2484 
Q 3125 2378 3379 2068 
Q 3634 1759 3634 1313 
Q 3634 634 3220 271 
Q 2806 -91 2034 -91 
Q 1263 -91 848 271 
Q 434 634 434 1313 
Q 434 1759 690 2068 
Q 947 2378 1403 2484 
z
M 1172 3481 
Q 1172 3119 1398 2916 
Q 1625 2713 2034 2713 
Q 2441 2713 2670 2916 
Q 2900 3119 2900 3481 
Q 2900 3844 2670 4047 
Q 2441 4250 2034 4250 
Q 1625 4250 1398 4047 
Q 1172 3844 1172 3481 
z
" transform="scale(0.015625)"/>
       </defs>
       <use xlink:href="#DejaVuSans-30"/>
       <use xlink:href="#DejaVuSans-2e" x="63.623047"/>
       <use xlink:href="#DejaVuSans-38" x="95.410156"/>
      </g>
     </g>
    </g>
    <g id="xtick_6">
     <g id="line2d_6">
      <g>
       <use xlink:href="#m74b0056a4f" x="266.69548" y="273.312" style="stroke: #000000; stroke-width: 0.8"/>
      </g>
     </g>
     <g id="text_6">
      <!-- 1.0 -->
      <g transform="translate(258.743918 287.910437)scale(0.1 -0.1)">
       <defs>
        <path id="DejaVuSans-31" d="M 794 531 
L 1825 531 
L 1825 4091 
L 703 3866 
L 703 4441 
L 1819 4666 
L 2450 4666 
L 2450 531 
L 3481 531 
L 3481 0 
L 794 0 
L 794 531 
z
" transform="scale(0.015625)"/>
       </defs>
       <use xlink:href="#DejaVuSans-31"/>
       <use xlink:href="#DejaVuSans-2e" x="63.623047"/>
       <use xlink:href="#DejaVuSans-30" x="95.410156"/>
      </g>
     </g>
    </g>
    <g id="xtick_7">
     <g id="line2d_7">
      <g>
       <use xlink:href="#m74b0056a4f" x="308.031781" y="273.312" style="stroke: #000000; stroke-width: 0.8"/>
      </g>
     </g>
     <g id="text_7">
      <!-- 1.2 -->
      <g transform="translate(300.080218 287.910437)scale(0.1 -0.1)">
       <use xlink:href="#DejaVuSans-31"/>
       <use xlink:href="#DejaVuSans-2e" x="63.623047"/>
       <use xlink:href="#DejaVuSans-32" x="95.410156"/>
      </g>
     </g>
    </g>
    <g id="xtick_8">
     <g id="line2d_8">
      <g>
       <use xlink:href="#m74b0056a4f" x="349.368081" y="273.312" style="stroke: #000000; stroke-width: 0.8"/>
      </g>
     </g>
     <g id="text_8">
      <!-- 1.4 -->
      <g transform="translate(341.416519 287.910437)scale(0.1 -0.1)">
       <use xlink:href="#DejaVuSans-31"/>
       <use xlink:href="#DejaVuSans-2e" x="63.623047"/>
       <use xlink:href="#DejaVuSans-34" x="95.410156"/>
      </g>
     </g>
    </g>
    <g id="xtick_9">
     <g id="line2d_9">
      <g>
       <use xlink:href="#m74b0056a4f" x="390.704382" y="273.312" style="stroke: #000000; stroke-width: 0.8"/>
      </g>
     </g>
     <g id="text_9">
      <!-- 1.6 -->
      <g transform="translate(382.752819 287.910437)scale(0.1 -0.1)">
       <use xlink:href="#DejaVuSans-31"/>
       <use xlink:href="#DejaVuSans-2e" x="63.623047"/>
       <use xlink:href="#DejaVuSans-36" x="95.410156"/>
      </g>
     </g>
    </g>
    <g id="text_10">
     <!-- Angle with normal (rad) -->
     <g transform="translate(163.023281 301.588562)scale(0.1 -0.1)">
      <defs>
       <path id="DejaVuSans-41" d="M 2188 4044 
L 1331 1722 
L 3047 1722 
L 2188 4044 
z
M 1831 4666 
L 2547 4666 
L 4325 0 
L 3669 0 
L 3244 1197 
L 1141 1197 
L 716 0 
L 50 0 
L 1831 4666 
z
" transform="scale(0.015625)"/>
       <path id="DejaVuSans-6e" d="M 3513 2113 
L 3513 0 
L 2938 0 
L 2938 2094 
Q 2938 2591 2744 2837 
Q 2550 3084 2163 3084 
Q 1697 3084 1428 2787 
Q 1159 2491 1159 1978 
L 1159 0 
L 581 0 
L 581 3500 
L 1159 3500 
L 1159 2956 
Q 1366 3272 1645 3428 
Q 1925 3584 2291 3584 
Q 2894 3584 3203 3211 
Q 3513 2838 3513 2113 
z
" transform="scale(0.015625)"/>
       <path id="DejaVuSans-67" d="M 2906 1791 
Q 2906 2416 2648 2759 
Q 2391 3103 1925 3103 
Q 1463 3103 1205 2759 
Q 947 2416 947 1791 
Q 947 1169 1205 825 
Q 1463 481 1925 481 
Q 2391 481 2648 825 
Q 2906 1169 2906 1791 
z
M 3481 434 
Q 3481 -459 3084 -895 
Q 2688 -1331 1869 -1331 
Q 1566 -1331 1297 -1286 
Q 1028 -1241 775 -1147 
L 775 -588 
Q 1028 -725 1275 -790 
Q 1522 -856 1778 -856 
Q 2344 -856 2625 -561 
Q 2906 -266 2906 331 
L 2906 616 
Q 2728 306 2450 153 
Q 2172 0 1784 0 
Q 1141 0 747 490 
Q 353 981 353 1791 
Q 353 2603 747 3093 
Q 1141 3584 1784 3584 
Q 2172 3584 2450 3431 
Q 2728 3278 2906 2969 
L 2906 3500 
L 3481 3500 
L 3481 434 
z
" transform="scale(0.015625)"/>
       <path id="DejaVuSans-6c" d="M 603 4863 
L 1178 4863 
L 1178 0 
L 603 0 
L 603 4863 
z
" transform="scale(0.015625)"/>
       <path id="DejaVuSans-65" d="M 3597 1894 
L 3597 1613 
L 953 1613 
Q 991 1019 1311 708 
Q 1631 397 2203 397 
Q 2534 397 2845 478 
Q 3156 559 3463 722 
L 3463 178 
Q 3153 47 2828 -22 
Q 2503 -91 2169 -91 
Q 1331 -91 842 396 
Q 353 884 353 1716 
Q 353 2575 817 3079 
Q 1281 3584 2069 3584 
Q 2775 3584 3186 3129 
Q 3597 2675 3597 1894 
z
M 3022 2063 
Q 3016 2534 2758 2815 
Q 2500 3097 2075 3097 
Q 1594 3097 1305 2825 
Q 1016 2553 972 2059 
L 3022 2063 
z
" transform="scale(0.015625)"/>
       <path id="DejaVuSans-20" transform="scale(0.015625)"/>
       <path id="DejaVuSans-77" d="M 269 3500 
L 844 3500 
L 1563 769 
L 2278 3500 
L 2956 3500 
L 3675 769 
L 4391 3500 
L 4966 3500 
L 4050 0 
L 3372 0 
L 2619 2869 
L 1863 0 
L 1184 0 
L 269 3500 
z
" transform="scale(0.015625)"/>
       <path id="DejaVuSans-69" d="M 603 3500 
L 1178 3500 
L 1178 0 
L 603 0 
L 603 3500 
z
M 603 4863 
L 1178 4863 
L 1178 4134 
L 603 4134 
L 603 4863 
z
" transform="scale(0.015625)"/>
       <path id="DejaVuSans-74" d="M 1172 4494 
L 1172 3500 
L 2356 3500 
L 2356 3053 
L 1172 3053 
L 1172 1153 
Q 1172 725 1289 603 
Q 1406 481 1766 481 
L 2356 481 
L 2356 0 
L 1766 0 
Q 1100 0 847 248 
Q 594 497 594 1153 
L 594 3053 
L 172 3053 
L 172 3500 
L 594 3500 
L 594 4494 
L 1172 4494 
z
" transform="scale(0.015625)"/>
       <path id="DejaVuSans-68" d="M 3513 2113 
L 3513 0 
L 2938 0 
L 2938 2094 
Q 2938 2591 2744 2837 
Q 2550 3084 2163 3084 
Q 1697 3084 1428 2787 
Q 1159 2491 1159 1978 
L 1159 0 
L 581 0 
L 581 4863 
L 1159 4863 
L 1159 2956 
Q 1366 3272 1645 3428 
Q 1925 3584 2291 3584 
Q 2894 3584 3203 3211 
Q 3513 2838 3513 2113 
z
" transform="scale(0.015625)"/>
       <path id="DejaVuSans-6f" d="M 1959 3097 
Q 1497 3097 1228 2736 
Q 959 2375 959 1747 
Q 959 1119 1226 758 
Q 1494 397 1959 397 
Q 2419 397 2687 759 
Q 2956 1122 2956 1747 
Q 2956 2369 2687 2733 
Q 2419 3097 1959 3097 
z
M 1959 3584 
Q 2709 3584 3137 3096 
Q 3566 2609 3566 1747 
Q 3566 888 3137 398 
Q 2709 -91 1959 -91 
Q 1206 -91 779 398 
Q 353 888 353 1747 
Q 353 2609 779 3096 
Q 1206 3584 1959 3584 
z
" transform="scale(0.015625)"/>
       <path id="DejaVuSans-72" d="M 2631 2963 
Q 2534 3019 2420 3045 
Q 2306 3072 2169 3072 
Q 1681 3072 1420 2755 
Q 1159 2438 1159 1844 
L 1159 0 
L 581 0 
L 581 3500 
L 1159 3500 
L 1159 2956 
Q 1341 3275 1631 3429 
Q 1922 3584 2338 3584 
Q 2397 3584 2469 3576 
Q 2541 3569 2628 3553 
L 2631 2963 
z
" transform="scale(0.015625)"/>
       <path id="DejaVuSans-6d" d="M 3328 2828 
Q 3544 3216 3844 3400 
Q 4144 3584 4550 3584 
Q 5097 3584 5394 3201 
Q 5691 2819 5691 2113 
L 5691 0 
L 5113 0 
L 5113 2094 
Q 5113 2597 4934 2840 
Q 4756 3084 4391 3084 
Q 3944 3084 3684 2787 
Q 3425 2491 3425 1978 
L 3425 0 
L 2847 0 
L 2847 2094 
Q 2847 2600 2669 2842 
Q 2491 3084 2119 3084 
Q 1678 3084 1418 2786 
Q 1159 2488 1159 1978 
L 1159 0 
L 581 0 
L 581 3500 
L 1159 3500 
L 1159 2956 
Q 1356 3278 1631 3431 
Q 1906 3584 2284 3584 
Q 2666 3584 2933 3390 
Q 3200 3197 3328 2828 
z
" transform="scale(0.015625)"/>
       <path id="DejaVuSans-61" d="M 2194 1759 
Q 1497 1759 1228 1600 
Q 959 1441 959 1056 
Q 959 750 1161 570 
Q 1363 391 1709 391 
Q 2188 391 2477 730 
Q 2766 1069 2766 1631 
L 2766 1759 
L 2194 1759 
z
M 3341 1997 
L 3341 0 
L 2766 0 
L 2766 531 
Q 2569 213 2275 61 
Q 1981 -91 1556 -91 
Q 1019 -91 701 211 
Q 384 513 384 1019 
Q 384 1609 779 1909 
Q 1175 2209 1959 2209 
L 2766 2209 
L 2766 2266 
Q 2766 2663 2505 2880 
Q 2244 3097 1772 3097 
Q 1472 3097 1187 3025 
Q 903 2953 641 2809 
L 641 3341 
Q 956 3463 1253 3523 
Q 1550 3584 1831 3584 
Q 2591 3584 2966 3190 
Q 3341 2797 3341 1997 
z
" transform="scale(0.015625)"/>
       <path id="DejaVuSans-28" d="M 1984 4856 
Q 1566 4138 1362 3434 
Q 1159 2731 1159 2009 
Q 1159 1288 1364 580 
Q 1569 -128 1984 -844 
L 1484 -844 
Q 1016 -109 783 600 
Q 550 1309 550 2009 
Q 550 2706 781 3412 
Q 1013 4119 1484 4856 
L 1984 4856 
z
" transform="scale(0.015625)"/>
       <path id="DejaVuSans-64" d="M 2906 2969 
L 2906 4863 
L 3481 4863 
L 3481 0 
L 2906 0 
L 2906 525 
Q 2725 213 2448 61 
Q 2172 -91 1784 -91 
Q 1150 -91 751 415 
Q 353 922 353 1747 
Q 353 2572 751 3078 
Q 1150 3584 1784 3584 
Q 2172 3584 2448 3432 
Q 2725 3281 2906 2969 
z
M 947 1747 
Q 947 1113 1208 752 
Q 1469 391 1925 391 
Q 2381 391 2643 752 
Q 2906 1113 2906 1747 
Q 2906 2381 2643 2742 
Q 2381 3103 1925 3103 
Q 1469 3103 1208 2742 
Q 947 2381 947 1747 
z
" transform="scale(0.015625)"/>
       <path id="DejaVuSans-29" d="M 513 4856 
L 1013 4856 
Q 1481 4119 1714 3412 
Q 1947 2706 1947 2009 
Q 1947 1309 1714 600 
Q 1481 -109 1013 -844 
L 513 -844 
Q 928 -128 1133 580 
Q 1338 1288 1338 2009 
Q 1338 2731 1133 3434 
Q 928 4138 513 4856 
z
" transform="scale(0.015625)"/>
      </defs>
      <use xlink:href="#DejaVuSans-41"/>
      <use xlink:href="#DejaVuSans-6e" x="68.408203"/>
      <use xlink:href="#DejaVuSans-67" x="131.787109"/>
      <use xlink:href="#DejaVuSans-6c" x="195.263672"/>
      <use xlink:href="#DejaVuSans-65" x="223.046875"/>
      <use xlink:href="#DejaVuSans-20" x="284.570312"/>
      <use xlink:href="#DejaVuSans-77" x="316.357422"/>
      <use xlink:href="#DejaVuSans-69" x="398.144531"/>
      <use xlink:href="#DejaVuSans-74" x="425.927734"/>
      <use xlink:href="#DejaVuSans-68" x="465.136719"/>
      <use xlink:href="#DejaVuSans-20" x="528.515625"/>
      <use xlink:href="#DejaVuSans-6e" x="560.302734"/>
      <use xlink:href="#DejaVuSans-6f" x="623.681641"/>
      <use xlink:href="#DejaVuSans-72" x="684.863281"/>
      <use xlink:href="#DejaVuSans-6d" x="724.226562"/>
      <use xlink:href="#DejaVuSans-61" x="821.638672"/>
      <use xlink:href="#DejaVuSans-6c" x="882.917969"/>
      <use xlink:href="#DejaVuSans-20" x="910.701172"/>
      <use xlink:href="#DejaVuSans-28" x="942.488281"/>
      <use xlink:href="#DejaVuSans-72" x="981.501953"/>
      <use xlink:href="#DejaVuSans-61" x="1022.615234"/>
      <use xlink:href="#DejaVuSans-64" x="1083.894531"/>
      <use xlink:href="#DejaVuSans-29" x="1147.371094"/>
     </g>
    </g>
   </g>
   <g id="matplotlib.axis_2">
    <g id="ytick_1">
     <g id="line2d_10">
      <defs>
       <path id="m8471b36616" d="M 0 0 
L -3.5 0 
" style="stroke: #000000; stroke-width: 0.8"/>
      </defs>
      <g>
       <use xlink:href="#m8471b36616" x="43.78125" y="273.312" style="stroke: #000000; stroke-width: 0.8"/>
      </g>
     </g>
     <g id="text_11">
      <!-- 0.0 -->
      <g transform="translate(20.878125 277.111219)scale(0.1 -0.1)">
       <use xlink:href="#DejaVuSans-30"/>
       <use xlink:href="#DejaVuSans-2e" x="63.623047"/>
       <use xlink:href="#DejaVuSans-30" x="95.410156"/>
      </g>
     </g>
    </g>
    <g id="ytick_2">
     <g id="line2d_11">
      <g>
       <use xlink:href="#m8471b36616" x="43.78125" y="226.755567" style="stroke: #000000; stroke-width: 0.8"/>
      </g>
     </g>
     <g id="text_12">
      <!-- 0.2 -->
      <g transform="translate(20.878125 230.554785)scale(0.1 -0.1)">
       <use xlink:href="#DejaVuSans-30"/>
       <use xlink:href="#DejaVuSans-2e" x="63.623047"/>
       <use xlink:href="#DejaVuSans-32" x="95.410156"/>
      </g>
     </g>
    </g>
    <g id="ytick_3">
     <g id="line2d_12">
      <g>
       <use xlink:href="#m8471b36616" x="43.78125" y="180.199133" style="stroke: #000000; stroke-width: 0.8"/>
      </g>
     </g>
     <g id="text_13">
      <!-- 0.4 -->
      <g transform="translate(20.878125 183.998352)scale(0.1 -0.1)">
       <use xlink:href="#DejaVuSans-30"/>
       <use xlink:href="#DejaVuSans-2e" x="63.623047"/>
       <use xlink:href="#DejaVuSans-34" x="95.410156"/>
      </g>
     </g>
    </g>
    <g id="ytick_4">
     <g id="line2d_13">
      <g>
       <use xlink:href="#m8471b36616" x="43.78125" y="133.6427" style="stroke: #000000; stroke-width: 0.8"/>
      </g>
     </g>
     <g id="text_14">
      <!-- 0.6 -->
      <g transform="translate(20.878125 137.441919)scale(0.1 -0.1)">
       <use xlink:href="#DejaVuSans-30"/>
       <use xlink:href="#DejaVuSans-2e" x="63.623047"/>
       <use xlink:href="#DejaVuSans-36" x="95.410156"/>
      </g>
     </g>
    </g>
    <g id="ytick_5">
     <g id="line2d_14">
      <g>
       <use xlink:href="#m8471b36616" x="43.78125" y="87.086267" style="stroke: #000000; stroke-width: 0.8"/>
      </g>
     </g>
     <g id="text_15">
      <!-- 0.8 -->
      <g transform="translate(20.878125 90.885485)scale(0.1 -0.1)">
       <use xlink:href="#DejaVuSans-30"/>
       <use xlink:href="#DejaVuSans-2e" x="63.623047"/>
       <use xlink:href="#DejaVuSans-38" x="95.410156"/>
      </g>
     </g>
    </g>
    <g id="ytick_6">
     <g id="line2d_15">
      <g>
       <use xlink:href="#m8471b36616" x="43.78125" y="40.529833" style="stroke: #000000; stroke-width: 0.8"/>
      </g>
     </g>
     <g id="text_16">
      <!-- 1.0 -->
      <g transform="translate(20.878125 44.329052)scale(0.1 -0.1)">
       <use xlink:href="#DejaVuSans-31"/>
       <use xlink:href="#DejaVuSans-2e" x="63.623047"/>
       <use xlink:href="#DejaVuSans-30" x="95.410156"/>
      </g>
     </g>
    </g>
    <g id="text_17">
     <!-- Probability density -->
     <g transform="translate(14.798438 186.606781)rotate(-90)scale(0.1 -0.1)">
      <defs>
       <path id="DejaVuSans-50" d="M 1259 4147 
L 1259 2394 
L 2053 2394 
Q 2494 2394 2734 2622 
Q 2975 2850 2975 3272 
Q 2975 3691 2734 3919 
Q 2494 4147 2053 4147 
L 1259 4147 
z
M 628 4666 
L 2053 4666 
Q 2838 4666 3239 4311 
Q 3641 3956 3641 3272 
Q 3641 2581 3239 2228 
Q 2838 1875 2053 1875 
L 1259 1875 
L 1259 0 
L 628 0 
L 628 4666 
z
" transform="scale(0.015625)"/>
       <path id="DejaVuSans-62" d="M 3116 1747 
Q 3116 2381 2855 2742 
Q 2594 3103 2138 3103 
Q 1681 3103 1420 2742 
Q 1159 2381 1159 1747 
Q 1159 1113 1420 752 
Q 1681 391 2138 391 
Q 2594 391 2855 752 
Q 3116 1113 3116 1747 
z
M 1159 2969 
Q 1341 3281 1617 3432 
Q 1894 3584 2278 3584 
Q 2916 3584 3314 3078 
Q 3713 2572 3713 1747 
Q 3713 922 3314 415 
Q 2916 -91 2278 -91 
Q 1894 -91 1617 61 
Q 1341 213 1159 525 
L 1159 0 
L 581 0 
L 581 4863 
L 1159 4863 
L 1159 2969 
z
" transform="scale(0.015625)"/>
       <path id="DejaVuSans-79" d="M 2059 -325 
Q 1816 -950 1584 -1140 
Q 1353 -1331 966 -1331 
L 506 -1331 
L 506 -850 
L 844 -850 
Q 1081 -850 1212 -737 
Q 1344 -625 1503 -206 
L 1606 56 
L 191 3500 
L 800 3500 
L 1894 763 
L 2988 3500 
L 3597 3500 
L 2059 -325 
z
" transform="scale(0.015625)"/>
       <path id="DejaVuSans-73" d="M 2834 3397 
L 2834 2853 
Q 2591 2978 2328 3040 
Q 2066 3103 1784 3103 
Q 1356 3103 1142 2972 
Q 928 2841 928 2578 
Q 928 2378 1081 2264 
Q 1234 2150 1697 2047 
L 1894 2003 
Q 2506 1872 2764 1633 
Q 3022 1394 3022 966 
Q 3022 478 2636 193 
Q 2250 -91 1575 -91 
Q 1294 -91 989 -36 
Q 684 19 347 128 
L 347 722 
Q 666 556 975 473 
Q 1284 391 1588 391 
Q 1994 391 2212 530 
Q 2431 669 2431 922 
Q 2431 1156 2273 1281 
Q 2116 1406 1581 1522 
L 1381 1569 
Q 847 1681 609 1914 
Q 372 2147 372 2553 
Q 372 3047 722 3315 
Q 1072 3584 1716 3584 
Q 2034 3584 2315 3537 
Q 2597 3491 2834 3397 
z
" transform="scale(0.015625)"/>
      </defs>
      <use xlink:href="#DejaVuSans-50"/>
      <use xlink:href="#DejaVuSans-72" x="58.552734"/>
      <use xlink:href="#DejaVuSans-6f" x="97.416016"/>
      <use xlink:href="#DejaVuSans-62" x="158.597656"/>
      <use xlink:href="#DejaVuSans-61" x="222.074219"/>
      <use xlink:href="#DejaVuSans-62" x="283.353516"/>
      <use xlink:href="#DejaVuSans-69" x="346.830078"/>
      <use xlink:href="#DejaVuSans-6c" x="374.613281"/>
      <use xlink:href="#DejaVuSans-69" x="402.396484"/>
      <use xlink:href="#DejaVuSans-74" x="430.179688"/>
      <use xlink:href="#DejaVuSans-79" x="469.388672"/>
      <use xlink:href="#DejaVuSans-20" x="528.568359"/>
      <use xlink:href="#DejaVuSans-64" x="560.355469"/>
      <use xlink:href="#DejaVuSans-65" x="623.832031"/>
      <use xlink:href="#DejaVuSans-6e" x="685.355469"/>
      <use xlink:href="#DejaVuSans-73" x="748.734375"/>
      <use xlink:href="#DejaVuSans-69" x="800.833984"/>
      <use xlink:href="#DejaVuSans-74" x="828.617188"/>
      <use xlink:href="#DejaVuSans-79" x="867.826172"/>
     </g>
    </g>
   </g>
   <g id="line2d_16">
    <path d="M 60.013977 273.312 
L 79.837728 228.930999 
L 90.237073 206.198762 
L 99.01152 187.537499 
L 106.811029 171.464446 
L 113.960578 157.238042 
L 120.460169 144.785133 
L 126.63478 133.424901 
L 132.484411 123.122474 
L 138.009063 113.833615 
L 143.208736 105.506967 
L 148.408408 97.605058 
L 153.283101 90.600569 
L 157.832814 84.42948 
L 162.382528 78.624447 
L 166.607261 73.571672 
L 170.831995 68.852677 
L 175.056729 64.475349 
L 178.956483 60.744328 
L 182.856238 57.315982 
L 186.755992 54.195193 
L 190.330767 51.608453 
L 193.905542 49.28698 
L 197.480316 47.233552 
L 201.055091 45.450625 
L 204.304886 44.066317 
L 207.554682 42.9087 
L 210.804477 41.978919 
L 214.054272 41.277893 
L 217.304067 40.806315 
L 220.553863 40.564651 
L 223.803658 40.553141 
L 227.053453 40.771796 
L 230.303248 41.2204 
L 233.553044 41.898509 
L 236.802839 42.805453 
L 240.052634 43.940334 
L 243.302429 45.302031 
L 246.552225 46.889197 
L 250.126999 48.893616 
L 253.701774 51.16655 
L 257.276549 53.705281 
L 260.851324 56.50677 
L 264.751078 59.858667 
L 268.650832 63.514501 
L 272.550587 67.469066 
L 276.77532 72.083746 
L 281.000054 77.034692 
L 285.224788 82.313633 
L 289.774501 88.355324 
L 294.324215 94.755462 
L 299.198908 101.996414 
L 304.39858 110.13977 
L 309.598252 118.696139 
L 315.122904 128.215577 
L 320.972536 138.746272 
L 327.147147 150.328947 
L 333.646737 162.994617 
L 340.796287 177.428735 
L 348.595795 193.69581 
L 357.370243 212.533389 
L 367.769587 235.41541 
L 382.393666 268.188142 
L 384.668523 273.312 
L 384.668523 273.312 
" clip-path="url(#pa005a343c4)" style="fill: none; stroke: #ff7f0e; stroke-width: 1.5; stroke-linecap: square"/>
   </g>
   <g id="patch_203">
    <path d="M 43.78125 273.312 
L 43.78125 7.2 
" style="fill: none; stroke: #000000; stroke-width: 0.8; stroke-linejoin: miter; stroke-linecap: square"/>
   </g>
   <g id="patch_204">
    <path d="M 400.90125 273.312 
L 400.90125 7.2 
" style="fill: none; stroke: #000000; stroke-width: 0.8; stroke-linejoin: miter; stroke-linecap: square"/>
   </g>
   <g id="patch_205">
    <path d="M 43.78125 273.312 
L 400.90125 273.312 
" style="fill: none; stroke: #000000; stroke-width: 0.8; stroke-linejoin: miter; stroke-linecap: square"/>
   </g>
   <g id="patch_206">
    <path d="M 43.78125 7.2 
L 400.90125 7.2 
" style="fill: none; stroke: #000000; stroke-width: 0.8; stroke-linejoin: miter; stroke-linecap: square"/>
   </g>
  </g>
 </g>
 <defs>
  <clipPath id="pa005a343c4">
   <rect x="43.78125" y="7.2" width="357.12" height="266.112"/>
  </clipPath>
 </defs>
</svg>
